<mxfile host="Electron" modified="2024-04-19T10:53:32.797Z" agent="Mozilla/5.0 (Windows NT 10.0; Win64; x64) AppleWebKit/537.36 (KHTML, like Gecko) draw.io/24.2.5 Chrome/120.0.6099.109 Electron/28.1.0 Safari/537.36" etag="jzPKOLDNPDnkBCIjYGIj" scale="1" border="10" version="24.2.5" type="device">
  <diagram name="Page-1" id="KG3McziWTwCD19KJNF4W">
    <mxGraphModel dx="1050" dy="631" grid="1" gridSize="10" guides="1" tooltips="1" connect="1" arrows="1" fold="1" page="1" pageScale="1" pageWidth="850" pageHeight="1100" math="0" shadow="0">
      <root>
        <mxCell id="0" />
        <mxCell id="1" parent="0" />
        <mxCell id="OpV2UFvNa62Xhtrnb1xq-9" value="" style="group" parent="1" vertex="1" connectable="0">
          <mxGeometry x="373.00000000000006" y="370" width="99" height="100" as="geometry" />
        </mxCell>
        <mxCell id="OpV2UFvNa62Xhtrnb1xq-3" value="" style="shape=image;verticalLabelPosition=bottom;labelBackgroundColor=default;verticalAlign=top;aspect=fixed;imageAspect=0;image=data:image/png,iVBORw0KGgoAAAANSUhEUgAAAGMAAABFCAYAAABezli+AAATyElEQVR4Ae1ch3tTR7bffwtb7mAgQNouycvb5GV3syQE3iNZeIGXJbsUY1uyZFNDLyYhYEwIEIot6cpdLrJlC/eCe++9yCq//c6MRpKFjIpl8Ob5+pvv6vaZ8zttzjnj32F9WzMU+N2a6cl6R7AOxhpignUw1sFYQxRYQ135N5YMO5b7A+xriMT+d2XNg8EIbrfDzpoNdjs138Tm94vnXHv/SfP671zTYLgIygGgY6vNjAXLDGYWxjE5N4jx2T6MzvRgdKYbY7O9mJjrx9T8CObMU1i0zsNmt7oBubZBWZNgENFtDgmg3xbrAiN663AZStpv4Entd7hdcQA3SvfiavFuXNLvwiX9X3Gl+HNcK/kSPxi+wn3TIeiaUlHTm4WByRbMmSecUsWly7eEkVS+TpW3xsAgznWpIovNjN7xOmjqU3GhaDuSpY04oY5EsjoMCk0slNJmKKUtUOnecjY6TtFuglwTiUS1DCc0MUjL24IM417U9KgxYx51SAoBbmV2ZzmF9P8WDK6SbLDZrFiwTKN9tBSPqo9DpYvHsSwZ5GoZVNJmpOrioZSikaKNQIo2fJkmg1IbBZUUh1QdgROHE2oZjmXLcK34E5R13MXYbDestkXY3KSQQOH94Ops0TLnVHPLARbK829cMoj7SCVRI+J0jVXhaZ0CJ3M3I1EdA4UmBkopzkl8hTYc1JYHwnXNdZ8MSikGSm0ckjTRkEuxuFH6Bco7MzA5NwC73crVIsmJQzIXFmdQ1n4Dk/ND7NzrUFdvFAwhDbQ3W6ZR0XkP3xfuhFy7ESmsRSFFK/Ob+K8CyAViJFK00VBoNyJJE4sM437GAFabxSEl3OA3DxQjNX8nescbnA5AKKXA27veGBguIGyYnOvHrzVHcDQ7DAptNFNDLq52cfqriB3INQFMqm4rEtXhOJm3jRl6JqE2G2bNo7hj3IMkaQue9/7qUGc2b/QL6bk3AoYLCDsGp5qRWbWXGWalRBIRGRJJ8AccAkWpjUYSqUOtDMWtNzFrHkNR6008qvkOZR03kd2QgLnFKactCSn1PV722sFwn8QNT7/AHeNuKKQYpGg5QVZTIrwBxL8XiWRNFJS6GDyq/g43DZ+jb6IRg9NN+OX53zE6283AIMlZze31g+GYTU/M9eCm4T0kacgrIu/If8PsjaihOKeStjLGKO/8CWRDphdG8aj6MFqGi357YJB6Iu6aXhjEg+qDSMgmd5U8pdDbhUDfyT0tGTSNiZhfnILFugiL1Yy8F+dQ0HKNCQRXr75DMcFKz2uTDKGeKEShb7sBpbQVKmnja7MPy4ND3hp5VzI8rUvAFHNlHRNCuw2Ng/n4uWo/C638tsCAHa0jxTiVvwOJ6kjINdyAvnoCt5pSEwG5Jhoq3SYUtV7EnHnSaaiJ8FabFSPT3Ug3fIzByVbntWA539dzqy4ZnJtccaAXg3qo60/ivukgzhZE4EjWBpzIDkOKhuYUq0n4pe+mGXpidhjScrejtu8ZKPQiOJ+HQcDsBs3C75m+RE2v5qXrvogb6PVVAIMpJJ5rsNtYkG/WLCKsvRid6cTobBfG53owONWE+n4JT2r+iXMFO5lbS9Ki0CwlXOhAkrF3yzUyqHRbcN+0DwOTjWwGTkB4bnw2bkdhazqe1CbCZrc4AfG8NxTHIQRDRDi5vh2b7UF9vxq5LSrmHv5g+B9cK/0CV4r/hKsln+F66R7cKt+PJ3XHUfjiPIrb0vG0/hjOF7wPuYYCgSsFRMZm72wGrwlnKjExOxypuhjcqzrIpGF+0aGWHGkqT4ISQORwvBgqw7XSD1jYXkiP572hOA4JGFysORhjM93Ib7mAi/qdUOrimWFUaGkeEYsUKRb0mx+TFxUHhTaKGVBV7nbcrtiLxzV/x8WiHYx43iWCiEwhDVJrotExNXKTIxzcH44kdRhOOFpqTjQemP6BlsECNrFz5TkEE71MTgHGxHwfzhfFY2Bide3GisAQXEJ7Ck2Xd9zFydxYHMsKY5M4JQGgJeL54nKKsG7EiawwKKRoXNLvQKouwulpKTQyZlMUGjL6MkZkIjQ1CmckqiOQmE0h8ygkqaMh18YhNWczLhe/jwfP/w+GjjvonahlNsDVZ5rAvaya3CHh99pgtS/iB8NnqO/Pcapf9/tC9TtoMERHicP6JuqZQVYQ52sotkQg+ALA23UCgDwcApNApN+RSFLLINfKcCr3bVws+hg/GvbgXuUBPKo+hKe1R6BrOgN96y2UtWeiqusBmgby0T1Wg4m5XixaZx16nudJ+Cz61SAI4gp3nMb6tEYJfes1R0jd5ZCIe0OxDxoMGhSlQBsGJFwo+hhypopIHYUiyspVzonscOZ23q74GvrWq3gxXISBqSaWWiWngHQ+5T4sLL1KxpUirpxQ1D9q4ljsfRNNqC2+F8+VtN7F/effvOT+ElCh2oICg6SBWtOgDqqc7VBqKYETmgCfUktxogim63+u+gatw8WM4JR04tLIjSqFK3jYm/eFE82d+O75bn8Ixu8ncBetc+xbpMY4oHa0DJYgNScKD0yH0TZkgMU2z+6h66HaAgKDiCE61zlWicv6Txx5h5UBIULaHNBYXNH/Ac97nmDewqOlPBvnRnQfuj5Q4giQKbnVP1nP8uWcyK7x9k00QaWLw/EsGZK0EXj4/Ai6RisdRQ9CbfkD+vK9CwAMF6dNzPXhR8MuFukkj2alkVZ6nkLZCm0cMoxfo3vc5OQ6oSaWH8LKr4hvTM0PonW4yFlVQm8WzDc604GzeW+zPlKEOVkTg+8L/gB9202mLsV9K+mN32AIqTBbZ6FpUDIPhgz1SoEgQ6/UxiAxOwJ3KvZhaLqFhSEEgXx5PCsZPD0rpIL2lV0P0DZscALAr3Oun1rox4XC/0SymuwZd6+JeZK08Xhc+x2mF0aWPBdMvwIAg3eqbcSARA3llCkR5M0j8v8cB5LnEi7p32GzcwG6CEkEM6hAnhFg9I7X455pL4vYCvvkDsbc4iiuFH2GJDUvhKC+U1NJ8TiaFYZH1d+y+QvZMXpnMJtfYHAXj9KR4/i1+igSsiKY+7pSqeADisbp3O1oHsx3U03BDSZQAgjXdXphCPdNX6OhP89ZkCAkUoBltk7jmn6PA4ylcycqmJBr41H44rqHDQmsR/6B4XARu8YqcbZgJ1TSltCoJ4nsRDTUDSmsSjAUejeQ4ROhzZY55LVcwcPqw14JKcBYsEzgqv4Lp2R4agWakJ7K24GWIT1nKlvgXpbfYJCnUdpxHQopkpXOrFQqaDAk4ifz3kPbSCnjSO7BBELO4O8VwNf1ZeF80bvoGDM4JVNIBb1d2K5p8yAuFf4XkpjN8KaKI1jR3PWSv3BX3DHfCaSHPsEQnDFvmcbD6qMs1ODJFcEdU2VgBNINfwUFFcl9fR12gsZDQBBz9U6acK7wPWTVn4TZMsvmTp7EE6CNzLTjTN7bDg/SGxgUbZYhITsMlZ0PHaEX4fJ6vtX7sd9gUMj7WslnrN4oNFLBY1jZ9YlYWJzySgjvXV7ZWSIu5S6ah3JxOv893CjbjeGZNjdbsfT9AoyesVqodNGQvyLvQhNWihqkl/0Zk/ODrDqSwPd38xuM3okanM57yxF19c4ZgUgI5ZzJCzF23mN5AprRr+ZGUickonFQiwtFHyBZE4YXQ0VOLvb2fQHG8+5nSGKh/VeXlZJ0pOZsRduIkUt7SMFwxDap00qJvIiVT/I4aNGsIKFhIJd9gXTzamxCzQr1VNP7lI0jITscpu5fmZ3g3PsyB7s/q647B3rGV4qYItWJ6miUtN9isTtydf3dfEqGeFFjfx7krKwmFOlRyrhFI0EtYxFWMpirAYZwXSmXPTk/gLyWy1BIFAGOQ17LJadxXs5WCQDnF8fxg2EXTmTzyd6rNIBKimFxNaqQpDUiqwJGQ38uC+DxhM7K1RSFFI5nh6O2T01Bh5CCwUBwZO8I5NZhPe5W7keKtImFMbQNp5csDRAM57kXYLSPGCGXIlglvK/8DNkNyrP8VP41JueGWDTB3Tvz/Ib7sU/JIOGl1jxQwLJ2oQKDZvBHssJQ3hE6m7EEBNjZjDi3+QJUOTQvIvBlkBrPMIdBqCB3Ynj+JjtGxl5qPIejzzawsM2rpIJfi0CyWoYbJXswNtvH7FTowHBUANKE72QOpUopbbpyyaC41rGsDciuC86b8iS8UDVEQKqXre/X4mrJBwwASu+mSBtR1JoOu59FBQQWqTda9fR9wQdIVlMMjeJSvsYuY+qcVlCNzfSuDhgjM224WPhHFrUMBRgULqegW3rZX9h6POG1eHKn69gVNWZcLdQQszc0k57F0FQrKnsycdt4AErdRpYllGticanoIxi7fmaVKmIS53rvy7+EejJbaXZ+GfQOvkbEFxB0nSQjHOmle9nSNxpXyCWD4lIZlQfZPMM3d/jT6XAopU1Iy92BxsEcNs8gTnTfGPcvyda5AKEBUqaRFrs09hfgSW0CLug/gUpH2cYtbHKWrJEh03gI3eNVWLQuuHlO7l/x/G13zg86RytwvvD3Dnd+aTxqORpQKiBRHYYM4wG20JOP6WVPzfOrdOyHzeAKgQaT03yK5aipAGy5zgR2nlf0ZVYewtwiLYCkuQBPnQpJYVLgUJXUYcrCjUx3or4vB09qT+BU/hYcfkqFCdFI073L1Cipv7MF76Cs/Q5sdjNTFeJ93oggztFI6T5q85YJ/GjYy1Y6sYoTn+qJM6BKimVL1tQNKiatIfemBJEaByWk5m4DLTIJhari74hixQZZdQpMLQw7waBwxcLiNON8WmRJVX85TZfxU/lXSMuJwglNFBKyac4Th1Rph0N9xuJ84YfQNqRhYKrZMZnjBBYE97YXgBMIRLzx2W5kVn7L14ywpJd/ks4ZMRrJ2jiYep6wsQQymfUpGdR50dnxuV7cKqcwcgxSpJVP/jgYJP7kFETibuU3qOtTo3mwEIbODDyrO46bhn04k/cfSJFkSNbEQq7ZDKV2IxSaOCSpN7LKkbTcbcgw/i9K239k6ypIegSHU9+X24QkcDtCEmFF+6gBd4wHkKyJY+sAqY/+Mx73pE7lbWfVKTZbiGNTYiDUYSpvNHU/Yi6pUqICtUA4xvu9PLgWjiRNOI5lhyNREw+5tBWJjPAUetiCNN12nMzZzorejmdH4mgWhRzikFFxEPoXt9A+YsCMeYS5oRwEV/EC7z9XtYL4pMepCSajPWXqytrv4lzB21BI8c4Ci8DGGMkChZmVBxypWP4NQUNfe78kg15CHaaB0nq3DOOXbDZKK0gD66wnINFQ6mLxrC4ZzQN6GDoycbnoI9CilTTdFra2j2pvj2eF45/PoqDQbcYd4z6Utt9Fz1gd08lkyIn5rTaq6zUzNSOITXvidg4Qv48DwNWR2TLPlrFVdP6CG6Wf4h/PNiCF6r6CCvmQS0sFdpGskoS+Sd8KZPMfDIcLSR/oHjPhbP7vmctH6xqCAYTPVCNwq3w3D6HbeFi7ous2VLqNjqp0Gc7kxeN2xX8jv/kaGgfyWLH0GPv3FF1sLTcVR9CaCuLsGfMYZhfGWXUH/UeEWfMEZhZGWQSVwvRDU23oGa9h76H1e79UJeD7gp2s2oOWKKxoTSEDIhyPqxNgsS0wBlg1MNylg9SVses+UnVvMfeUwAgUEPI6jmdtwJPaw8yTWrQswGazo3PUiNN57yOFrf+OwMWid5Bh/Bsyq/bjB8NuXC/9AtdLd7FwfrphF34s3407xr3IrNqHn01f4X7VfjwwHcLD59/iF9M3uGf6CreNe5FetgsXij7FmfwPodJtRzKrVKSQOFU/knfIy40CHYfwHmmdx5XiTzE0TeF4306DN4nxWzLEw+JD5OnkNKchQR3JQAkckEjI1ZG4XvpnjEx3sAFQ6KG0PR0pNFfQUEo2nE2gjmWRqiL3NQxyNcWIqOY2Askaus5rbmmNBzVK7rg3OkfPUYiCLfDXbmJpYyYFLPDJVWewIBAYlLFM0W1DXb/W6UGRfQp0CxgM+gAzh1TsvDDKluYma6hSZFPA3MVqpaRo/Gw6iMquX6BrOodTudsc0WFhX6gSJRoUDeXhCApJuBrpd9YkqvGNAUnc0kbPcc4XQT7BOCsBgL+DHIxNkEvxqOi653Aglk5cAwEkKDAYII6JGNW7kkt5tuBDJLOiZ/6vJcSAhRgvtydvijhcTlLA1lG8KnkjAFp+L74r9st9N9jz9F4ClWJrydoonCv4CFXdD5yeXKB2wh2s4MFwM+j0L4g6RsuRWfk3HM0i9REJlcQlhQbtkzBU8k/c66Y2giVWqJ9b2ncaF4950T+XuV2xB13jJufkciVAEChBg+FC1OXDU22sqesxLunfRYI6iulpJdPRm5gKSdFEQqGhxSzeGul0b+ff3DnqL1N9OrIzm1hgk2zkuYJNqOh4wEM4DqZ00SP4XyEAw2FDmMEio2VnriSt1cuqP4b0st04V/BH7nmx0AIZZpq9r/1GQKTlvIXTuR/gWunneFp3FNU9T1nWkJOcM2Lw5F/6ZEjAEB0jIHjj9UYUlqB0Z/9kE1qGClDd+xSm7ieo6n78b9Fqep/hxXAhqDJkfLaXTTIpEuEap2u8S8ka3FEIwfDWAcE5IvTN06siFrT2945+O5lMuKuhBUFQbpXBEJ+hvRiAGJD7Nc/rnve4H3t7j/s5z3vd3+3+Tc9nxLG4x/094tzq7l8jGKs7kN/C29fBWEMoroOxDsYaosAa6sq6ZKyDsYYosIa6si4Z62CsIQqsoa78C4Jau84W19zUAAAAAElFTkSuQmCC;" parent="OpV2UFvNa62Xhtrnb1xq-9" vertex="1">
          <mxGeometry x="-1" width="99" height="69" as="geometry" />
        </mxCell>
        <mxCell id="OpV2UFvNa62Xhtrnb1xq-6" value="&lt;b&gt;Spring Cloud API Gateway&lt;/b&gt;" style="text;strokeColor=none;align=center;fillColor=none;html=1;verticalAlign=middle;whiteSpace=wrap;rounded=0;" parent="OpV2UFvNa62Xhtrnb1xq-9" vertex="1">
          <mxGeometry x="9.5" y="50" width="80" height="50" as="geometry" />
        </mxCell>
        <mxCell id="tSHxOHQZL74azQnE-G1b-17" value="" style="endArrow=classic;html=1;rounded=0;entryX=0;entryY=0.5;entryDx=0;entryDy=0;" parent="OpV2UFvNa62Xhtrnb1xq-9" target="OpV2UFvNa62Xhtrnb1xq-22" edge="1">
          <mxGeometry width="50" height="50" relative="1" as="geometry">
            <mxPoint x="89.99999999999994" y="50" as="sourcePoint" />
            <mxPoint x="139.99999999999994" as="targetPoint" />
          </mxGeometry>
        </mxCell>
        <mxCell id="OpV2UFvNa62Xhtrnb1xq-10" value="" style="group" parent="1" vertex="1" connectable="0">
          <mxGeometry x="610" y="55" width="99" height="100" as="geometry" />
        </mxCell>
        <mxCell id="OpV2UFvNa62Xhtrnb1xq-7" value="" style="shape=image;verticalLabelPosition=bottom;labelBackgroundColor=default;verticalAlign=top;aspect=fixed;imageAspect=0;image=data:image/png,iVBORw0KGgoAAAANSUhEUgAAAGMAAABFCAYAAABezli+AAATyElEQVR4Ae1ch3tTR7bffwtb7mAgQNouycvb5GV3syQE3iNZeIGXJbsUY1uyZFNDLyYhYEwIEIot6cpdLrJlC/eCe++9yCq//c6MRpKFjIpl8Ob5+pvv6vaZ8zttzjnj32F9WzMU+N2a6cl6R7AOxhpignUw1sFYQxRYQ135N5YMO5b7A+xriMT+d2XNg8EIbrfDzpoNdjs138Tm94vnXHv/SfP671zTYLgIygGgY6vNjAXLDGYWxjE5N4jx2T6MzvRgdKYbY7O9mJjrx9T8CObMU1i0zsNmt7oBubZBWZNgENFtDgmg3xbrAiN663AZStpv4Entd7hdcQA3SvfiavFuXNLvwiX9X3Gl+HNcK/kSPxi+wn3TIeiaUlHTm4WByRbMmSecUsWly7eEkVS+TpW3xsAgznWpIovNjN7xOmjqU3GhaDuSpY04oY5EsjoMCk0slNJmKKUtUOnecjY6TtFuglwTiUS1DCc0MUjL24IM417U9KgxYx51SAoBbmV2ZzmF9P8WDK6SbLDZrFiwTKN9tBSPqo9DpYvHsSwZ5GoZVNJmpOrioZSikaKNQIo2fJkmg1IbBZUUh1QdgROHE2oZjmXLcK34E5R13MXYbDestkXY3KSQQOH94Ops0TLnVHPLARbK829cMoj7SCVRI+J0jVXhaZ0CJ3M3I1EdA4UmBkopzkl8hTYc1JYHwnXNdZ8MSikGSm0ckjTRkEuxuFH6Bco7MzA5NwC73crVIsmJQzIXFmdQ1n4Dk/ND7NzrUFdvFAwhDbQ3W6ZR0XkP3xfuhFy7ESmsRSFFK/Ob+K8CyAViJFK00VBoNyJJE4sM437GAFabxSEl3OA3DxQjNX8nescbnA5AKKXA27veGBguIGyYnOvHrzVHcDQ7DAptNFNDLq52cfqriB3INQFMqm4rEtXhOJm3jRl6JqE2G2bNo7hj3IMkaQue9/7qUGc2b/QL6bk3AoYLCDsGp5qRWbWXGWalRBIRGRJJ8AccAkWpjUYSqUOtDMWtNzFrHkNR6008qvkOZR03kd2QgLnFKactCSn1PV722sFwn8QNT7/AHeNuKKQYpGg5QVZTIrwBxL8XiWRNFJS6GDyq/g43DZ+jb6IRg9NN+OX53zE6283AIMlZze31g+GYTU/M9eCm4T0kacgrIu/If8PsjaihOKeStjLGKO/8CWRDphdG8aj6MFqGi357YJB6Iu6aXhjEg+qDSMgmd5U8pdDbhUDfyT0tGTSNiZhfnILFugiL1Yy8F+dQ0HKNCQRXr75DMcFKz2uTDKGeKEShb7sBpbQVKmnja7MPy4ND3hp5VzI8rUvAFHNlHRNCuw2Ng/n4uWo/C638tsCAHa0jxTiVvwOJ6kjINdyAvnoCt5pSEwG5Jhoq3SYUtV7EnHnSaaiJ8FabFSPT3Ug3fIzByVbntWA539dzqy4ZnJtccaAXg3qo60/ivukgzhZE4EjWBpzIDkOKhuYUq0n4pe+mGXpidhjScrejtu8ZKPQiOJ+HQcDsBs3C75m+RE2v5qXrvogb6PVVAIMpJJ5rsNtYkG/WLCKsvRid6cTobBfG53owONWE+n4JT2r+iXMFO5lbS9Ki0CwlXOhAkrF3yzUyqHRbcN+0DwOTjWwGTkB4bnw2bkdhazqe1CbCZrc4AfG8NxTHIQRDRDi5vh2b7UF9vxq5LSrmHv5g+B9cK/0CV4r/hKsln+F66R7cKt+PJ3XHUfjiPIrb0vG0/hjOF7wPuYYCgSsFRMZm72wGrwlnKjExOxypuhjcqzrIpGF+0aGWHGkqT4ISQORwvBgqw7XSD1jYXkiP572hOA4JGFysORhjM93Ib7mAi/qdUOrimWFUaGkeEYsUKRb0mx+TFxUHhTaKGVBV7nbcrtiLxzV/x8WiHYx43iWCiEwhDVJrotExNXKTIxzcH44kdRhOOFpqTjQemP6BlsECNrFz5TkEE71MTgHGxHwfzhfFY2Bide3GisAQXEJ7Ck2Xd9zFydxYHMsKY5M4JQGgJeL54nKKsG7EiawwKKRoXNLvQKouwulpKTQyZlMUGjL6MkZkIjQ1CmckqiOQmE0h8ygkqaMh18YhNWczLhe/jwfP/w+GjjvonahlNsDVZ5rAvaya3CHh99pgtS/iB8NnqO/Pcapf9/tC9TtoMERHicP6JuqZQVYQ52sotkQg+ALA23UCgDwcApNApN+RSFLLINfKcCr3bVws+hg/GvbgXuUBPKo+hKe1R6BrOgN96y2UtWeiqusBmgby0T1Wg4m5XixaZx16nudJ+Cz61SAI4gp3nMb6tEYJfes1R0jd5ZCIe0OxDxoMGhSlQBsGJFwo+hhypopIHYUiyspVzonscOZ23q74GvrWq3gxXISBqSaWWiWngHQ+5T4sLL1KxpUirpxQ1D9q4ljsfRNNqC2+F8+VtN7F/effvOT+ElCh2oICg6SBWtOgDqqc7VBqKYETmgCfUktxogim63+u+gatw8WM4JR04tLIjSqFK3jYm/eFE82d+O75bn8Ixu8ncBetc+xbpMY4oHa0DJYgNScKD0yH0TZkgMU2z+6h66HaAgKDiCE61zlWicv6Txx5h5UBIULaHNBYXNH/Ac97nmDewqOlPBvnRnQfuj5Q4giQKbnVP1nP8uWcyK7x9k00QaWLw/EsGZK0EXj4/Ai6RisdRQ9CbfkD+vK9CwAMF6dNzPXhR8MuFukkj2alkVZ6nkLZCm0cMoxfo3vc5OQ6oSaWH8LKr4hvTM0PonW4yFlVQm8WzDc604GzeW+zPlKEOVkTg+8L/gB9202mLsV9K+mN32AIqTBbZ6FpUDIPhgz1SoEgQ6/UxiAxOwJ3KvZhaLqFhSEEgXx5PCsZPD0rpIL2lV0P0DZscALAr3Oun1rox4XC/0SymuwZd6+JeZK08Xhc+x2mF0aWPBdMvwIAg3eqbcSARA3llCkR5M0j8v8cB5LnEi7p32GzcwG6CEkEM6hAnhFg9I7X455pL4vYCvvkDsbc4iiuFH2GJDUvhKC+U1NJ8TiaFYZH1d+y+QvZMXpnMJtfYHAXj9KR4/i1+igSsiKY+7pSqeADisbp3O1oHsx3U03BDSZQAgjXdXphCPdNX6OhP89ZkCAkUoBltk7jmn6PA4ylcycqmJBr41H44rqHDQmsR/6B4XARu8YqcbZgJ1TSltCoJ4nsRDTUDSmsSjAUejeQ4ROhzZY55LVcwcPqw14JKcBYsEzgqv4Lp2R4agWakJ7K24GWIT1nKlvgXpbfYJCnUdpxHQopkpXOrFQqaDAk4ifz3kPbSCnjSO7BBELO4O8VwNf1ZeF80bvoGDM4JVNIBb1d2K5p8yAuFf4XkpjN8KaKI1jR3PWSv3BX3DHfCaSHPsEQnDFvmcbD6qMs1ODJFcEdU2VgBNINfwUFFcl9fR12gsZDQBBz9U6acK7wPWTVn4TZMsvmTp7EE6CNzLTjTN7bDg/SGxgUbZYhITsMlZ0PHaEX4fJ6vtX7sd9gUMj7WslnrN4oNFLBY1jZ9YlYWJzySgjvXV7ZWSIu5S6ah3JxOv893CjbjeGZNjdbsfT9AoyesVqodNGQvyLvQhNWihqkl/0Zk/ODrDqSwPd38xuM3okanM57yxF19c4ZgUgI5ZzJCzF23mN5AprRr+ZGUickonFQiwtFHyBZE4YXQ0VOLvb2fQHG8+5nSGKh/VeXlZJ0pOZsRduIkUt7SMFwxDap00qJvIiVT/I4aNGsIKFhIJd9gXTzamxCzQr1VNP7lI0jITscpu5fmZ3g3PsyB7s/q647B3rGV4qYItWJ6miUtN9isTtydf3dfEqGeFFjfx7krKwmFOlRyrhFI0EtYxFWMpirAYZwXSmXPTk/gLyWy1BIFAGOQ17LJadxXs5WCQDnF8fxg2EXTmTzyd6rNIBKimFxNaqQpDUiqwJGQ38uC+DxhM7K1RSFFI5nh6O2T01Bh5CCwUBwZO8I5NZhPe5W7keKtImFMbQNp5csDRAM57kXYLSPGCGXIlglvK/8DNkNyrP8VP41JueGWDTB3Tvz/Ib7sU/JIOGl1jxQwLJ2oQKDZvBHssJQ3hE6m7EEBNjZjDi3+QJUOTQvIvBlkBrPMIdBqCB3Ynj+JjtGxl5qPIejzzawsM2rpIJfi0CyWoYbJXswNtvH7FTowHBUANKE72QOpUopbbpyyaC41rGsDciuC86b8iS8UDVEQKqXre/X4mrJBwwASu+mSBtR1JoOu59FBQQWqTda9fR9wQdIVlMMjeJSvsYuY+qcVlCNzfSuDhgjM224WPhHFrUMBRgULqegW3rZX9h6POG1eHKn69gVNWZcLdQQszc0k57F0FQrKnsycdt4AErdRpYllGticanoIxi7fmaVKmIS53rvy7+EejJbaXZ+GfQOvkbEFxB0nSQjHOmle9nSNxpXyCWD4lIZlQfZPMM3d/jT6XAopU1Iy92BxsEcNs8gTnTfGPcvyda5AKEBUqaRFrs09hfgSW0CLug/gUpH2cYtbHKWrJEh03gI3eNVWLQuuHlO7l/x/G13zg86RytwvvD3Dnd+aTxqORpQKiBRHYYM4wG20JOP6WVPzfOrdOyHzeAKgQaT03yK5aipAGy5zgR2nlf0ZVYewtwiLYCkuQBPnQpJYVLgUJXUYcrCjUx3or4vB09qT+BU/hYcfkqFCdFI073L1Cipv7MF76Cs/Q5sdjNTFeJ93oggztFI6T5q85YJ/GjYy1Y6sYoTn+qJM6BKimVL1tQNKiatIfemBJEaByWk5m4DLTIJhari74hixQZZdQpMLQw7waBwxcLiNON8WmRJVX85TZfxU/lXSMuJwglNFBKyac4Th1Rph0N9xuJ84YfQNqRhYKrZMZnjBBYE97YXgBMIRLzx2W5kVn7L14ywpJd/ks4ZMRrJ2jiYep6wsQQymfUpGdR50dnxuV7cKqcwcgxSpJVP/jgYJP7kFETibuU3qOtTo3mwEIbODDyrO46bhn04k/cfSJFkSNbEQq7ZDKV2IxSaOCSpN7LKkbTcbcgw/i9K239k6ypIegSHU9+X24QkcDtCEmFF+6gBd4wHkKyJY+sAqY/+Mx73pE7lbWfVKTZbiGNTYiDUYSpvNHU/Yi6pUqICtUA4xvu9PLgWjiRNOI5lhyNREw+5tBWJjPAUetiCNN12nMzZzorejmdH4mgWhRzikFFxEPoXt9A+YsCMeYS5oRwEV/EC7z9XtYL4pMepCSajPWXqytrv4lzB21BI8c4Ci8DGGMkChZmVBxypWP4NQUNfe78kg15CHaaB0nq3DOOXbDZKK0gD66wnINFQ6mLxrC4ZzQN6GDoycbnoI9CilTTdFra2j2pvj2eF45/PoqDQbcYd4z6Utt9Fz1gd08lkyIn5rTaq6zUzNSOITXvidg4Qv48DwNWR2TLPlrFVdP6CG6Wf4h/PNiCF6r6CCvmQS0sFdpGskoS+Sd8KZPMfDIcLSR/oHjPhbP7vmctH6xqCAYTPVCNwq3w3D6HbeFi7ous2VLqNjqp0Gc7kxeN2xX8jv/kaGgfyWLH0GPv3FF1sLTcVR9CaCuLsGfMYZhfGWXUH/UeEWfMEZhZGWQSVwvRDU23oGa9h76H1e79UJeD7gp2s2oOWKKxoTSEDIhyPqxNgsS0wBlg1MNylg9SVses+UnVvMfeUwAgUEPI6jmdtwJPaw8yTWrQswGazo3PUiNN57yOFrf+OwMWid5Bh/Bsyq/bjB8NuXC/9AtdLd7FwfrphF34s3407xr3IrNqHn01f4X7VfjwwHcLD59/iF9M3uGf6CreNe5FetgsXij7FmfwPodJtRzKrVKSQOFU/knfIy40CHYfwHmmdx5XiTzE0TeF4306DN4nxWzLEw+JD5OnkNKchQR3JQAkckEjI1ZG4XvpnjEx3sAFQ6KG0PR0pNFfQUEo2nE2gjmWRqiL3NQxyNcWIqOY2Askaus5rbmmNBzVK7rg3OkfPUYiCLfDXbmJpYyYFLPDJVWewIBAYlLFM0W1DXb/W6UGRfQp0CxgM+gAzh1TsvDDKluYma6hSZFPA3MVqpaRo/Gw6iMquX6BrOodTudsc0WFhX6gSJRoUDeXhCApJuBrpd9YkqvGNAUnc0kbPcc4XQT7BOCsBgL+DHIxNkEvxqOi653Aglk5cAwEkKDAYII6JGNW7kkt5tuBDJLOiZ/6vJcSAhRgvtydvijhcTlLA1lG8KnkjAFp+L74r9st9N9jz9F4ClWJrydoonCv4CFXdD5yeXKB2wh2s4MFwM+j0L4g6RsuRWfk3HM0i9REJlcQlhQbtkzBU8k/c66Y2giVWqJ9b2ncaF4950T+XuV2xB13jJufkciVAEChBg+FC1OXDU22sqesxLunfRYI6iulpJdPRm5gKSdFEQqGhxSzeGul0b+ff3DnqL1N9OrIzm1hgk2zkuYJNqOh4wEM4DqZ00SP4XyEAw2FDmMEio2VnriSt1cuqP4b0st04V/BH7nmx0AIZZpq9r/1GQKTlvIXTuR/gWunneFp3FNU9T1nWkJOcM2Lw5F/6ZEjAEB0jIHjj9UYUlqB0Z/9kE1qGClDd+xSm7ieo6n78b9Fqep/hxXAhqDJkfLaXTTIpEuEap2u8S8ka3FEIwfDWAcE5IvTN06siFrT2945+O5lMuKuhBUFQbpXBEJ+hvRiAGJD7Nc/rnve4H3t7j/s5z3vd3+3+Tc9nxLG4x/094tzq7l8jGKs7kN/C29fBWEMoroOxDsYaosAa6sq6ZKyDsYYosIa6si4Z62CsIQqsoa78C4Jau84W19zUAAAAAElFTkSuQmCC;" parent="OpV2UFvNa62Xhtrnb1xq-10" vertex="1">
          <mxGeometry width="99" height="69" as="geometry" />
        </mxCell>
        <mxCell id="OpV2UFvNa62Xhtrnb1xq-8" value="&lt;b&gt;Spring Cloud Config Service&lt;/b&gt;" style="text;strokeColor=none;align=center;fillColor=none;html=1;verticalAlign=middle;whiteSpace=wrap;rounded=0;" parent="OpV2UFvNa62Xhtrnb1xq-10" vertex="1">
          <mxGeometry x="3.5" y="50" width="90.5" height="50" as="geometry" />
        </mxCell>
        <mxCell id="OpV2UFvNa62Xhtrnb1xq-13" value="" style="group" parent="1" vertex="1" connectable="0">
          <mxGeometry x="368.53" y="254" width="103.47000000000003" height="96" as="geometry" />
        </mxCell>
        <mxCell id="OpV2UFvNa62Xhtrnb1xq-2" value="" style="shape=image;verticalLabelPosition=bottom;labelBackgroundColor=default;verticalAlign=top;aspect=fixed;imageAspect=0;image=data:image/png,iVBORw0KGgoAAAANSUhEUgAAAbMAAAF2CAYAAADkyHaAAAAgAElEQVR4Ae2d51tUybbGzx93w4ySk6iYAFFQFAUV4xhGkSCCgpJzzjnnaAIJIrkbBHTMYebc+fjeZ7XTc9oeREL3rr13rQ/9NI3Y0LvWXr96V7216l9//vkn+MHXgGOAY4BjgGNAyzHwLy3/8fy3883HMcAxwDHAMUAxwDBjZcrKnGOAY4BjQPMxwDDjINZ8EPPMnGfmHAMcAwwzhhnDjGOAY4BjQPMxwDDjINZ8EPOsnGflHAMcAwwzhhnDjGOAY4BjQPMxwDDjINZ8EPOsnGflHAMcAwwzhhnDjGOAY4BjQPMxwDDjINZ8EPOsnGflHAMcAwwzhhnDjGOAY4BjQPMxwDDjINZ8EPOsnGflHAMcAwwzhhnDjGOAY4BjQPMxwDDjINZ8EPOsnGflHAMcAwwzhhnDjGOAY4BjQPMxwDDjINZ8EPOsnGflHAMcAwwzhhnDjGOAY4BjQPMxwDDjINZ8EPOsnGflHAMcAwwzhhnDjGOAY4BjQPMxwDDjINZ8EPOsnGflHAMcAwwzhhnDjGOAY4BjQPMxwDDjINZ8EPOsnGflHAMcAwwzhhnDjGOAY4BjQPMxwDDjINZ8EPOsnGflHAMcAwwzhhnDjGOAY4BjQPMxwDCTJIi/fPmCyspKlJaW8oOvgW5j4NGjR/j8+bPmEzMrzY0rTYaZJDBrbW2Fi4sLHB0d+cHXQLcxcPz4cczNzeH//u//GGiS5DYz+BlmEgz4q1evcPDgQd0mMAY0T1DMMeDs7Izs7Gz88ccfDDMJcpsZZPTMMJNgwNPS0liVsRqTZjLj4eGBpeVlhpkEuY1hJskgU6nl6dOnCAgIkCaRmWfo/Cy3Wrt27Rpondgy2fHXG1+H0tI1Y2WmY7C9ffsWcXFxrMpYlUk5meno6GCY6Ti/WYOWYabTwf73v/+Nnp4eHDhwQMpExspMbmVG4x8aGoqlpSUGmk5zHMNMkoF9+fIlqNTCSZ2TuqwxQGtneXl5oImddeLj1/orObIy0yHcaK2sra2Ny4tcXpR+MkNW/WfPnjHMdJjnrCckDDMdDvL79+9x+PBh6ROZrIqEP/d/1DhZ9cnN+/HjRwaaDnOdJdAYZjobYCqpZGRkMMhYlXEM/BUDtMfyyZMnXG7UWa6zBBl9zTDT2QCPjo7C09OTExnDjGPAIgZiY2NBFQvrBMiv9bN2xjDTEczoZr1y5QonMYskxiW3/5TcZL4WO3bsQF9fH8NMR/nOeiLCMNPR4DY0NGDnzp0MM4YZx8AqMXDs2DH8/vvvDDQd5TxLoDHMdDKwi4uLCA8P5yS2ShKTWZHwZ/9WmdKpEZYJkL/mMiMHhIogSG17iouLea2MQcaTmR/EwK5du2A0Gjl/qSh/2WpCwcpM44NKe8omJiZA+2l4Fv7tLJyvB18P6xggq/7du3fx6dMnBprGc581BBlmGh9Q2j+TmpoGukmtb1x+zcmcY+CfMUAt3gYGBhhmGs99DDOdDeDY2Bh2797NIPtBeYmT+j+TuqzXhCZ+kZGRoJZv1gmRX2t3DY2Vmcbhdv78eQYZg4xjYIMxQK5favnGfRu1Cy/riQfDTKMwo7Wy1tZWTmIbTGKyqhH+3P9UppcuXcKLFy9A95J1YuTX2oMcw0yjMKOb0N/fn2HGMOMY2GQMULmxrq6O1ZlGc6D1hINhpsGB/Pz5M1JSUrgr/iaTGKuUf6oUWa9JYGAgn3mmwRxoDTJ6zTDT4EA+fvwYAQEBPCNnmHEM2CAG7t+/z2VGDeZBa6AxzDQ2iK9fvwY1TWUrPqsLWdWUrT83HeL59OlTBprGciHDTMMDRgvV3d3dbMW3wWzc1gmR30/bk4szZ85w30YN50YuM2po8Ahky8vLuHbtGpeWGGYcAzaOAeqqT4262aqvPRejWaFxmVEjQKObjG42d3d3TmQ2TmSsqrStqmw1fqTOuG8jw4zrzXaG4srKCoKCghhkDDKOATvFAKkzathNbmHzbJ+ftQM3VmZ2hpCtboZ79+5xErNTErPVzJ7fR/sKjxp2T05OMsw0khct8yvDTAODNjo6Cjc3N4YZw4xjwM4xQC7hrKws7qqvgbxoCTL6mmGm8kGjrvh86Kb2Z/ys2rQzhnTm2fT0NKszledGhpmGBohMH7W1taBaPidD7SRDHivtj1VERARb9TWUK1mZqXyw5ubmcPr0aQaZnUtLDB/tw8fWY+ji4oKenh5WZyrPkZbqjMuMKh0sOgk3Pz8fnp6eDDOGGceAgBg4evQoXr16xUBTaY60BBkrM5UOEm2QHh8fZyu+gARm6xk+v592VR+ps5ycHIaZSvMkw0wDA0OmD+qKz4lQu4mQx04fY3fo0CFMTEww0DSQN7nMqMJBIiu+l5cXw4yVGceA4BggdUZ7PGmCaa0E+LW6NlQzzFQGM7ppLly4wElMcBJjZaUPZWWLcTx48CAGBwe5b6PKcqX1ZIJhprIBIiu+k5MTw4xhxjGgkhig+5GOXfrtt99YnaksX1oCjWGmosExGAzw9/fnJKaSJGaLWT2/hz4Unre3t8mqz1311VVaZJipCGDmwaCb5O7du3zoJoOMJzMqjYGwsDBuQqzC3GnOoazMVDA4ZMV/8OABfH19OZGpNJGxwtKHwtrqONbU1IDuV3MC5Wf1KDWGmQpg9vr1a0RGRfFaGYOMJzMqjwEfHx+8ePGCYaaCvGk9kWCYCR6UP/74A62trdizZw8nMpUnsq3O6vn/60PdxcfH48uXLww0wbmTYaayAVhaWsLFixcZZAwyjgGNxACps4GBAYaZynIpKzOBA0Kmj+rqaj6rTCNJjJWVPpTVVseRrPrXrl0DLQ9YqwN+LW4NjWEmEGbv3r3D3r17eUbOMOMY0FgM0JlnDQ0NDDOB+dN64sAwEzQYtFaWmJjISUxjSWyrs3r+//pRd7Q8YDQa2d0oKIcyzFRy4YeGhuDq6sowY5hxDGg0Btzd3VFZWclmEJXkVFZmAgaCau3nz5/nJKbRJMbqSj/qaqtjSWeeUecea5XAr5VfO2OYKQwz2nBZUVHBh24yyHgyo4MYIDNIamoqw0zhPLraZIFhpvAgTE9PIzQ0lBOZDhLZVmf1/P/1ofCo3DgzM8NAUziXWgONYabgANBGSzq5Vra1MgcnJzi4uMLBxU3Mw8lZqsmDA00UXN3g7OEl5OHk5i7V9aZJSXh4OMjUZZ1g+bVy5UaGmUIwo/Li06dPERQUJNWNTiD7ye8Yfr6cgm3XcxR/ON7IhkvoVdDfIYMSMoFsx27svluKE81TCOswKP4ILOqGk7unFNfbHFN0iGdTUxM7GxXKp6tNEhhmCl38Dx8+ICEhQbr+i9u9dmNbeCwcIvLhcLNA0cf26znYl/8Ae1Ob4egjRxNngplr6FUcrJ7EsVYDTvcu40zfiuKP3Zdj4eAoxwTCDDRaPlhYWGB1plBOtQYaw0yhC09d8Xfu3CnVbNXByQU/HzplUmNKg4x+n2diHQ43GOBf9RweF+Ow3cVN99d/u+dO7M3tM33uoCYDQrteCAHascrHcPM/ovvrbQYZPXt6eiIvL4+t+grlVIaZgAtNtXQZTR8mVfZLsqJq7G9o3siBf9WkKakfqp/HnqweOO8/rPvk6h6RAfq8BHF6HGtbEAKzU10L8I3LNa2VWiZ8vX99/PhxjI+PszoTkGdZmSlw0cmKr/ebeLXP918nfsV2AeVFWpvbkzf4TVKnBO9+PRUOrvpVZ9sOBOJQ/dzfIDMDLaxH+VIjlTeP1QzDM/i0dLGfkZGBjx8/MtAUyK2W6oxhZucLvrC4iN27d0t3Q2/z3iOkvEjwdIktg1/Fs38kdb+KCTgdCNTlWJBTdPe92n98ZgLakRYx6ozW6vwSiuDk6a3La77aBI6+d+DAAYyMjLAZxM651RJk9DXDzI4X/NOnT7hz5w6cneWyhtPa1P+cixdSXnS8WfAPVWZWKPTsnViju7Uzcmq6nLwM/4rxVWFGnzuk44XiJhCCGTkqvU9ehKMkblIz4KKjo0H3v3XC5df2s+ozzOwEM7Li9/X1mWZp5gCX5fl/D54UUl7cHpEH97u1f6+VWULM/PWhulk4h/2qL6Ww+wB8khpWLTGaP3dgkwEiyo0EtMDcNunUmYeHh+n+Z3jZD17W15ZhZieYraysICIiQjpV9tMOH/x8IVF5mEXkwzmmBPsKH31XnZgT+4HCh9i+a58ugObg7AKP8zHwr5z44ecOblvE6V7lbfqnuhex62K0Lq73RiaktKf0/fv3rM7slGMZZgpcWDp0s7m5Gd7ecq0VULlrW/AlbL+Rq3yJMSIfbnGVOFT3TwOEGWLmZ1JnXjfSdZFcnfcFYE9m5zdmF/PntH4mdXaya0lIuTG0dQrbvORbOyarvnXS5df2UWuszGwMNyov0sZJ2bri02bdn3z88dOlJOVBRpuxI/JxsHrqh+rEnOAPFD6C4+GTMHXM0GifSGoR5n45Yd2fmT57cOsCTgnaSO2fUgVHyVqL0eG7s7OzDDQb59nVJgQMMxtfZNpTRlZ86qa9kZKE1n92u6s7toVcEdPp40YevFNaNpTUSZ3tii2Eg8cOzY6T84HDOFA6sqHPfbjRgBOdYjZSh3XMw+uEXEcfUZsrMoGxVd8+aswSagwzG8OMTp49ePCgZhPkZqBK6ubnvYfw85U0IarMJaZkTfODWY1ZP/uWDMPl+EVN9m2ktbIddys2BrK/NlKTVf+UkL1nSwjMbobLTh+p7g8/Pz+TGYSqNpbJl7+2LeAYZjaEGa2VxcbGSnWjEvxIlf0UFikEZKb+i4WPN5XUaSP1rsQqOO7QXnJ1CrmEgNqZTX1ugrooq/7J1mnsvhSjyQnEZiZ69H9oaw5Z9V++fMkws2G+tZ4MMMxseHH7+/vh5qbfDhPfu5n/2+8YCCp/t5JSqqFwRD52JLcioHZ200n9YM0UXE79qqmmuNs8d2J//uCmPzPBLLDRiFMCnI3UGSQwvwNuBwKkmvSRGayjowM04bVOwvzaNgqNYWYjmH348BHBwcFS3aAENyp3/Xw1Q3mQ3SyA48187C8aWpeTz7rEaPn6QNETOLhp58gSj2tJW1Jl5s9OVn0RHfVP9yxhz68JcHRxlep+OXPmDF69esUws1HOtZ4EMMxscGHJ9FFaWmrqmv099aLH7zs4OeO/g38RAjJqW7UznSzpP7bim5P3Ws9u19NUX/oyOS/9gnFgi6rM8jqEdoux6h+vfQp3P322FlvrXq+treU2VzbIudYgo9cMMxtc2MnJSVC37LWCWI//9vOeAGz/NVNxmJn7Lx4oebqlUptlUg+omYKjv7qVtYO7F3ZG5dhElZk/+5FmKjcq34iYFOGB+FzVTyBsfd/6+vpiaWmJ1ZkN8q410BhmW7yodOgmdcl2d5frqPjtbh74+VSU8p0+qLwYWYhdGZ02A5k5se+6V4ft7l6qnJTQQZeuR8NxoGhzZhfzZ1ztWZQZJLR9Fu6BJ1R5vW0NMcv3i4+PB1VzrJMxv97a2hnDbAswI6vt8PCwdFZ8ujG3+Ydg+zXlVRmZTJxjije0QXq1BL7a96gllOvpCHUmV69d8I4vs1lZ1fLzk1U/rEdMufFISR+2u8k1EfTy8gId1svw2hq8rK8fw2wLMHv37h3i4uKk2yC9zcMbP52KFqLKHCLycKDUduVFy6RuOsQzrQUOPn6qAhqtlTkduwByXlr+vbb8+ng7baRWvm/j6d4l7L4ar6rrbami7PU1dQjivo0MM9XMaJ48eQJXV7kcWWT62BYQKqT/ommtLKbYbgmd4HCwZhpel+JBn9NeiWzD7+viBp+sHrt+7qBmI8gMQtZ5pR2OIXUjcPY5oJ7rrUB7s507d6K6uprNIFsQE6zMbHTxaFYVFhYm1Q1ICmHbjj346dJ9xU0fpj1sEXkIqNv8nrL1Kpk9Wd1w8j2iir6NdM1dLsTaFWTm63LM1FVfeZiFdS3gQFwuHHV8CvhqE5izZ89ifn6egWajnMxlxk1cSForKykpkQpkdDNSYv3pmCAr/o1c7Ezv2PKeMnPiXuuZOu973UiDo6v4tRyHfQHwKx9TBGbUt1FUV/3jNcPwCj6tignEauCxx/c8PT1RXFzMh3huIgdbqzJ6zTDbxIWcmpoCdcO2R4Cr+T3/Z7cvtgkyfbjGVa7rzK61ILWRf/MrG4XjQbHbLagr/s64EmVAZu7b2Exd9QWsnfW8gH9iMZx37JLqvqJGC5RPuG/j1tfPGGYbhBkFHW18vH79On799VdpHpev/QqHKyliyos3crE7q9cuTr61ALcrqV5oYnU+fhEE1bX+Rnv8mzCrfusMPE9c1FRrsa1OPqlvY1paGr58+aIaL8BqqkcL32OYbRBmtD+EXIxv3ryR6pHa+UQIyLbfyIPnvUabbhReLwDI3Xg9sxDp6emKP1LSM3Gm/IEiZVXr6xHYaECYkK76yzhW2os791Nw7949aR6pqamg0zZoM7Wox+fPnzUPU4bZBmBGTULpXCIyf8j0GDMswu9+teIwI/eiY1QhfHL6FFcnlODPdBowv7BgOmyVDlxV+lE8YkRws0HIZw9uWxDibCQnZcnQDMafPcMzfihyDSYmJkDNH7Sgvtb6Gxlm64QZlRepFCATxOizrrx+g7jGQbhEFykOM4eb+fBIrBeiTo42G9D0zKg4wCyBOWNcwI1eMTALajIitEvMRuqL/YvoH3uuSCJnYD4Dw2ydEFiLpFr6NxlVGZVTO8dn4ZtUIwBkBaAN0r4bPUn5LyODdelso6/jB42YmldejVnCjL7unDQiqEkM0IJbxRziSeos8aEBY6zMFAE6w0wimJEqo5qybKpsfvkVblb3wimqUHmYReRhV3qHkBLbqTYDOiaMMBrFw8y4sICkx2JgRmtnJzppI7Xy7sbzfUuofTqlSDKXXZ0xzCSCGZk+qKYsE8zevnuH9tFpeNwuVR5kNwvgFJmPQwpskLZWbJTAMx4bMGMQW2K0VGjP54042S4GaNS38ZQAM8iZvmXEDhrxZIzXzuwNW4aZJDAjVfbp0yepQEbQNq68QkheixCQbbueA7+KcSGq7GKHAX2T6gEZQY0UYvWoEYE2KqFaA/xHr090vlC8xRWVGkmdFT6Zwfg4A82eQGOYSQIzUmUyKTLzZy0dHBUCsu0RefBIqENAzYziMDvaZEDOkLpAZlZoo7NGRAgyg5BaFXXmWfTgAnpGnrO70Y7rhwwzCWBGqkxGK/7zxWX43KsUAjOn6GLY8tDNH6kOy3//pcuAsTl1wsxgXED9uBEnW+YVhzxdI+rbqHQDYvp94X1LyHsyi6eszuy2fsgwkwBmMlrx37x9i+tVvUJARu5F75RWIRukSX00TKgTZGZ1NjFnxJ0BA+hvtYSwUl+L6tt4beAFukYnudxoJ3XGMNM5zGQ0fVCJsWV0Gp4iTB8R+aD+i75lCjXVtVp/ihowYE4F7kUzuFZ7Jmdjx3MjzrSJgdlRMoMIcDaSGeT+o3mMsTqzmzqje19LW6VW+1t50/QqUJbViv/i1WucymsWo8pu5mNHcrOwDdJqLS9aQ43aHiU8EmQGaTRAVN9GAlrnyKTdkrk9DRZaeG+G2SogWI2YWvoegUxGVfbm7TsU9o/CK65MCMxcbpUq3kiYynPkEMwbNsBgVHeJ0RJqY3MLCGs1Cik1Hmk2Iqxb+TPPaP3sWr8Rw6zO7AJ0hplOYSajFX/M8AJhuWJU2fYbudiTNyAkOf/SbcTwjPjN0ZawWs/XJWTVF7R2drx9UVjfxvzHU9wZxA5rZwwzHcJMRiv+y9dvkNU1DNeYYiGqzP1OtRCQHWs2oHzEqPq1stXgRut713vErJ2Z+jZ2i+kMcq1/wWQG0ULpTkt/I8NMhzCTzYpP/RdH5xbgmyyo/+KNHEUP3bR0/kX3GTCqUiv+agCz/l7PpBHBLWKAJqqr/tm+ZaQ/nscIlxttWm5kmOkMZjJa8altVURtnxBFtu16LnZn9wkxfdB+rZoxgyr6L1pDar2vqeVW+iMxMKNJQWi3iK76y7gy8AL13LeRYWbFH3Yz/nVBqCs+zU5ke4waXsApSvnjXeisMueYYvhVPBNSYrw1YIBBwBll6wXVen+uf8qIMx1igBbUbBS2dnb/oQGPxia4M4iN1s9YmVmRUUuuRcu/Vdb+i0u/vUFQTqMQVUZnle3JGxSiykKa5zE4rR334lpgmzUuIH/ICGrFZVlCVeprcX0bX6BmeIr3njHM/t4fx8rszz/x+++/S6fIaK0sr39MCMio/6L73Vpha2Xpj+eEHrq5Fpw2828Pp4242i0GZuSoDBPSVX8FMQ8WTOpMS0YLtf6trMx0oMxkPHSTAnd4bhEHU2uVh1lEPqj/4t78B0KUxNlOA+hIlc1AQ63/h/o2kiuT3JlKKTLL3xPcRlZ95c88C+9bRtHQjE3XjtQKG3v/XQwzjcOMyosymj5+e/sWcQ0DcI5Wfq3MISIfbvGVYs4qazKgSeX9FzcLzCmDEVd7xWykDmwyQlTfxkv9L/BgdIKBtsVyI8NM4zCTVZW1jc1g//1q5VXZzQIQzA5WPReiIGL65jGpM1VmCb++qQUh15VUWnAr9W0U0RlkGbcfzDPMGGaQds1MVlVGh25GVnULARmtlXndbxCScE+2GdD53Ahq1msJAL19HfdQTKnxcKMBZAY5LQBo5/qW0TA8yc7GLQCNlZmGlRmpsg8fPkhl/KD+i43Dk9gRL6b/olNUoZD+i0GNBqQ8NOhalZmhPDFvxKl2MUAzddUXYgYhdfbVqm/vtSW9vj/DTMMwk7H/4sLKK5wqaBWjyq7nYG/BQyGq7GKnAVSCMyd8PT9TV/3SEQOCBFn1QwSpswv9yygemsUodwbZVMmVYaZRmMloxadgLegfFWb68LzfKOTQzaON88h+YsC8ys8qsxVgqYxKx9lE9YlRZ9S3UdTaWfTgArpHn28qmetVca33czHMNAgzWU0fc8uvhJUXHW/mY3/REyEbpM91GEClN1vBQgvvQ8fZ1I4acKx5TogSJqs+Hdmi9IOs+gVPZrlv4ybWzhhmGoOZrKYP6r94pbpXTHnxRi52pncIWSsjl13lqEEqkJlhS3vp7g6IserTdRfTt3EFv/QtonvkOca53Lghhcow0xjMZDR9UJB2js/CI7ZEcZhR/0WXW2XYXzwkRCFc65MTZGagtU4YcbpNTLmRDvEUU25cQdJDXjtbb3nR/HMMMw3BjFTZ58+fpXIvUoDOr7xCeFEbHGmPl9KPyEKTKrPsFqHU1yGtBlCbJ3Nil/GZ1gmTHhoR2DAvZDIR0vFC8VIjlTbP9r1A08jUhpSJOanL+sww0xDM6NBN2az4b9++RcnAGHbEibHiu9wqxcHqSeUTaaMBucNG0NqRjBCz/MyPZ4wIE2TVJ3UW1iPimJgV3BxcxDCXGtcNdIaZRmAmqyobnX+B0NwW5RWZqdNHHvYVPlYeZA0GXOwy4MmMUdNnlVkCaStfk7uxZFTc2tnxdurbKKYzSP5j7tu4XqXJMNMIzGS04v/25i3ye57CKbJQCMycIvOFuBdpg3TlCKsySwCSQj3XIwZo1LdRlBnkSv8L9LBVf13qjGGmAZiRKvv48aNUa2V0vAt1xT+QUiMEZNtv5CKgTowtPLLXgOFZLi9awoy+HpgyIljQRupjpq76yqszsuonP5pjq/46rPoMMw3ATMau+G+oK37TA0Egy/vLiq+86eBkiwE1Ywwya5DR6xmDEfceKD8mZsOPKHV2deAFGp5Ocd/GHwCNYaZymJEVnwZJtkfP83m43y5VHmYR+XC9XQH/SuW74gc2GBDbT/0X5WhbtRqw1vqe0biA/kkDzrWLAdqRFuqqr/xG6jN9y7j/0ICHY3xMzFrrZwwzlcNMRiv+yzdvEJTZoDzIyPRxIxc+2b1CNkjTwZT9klvx14IZ/duswYjcJwYcEVRuPC7Iqn+hfwm1w9MYY3fjd9fPGGYqhpmMVnwKyNz+USEg234jDx6JDThYPSXEwZj2aB504vKPErrs/z40s4Bfu8RspA5sNOCUoK76NweMeMzqjGH2p4qhtdrfJmv/xamFFziQWKE4zKjTh2NUoUmVmddIlHw+2W7AvM7PKbMlhIueGhHcLAZodIinGKv+CoqHpnnt7DtrZ6zMVAg5ci+SFV+2DdIvX79BbEO/sK74Hgm1Qqz4VDKrH2fTx0ZgN21YwPUeMTAjq/7JLjEbqS/1L+DBGHfVX23tjGGmQpjJqMrIik/9F32TqhVXZV9bZOXDt3RESHkxZsCIKcm64m8EXN/72bYJA2hPnpIK2vy7SJ2J6tuY+MjIVv1V1BnDTGUwI1UmoxV/fvkVIqp7QSc5K95/MSIPO9PahSTFsDYD2iZ4g/T3gLXW9w0LC7jzQAzMaO3sROcSTgtwN57vW0LdU+7baK3OGGYqhJls5UU63qVtZApecQKs+DcL4BiZL+TQTZrlpz4yYMrAJca1oLXWv43PGXFCUFf9o2TVF2QGiX1gxCM2g3xjBmGYqQxmMlrxF16+QmiBmP6L267nwLd8VIgqO99uQM9z7r+4Fqx+9G9GoxE1o2LUGU1GqKu+8maQZZA6K3zCfRst1RnDTEUwIys+DYhsj4oH48qXFm8WgByM7neqhaiyI40GZDwxgkplP0rY/O9rX6PRWSOuiTKDkFVfSBPiFUQNGtE9MsHuxr/WzxhmKoGZjP0XKfiml15iV2KlEJg5RhbiQMlTIarsUqcBI9x/0SYgp715deNGhLSIUWjBbYtCzjwL71tC/uNZNoMwzP7Eavu7RH1PRtMH9V+8WdcvBGQOEXnwTmkVosqoPFXNVnybgMysWmntLG7AAGoJZnYcKvkcKsiqf23gBbpGJjHOnUFMFS1R+dtWv/dftnojUe9DVnzZTB+kylrHZuApwvRB/RfjKuFbJmat7Neeecwa1i6dmZM0P6/vOtGZZ60TRpwWZBZrU5IAACAASURBVAahQzxFmUGSH85hlGHGMBMFMPPvpfKijKaPF69eI7ygVYwqu5mPHcnNQjZIH202YIjLizZVZWbgzxmNuPvQKEyd0SGeZ/qUb0R8tm8ZzSOT3zj7LI0RsnzNa2YC18wIZDL2X6QN0vn9o0JUGZk+nG+VCmkkTGWvjEdzoIMmzQmYn9envNZ7nUZmFxDaKuYQT1JnYUKs+iu43G+UXp0xzATDTEZVNm5cQlieGCs+Hbrpk9MrZF3lfJcRwzO2Td7rTfIy/VzeUzEwo8kKqTPlrfpf1WDRE7nPPGOYCYSZjKqM+i9mdg7BJaZYSInR9Xa5EJDRCcmlT42Y47Uyu6vSOeMCLgvqqh/UZAQd4imiM8jV/kV0j8rbt5FhJhBmHz9+lGpPGZUXh2cX4J9SKwRkdFaZX8W4EJhF9hnwlNfK7A4yswLtnDCC1ieVdDSaf9exNjHqjNbOUh/NY1hSMwjDTBDMqCs+XXyZHmTFv9UwANrfpXT/xW3Xc7E7q0dIcjvRMo+qUQOfVabgBvEZgxHJD8XA7HCjwaTOlDeDLONy7zwqHst5IjXDTADMZLXiP501wCVaTHmRGhj7VTwTArPIPiPIaWdWDfxs/3VDanPVN2XEqQ4xQAtqNirvbOxdQmCTAdHdM3gw+kw6dyPDTGGYyWrFp7WygMx6xRUZKUA6QXpP3qAQK/7xZgM6JxlkIgBOe/lyh4zCjokJ6VTyzLNlnOpaME3WjjQbUPF4EmOSlRsZZgrDTEbTB62VFfSNiAGZqf9iDfwrJoSosvuPGGQiQGb+nQ+mjbgizAxiUGwjdXjP4jfxfaVrHoOjcpUbGWYKwoxU2adPn6RaJ6MAGzMsiTF9ROTDKboIe3IHvrnRzQv19n4+027AszmGmRksIp6pM0jJUyOONYkpN341g9h3I/XZvhcIXqUvZdZDubrqM8wUhJmMpo/Xb9/ibtMDuEQXKa/MSJXFVwnpv0iHN9Zy/0VVrBNOzIvrqk9W/ZN27du4jNDOr+VF68nZiVYDBiRSZwwzhWBGpg8ZVVnns1n4JtcoD7KbBabf6V8pxvQR1TuP5/OsykSosdV+Z+dzcRupg1vtd4jnub4Xa25BuN4jjzpjmCkAMyovytgVf/Hlb4ip6RECMmpb5XW/QUh58ViLAR106KaCVvTVEjh/71vXZOSAmFIjWfVPdNr+EM/wvmWEtK2uyswq7UjDPGqHnktx5hnDTAGYkSqTbYP023fv0PJ0Ct53yoXAzPFmnhCQUXkx6aGBVZkKQT5hMCK0VQzQjrTYWp0t43T34pqqzAy0q11zeDymfzMIw0wBmMnYf9G4/BJni9qFgIz6L+7NGxQCs3MdBnQ9/1YRsEJSx/WgvWclTw3CrPo2VWe9SwhZ53E3x5rmkftwWvdWfYaZnWFGVny6yLI9SgfH4CzI9OGRUIeA2lnFYXak0YD0x0Y+q0yFqowmFFT2HZ0zIqJXjDqjDc226ar/VZVRFcCsvn70fLlzDp0j+u7byDCzM8xkKy9SQBlWXmFPYqUQVeZ4Mx/7ip4I2SBNqmyErfiqcDB+Tw3T8Tt140YcX8XK/iMg2OLfj7YubL0zSO/Sqlb8tf6+oEYDMgan8VTHG6kZZnaEmYxWfAqoG3X9QkBG5UXvtHYE1CmvyiiRlI0YYDSqo6T2vWTO31/AxJwRd/rXr2rWgsRm/i20e3lLQDvfuzlnZkjLHDqG9bt2xjCzE8xkNH1QMPVPzsMtRvk9ZeRedIktw/7ioXWXXjaTiL73fy52G1StSBhi304ymp4ZcWqda07fG/PNfp8O8dzsmWdne19sKb7vDs5hRKfqjGFmB5jJbMU/VyzG9EE9GHemtW/pRt9sciIr/uAU7ynTEjDnjQu4/8CAwAYxCi2kg6z6G+sMEt63hJMdm1Nl5tg+0mRA4/CkLpsQM8zsADMZ+y+SFb/8wTi848uULzGSKrtVBv+q50JglvbYCHLKaSmZ89+6gIfTRoQJVGdh3RtrRHyqaxEbMX2YAWb9fKFzHkNj+uuqzzCzMcxk7Yo/Ov8CYXnNyoPsZgG2Xc/BnvwHQkB2vtOAR9MEs2/LWAwL9V8PU9/Gka0pHWtQbOT18fb1H+J5tm8Jx1pt97dmPtJfZxCGmY1hJqMVn/ovFvQ8FdN/8WYBnGOKcKh+TnGYkUOMmtjyWWXqB9f3JhezBiMu9IgpNVLfxtB1qbNlnOy0jSozw/Z06zx6R/Vl1WeY2RBmMnbFp+NdRuYX4ZdWK0aV/ZotBGSUFGi/0tAslxe/BwqtfL9/StyZZ1+76q/lblxGuGmDtO1UGcVuYMM84ntpI/W4btbPGGY2hJmMVnxTV/yWR0JAtj0iD96pbYorMkoGIS0GVIxqV5FoBTRK/J0zBiMSHohRZxRLa6qz3mWEdqzdf5HeYzOP080zqH00rpu+jQwzG8GMrPgfPnyQrtPH4JQBnsJMH6XwrxRj+ojpo/6LDDMlYGPv30HrnX2TRoS3z28KCpsBieX/ob6N33U29qzdFd/yfTbz9e3eWTzSSd9GhpmNYCZj/8VXb94gJK9FiCpzuJELn+xeHKpTfq2Mukd0TnJ50d6QUfL9pw1GZD82IEjQIZ4hnS9W2Ui9jJPtti0vWgMvpGUeVY8nddG3kWFmA5jJaMWnwCl+MA7HyELFYUblReq/KMqKn/BgHrRPSclky7/L/tf70fQCrnZtrmRnDYmNvqa+jad6vl07O9+3oMg+uF86pvFwVPtWfYbZFmEmo+mDgmZuaRm+9wX1X4wshE9Wj5D+i8daDZjhPWW6BDmVG/OHjQgWpM7oEM8zfV83Up/tW8aRJvuqsv8Adx4lj6c0bwRhmG0BZgQyMn3Itlb2+s1bxDUOCumKT22r3O/WCHEw0obVmnFuW6VnlThlWMC1blJnyq+fkVX/60bqZZzuUgpkX5Xo8TYDnmh87YxhtgWYkenj06dPUpk+yIrfMzEH/+QaxcuL1LKKypoHBPVfvN5rwNQ8r5XpGWb02Rqf0dqZ8jAjpXS8bQHhPQugtlP/UU7KfB0/MIexZ9otNzLMtgAzungjIyN48uTJuh9DQ0MYHh7e9OPp06em30m/d7OPsbExbPbxdGQUsRXtcIpSfq2MYOZ9vx7BLUYca1sA7dFR4kEJ5nirERltD9He0YnOTn5o4Rp0dXWhu7t7w4/O7m745nfDJ7v/6yOnHz4bfOzJ7cdmHn7Fj3CkYVpxkBE4jzbNobq9B+3t7Zp7UDz+9ttv+HML+VwN//dfov4IKi/29fWhrKxsQ4/y8nJs5VFRUYGtPCorK7HZR3lFJa5nlsAtukBxZeYWX4mA6gmEdVOT1mWTnZkszfZ90O9ZxpneJVytG0RqZjYyMjL4oZFrkJmZiY0+bqZkwSky31QFoEqAY2QRHKPs/3CKKoJ3aisCasXA7HD5E8QnpeD+/fuae6Snp5vWcUWxwFa/VxjMaM1sfn4edXV1G4LZRuGntp/PKy7FobvKKjNKKr7lY6a1DFJj5oVyRZ97XuB2QSWDTCMg28ykIyU9A/tjc+FwM1/xyRodYeRbLOZgWWoHdyU5B/Hx8Zp8EICp2betoCLqfYTBjD7wly9fMDAwIBXMCK4xOcVwV1Cdeae04NBfh25+7Wn3rY1ZKaidbZtEuo6T+WYAoJf/k56egfDEbLhEKg8yKqHvSG4WUl48XD+Po/ltmoSYGb4MMxvVV5eXl9HQ0CAd0ILvKaPOTDNWkyr7z0L4j3vabeysqI3A8GZFGwNNh0CPTzWrMuVL6C63ShFQNS4EZoFV44i4n8YwsxEPtqLqhCoz+sOp3EjGDrWVA+3992QUlcEjxr5Ao/Li7qweBPylyswOL1JnJ7uWvt8G6K/9OhuB1Hp/9mzHDBJyi7ncqCOgUXnxVEK2aa2MVJLSj725vUJAdqhuBmeyahAbf5dhxjD701SnJTOIjOrsamaxXW9897u18CtffcZKm0xPkTnDjuBa9b17l3CtZgCpmVkMNB0AjcrGt1IysTMmz66x/D1AetytAkHFPFFT8jm49AEiElM1DTIqNXKZ0cYkNhiN0qmzgpJS+CWU2CUJOMeUYH/hwzU7fZzo3NhpvavCaYMwJHfjuY4Z3C6qZpjpAGakyo7eybFLDH8PYObvm/ZNlgwJAdnhmkmczajA7fg7DDMbs2CzpUbhZUbzH07lxt7eXqmAVlpahjt5pXCOsn1pZld665ogoxks9bSzBaA2/B69y7ha/wjJWbkMNI0DLS41E86CTB+7UlsQUKu8KjtUP48TpYOISbiveZCxMrMTiV+9eoXq6mqpgJZXUoqTSUU2tTM7RRcjoPrZumasxztW6zhuPwOIGXzhXQbEltSzGUTDMEtNT8euW2JUmevtcviWja4rxm1degysfo4LyXm6ABnDzE4wI6s+dfigTdH2NmCo6f3v5BRj5y3bWZr35/et+yannolhPcqXGwlqvzSPICknn4GmUaBdSMwUVl7cndn193YTW8PqR+8XUtiJ2xrdU2a241s+85qZHYBGpcaXL1+ipaVFKpgVlpQgPLkIzpFbLzd6JtTisJV78Uc3J5lBTJ06Nrj+ZVZZm37uWUJkWQvDTIMwu5OaAc8Y203AzOtg63l2u1MFv3IxquxQ1Tiu39O+6YNhZgeAmdfMzM90vhn1PqSWUWpST/b+W9IKS7H39tas+lRePLCJBXFSZydWPeDQ/uXGc52zSMrO47UzDQGNHIzH7uTAUUCnD2qNtSe7W8jJDzQpPJNZqZvyohlorMzsCLZ379+jta1NKpiRGYSs+k5bUGe709s2vSB+tGXhHwccblpxbUjhLeOX+kcMMw3B7EZyJnZEi7Hiu92pEdd/sWQQMXcSGWZ2zP1mUbOZZ9W4Ga3/+OnpaenUGak/n7jNlRpd42hB/Om618pWKz2GdHxtQqwMxL5VfXGFlVxu1ADQktMzcCRejOmDSpC+RQ+2FOOrxf16vkd72a6l5CFOR2tlrMwUojKVGzs6OqRSZwSzpIIyuGzQqk/7bXZldG55QfxI8wLCur921FcaaJdaRpGclcMKTcVAS0tPx5V7mXCLEqPKdiQ1iAFZ/RxCCjoQffee7lQZAY3LjApAjcwgVVVV0gEtNGVjnUHc46vgb9V/cT2zzdV+5nj7ohAzSHj3AiLLW5GWkclAUynQElMz4HdbjCpzvV227u0mq8X1Vr4XVDmKKzpVZQwzBUBGZUdyN5JV397mC7W9f3phKXziaO/Zj0uOtCC+P6/vhxuk13sz00bqr8fPf1sGtLdSIzflxZZxJOZx30Y1dtKnrvjn79FZZT+OyfXE7UZ/Zm9uv81ifL33Av0clRfD8lpw606CLlUZw0whmBHQqG9jc3OzVEArLi3Dr5kl60ocHndrbN6b7mjrgpjOID0vEFHVzX0bVajMktIy4BktxorvlViHg1XPFYcZdfo4WvkU1++n6xZkDDMFYfbvf/8bs7OzUsGstKwMmUWlOJzwY3V2sGLELusIJ7oENCHuW8G5tikk5JVyqVFlQDskyPThFF2EvQVr9xjdiNLayM/SoZthWdW6NH0QxMwPXjNTEGjv379Hd3e3VECj0ufNzCK4rzEb3pPZbheQ0Q1Px8QI2Ujdt4JrdYNIzcxmoKkEaNEpYjp9UCnSO7kJh2om7Rbna8EtsOwJYnRcXmSYKQgxs12f1s7m5+dRW1srFdDyikoQnFgIx1XWzlxvVyDAzjf58Xay6iu7dmZam+teQFxBJcNMBTCj8uL+27nrWr/d6DrYj37e5VYZDhQ/FgKyQ7XTuJiU+7d6MSd+PT6zMlMYap8+fcLg4KB0fRvv5pXAK+bbRXey4n9dEJ+z641O6iy0W0zfxgvNY7x2Jhhm1Onj/L1suArqir8ztWXL203WUl5r/VtIXqsUICM4M8wUhhmptKWlJdTV1UmlzkpKy3A65du1M6/79ThYNaHIgvixtkUhh3ie7l3CzfJWVmcCgRabkom9sWL2lNF5fP6Vqx8suxaEbPJvlaO4fk/fpg9LhckwEwAzMoM8efJEKpjR2hkd4un+lzqjm3yfggvi1LfxZJeYY2LOds4jMaeAgSYAaGnpGQhPyIaTIFW2L6dHkcmaNfwO1c3hQlalLg7dtATWWl8zzATAjNQZlRtl3Eh9O6/UtG7hdb8Bh2qn7FpetL7Byap/qkeAu7F3CVdrB7nNlcIwS09PR3RyJjyjxayVucdXKhrf5ng3WfFLBnAjMUWaEiOXGQWBzGwIob6Nsp15VlxaiiOpFfAteSLkRhelzs51zCKuqJqBpiDQUtLTceJOlhDTBzUB8CsbFhLjh2smcSGjQvdWfGuVxspMINCo3NjV1SVVubG0tBRJpTUIrl3fCdLm2aatnoOayaovwNlI6qz+ER8ToyDMopIz4RolZoO0d0rzpk9+2Eqs056y48W9iExIkkqVsTITCDKzOiMzSE1NjVRAKywrx7WqXhyunxUycyWrvr3bWq32/uFdBsSWNiCd+zbaff0wLSMD+wSZPug8vv3FT4SslQXVTOJySr50IGOYqQBmX758wZOhIalgRp1BUsrrcLJ2TAjMaOYbJmLtrG8ZF5tHkZSTb/dkrsa+iEr+TdR/8Uf7v+z1796pbQiomRYS28fy26UyfViWGrnMKBhotJGauurL1reRgHa9qkeYOhPWt7F3GZFlLbx2Zsdy4720DHis0XHGXhCj93W+VYb9hY+FqDJqJhyVoM/jXSyh9b2vGWaCYUblRlo7Gx0dRUVFhVQKLausGmG1ozhcP6/4LJas+ie6loSsn4V3ziKFzzyzizqls8qOxmfD8aaAtbLIQnin2q8121prabRWFppRKWV50Qw3hpkKYEZAe/36Ndra2qSCGe09i6lsQ2DdjOIwo8RwtGVBULlxBVfqBvnMMzuos4ikDOyIFrNB2uV2OfxsdB7fWuBa7d+OlAxKW15kmKkEYmYjCJUbJycnUVlZKRXQisvKcaZGTN86UmchHdS3UcDes55FxBVW2UWdKLk2pabfReXFwPicVXuA2rO0aH5vn5w+IZOyw9XPTaaPOIsO8uYEL9MzKzMVQe3z58/o7OyUCmakztLKa3G4TsyC+ZFmo5BDPMnt+EvzKFKyuKu+LYBInT6u3M+CmyArvuvtcgTUKu/OpQ3SoQXtiLkr71qZGdgMMxXBjFTaystX0sGMzCBXKzrFzGobDPjaVV95dRbevYCo8hZWZzYoNyakZmB/rJhOH9Qw269SzL7JwMoRXE7OlW6DtBlgls8MM5XBjID2+PFj6YCWV1aJ4JpRIUCjcqOQNld9K7jUMo7E3CJ2N24BaOnpGbh8X5wVf0dysyD34ixO5zbhtuTlRTPQGGYqhNmHDx9QX18vFdBKysoQV9GGQEEbqYNbF4Q4G8/0vEBEVTcfE7MFmJms+DGCTB+xZfCrUF6VUXnxSPkQrknUFd8Mre89M8xUCDOy6pMZRDarfnZZFc5WPxZi1SeH2MkuMWeenWubwt38clZnmwAanVUWfCdHyAZpKi/uzupBQJ3ya2WH62YRnlkltRXfGmoMMxXCjJyN7969k69vY1kZ4itaEVwn5nh56tt4SoCzkc48u1bTz+psEzC7mZIJp8hvD301uwvt/eyRUCtEldHEK7DsEaLvJjLMLEqsDDMVwozWzUidzc7OSti3sQIXqx/gcL19T59eba8Ofe94+6KYvo3dC4grqGAzyAaAlpKeAd/bYkwfTlFFICs+lfu+F0v2+v6hullcS8pkkFmAjFQaw0ylMCOgkVW/v79fqrUzsuqnltfhmCh11mREaLfyzkay6p9recYw2wDMziVmwUXQoZseifViyosNBhzLbWb3ohXIGGYqBhnBjB4LCwuoq6uTDmgXq3qFzHpN6qxtUcxG6r4VRJY389rZOoAWn5KOfbfEqDI6q4z6L9pLea35vpUjiExMZlXGMPsKCDMotPBM5cZHjx5JB7NcsuqLOvOsyWgyg4g49+xsxwzu5RSyQlsDaKnpGTidkA1nQarMK6lRCMiokfDZzCrExt9hmDHMtAczAu6bN2+kVGdx5U04XC+mb2Nw26IQM8iZ3iVcr+1HWmYWA20VoJF78VZKJnbdEmTFv1UK/6rnisOM1uaOlQziZmIqg2wVkHGZUQNlRrN6nJqakk6dFZeVIbz6oeKJw1TmaTTgZCd11Vd6/WwZ5ztmuW/jKiCjtldk+jh+V4wVn9yRe3L7xcRj9XOczyiXvpmwtR3f8jUbQDQCtD/++AMdHR1SAe3rIZ71CKybEpJAyKqvPMxWcKZ3GdfqHiKZj4n5hzolVSaqvOh+pxoHqwXEYv08TpT0sxX/O4rMDDSGmUZgRgpteXlZuo3UhWXl+LWqX9hG6uOmrvoritv1w7uNuF1Sz2YQC4WWnp4On1gxqswxsgj7i58KmVQFVk/gYlIOlxcZZtpcJzOXFy2fv3z5IqUZJKW8HiG1Y8LcjaKs+peaR3A/p4CB9hfQLiZmCOn0QeVFr+QWMaqswYCQ/HYG2Q9AxmtmGlJlBDXqDLKysoLGxkapyo3UtzGislvYIZ5f+zYqvXa2AurbGF3axDDLyEB8agY8YwScHn2zAC6x5dhfNCRElR2uGseNBLbim0uJaz1zmVFjQPv9998xMjIi3SGemWXVCK0ZEVJupK76JzpfKF5qNG2kbp9CUnbeP9aObHEGmFbeg6z41H/R8aYAmEUWwjulVdBZZXM4n1nBqmwdqoyVmcZAZi45vn7zBi2trVKpMzKDxJQ3C+uqf7RlAWE9AtRZ3zKu1g5IDbNfk7LgGS3Iin+7Qlj/xaCSQcRy/8V1w5yVmQaBRuXG58+fS6fOqNx4svqJmHJPgwEnOsSoM9p7Fp9fLiXQktIyEBRPpg8BquxmAXZndQtZqw2omcKvyTnctmqdqoyVmQZBZlZnVG5slUydUd/GzLIqYersSLMRYd2090x5dyOZQVIk20htPnTTNUoMyFzjyoRMnGiD9Mn8FsSwKlu3KmOYaRhmBDXq21hZWSlVuZGAdqWyR2BX/RdC9p6Fdy8gqkyevo3U6SMhNQN+grri01llvqVirPhBlSO4lsxW/LXMHqv9G5cZNQw06tv48OFD6WCWU16NEzWjQmbNgU1f1RmZM5R80Obtiy3jSMwrlqLcSKrs4r0sOAo6q2xHSouQ8uLh2mmczmnErTt3N6RKVkvusn2PYaZhmJE6o0M8GxoapAIarZ3drmxDYP20EKAdbV1QFGR/Q7NnERFVXVIc4nk/LQPeMYJMH7Fl8C1Xfl8jlReDy4cQwf0XNwVyhpnGYUbq7PnzSalgRqXG3LIqXKgRdAxHgwEnu0Q4G1dwrn0aCflluldnR+6I6vRRCJ+cfhyqE3A4bN0sTmdUsOljA6YPS/XJMNM4zMzqrL29XTqgxVW0IKhuUkg5KKhJUN/GvhX8WtuP1Mxs3QItOildWKcP97s18KsYF6L4A8se8fEumwQZQY1hpgOYkVV/enoaVVVVUgGtoKwCF6mrfr2AWXSDAaL6Np7pNuJOfoUuYZacnoEDokwfUUUmVbbm4ZgNBruA7lDtNC4nZW2qvGapTmT+mmGmA5iROnv//j36+vqkghmVGxPLGxBcq/z5UpTwqKu+qL6NFxuf6k6dkYPxwr1suAg6dNMjsR4Hq5Vfh6W1shP5rQyyLagyVmY6ARnBjNSZ0WhEbW2tVEAjM8iVyl67zJbXM0M/1rYoxKp/umcJkWXNulJnt1MzsS82V0iJ0Sm6GPuLxGzID6wYRsQ9PnRzq6qSlZmOgEZnnj148EAqmJE6yyurRFDdhBCgBTaRGWRJiLvxXMcs7mXn6wJo1H/xdEI2nASpsh1JTWJMH/WzOJ9VyYdublGVsTLTEchInZnLjTJupI6vaBICM1Jvwa2LOKX4idR0iOcSrtX06wJmMckZ2BEtSJVFFYkBGcVOcT8iElPYwcgwM+VvyuH/Midzfv4TY2Nj0qkzakQcVv1YiLORgHaik9pcKW/XP98xg/jCSk0fE5OSlo6Q+Cwh5UU6q8wnp0/MRIgO3Uwv4bUyG4CMlZkOlRnBnMqNbW1tUgGNYJZaUY8jgswg1LdRmDqrf4TkrFzNKrTI5Ey4RBUIgRlZ8QNqZ5SHWf0cThT1IOruPYYZw+xvVcbKbBUokxlERqv+lao+cVb99kUha2dnO+cRW1KvSXWWkp6BfYKs+GT62FfwSIiaD6p+hssp+QwyG4GMldkqENBLmfLLly/S9W0kdZZSVoeTgvo2Hm40CLLqL+OXpqdIytGeGSQ8MVuIIqPy4o7kFhysmVJelVEHmdwm3Ob+izaFObsZdQo0suovLS1J2bfxRmUXAusElI4aDKBDPP/upahkM+KeJURrrKt+QloGPKLFHO/ifKsU+wrFrLEGVD/n8qINFZnZ0s8w0ynMzGtnQ0NDUq2dfe3bWInTtaM4XD+v/Ky7kcwgdEyMsl31CaBnO2c104SYuuIHmfovioGZd2qb8rHRYDCVNM+kFdtUkZiTuezPDDMdw4yA9urVK7S0tEgHtOiKVgTWi1Nnp3qUdzYS0K7V9CE9I1P1ZpCI5Ex4RQvqin+7Qlj/xSPF/WzDt4Mq4zUznYOMYEblxvHxcekO8SwqK8eZakEdHRoNCOkQc4jnmZ5FxBeou28jHe8SFC+mKz6tle3O7Baiyg5XT5hMH3F2SuaszO6buiBp3ffA+8zWAPPHjx8hY1f9tPJaHK5Tvtce7Tsjq35Yt5jOIJeb1Nu3kcqLV+9nwT1KTHnRLa5CiBX/UP0cwvJbEHMnkUuMdoI5lxnXgIDWCW/59y8sLkpXaqT1sxtVgmbh1FW/XYw6C+9eQHRpkypLjQmpGfAVZMV3jCw0Hbq5np6btv6ZoIphXE3K5hKjnUDGZUZJQGYuNw4MDEgHNOrbeJTMIHY6umOt9w1sNEDI2lnvMn5pGcO9nEJVPHqITAAAFIxJREFUAS09PR2XEjLgcFOMKvNKahSyp+xQ3QxO5zRw/0U7goxhJhHMCGgfPnxATU2NVECjrvq3K9pwuG5WCNCCTV31lXc20trZzapOpKnIDJKUlgHPGDGmD+dbJfCrfKZ4DNDxLsHlQ7ieyF3x7b2mx2VGiYD273//29S3sby8XCqgZZdVfzWDiLDq0wZZQWtn51uf425+mSo6g9BZZcfuijN97MrsRoCICU3dDMIzq3idzM6qjJWZRCAzlxrfvn0rnRmEOoPcqWhBcN2k4jNzKkOa+jYKsOqf7l3C9Zo+VRzieTM5E06Rgvov3qmBX/m4mLEvGUTMXTZ92FuVMcwkgxkBjdTZ1NQUqqurpVJnBWUVuFD9ULq+jeFdBsQXlAtdO0tOz8ABUaaPqCL4ZPeC3IRrrW/a498CaqdwJSmLVZkCqoxhJiHMTGtnHz+ip6dXKpiRszGpvB7HBKmzoCYjQgWVGy80jwqF2dnELLgIOnTTI7FeiBWf4Hg8p5HdiwqBjGEmKcwIaCMjIygsLEROTo5Uj7NlXUIcbZTcjrWJOcSTzlm7nV2EpKQkxR8JySnwvZWD7RHKOxgdo4qwr+Ch4oqMxtq36CGi4hNw+/ZtaR5xcXGora1FY2OjkEdrayt+++23b45ToVyntQdvmt7goFFX/ejoaDg5OcHR0VGax3Y3D+zPHxSS4AKbDDjZpezeMwJZQFqN0PH9X99gbLuWqXh3fK/7jULG+WD1JFxCr8HByVnodVfyvqY8cu/ePVBe0Ro81Pb3Msw2CDMawOfPn2Pv3r3S3HB/39xBZ0AJxx7rJD96z+DWBUX3noU0jMPN/4jQMXZwccVPp6MVhZlzTAn8KycUH2Nam9t1twKO3nuEXvO/Y12hiWpgYCAmJiZM7fPUBget/T0Ms03AjPo2lpSUSHXT0U3u4OSEHbGFiic6M+hOdi2BFJO9j4o51f0CeyNT4OjqJnyMf9rti23XcxUDmk9On5Dx9S1+AtfjF0wxpjRQRP0+d3d35OXlgdrmaQ0cavx7GWabgBkN5Pv37xEWFiY82Sl5Izo4OsLZNwj7C8Wsp5BVXwmYHS3th7v/EdDnVfL6rva7aALxX6ERisDMLb4KB2uU78kZUDuLXbFFcHD3FH69VxsDe33v1KlTmJmZYVW2yRxsDVSG2RYu5MOHD+Hq6irVDUilL/dLd4SZQUI6X9hVmYV1zGPP1XhVrdtsd/fEtl+z7Ao06r+4v3hYyLj6lQzBwe+oKiYP9gKX9ft6e3ujoqLCtOXHOinz682ZTxhmW4DZu3fvTI4r2cwgTvsPwSe9TUjio5JjmJ02UpPqC8xrg/PufaqaoJBC/O/DZ+zqbPRKasLB6inFS4zUtsrjeoqqrrc1eOzx+vTp03jz5g2XF7eQf62hzzDbwsWktTM6kfrgwYNS3YzkNvM4HwN/AT37CGbBbQt2KTeGts5g17kbqhxLB89d2Hbpnl3UmUtsGfYXiTnDjkrW2zx3qvKa2wNi9J4eHh7o6elhkG0h91qDjF4zzLZ4QWntjLqa02KuvYJfje/rsHMPfJIbhHSIoK76J+1QbgxIr4OTStdtaALx86EwbPs12+ZA805tE9J/kdbnnI5fkOq+oXuZtvb8/vvvDLMt5l5roDHMbHBBJycncfz4celuSudj53Gw6rnipSlSZ0dbbGvVP9VphKtfkKrHcJvXbvwcftumMHO5XSGs/+KOO2VwcHFR9TW39URy//79WFhYYJDZIO8yzOxwEf/44w8UFxfD01MuN5aDswt2xJcJgRkB7USH7cwge6NS4eCo7o3w9Pf9dPCkTTdS78oU09nFt3QELv7BUpk+CIx08gYtT1gnYn69OdOH5XVjZWYjuH348BHBwcFSzTLp5ty2wwcHa8RspCarflg37T3b2rlnx+tG4KjS8qK1Mtju6o7t5+JsYgZxuVUiZCJCpg/Pa0lwcJWrNB8aGoqXL18yyGyUcy1BRl8zzGx4Yfv7++HmJn6jrXUCtPdrl4txQtZcSJ2FdGytzdWpLiO8z17X1CTkf/YHbX3tLLIAB0qGFYcZgWxvVhecfcV2V7H3PWH9/l5eXmhubgZVcayTML/euipjmNkQZHQx6ZiY2NhYTSVG65tuU689vE1WfYKL0g/qqh/WvbmuIGTFP5zVBJdd2mqhRBup/zfs5pbWznYkNSk+VhQb/lUT8LwUDwdnefZn0tadGzduYGlpiUFm45xrORFgZWbji2s0GiW06jvB9cQv8KsQc5Aj9W3cTIurkIZn8D51GY4abGz7k9euTaszl1ul8CsfUxxmpMr2pLbAcZe69vFtagK3ge4wBw4cQFdXF2+QtnGutQQZKzM7XFwqI9Air2wbqR28dsE7tljxBGlWgie6ljYEtNM9L+B/rxROnjs0q6R/OnJ+U+psd1YvDtXNKj5W1KTa+eQVqUwfLi4uuHXrlqn9nXXy5de2KS+aryMrMxsDjZxKZL09f/68ZpPkZmaqpr6NR85gf+EjxZMkAY3MIBtRZ2T68Dh6StOJdbubJ/7n3J0NAc39TrXJik8qyTwRUOp55/0GVbUJ20ycb/T/+Pj4cFd8G+dYM7ysnxlmdrjQtHZGi73Uf22jwa/ln6e+jTujcsSdUNyxuK7OIKTKfOPzND82ZNXf7nsU26/nrAtoTlFF2JPTrzjECJbUKusnHz/NX/ON3p9paWm8TmaHHGsNMnrNMLPThV5ZWUFERAScneU5aNB0o/seMR3iKWLmT2aQ0O4flxuP147AZa8+Eus29x34Kezmuqz6non1Yvov1s3B7co96UAWEBCA169fM8zslGOtgcYws9OFpnJjX18faPF3o7M5Lf88qQWPX+4Ka0J8rG1tdUYOxl2XonUzJlTe/Zms+ldS11RnTtHF2Ff4WIgq25PZCUdvH91c8/Xcn7RFp6Ojg0Fmp/xqDTJWZna+0J8+fUJCQoJ06szB0xt7sruFJE5SZ3SI5/fWzw7ntWtmg/R6kib9zHYXN/wUchXbb3z/EE+v+41C+mhSuzO3sGvSrZWRFf/Dhw8MMzvnWEuosTKz88VeWFzE7t27pZqVUoLd5n9MSPKk9Zng1kWcWuWYGDqrzP1wiC7HYpv3Hmy/nLKqOqO1MhHHu9BY7LpTDkfvPZo22qx3UmH+uT179uDJkyfctsrOudUSZKzMFLrY1dXVukyg5pv3e88esUXCyo2kzixPpaavD9wtgJObh27H4r8OnVp17Wx3dq/iKpnWTH1LhuF6TC5XL90LqamprMoUyq2WQGNlpsBFp71n1Jfte0lfr9933n8IB4rFnJN1pMX4DcyO1QzD89AxXY+B6ZiY8wnfqDO3+Coh7tKAulnsvFWA7a76nTysdt9Sf9bR0VEuLyqQVy1BxspMwQv+4MED7Nwp1yGE1EjW40oC6NwqpfYyWf6e4x2LprWzsE4D9kWmwsld/4n155378POVNBPQTKaPoidC1PGBwkdwOijXsUh06GZWVhY+f/7MMFMwt5qhxspMoYtOi8FkBpGtM4jTvgDsSW8TArPDjQZT38Yjxb1wPXBI16rMrBLI3fjT4dPYHpGHHcktwtbKPKgrvgbbhJmv42aeQ0JCYDAYGGQK5VQzxMzPDDOFLjxZ9UdGRhAUpO4DIDdzE6/1f+jMM/dz0fAX1LcxoHIUPlfjpUmsBLPtHt7YfuEO9gtSZfvyH8DBU64qBLWtqq2t5f6LCuVTM8AsnxlmCl78L1++ICcnB66u8nQMJ9A5uLjBwccX2/cdUv7h4w9Hyc7N+gq0Hdi+N0D5673vEBx2ausUgrUmY+v9txMnToDub8vkyl/btvfij64nw0xBmNFgzMzMICwsTIqS13oTAf+cI8fDBrrQqy1eaIP08+fPGWQK51JruDHMFB4AKjdWVFTA09OTE5iGE5jaEir/PWImBLQGnpSUxCBTOI9ag4xeM8wEDAL1a5Otqz4nWzHJlq+7fa/7kSNHMDc3xzATkEetgcYwEzQIQ0ND0q2dcWK1b2Ll66vs9aXyIp1dyGtlyq6NWUPM/JphJghmtJE6MTGRS41cauQY0GgMXLhwwWTFp6UDc0LlZ3FgY5gJghkF/bt377Bvn1xHyLN6UFY98PW2z/WmBgh1dXXcf1Fg/rSeODDMBA4GHeJJe1OoXMFJxz5Jh68rX1dbxwCZPq5cuYJXr16xIhOYPxlmKrr4NBhLS0v45ZdfGGYaLTXZOlHy+6kfvj4+PqazCq2TKb8WV2Kka8/KTDDcaO2stbUVe/fuZaAx0DgGNBADt2/f5v6LgvPmahMHhpkKBuXNmzeIjo6Wrm8jqxD1qxAeo2/HiFTZwsIClxdVkDetgcYwU8GgkBvq4cOH8PPz45m5BmbmnOC/TfAyXY/Kyko2faggZ1qDjMuMKhoUMoNQV31nZ2cGGgONY0CFMXDy5El8/PiRVZmK8qYl1FiZqWhgqHzh7+/PiUyFiUwm9cGf9Z/Kc8eOHejq7uau+CrKl5YgY2WmwoGpr69ndcYw4wmNimKArPgxMTH47bffWJWpMGeaocbKTGWD8+nTJ7bqqyiRsUr5p0qR7ZocPHgQAwMDrMpUlivNEDM/M8xUOEDj4+OgDgOyJQ3+vAwOtcUAHbpJbed4rUzsHjIzsNZ6ZpipEGZ046SlpTHMWKFxDAiOgUOHDmFiYoLLiyrMk9ZgY5ipdJDoBjp69CgnM8HJTG1Kgf8e5dQrOYszMzO5vKjSHMkw08jAfP78GYWFhXyIJ8OMJzSCYoDOKnv58iWrMo3kTFZmKh6o+XkDzoSHczITlMxYBSmngtR2rWmtrKuri0Gm4vzIykxDg0MbqRsaGuDt7c1AY6BxDCgYAxEREXzopoZyJYGNlZnKB4zKjRcvXuREpmAiU5tK4L9HWYW4a9cuTE9PsypTeW5kZaaxAaIBe/bsGZ95xjDjCY0CMUCmj6ysLNB+T+tkya/Vbc9nZaYRuLFVX9nZOashOa/38ePHMTk5ySDTSF60nGAwzDQyaHSqLVv15UywDFZlxp36LxYXF/NZZRrJiZYgo68ZZhoZODKDNDc3w93dnctNCpSbGCDKAERN1/nMmTMwGo2syjSSExlmGh0oOvOM9rzcuHGDYcYw4xiwcQyQKiPnME0arZMkv1b3Wpl5fFiZaQhuBLSenh7s2bOHk5mNk5maFAL/LcqrwvDwcPz+++8MMg3lQzPEzM8MM40N3tu3bxEfHw/a1MlJT/mkx9dcf9fc09MTo6OjDDKN5UIzxMzPDDMNDuDw8DCoASonVv0lVh5T5cf0/v37DDIN5kEzxMzPDDMNDiKVQ6gBKqsz5RMfw0Zf15z6Ly4tLTHMNJgHzRAzPzPMNDqIy8vLrM543YzV+RZigCaD9Wz60A3IGWYahZnZDMJKQV9KgcdTufG8fPmySZXRvWSe3fOzNpyLq40Tw0yjMDMPJt2QnACVS4B8rfVxrekk97a2Nrbiazz/mfMgPTPMND6YdIjn3r17GWhbKDcxoPQBqPWOI/VfjIqKAnXVsUyG/LV2VRnDTOMgowGkhqjUGJXNIHIl5PUmbv65f8aFr68vBgcHGWQ6yH+WExBWZhofUKr3U2PUkydPsjpjdcYx8IMYIFWWkJDAXfE1nvcsIWb+mmGmg0Elq35ZWRm8vLw4mf0gmbFS+adSkema+Pj4YGFhgVWZDvKeGWLmZ4aZTgZ1ZWUF586dY5gxzDgG1oiBiooKBplOcp4ZYuZnhpmOBralpQV0Sq5MM23+rHIrrY2MP51Vxv0XtW3yMINrtWeGmY5gRmYQ7qrPyX0jCV6Wn/X29mbTh45yHcNM54NJA/z8+XPQjStLkuLPyfBeTwzExcXh/fv3XGLUcQ5kZaazwaXzmIqKihhma6ybrCf58c/oB5LUlHtoaAjc6UO/JUaayDPMdAYzGlQqNwYHBzPQGGjSxwBZ8dMzMtiKr8M8Z11qZJjpcJBpBtrV1QU3NzfpkxkrLP0orM2MZUhIiKn0bp34+LX+VBrDTIcwoxv1t99+M7XscXJyYqCxQpMyBjw8PFBQUMD9F3Wa46wnJAwznQ40rZ0NDAzAz89PykS2mVk8/x99qbiwsDDQUUnWSY9f60+V0ZgyzHQKMxrcd+/e4d69e3B1dWWgsTqTLga6u7sZZDrOb9aTEoaZjgeb1s6oq35gYKB0iYxVlr5U1kbH89q1a/jy5QvDTMf5jWEm0eCaBzs7O5vVGSszaSY0np6eWHnJx7uY739ZnlmZSQC3N2/eICgoSJpkttFZPP+8flQcWfFzc3Pxxx9/sCqTILdZgpphJsmA9/T0wN3dnYHGCs2mMUDwoLP01PIIDQ2FwWDgDdKS5DWGmYQDTTPVuro6lJaW8oOvgc1ioLKyElVVVap5DA8P81qZhPmNoMbKTNKBt5zR8Nf6tCrzuPK4yhQDDDOGGa8tcAxwDHAMaD4GGGYcxJoPYplmn/xZWW1xDKweAwwzhhnDjGOAY4BjQPMxwDDjINZ8EPNMdfWZKl8Xvi4yxQDDjGHGMOMY4BjgGNB8DDDMOIg1H8QyzT75s7La4hhYPQYYZgwzhhnHAMcAx4DmY4BhxkGs+SDmmerqM1W+LnxdZIoBhhnDjGHGMcAxwDGg+RhgmHEQaz6IZZp98mdltcUxsHoMMMwYZgwzjgGOAY4BzccAw4yDWPNBzDPV1WeqfF34usgUAwwzhhnDjGOAY4BjQPMxwDDjINZ8EMs0++TPymqLY2D1GGCYMcwYZhwDHAMcA5qPAYYZB7Hmg5hnqqvPVPm68HWRKQYYZgwzhhnHAMcAx4DmY4BhxkGs+SCWafbJn5XVFsfA6jHAMGOYMcw4BjgGOAY0HwMMMw5izQcxz1RXn6nydeHrIlMMMMwYZgwzjgGOAY4BzccAw4yDWPNBLNPskz8rqy2OgdVjgGHGMGOYcQxwDHAMaD4GGGYcxJoPYp6prj5T5evC10WmGGCYMcwYZhwDHAMcA5qPAYYZB7Hmg1im2Sd/VlZbHAOrxwDDjGHGMOMY4BjgGNB8DPw/xVpCe2WxxegAAAAASUVORK5CYII=;" parent="OpV2UFvNa62Xhtrnb1xq-13" vertex="1">
          <mxGeometry x="3" width="93.05" height="80" as="geometry" />
        </mxCell>
        <mxCell id="OpV2UFvNa62Xhtrnb1xq-11" value="&lt;b&gt;Keycloak&lt;/b&gt;" style="text;strokeColor=none;align=center;fillColor=none;html=1;verticalAlign=middle;whiteSpace=wrap;rounded=0;" parent="OpV2UFvNa62Xhtrnb1xq-13" vertex="1">
          <mxGeometry y="70" width="103.47" height="26" as="geometry" />
        </mxCell>
        <mxCell id="OpV2UFvNa62Xhtrnb1xq-22" value="&lt;b&gt;&lt;font color=&quot;#ffffff&quot;&gt;Stock Data Service&lt;/font&gt;&lt;/b&gt;" style="rounded=1;whiteSpace=wrap;html=1;labelBackgroundColor=none;fillColor=#FF9933;strokeWidth=1.5;perimeterSpacing=0;" parent="1" vertex="1">
          <mxGeometry x="553" y="390" width="110" height="56" as="geometry" />
        </mxCell>
        <mxCell id="tSHxOHQZL74azQnE-G1b-1" value="&lt;b&gt;&lt;font color=&quot;#ffffff&quot;&gt;Stock Data Producer&lt;/font&gt;&lt;/b&gt;" style="rounded=1;whiteSpace=wrap;html=1;labelBackgroundColor=none;fillColor=#6666FF;strokeWidth=1.5;perimeterSpacing=0;" parent="1" vertex="1">
          <mxGeometry x="167" y="64" width="110" height="56" as="geometry" />
        </mxCell>
        <mxCell id="tSHxOHQZL74azQnE-G1b-2" value="&lt;b&gt;&lt;font color=&quot;#ffffff&quot;&gt;Stock Data Consumer&lt;/font&gt;&lt;/b&gt;" style="rounded=1;whiteSpace=wrap;html=1;labelBackgroundColor=none;fillColor=#6666FF;strokeWidth=1.5;perimeterSpacing=0;" parent="1" vertex="1">
          <mxGeometry x="183" y="392" width="110" height="56" as="geometry" />
        </mxCell>
        <mxCell id="tSHxOHQZL74azQnE-G1b-8" value="" style="group" parent="1" vertex="1" connectable="0">
          <mxGeometry x="177" y="180" width="90" height="98" as="geometry" />
        </mxCell>
        <mxCell id="tSHxOHQZL74azQnE-G1b-3" value="" style="shape=image;verticalLabelPosition=bottom;labelBackgroundColor=default;verticalAlign=top;aspect=fixed;imageAspect=0;image=data:image/png,iVBORw0KGgoAAAANSUhEUgAAAC4AAABBCAYAAACuG5a4AAANOUlEQVRoBd3adeilxRcG8LW7u7tbwcLCWFvB7i5EVPAPC0UsRAUVcRWDVTFQsQu7Ewywu7u7HfkceC53F97r7v0J4u/CMG/MOec5zzlzZub9fke0/+hvxH8Ud/v/A/7nn3827Y8//qheZFznl/f9Y/Ls999/L5ncZwzZPBv7OnrHte9k/LfffmsA/PTTT9UD/csvv5Re17/++msz5osvvmjXXnttu/TSS6tdccUV7f7776/35NMi2w+8n5RxBZxxncAZBC4gXTPqOcA//vhjO//889v222/fZp111jbFFFO0ySabrE099dRt2WWXbQcddFC74447ynHjAzhg9Z4P++sEzhCWApYhoD37/PPP21FHHdXmmGOONskkk7QJJpigTTrppAV8ookmqmf6xRZbrF133XUlE+b10YmMYX+dwANUr8URLJ166qltwgknLMAAjhgxooDrNezrOTTDDDO0e++9t8c44NGXSAwDvhN4UgNgBmLk6aefbtNMM02xGvBzzTVXW3XVVds666zTVlxxxTbVVFPVe6nDga222qp98803BTiE0Ku5H+bXCRwzyfEY82z33Xcfg2npcMEFF/RYfOONN9qxxx5buY5xEeHgU0891X744YcCi4SwDvwwv07gFAMObNjG2vTTT19A5DRgqkicBML1d9991/bcc88aB7R28skn10QNy/RnDuUZ2ejQ53miTyZODwQeYQp//vnn9v777xfYMKmavP3222UgRijXbrnlljbxxBNX7mNdGgUAfcZEL90BRA+H+suwd55FRv+3wMMCwY8//rhyFhD5u9xyyzWp8fXXX5dSBoBg/LbbbqsxmbDGMhgHAXPd30Qq6aTcBmxkvItDncAzmHCUU2ziYTKsP/jgg725YJzxmD388MOLbRVGqhx88ME954xDSIABE0Cc9y6Ecfbbb78tnYnKODEe4ISwsOOOOxYQrMvz1Vdfvd18880FwhjzYNSoUVV5jOGgWv/AAw/02DYOePr6wbz11lvtpptuKn3PPfdcOWMMoHrOIIVMJ+MJK+AEpID+kUceqRQAGvPALbnkkm2bbbZpu+22W5U+ExjgTOANN9ywffXVVyUf43o2pNndd99d1WqDDTZo888/f7U11lijbbfddu2qq66qbYWIAEyO053AvdQojzH38kwaBLQcdi0lwnA/6Ommm64YxBRdmaB0AXPWWWe12WefvU0++eQlT9+UU05ZjkuxOeecsy2xxBJFHHn2BzLeVVsZfPfdd9suu+xS+Q4kAwy7ZlhqeDbLLLO0M844o4wCjACRSxU58sgjK3rk+omIfPQpBKIhOuzT1cn4IOA8tis85phjKscBZCQGpcq2227bLrroojHy0+RmWC+XAYqctJp22mnbCiusUNVqpplm6kURGSJqf2SiImAo4EkdDrzyyivtlFNO6QGYccYZK/zCillzJPPEM9fk1PWwLMVWWmmldtpppzVbimeffbZWY3nOIcBFcJVVVmnPPPPM4BwfxDjgWkqY+g4EA7YAdo/AacJqHNAauSeffLItvfTSBQbj88wzT7v88surIpERFeM4MO+88xYp8t6W+cYbbxyecWC+//77AoLBTz/9tCaW0C+yyCLtnXfe6RkPEOABEoWTTjqpyiUWgVF1XnrppZ5ziRA7K6+8chFiDmH/kksuGR44MJSr2a5ffvnlUo69BRdcsIBjl2E9wMYB7f7EE0+svbwIabvuumu9k/v0Gp+2ySab9HSLqsOLmj4wxxmKgv6ecXXZqnnllVfWjMeeXMXgPvvsUweIF154ocADnfTizIUXXthMvkxMW2JpESf1xiHGVoFeEx/r2dR1AieYVQsL7vWUWuEs4dIilSHKMQiQnFxrrbXaueee28t5ssi47LLLqnYbp6km1gYphyBOSkXb5RwLjVPv7YHo6QSOpRgKaM+wqAIAHBbCNvCugffe9cwzz1wrqggBtt9++5XDwg6wMXJXSR05cmQ78MAD2xFHHNG22GKLmrQAs2PMDjvsUDtUODqBAy1UGMAS9i0ADDAYcMCGZWAYAtYz79wLsZA7owKaccZkxfVMlLx33AO0nwgr8DnnnFNRH5jjAPenCyfWX3/9AkIhFqJ4mWWWacsvv3wtzUsttVSFV673jwMSOE6QXXjhhdshhxzSY5WDwALuWh/ngfbVICkLWyfjSRX55jp5yTgDAJhgO+20U+0fRMVYkbIqbrrppj3gxgNBxr5j//33b6+++mpF89FHH61ySBew/REgZ/O27777lm7As3Z0Ag8IA00UexNMUa4H4uijj67lW2Q4R3HkHDA233zzXq5jX3OkM4ZMnH3zzTerPp999tnt+OOPr6XdtYn9wQcfjDEeMdpA4Jnhr732Wi3RYU4oTR7HtgBNhLIwAXbDDTdU2iQN9CKUxSgORIfnnKGDvjzPOICDqRO4AX4G+y4ixMk56SLnGPHeZIlychrDmMQ6ucjuvPPOJUP3l19+WWMBTumlT6M7EaGbvjhDfydwijMQczb4GBNuaXLCCSdUuO2PGcIwA3GC0Q8//LBOTORMVr0TlHd0B2R6OoByn/fGuvecfumodQLPQIPDuNwOc7aYmKKUItvNAACe/Ouvv9422mijcpYchzEe4HGWHtfApqcz720FYgceugcCN4DA888/31ZbbbUeAMzZb9tM9YOnlDFGgbjrrrvaAgssUEyrFlLMvsR7egNybOD0RJc+rLsmZ/xA4AmXFU9VYRhzKovTvhIJBEZiiGLXH330Ue1ZyKQaWWBUIjLAICbgHY5FkZ299tqravzjjz/ePvvssxonJcmRgasTuBwHKKyffvrptRVNqljSHRruvPPOAhEWKZUqcjkLEEdFiezcc8/drr766gJM93vvvVdgLTLGp3KR4bTDg9OWsf3sDwQeNgg4LNg0ZQ8SFk26+eabr5ZjqWHzxSEg+gEDTYYDenvw++67rw4enmmABnDGmhfaPffcU84mogOBG5T84vFDDz3UFl988TISQ/qASiq5lxbAxwEroL1KgBiLBAy7jmzuw34c8AlEkUAmIjuBJzQZyAlpcOutt/ZYYoxiQIFwj7EYNQ8AkbO+O95+++2Vu8BHNjL6zTbbrF188cV1jNtjjz2qhHqOHDp9Z7GSDpycXgIPeMADrjkz+uYNFKUAUtwPxnPf0X0JcAalg6ztrZSylzdG4/Rhhx1Wzlk1jTUpDz300Cb3jUGIsynivO9k3OQEnAPJK/cmIUET159J7JEpx7rGAaDsSfIx1HjhpUcbPXp0bdAyB3ySePjhh2sMG8BnvBShNw5ec801gxlnoF+JSoExz6OYcg588sknvZK36KKL1oHBWE6m2pDzTFmzkVLX7es5ynlO0scmR411v/baa1ckw7pjn+edjHvpF4P9veswz5CSFsZtDYS5f3UEJPL0Kq1JAWliP0MHXQEcG+utt16xnTQ0BwYCp4Sw1n8dhf3vTJhMIqEVAWA5F+YDipzSttBCCxXbJipn7YdEA6jotiuVdgqAtFKp/E1V9DsZ7wfrOi1KAaLAxFPjKdZ8pLS5Ms786GdQFADT20Ikd6WBE5TVk7PknPqdQRFCrx4pjz32WOkeCHxssLmX46qDE/fGG29cZYvy1GX5u/fee9eyn5TiJHmgPZMuqhE2U6tVKZGwWlrYApiDdPqjGFl6OoFjKkCFXcu9Jfi4446rg3NShFEGGMtEchZ1jEtpDeN0u956661LxgTVyNOXe730oM9K++KLL1YERbMTuJCmJCbv9Lav9uLYApLysM0A1nOvd7r31wjGUo0SBTlti5B1gDzgSKBXT4c/GPj/AM5m7nQCZwjDAe2aYZ/bfH5IiCnGio+YBxxwQG2ivGNYz7ivA8omprMuBAQiRMW+nQNhXL/mmmvWhszuFI7MF/1A4MATYARwApZvoIRVc62U+Xwhj1WUM888s5jiEPDy0+c6OjBG79h95o3jXBpnQyDZ/tYJXJpQZnBYF9rZZputQGHEBLJnDhuMaBz1XxVJGWOll3ecpzO962F+ncApzKQKcH9CwbAmH33XcyA2FttyF2ig7CnUaOCNX3fddceY4HQOC5qjncDDHgPCqrcgZGdnElocpAnAgBvjWq9UBjTG1W06gdUbow0LfpyAM8CYMggwtjPx7BQDJKA54cMl4Gl2ekBqAUxOG+b3t8CjXM/olltu2WPd5LRgyH3NGOD9bVJ6cE5zrSSKXMD39/8o8EwePYMAuVZPVQvh14AySX0edhC2TCtrnBIZjFvOTXR68gvw3I9v38l4lyIO+IoFPND9IN1zBsuAA+2PT9dff32lR5fOYZ6PN3BM+Z7iM4L6DCxmM2k5kvRwYjnvvPN6n9qGAdglMxRwuey7iT/A5u/2SRsOcMRG6YknnqjdY+ZHF4hhng8FXK4CE0CWZH+vsXuzr7aKmg8Zk0k5DMAumfEGThFAgGXRkT7u9UAGdP+963/yN97AAbA6amHUhM19gOuz8iYy/zrwMBr2kwqcCki9536e/+uM/5Os/S+6/gIwgSPxrZuWtQAAAABJRU5ErkJggg==;" parent="tSHxOHQZL74azQnE-G1b-8" vertex="1">
          <mxGeometry x="22" width="46" height="65" as="geometry" />
        </mxCell>
        <mxCell id="tSHxOHQZL74azQnE-G1b-5" value="Event Store (Kafka)" style="text;strokeColor=none;align=center;fillColor=none;html=1;verticalAlign=middle;whiteSpace=wrap;rounded=0;fontStyle=1" parent="tSHxOHQZL74azQnE-G1b-8" vertex="1">
          <mxGeometry y="60" width="90" height="38" as="geometry" />
        </mxCell>
        <mxCell id="tSHxOHQZL74azQnE-G1b-15" value="" style="endArrow=classic;startArrow=classic;html=1;rounded=0;exitX=1;exitY=0.5;exitDx=0;exitDy=0;entryX=0;entryY=0.5;entryDx=0;entryDy=0;" parent="1" source="OpV2UFvNa62Xhtrnb1xq-22" target="OpV2UFvNa62Xhtrnb1xq-5" edge="1">
          <mxGeometry width="50" height="50" relative="1" as="geometry">
            <mxPoint x="663" y="550" as="sourcePoint" />
            <mxPoint x="760" y="420" as="targetPoint" />
          </mxGeometry>
        </mxCell>
        <mxCell id="tSHxOHQZL74azQnE-G1b-22" value="" style="endArrow=classic;html=1;rounded=0;exitX=1;exitY=0.5;exitDx=0;exitDy=0;entryX=0;entryY=0;entryDx=0;entryDy=0;" parent="1" source="tSHxOHQZL74azQnE-G1b-2" target="OpV2UFvNa62Xhtrnb1xq-6" edge="1">
          <mxGeometry width="50" height="50" relative="1" as="geometry">
            <mxPoint x="413" y="580" as="sourcePoint" />
            <mxPoint x="463" y="530" as="targetPoint" />
          </mxGeometry>
        </mxCell>
        <mxCell id="tSHxOHQZL74azQnE-G1b-25" value="" style="endArrow=classic;startArrow=classic;html=1;rounded=0;edgeStyle=orthogonalEdgeStyle;exitX=0.5;exitY=0;exitDx=0;exitDy=0;entryX=0;entryY=0.5;entryDx=0;entryDy=0;" parent="1" source="tSHxOHQZL74azQnE-G1b-2" target="OpV2UFvNa62Xhtrnb1xq-2" edge="1">
          <mxGeometry width="50" height="50" relative="1" as="geometry">
            <mxPoint x="314" y="350" as="sourcePoint" />
            <mxPoint x="364" y="300" as="targetPoint" />
          </mxGeometry>
        </mxCell>
        <mxCell id="tSHxOHQZL74azQnE-G1b-26" value="" style="endArrow=classic;startArrow=classic;html=1;rounded=0;edgeStyle=orthogonalEdgeStyle;entryX=0.5;entryY=0;entryDx=0;entryDy=0;" parent="1" source="OpV2UFvNa62Xhtrnb1xq-2" target="OpV2UFvNa62Xhtrnb1xq-22" edge="1">
          <mxGeometry width="50" height="50" relative="1" as="geometry">
            <mxPoint x="500.24" y="577" as="sourcePoint" />
            <mxPoint x="634.24" y="479" as="targetPoint" />
          </mxGeometry>
        </mxCell>
        <mxCell id="tSHxOHQZL74azQnE-G1b-27" value="" style="endArrow=classic;html=1;rounded=0;exitX=0.5;exitY=1;exitDx=0;exitDy=0;entryX=0.5;entryY=0;entryDx=0;entryDy=0;" parent="1" source="tSHxOHQZL74azQnE-G1b-1" target="tSHxOHQZL74azQnE-G1b-3" edge="1">
          <mxGeometry width="50" height="50" relative="1" as="geometry">
            <mxPoint x="423" y="350" as="sourcePoint" />
            <mxPoint x="473" y="300" as="targetPoint" />
          </mxGeometry>
        </mxCell>
        <mxCell id="tSHxOHQZL74azQnE-G1b-28" value="" style="endArrow=classic;html=1;rounded=0;exitX=0.5;exitY=1;exitDx=0;exitDy=0;" parent="1" source="tSHxOHQZL74azQnE-G1b-5" edge="1">
          <mxGeometry width="50" height="50" relative="1" as="geometry">
            <mxPoint x="83.72" y="410" as="sourcePoint" />
            <mxPoint x="223" y="390" as="targetPoint" />
          </mxGeometry>
        </mxCell>
        <mxCell id="tSHxOHQZL74azQnE-G1b-31" value="" style="endArrow=classic;startArrow=classic;html=1;rounded=0;entryX=0.996;entryY=0.612;entryDx=0;entryDy=0;exitX=0;exitY=0.5;exitDx=0;exitDy=0;entryPerimeter=0;" parent="1" source="tSHxOHQZL74azQnE-G1b-1" target="um_Ki8IDZ3RUpcfRVOOU-28" edge="1">
          <mxGeometry width="50" height="50" relative="1" as="geometry">
            <mxPoint x="173.73" y="210" as="sourcePoint" />
            <mxPoint x="96.73" y="211" as="targetPoint" />
          </mxGeometry>
        </mxCell>
        <mxCell id="um_Ki8IDZ3RUpcfRVOOU-1" value="" style="group" parent="1" vertex="1" connectable="0">
          <mxGeometry x="372.06" y="530" width="100.40656565656559" height="100" as="geometry" />
        </mxCell>
        <mxCell id="OpV2UFvNa62Xhtrnb1xq-17" value="" style="shape=image;verticalLabelPosition=bottom;labelBackgroundColor=default;verticalAlign=top;aspect=fixed;imageAspect=0;image=data:image/png,iVBORw0KGgoAAAANSUhEUgAAAGMAAABFCAYAAABezli+AAATyElEQVR4Ae1ch3tTR7bffwtb7mAgQNouycvb5GV3syQE3iNZeIGXJbsUY1uyZFNDLyYhYEwIEIot6cpdLrJlC/eCe++9yCq//c6MRpKFjIpl8Ob5+pvv6vaZ8zttzjnj32F9WzMU+N2a6cl6R7AOxhpignUw1sFYQxRYQ135N5YMO5b7A+xriMT+d2XNg8EIbrfDzpoNdjs138Tm94vnXHv/SfP671zTYLgIygGgY6vNjAXLDGYWxjE5N4jx2T6MzvRgdKYbY7O9mJjrx9T8CObMU1i0zsNmt7oBubZBWZNgENFtDgmg3xbrAiN663AZStpv4Entd7hdcQA3SvfiavFuXNLvwiX9X3Gl+HNcK/kSPxi+wn3TIeiaUlHTm4WByRbMmSecUsWly7eEkVS+TpW3xsAgznWpIovNjN7xOmjqU3GhaDuSpY04oY5EsjoMCk0slNJmKKUtUOnecjY6TtFuglwTiUS1DCc0MUjL24IM417U9KgxYx51SAoBbmV2ZzmF9P8WDK6SbLDZrFiwTKN9tBSPqo9DpYvHsSwZ5GoZVNJmpOrioZSikaKNQIo2fJkmg1IbBZUUh1QdgROHE2oZjmXLcK34E5R13MXYbDestkXY3KSQQOH94Ops0TLnVHPLARbK829cMoj7SCVRI+J0jVXhaZ0CJ3M3I1EdA4UmBkopzkl8hTYc1JYHwnXNdZ8MSikGSm0ckjTRkEuxuFH6Bco7MzA5NwC73crVIsmJQzIXFmdQ1n4Dk/ND7NzrUFdvFAwhDbQ3W6ZR0XkP3xfuhFy7ESmsRSFFK/Ob+K8CyAViJFK00VBoNyJJE4sM437GAFabxSEl3OA3DxQjNX8nescbnA5AKKXA27veGBguIGyYnOvHrzVHcDQ7DAptNFNDLq52cfqriB3INQFMqm4rEtXhOJm3jRl6JqE2G2bNo7hj3IMkaQue9/7qUGc2b/QL6bk3AoYLCDsGp5qRWbWXGWalRBIRGRJJ8AccAkWpjUYSqUOtDMWtNzFrHkNR6008qvkOZR03kd2QgLnFKactCSn1PV722sFwn8QNT7/AHeNuKKQYpGg5QVZTIrwBxL8XiWRNFJS6GDyq/g43DZ+jb6IRg9NN+OX53zE6283AIMlZze31g+GYTU/M9eCm4T0kacgrIu/If8PsjaihOKeStjLGKO/8CWRDphdG8aj6MFqGi357YJB6Iu6aXhjEg+qDSMgmd5U8pdDbhUDfyT0tGTSNiZhfnILFugiL1Yy8F+dQ0HKNCQRXr75DMcFKz2uTDKGeKEShb7sBpbQVKmnja7MPy4ND3hp5VzI8rUvAFHNlHRNCuw2Ng/n4uWo/C638tsCAHa0jxTiVvwOJ6kjINdyAvnoCt5pSEwG5Jhoq3SYUtV7EnHnSaaiJ8FabFSPT3Ug3fIzByVbntWA539dzqy4ZnJtccaAXg3qo60/ivukgzhZE4EjWBpzIDkOKhuYUq0n4pe+mGXpidhjScrejtu8ZKPQiOJ+HQcDsBs3C75m+RE2v5qXrvogb6PVVAIMpJJ5rsNtYkG/WLCKsvRid6cTobBfG53owONWE+n4JT2r+iXMFO5lbS9Ki0CwlXOhAkrF3yzUyqHRbcN+0DwOTjWwGTkB4bnw2bkdhazqe1CbCZrc4AfG8NxTHIQRDRDi5vh2b7UF9vxq5LSrmHv5g+B9cK/0CV4r/hKsln+F66R7cKt+PJ3XHUfjiPIrb0vG0/hjOF7wPuYYCgSsFRMZm72wGrwlnKjExOxypuhjcqzrIpGF+0aGWHGkqT4ISQORwvBgqw7XSD1jYXkiP572hOA4JGFysORhjM93Ib7mAi/qdUOrimWFUaGkeEYsUKRb0mx+TFxUHhTaKGVBV7nbcrtiLxzV/x8WiHYx43iWCiEwhDVJrotExNXKTIxzcH44kdRhOOFpqTjQemP6BlsECNrFz5TkEE71MTgHGxHwfzhfFY2Bide3GisAQXEJ7Ck2Xd9zFydxYHMsKY5M4JQGgJeL54nKKsG7EiawwKKRoXNLvQKouwulpKTQyZlMUGjL6MkZkIjQ1CmckqiOQmE0h8ygkqaMh18YhNWczLhe/jwfP/w+GjjvonahlNsDVZ5rAvaya3CHh99pgtS/iB8NnqO/Pcapf9/tC9TtoMERHicP6JuqZQVYQ52sotkQg+ALA23UCgDwcApNApN+RSFLLINfKcCr3bVws+hg/GvbgXuUBPKo+hKe1R6BrOgN96y2UtWeiqusBmgby0T1Wg4m5XixaZx16nudJ+Cz61SAI4gp3nMb6tEYJfes1R0jd5ZCIe0OxDxoMGhSlQBsGJFwo+hhypopIHYUiyspVzonscOZ23q74GvrWq3gxXISBqSaWWiWngHQ+5T4sLL1KxpUirpxQ1D9q4ljsfRNNqC2+F8+VtN7F/effvOT+ElCh2oICg6SBWtOgDqqc7VBqKYETmgCfUktxogim63+u+gatw8WM4JR04tLIjSqFK3jYm/eFE82d+O75bn8Ixu8ncBetc+xbpMY4oHa0DJYgNScKD0yH0TZkgMU2z+6h66HaAgKDiCE61zlWicv6Txx5h5UBIULaHNBYXNH/Ac97nmDewqOlPBvnRnQfuj5Q4giQKbnVP1nP8uWcyK7x9k00QaWLw/EsGZK0EXj4/Ai6RisdRQ9CbfkD+vK9CwAMF6dNzPXhR8MuFukkj2alkVZ6nkLZCm0cMoxfo3vc5OQ6oSaWH8LKr4hvTM0PonW4yFlVQm8WzDc604GzeW+zPlKEOVkTg+8L/gB9202mLsV9K+mN32AIqTBbZ6FpUDIPhgz1SoEgQ6/UxiAxOwJ3KvZhaLqFhSEEgXx5PCsZPD0rpIL2lV0P0DZscALAr3Oun1rox4XC/0SymuwZd6+JeZK08Xhc+x2mF0aWPBdMvwIAg3eqbcSARA3llCkR5M0j8v8cB5LnEi7p32GzcwG6CEkEM6hAnhFg9I7X455pL4vYCvvkDsbc4iiuFH2GJDUvhKC+U1NJ8TiaFYZH1d+y+QvZMXpnMJtfYHAXj9KR4/i1+igSsiKY+7pSqeADisbp3O1oHsx3U03BDSZQAgjXdXphCPdNX6OhP89ZkCAkUoBltk7jmn6PA4ylcycqmJBr41H44rqHDQmsR/6B4XARu8YqcbZgJ1TSltCoJ4nsRDTUDSmsSjAUejeQ4ROhzZY55LVcwcPqw14JKcBYsEzgqv4Lp2R4agWakJ7K24GWIT1nKlvgXpbfYJCnUdpxHQopkpXOrFQqaDAk4ifz3kPbSCnjSO7BBELO4O8VwNf1ZeF80bvoGDM4JVNIBb1d2K5p8yAuFf4XkpjN8KaKI1jR3PWSv3BX3DHfCaSHPsEQnDFvmcbD6qMs1ODJFcEdU2VgBNINfwUFFcl9fR12gsZDQBBz9U6acK7wPWTVn4TZMsvmTp7EE6CNzLTjTN7bDg/SGxgUbZYhITsMlZ0PHaEX4fJ6vtX7sd9gUMj7WslnrN4oNFLBY1jZ9YlYWJzySgjvXV7ZWSIu5S6ah3JxOv893CjbjeGZNjdbsfT9AoyesVqodNGQvyLvQhNWihqkl/0Zk/ODrDqSwPd38xuM3okanM57yxF19c4ZgUgI5ZzJCzF23mN5AprRr+ZGUickonFQiwtFHyBZE4YXQ0VOLvb2fQHG8+5nSGKh/VeXlZJ0pOZsRduIkUt7SMFwxDap00qJvIiVT/I4aNGsIKFhIJd9gXTzamxCzQr1VNP7lI0jITscpu5fmZ3g3PsyB7s/q647B3rGV4qYItWJ6miUtN9isTtydf3dfEqGeFFjfx7krKwmFOlRyrhFI0EtYxFWMpirAYZwXSmXPTk/gLyWy1BIFAGOQ17LJadxXs5WCQDnF8fxg2EXTmTzyd6rNIBKimFxNaqQpDUiqwJGQ38uC+DxhM7K1RSFFI5nh6O2T01Bh5CCwUBwZO8I5NZhPe5W7keKtImFMbQNp5csDRAM57kXYLSPGCGXIlglvK/8DNkNyrP8VP41JueGWDTB3Tvz/Ib7sU/JIOGl1jxQwLJ2oQKDZvBHssJQ3hE6m7EEBNjZjDi3+QJUOTQvIvBlkBrPMIdBqCB3Ynj+JjtGxl5qPIejzzawsM2rpIJfi0CyWoYbJXswNtvH7FTowHBUANKE72QOpUopbbpyyaC41rGsDciuC86b8iS8UDVEQKqXre/X4mrJBwwASu+mSBtR1JoOu59FBQQWqTda9fR9wQdIVlMMjeJSvsYuY+qcVlCNzfSuDhgjM224WPhHFrUMBRgULqegW3rZX9h6POG1eHKn69gVNWZcLdQQszc0k57F0FQrKnsycdt4AErdRpYllGticanoIxi7fmaVKmIS53rvy7+EejJbaXZ+GfQOvkbEFxB0nSQjHOmle9nSNxpXyCWD4lIZlQfZPMM3d/jT6XAopU1Iy92BxsEcNs8gTnTfGPcvyda5AKEBUqaRFrs09hfgSW0CLug/gUpH2cYtbHKWrJEh03gI3eNVWLQuuHlO7l/x/G13zg86RytwvvD3Dnd+aTxqORpQKiBRHYYM4wG20JOP6WVPzfOrdOyHzeAKgQaT03yK5aipAGy5zgR2nlf0ZVYewtwiLYCkuQBPnQpJYVLgUJXUYcrCjUx3or4vB09qT+BU/hYcfkqFCdFI073L1Cipv7MF76Cs/Q5sdjNTFeJ93oggztFI6T5q85YJ/GjYy1Y6sYoTn+qJM6BKimVL1tQNKiatIfemBJEaByWk5m4DLTIJhari74hixQZZdQpMLQw7waBwxcLiNON8WmRJVX85TZfxU/lXSMuJwglNFBKyac4Th1Rph0N9xuJ84YfQNqRhYKrZMZnjBBYE97YXgBMIRLzx2W5kVn7L14ywpJd/ks4ZMRrJ2jiYep6wsQQymfUpGdR50dnxuV7cKqcwcgxSpJVP/jgYJP7kFETibuU3qOtTo3mwEIbODDyrO46bhn04k/cfSJFkSNbEQq7ZDKV2IxSaOCSpN7LKkbTcbcgw/i9K239k6ypIegSHU9+X24QkcDtCEmFF+6gBd4wHkKyJY+sAqY/+Mx73pE7lbWfVKTZbiGNTYiDUYSpvNHU/Yi6pUqICtUA4xvu9PLgWjiRNOI5lhyNREw+5tBWJjPAUetiCNN12nMzZzorejmdH4mgWhRzikFFxEPoXt9A+YsCMeYS5oRwEV/EC7z9XtYL4pMepCSajPWXqytrv4lzB21BI8c4Ci8DGGMkChZmVBxypWP4NQUNfe78kg15CHaaB0nq3DOOXbDZKK0gD66wnINFQ6mLxrC4ZzQN6GDoycbnoI9CilTTdFra2j2pvj2eF45/PoqDQbcYd4z6Utt9Fz1gd08lkyIn5rTaq6zUzNSOITXvidg4Qv48DwNWR2TLPlrFVdP6CG6Wf4h/PNiCF6r6CCvmQS0sFdpGskoS+Sd8KZPMfDIcLSR/oHjPhbP7vmctH6xqCAYTPVCNwq3w3D6HbeFi7ous2VLqNjqp0Gc7kxeN2xX8jv/kaGgfyWLH0GPv3FF1sLTcVR9CaCuLsGfMYZhfGWXUH/UeEWfMEZhZGWQSVwvRDU23oGa9h76H1e79UJeD7gp2s2oOWKKxoTSEDIhyPqxNgsS0wBlg1MNylg9SVses+UnVvMfeUwAgUEPI6jmdtwJPaw8yTWrQswGazo3PUiNN57yOFrf+OwMWid5Bh/Bsyq/bjB8NuXC/9AtdLd7FwfrphF34s3407xr3IrNqHn01f4X7VfjwwHcLD59/iF9M3uGf6CreNe5FetgsXij7FmfwPodJtRzKrVKSQOFU/knfIy40CHYfwHmmdx5XiTzE0TeF4306DN4nxWzLEw+JD5OnkNKchQR3JQAkckEjI1ZG4XvpnjEx3sAFQ6KG0PR0pNFfQUEo2nE2gjmWRqiL3NQxyNcWIqOY2Askaus5rbmmNBzVK7rg3OkfPUYiCLfDXbmJpYyYFLPDJVWewIBAYlLFM0W1DXb/W6UGRfQp0CxgM+gAzh1TsvDDKluYma6hSZFPA3MVqpaRo/Gw6iMquX6BrOodTudsc0WFhX6gSJRoUDeXhCApJuBrpd9YkqvGNAUnc0kbPcc4XQT7BOCsBgL+DHIxNkEvxqOi653Aglk5cAwEkKDAYII6JGNW7kkt5tuBDJLOiZ/6vJcSAhRgvtydvijhcTlLA1lG8KnkjAFp+L74r9st9N9jz9F4ClWJrydoonCv4CFXdD5yeXKB2wh2s4MFwM+j0L4g6RsuRWfk3HM0i9REJlcQlhQbtkzBU8k/c66Y2giVWqJ9b2ncaF4950T+XuV2xB13jJufkciVAEChBg+FC1OXDU22sqesxLunfRYI6iulpJdPRm5gKSdFEQqGhxSzeGul0b+ff3DnqL1N9OrIzm1hgk2zkuYJNqOh4wEM4DqZ00SP4XyEAw2FDmMEio2VnriSt1cuqP4b0st04V/BH7nmx0AIZZpq9r/1GQKTlvIXTuR/gWunneFp3FNU9T1nWkJOcM2Lw5F/6ZEjAEB0jIHjj9UYUlqB0Z/9kE1qGClDd+xSm7ieo6n78b9Fqep/hxXAhqDJkfLaXTTIpEuEap2u8S8ka3FEIwfDWAcE5IvTN06siFrT2945+O5lMuKuhBUFQbpXBEJ+hvRiAGJD7Nc/rnve4H3t7j/s5z3vd3+3+Tc9nxLG4x/094tzq7l8jGKs7kN/C29fBWEMoroOxDsYaosAa6sq6ZKyDsYYosIa6si4Z62CsIQqsoa78C4Jau84W19zUAAAAAElFTkSuQmCC;" parent="um_Ki8IDZ3RUpcfRVOOU-1" vertex="1">
          <mxGeometry width="99" height="69" as="geometry" />
        </mxCell>
        <mxCell id="OpV2UFvNa62Xhtrnb1xq-18" value="&lt;b&gt;Discovery Service (Eureka)&lt;/b&gt;" style="text;strokeColor=none;align=center;fillColor=none;html=1;verticalAlign=middle;whiteSpace=wrap;rounded=0;" parent="um_Ki8IDZ3RUpcfRVOOU-1" vertex="1">
          <mxGeometry x="2.5934343434342964" y="50" width="97.81313131313132" height="50" as="geometry" />
        </mxCell>
        <mxCell id="um_Ki8IDZ3RUpcfRVOOU-4" value="" style="group" parent="1" vertex="1" connectable="0">
          <mxGeometry x="754" y="379" width="80" height="102" as="geometry" />
        </mxCell>
        <mxCell id="OpV2UFvNa62Xhtrnb1xq-5" value="" style="shape=image;verticalLabelPosition=bottom;labelBackgroundColor=default;verticalAlign=top;aspect=fixed;imageAspect=0;image=data:image/png,iVBORw0KGgoAAAANSUhEUgAAAJ4AAACeCAYAAADDhbN7AAAgAElEQVR4Ae2dB3Qcx5WuIdk+Dit7ncNKz8+79vPbtd/aT7YsUTlRgZSYcxJJkWIOIAESzAkkABJEInLOwCDnTCRmMYg5Z0kUqZyz5P+9vxu3p2YwA8wMZkCQQp9zT0/oru6u+vq/t6qrqr3Qu/TmwHXIAa/rcMzeQ/bmAL5x4H3x5dfIrXwJMTm7MHJuBp6dmoinJsVp1ndCDB4dF4NHxkbh4TGReGi0bg+O2oIHRkaA64dGb8HDoyPx2LgoPDYuEn0nROOpibEYNC0JC9eXoLjuMA6futKLVic5cFOCd/nKuzh5/nUkF7yIZSHVeGRcDB4eE42HxxAosz00OsqAywxZpAYYIVON4FlaOB4YGY77R1jafcPDYG2DpiVgok8mqpuPY/u+83j/g0/x5Zdfd1I0N/ffNxR4X3/9T+w8cBFz15bg0fGxeHScbgTLwsZStaI1e3hsNDS7juDdNzwU9w3T7d5hodAtBPcOtbQ+QzeDFhRbj9zy/fjyq5sXzh4P3rQVBXhmajIeHR/XZrE6dDcxeH2GbIbZgvHY2AgERtfdVBLYY8Ab75uLp59PwmMT4hWLw2MTdHMUPCrh488laNZ3YgL6TkzEgFnpGOtXBN+IFqxO2oO1KXs180/bD3fautR9Wrprkvdqx1mVuAfzghswYGY6npySZNw4dPt07fYUzwwdAQzW7J7BwTDbJtwzWLdZK0x49dq7NxyU1xW8t979GBN8TW2gxOPx51To+NkB8DTQ4nXAZmZglE8e/CK3Y2X8brdC5U5AF4Q0YmZALQbNykDfifFaLMlYUVytw+AN2oR72uyFJVlo3n3mhgGw28D75z+BeevLNUB0JdJVSdSJ0NkDj9uM8DZhypoK+Kft67FAuRNOprUgtAnD5mfj/hFhmjq2UzwFvLsHbYRhAzfi7oEbMdknA/9kxvfAxePgffDRZ3h2WmobcIkOgUfQBszKxKqEPd8YyByBlq572roqPDRqi+5qOwHv7oFB+MfAIA3Id977uEfh5xHwRi/IwROTktpMYFPXjL10xRs8JxtLY3Z4DLAl0dsxZnERBszKQv/p6Xh6WhqefqF7rN+0dO2YoxcVYuKKco9d49qUfRgwI62d4gl4hO8fA8QC8fDIEHzx5VfXFUS3g3ftrQ8V6AifCpx81sHrNzUFDMgdudsd2YZprU56Ed4hTZixoQbPELRugsyR4/Sflo7Bc7OxOHIblsftcvu1v7C2UoevzdXaA+8fAwIxZ6UJbJ66XotbwDt44jU8+XwynpicpJuhdmbwqIAruhDwEyq6mudXV/YomBwBzpVtqJbMr67cmLwJ+wzepLlbVfEIHu2uZ3V7cPhmfPrZF93KYJfAo1w/Oz1Ng84eeANnZWBlgms1zBXxuzB0fi5YCK4U3s2yT79paRgyLxfLYne65B0Ib9/nYtrcrQ6dCt5dzwaANmVxZrfB5xJ4S0Jq8eyMdAM4QqeCtzC02ekMGuVboMdgPcg13gjgDl+Qh7nBW53Kb5+wJgvFE/Bkfe/gTdj24lmPQugUeNkVhzB+UR6enJKiWxtwAp4zbmH6+ppvtIp5CmrewHSxjsbEU1aXaWon0HH99/4bNHt8TBguvPyWRwB0GLyShuN4akqKZip4VD5HLpKZ8U13mZ6CraN0GRc7Uj6jFmYbAAp4svaPqHI7fA6B9+4HnxrQET4VPFblO7uwuZu29qrbdQwhRvrkd1pGLMPxi/M0+AQ4db1tj3ufinQK3lNTU6FZm9oRvDGLCrUmgY6A64Wte9oKO1I7W/8xJuyo3PjfsDkZhrsV+P7WbwP+1m89vvrKPU0wdsFLLNiHwbOzdOgInwJeRye+MmFPr7pdR3WzBZut36b5V3cIIDtSCHRcC3iEzx2LTfCis/eYgVMUryPgxiwu7AXuBgDOFoQdVUbmBtVpAKrg9R0ThryK/V3irx14Zy+/3R66qano90Ka3Ttk8sryXuhuUOgI4jMzMuyWLcXGWvGoevytK0s78J4WhVPW9mR56tqqXuBuYOCs1Y/Psu15NVXxCB7txYMXXWbPAryghFZYg7cm2X6bkPWJ937vmRUKZ8rFHnyM+QQ4Wd/5tD9WBJe6BJ8B3nsffKqrl6J0rM3augMozc5cTO+2NxaQfES3KrG94PABgUDHNcGjubIY4FW1nHYYvF6QbiyQXCmvOUENNkXH7eAZJ9emeFNWV2rjB9an7YdqfOBvbHsTxTe919T+ZlLLXT7P2VhnqJ4o3tmLrzsteobiGRnfBl6o6RCszTu4QasBGdv2gndT34RT11S2Y4BMiOoJeM/7prsPvLiyY7C2ATMzb+qM7r2hLFWPFQ1rBvjdGjxX4jy7ipdSdQLW1lswlgXzTciPxPLj7TjwKHgFzedgbcO9Tb2K9w0KLwbNzmrHAJnwKHgVOy+iYuclC1sT29rbWfMbBN6cDVUW5S88eBS8dQnbULPrIloPXmln3wQX03uNae3KnSz4J7R6VvGmratASvlh7Dr2WjvrLZRvRqxnq+yHeed4FrwX1laAdvTC2+0sr+44hs/P6Y33blK3m1j8UrsyJwehmbsxZF5294B3+uV3cfbV92xar/LdfMrHJhRb5X3mlXcxdH42hsztJvBeWFuOaWvLce3tj20aT6QXwJsDwGPn3rBZxpevvo+h87I16zbwZm+oxKwNFXj52vt4891P2lla6cFe8G4Clzt4Tla7spXyLmo43v3gieLlVB/GZ59/ZdcOHL/SC+ANCCB7GnVUrptTtmkzVonice3R5pRpayuh2boKsIY7fV0Fdh15RbPOHszx7ul1vz3X/XJOmXfe/6TDYjx48gqGzcvE0LmZGDY/x6x43QXe9HWV0My/ApF5e1G98wz2HH0Fx8513CPhq6+/7oWvByrgqYtvdggc/xy9MAvD52dagKfBRwDne7g5hSonNt2/AjPWVyIsZ49m2w9e0uB78djL+MSByV44K9Hzy4t6QbwOINL7vPbmB53Cxg0mLTVh1IJMjPDOtABvuDeBa6tceFzxxMX6V2K6f6UFeFtMu1HYeAwEj/b+R586dGFRObsxcFZvD5fuCkOCklodKhdOvjRleZ6mdLbAM1yt5nI9rXgGcFWYsZ5mVryI3N2IMO2Gqf6wBt7eY5ex9/hlHDt3BR9/+rlDF8uNPv7kC0xc2jss0h0gjvXNQ3TOHofznlPUro+tx/hFWRjrk4UxC7M6BM9wtR5XPP8qTPfXgSN0tsCLzNuFlLK9EPD2n7gM2pEzr+JrJ+fe/fDjz+Ef19zrjp10x6wkfP21c+/DWBJSiQmLszXoehx4dK+ai6Wb9a/ETBuKR/Ci8nYiJn8Hkkt2a9ARvANt9tLJy6BdfdO16fB5V56+9BaWhtd/o4H0DqrC4dNXXZ5I+6NPPsfzy7IxeWk2Ji3JxnN+2U6BxxiPiieq59HmFE3tqHgGeFVG5UJcrQpebMEOpJfvwZ4jF9qBd/DkJRw6dQmXrryBTz9z3BXb8huc6rag7iimrCi+KWFkL++cqsNo2NW1+enocDLKXsTU5TmYslyHznXwcs3gzfNwjDdjfTVoMzdUaTZrQ+fgxRfuAC2xaDsyK3ZrakfFE/AOn7oEzU5fxJHTF3H09EVcfeMtfPZ512C0BvTLL7/Cux98gm37L6Kw7hgWBddg3OL86wbqwo3VWBPdiJZ9F7Hv2KvWp+uW72VbD2HVlkrMXJ2LGatyMX1lDqatyHEPeG1qp1cyPA6eXqlwFbykou3Yf/yiBl9H4B07cwG08y+/is+6qIadlSCbdfh+MMaTV15/H4mF+xCasRNjF+WjK43eVF/GpznVh/DK1ffw+Rdfacf56quvXXaPnV2L/B+V1YT56/Mwe60Js9aYPARetypeG3jrqzGLtqG6U1erKh7B23fMcfAI3/GzF3Di7AWcPHsBp87RzuPshYt4513XYkQpnBt9ffjUywiKr4JPUB58AvOwICAP3gEmzN9gwlx/E+auM3UbeFQ9j8Z4M+lm24zgzb5O4J0+dx6nz5/HmfPncfb8OZy7cB5Xr72GDz78wONq0t3AsjL1ytW3kVOxCwmmJizZnA+/4Dws3pSHRRvzrh943rkY7p2LYbTuAo9KR5vtZIxHxdt77ILDrtae4rUHj/DRzuL8xbM4f+Gs9pnfz57X7cy5s6Cdu3ABl16+jKuvv4633nkHn3zyqdNND67CR4i++PJLXLn2Nhp3HkZ1835EplUhOKEU66OL4B9ViHWRhVi7pRCrIwqxKrwQK8IKsCI0H8tD8rEsJL/HgSfwdYvi3cjgnT57FqfOnsHJM2dw6uxZzW1fuPwy3nz7bc19f/HFl/jqK/e94eb9Dz7GsdOXsHP/CeSUtyCrpBmJpjpsjCvSLCCmCLQbGrxuUTyqXUAVZreZPKu115xiHeO9eNRzinfm3GmcOn0cJ08dw9Fjh3H46CEcOHQAew/sw449u7Bj9y40tjSjrqkRNQ0NqKqvR3lNHUqqalFQXoWCskqYSnTLKapEdlElMgsrkFFQgfT8cqTl6ZZiKkNybhkSc8qQkF2G+KwyxGWWISajVLPItFJsSS1FREoJwpOLEZZUjNCkYmxOLMbmhGIEJxTf8OCNaHO10p7nWcXbwKYUAa8acwKdr1x4ErxjJ45ga1MtGhprUbdVt5r6GlTX16CyVrfymmqUVVehtKoKJZVVKKqoQmF5FfLLKjXrBS/LoUdmI7xzQOi6BbxZATWgzQ6o1swV8HYfPuexGO/4yWMeBS8puxihMSlYsiYIPsv9NVu6bjNCYjOxJTnfpuL5rQ3Hn/5yF2699Vvw8vJy2f77rkfw2IDnekyMN2KBuXLh8W5RBniButq5At7Og2e7DJ6Pry/uve8+/O7f/x2/+c1v8LOf/UyzX/7yl7jjjtvx+9//B4YMHYwVq5ajq4o3duIU3PHb/4mf/+KXnULzo3/9CX7+i19h8KhJeHbYBNz2o3/tdB9nYfzRj3+OUdNWXfdarQqex4c36uARuhrN5gbVON2O17L3pMPgvTB9Jn7y05+6vfBY2P/1pz9hY0hIO1frLAjObL9gwQLExcXh1KlTnVZgXn/9dZw8eRKTJk3C97//fbt5cNuPfoqRL6zu/na8BW1utu2ZrUdjvNmBdLM6dITPFfC27j6Ol05cwkEan9eevKjZ4VMXceTUBc2mTptpN6NZ0Pfeey/Gjx+P1NRUNDU14dixYzh69Ch27tyJjIwMBAQEoH///vjrX//aYToCTUdqRkWdOnUqAgMD8dlnn9lsSbl69SqOHDmCYcOG4eGHH9aO+b3vfQ9+fn5ub1fs27ev3WuavCiy+xqQjRivG9rxZgfWgkYXO5cW5HzlomrbIe2x2YHjF3HgxEUcPHFBs0MnL+BXv/51u0wdPXq0zcLuyo9ffvklnnrySXz3u99td7wlS5bg+PHjXUm+w33ZXenkxatILGzF5rQ6jF4Uj2He0XhqWqhmU1alIiCxCi37TuP0pWsdpsVmn299q33sOHDCUo8/uTDXavVGZM8rnuZmdfDmbXTe1ZY3H2wD7wIOHL+Al9rAe2bg4HYQvPfeex1mfFf/ZMH5+voax/32t7/d1STt7s/G40FzI/H09DADMoGto/WIhbGYF5hrN91PP/0UM2e29xD/3edpjz4ykxivWxqQNbULqtVcLN3svE21Tsd4RQ37sO/YBcP63P+gUfB0fX/4wx9sZnJUbhP6zwx3qtDUAp3pnwn/+Eqbadv6Ma6gFbP8s1w+3ni/RJy48JqtpLXf1HNz9vMzM8NtPm356KOPLPKS+Xn/UxM90kmA4GnwLaDiefhZrQHexhpQ7VxRvPzaF7H36HnNdr10yiKj+vXrZ1FQ7D9W2XrY5cLvqEBnb8hG/a72LrWgfj+eW5bk1mNu3XPCJih0ux2dY2f/9ZsRZpFf8kViV1lPWZLi9m5ROnQ5GE7wPP3kYk5QLWhUOtr8YOcVL7tiF/YcPofS2lYL6Bh3yfLO+x9pbqmzjO/K/5NXpMrhtPVo37guQeDMuZx9uf0wUGf2t7VtZM5Wi+vhFwGP61/c/ke39sfTFM94epHr2d4p7gAvq2In2Ig8ftI0i4xRcy0uv8XjEOw4eE49pMePp8IyLzDH4tj8ov7vymeqHzu7qosK3i23fuvGBW/uxlrQ5m2qw3zNnFe81JJtWLJygwFderrl7OBTV6d1uRA6K7jU0h1G+XAYX2fbe+p/VjSsl64eizVkdWEFTQXQXT2QRy4wQavZzu8GVzt3Yx1o8+lmN9XC2wVXm1K8zSIj1Ew6ffGaxyFQoeOxu1rQXd1/bWw5rr5prr1/+tkXXT6nup3H1GzFD3/4QyPP7/j9nW7p+k7opEnF4zEelU5XOwGvzula7f+9+wEjExISEowMevnq213OcEcgMA4IuL0S4cjx7W1z5tI1cIoPWext58zvkhbXquq5Y7DPSNZqlc6gHm3HM8ALroN3mznbLeq73zM//nnnnXeMvFkTU+Zx8FZFm1/utvPgOY8fzxlI+s8Ix5KwQiM/WLt2Zn9b2xqJeQg8tuGJeRi8eszbVK/VZulmF2x2XvHkzvvxj3+s5kuXM9lWxqu/ff6FudbMA6v/9aTP2w6ccVu+rFZutJaWFkP13KF4IxjjsYdKWy8VD4NXh/nB9fDeXKfZgs3OVS4SCsxNKMnJyUYGJxVv8zgIxsEAvHLtHY8fryswf6n0gN6UWuvyuU5abs7jN9980wBv0JSALo+r1ZpTpGuUp9vx5gUTPIGuDgtCnFM8v/XRxsULCBxe+PR0/TllVwqrs33leOdfecPlguzsGO78n4/YZGEziStpqw3M6lONv9w3xD3gsYKxwKS5W48q3vzNdaBR8ehmnXW1j/cf0Q68i1fedClTnSmI6esypAyxfEuxx4/nzLnZ23b7S5azBtjbrqPf1eaajz/+2Mj7/+4zyD3gyWMzbw83IFPtaAs217eZc4on8R3XsnB2gY4yzx3/XXvrfTmcx4/ljvOVNAKTqozz3vHSGbDDgPznyHrgnEhj/w8++MAA767HxnUZPK1W233g1Wu1WVG7hU66WgHvtttuMzJkWUSRU5npSIZbb2McrAdXKqzPWb6r587P8rsjazXGe+ONNwzwBkzy7zp4C1m50I01Ww+7WlYs6rEwRDef0Hqn2vEEvDvvvNPIz4nLk53KTEcyXN1mnJ+5rfDNdz706LHU47rr89D5UUZeOQvextRaY9+I8HADPHfUatV2vBsGvLvuusvIkAlL3dsTxLrAF4UWGMfadahntd1Zn6ut76wgfPr5F8Y12NrG3m8pyqNBb2/vGxc875AG0BaG1oNq56ri/fGPfzQykoG/vYxzx+9yoMzKXXh2VkS7Y5W3HMLrb5tjQNYm2ea3OLQAz9jY3h3nZCsNzprqyMSVb73ruGrLtXMt3oZrtyjeQhO057Ws1S4wedbVEroFbgDvd7/7nZEn7BdnqyDc9ZscKDSjHlQPNd0oU7P83W7NZp6zl1+32F7d152fn1+V1u749n4gnI4eW03jxgcvtAELCV9IA3xCG1yK8ZgJsiQVebbxWI4za30W0sp2ylen1s7WJh0FY/ySRJvn8dqb72HbgdOo3XkUb7xtOTu7M71pJPEPP/zQM4rHCsbCbmjHo9ppihdCN9sA3zDnwPvd//qzkQGSKacuXnX4Dna0QNXt5Di21pdfewtD5kfZPH7rgdNQ2nC1HsRqul39bD1HsTSi0737bM5vd05y/m866GqHKt2j1DEZv/4f/+keV9v2yEx7bObpWq0Ona50roC3ISq3HXjMUFuxV1cLVvaXApN1dG5Tu0LltuqTAn62tT/HOsjvXV3L+TC2C0yuRn7dPosYj9CPVypesj2f5Tpy7Fqla5TqZp/zSXQbeEaM113gUenEnOmdEpFeZYCnFvTwBTEOZaYjGW69jRQYj3f49Ct2jyPbyZr94iJzG+Wrth7nl2h3f+vjdvZdEs6teVFLc21chcWLaU5YeQJj+2p9+87S/0B5z4gKnts6giqVC6qeR9vxFoZuBc0nrF4z33DnXC3nx5NMuP322yUvcenKW24rUOsCkYMMnhvZ4TFMtXu12qxsP2ie7oI55Ya6WKfv6ndJ05H9V0QWy+YY5cDYkKptR4zt+UHynGt3gTdiYS5ow2meVryFrFi0xXaEbnHEVqcqFyp4nJZBXRwpAFe2kWNw4LQj+3Psq7rd4pB8SUJbPzt7i8X/6rbOfJZEHdmnsH6/bO7QsY2NAeTk5BjgPTZkjnvB665HZj5hjaD5hm2Fb/hWLAp3HrxbbrnVyAg1gxwpAFe2kWNMX5vuUKHZOoakwbWjMZatdNTfJM3A5KpOz+ut9z6SzTvdlseQRX1MRrVz56zvI6l4Ap6n2/E08EJ18AidK+B9/19uM8B77TXzgOexixMcylS18Bz5LIUwpwvthZIG1+yi7shxO9tG0nSkrZAzxcvSWbojfWJlU2RnZxt5/a1vf8cD4LU9q/V0jOdDpQsjcA2aueJqw1JKjcxQB3AfPPWyWwrUumCkFOYH5bqc/mfKIyumZ30MV77LeXF96TX7MS67xKtLZ8dSt1VjO3e/52Kkjx7jaXFe94BH6HS1W+yCq+1olFlnmerK/1IQcwNcf0Ly/keWLxB25Tys97F+tar1//Kd7XvqIr/bW6vbdgt43dH1XYvtqHhhW0HoXAXvW9/6tqF6akbZy8yu/C7pT13l+nhddfgh0+vK+aj7Vm831z7V360/qzMPWP+nfv/4U/M0ao8++qiRx8Ne2OD2KSxGas0pbfOneLpWa4DXBp2r4P3yN3cYmSJgcC1NGGpmdvWzpM++aa6mdfEVyzdYu5qO9X7zgsyzQFn/p34/dPpluYwOr0HaRvlU5Ac/+IGRx9OWZ3gUPPbL82g7nq9Wo23U47vwBvi50JxCVxuWVGhkCkc/yfLRJ591mLFqYTj6WdLuykxTHBykLo4e25HtJF12fUostP3cOkbpzGAvzePnr0hS4HRrqpv1xLvM+NSi255cELxF4Y1a+x0rFq5ULghedtUuI2MGDhxoZBg/2MtYV3+XxF3dn/u9+8HHkoy27kpa1vtaJGzn+lkxkmXyihSbeST/c61C95c+z3hkmjIduu5yteGN8NXAI3yN8NvS6HQDMsHjxD0/+ekvjAw6ffq0kW/r4ytsZqx1gTn6XRJ2dHtb26nDDZ3pHWIrLevfBs7ZgorWw3Kadq9dNojKaWy3zRvvmHuwcMpcAe+//v64x16iZ27H64b+eL4RTVgU0WRA5yp4mRU74Ltyk5FBw4cPl3zFkTP2n6daF5oj3yVhR7a1t43ETkyLnUbtbefq7+pEO0HJ1TbTl+vIqbJ8VjthqXnsLLdRp6adsTLLw+BJO56HY7xFEeJqRfGaXFK8jPIdyK7caYDHO1RdXC1A6/0GzzOPV7D+z9HvnJNYXdbFuVeR5TzUYwyYY/nYjtvI0rLvlAWY8jvXo0aNsshTT7421ELxPF2rZXynx3hUvSaXXW162XZkVezAv/7E/CoB1d1KYXR1rbaBuZrW7iMX1LK1KHRX07S1X2blbohLt+XO5SQa9hw3zkEdRUZVFhfL9RPD5np0DmS9OaWbRplZu9klka7FeGml25FZvh3ppeb5PG655RbJW9TsOGpkrq1CcuY3SdSZfdRtZX+u1dnZ1W3c+VmOtyKyxCIP5HfpTxibb24N4H8qdDNWpHp81ne1Hc/jzSk6eLrSMb5zFbzU0m3ILNPhUzNMMtcdc8QJDJKmq1PNyv5cS5qeXMvxOOZDjsOarCyLQgq039VJiNhup+Zjd7woedTCXNDdEkB7/fGowmp8LNdgb+3Fafg5J/HTL6TpNjUVT01N1dwrXeySSDHXFI+zgqaXbkNGmeUkjdOmTTPOiaP/JeO7sr7yhvlN3jU7HVdS1jZLmw8a5/P+h5+45Xw6u5aZ6zONY7LQuP3bVr1TXlhjnkX14sWLFtDd/eiwbnlDtwae9E6xE+N9/vnn+OKLLzT4HAHQizvwLTbtwNvSDL8tTfCLbNRsaaRrlYuUkm1IK2lFemkrHnisn5Fx1u+Z6KyQHPmfHUDVxZF9uM2rr5sbjXcd7t7xuOr5LgkvUr9qIKo/qErHz931anhd6TqO8T755BPwPRwUMUfeAezFCV44u5Bt8HT4lmxpgjvAyyhrxW0//JEBX1WVeb6QofPNb7xxFBhb262MMk/IyOGBnFPE1nbqb1K47JKk/t5dn+X46vra2+9bDEAKDQ018k2HLrdbwdNqtuyBbKd3Cudr4Qg3wucIgF6Ejjt0Cl5Us0vNKariEbw//ukvRgbylU6y8KUo7ihojtxSlwwHJgqS7d985wO3nIOz1yHHlzVjPla61IUvoxHFYwdb7wBTN4Knx3gddYt6//33QfhE+eh2O1I+L84U/u6777YDz6/N1TLGWxrVjGVuAi+zzDxhIzNSXWy1aTlbiNz+yJlXwcKThQE5p361lRa7ycti6//u+k0dsHPo9CtQx1IIcLJeEJDXDrxhU9fjqZELMWjSag90EpCKhf1xtW+//TY43bAoHwFkCEfXayvm8+LG3Mla8fwim7EkslmDzt3g/eVvdxt3L+8MWZj57ixoSVfW2w+esZhhgONsP/rY3L3Incd2JS05T3XNV4oKcFz/n7sex1/v7Yd/+dfO36k72S/VLcMbRyndouw1p3AWUhqFjEZPyjCOdQhbyufFvvq8OPvgUfGasCyq65ULuloqXna5uU2PmcmYQBZXCszWPtYuV9LvaJ1VtQdsqLUeBGQrfU/8FpRcY3F6e/futYBOBdD6M99O+atf/Qrf+c53LPYZvzChy9OU6eDplQt74PF1qteuXcNbb72lCRnho/oRPiof4VMHtnsROu5gDd6SqBYspWmu1gPg3XKLkUHqi1eeX5naZdULy2wAX1WlLswYRxe6hmdnuW9AtyOQqs2tsHAAABqVSURBVIOy5TzpDcaNG2fkkzVsfKdFSEgIGhvNY4JZwAMGDDD2oTJOWZ6NyUt1m7QkG8/5ZWPC4myMX5Sl2VifLIxZmIXRC7MwakEmRnhnYvj8TAybl4mhczNhCZ7tcbUcU0Oj6hE+hm+M+6h8tiobXleuXAGtHXiRLVgSSfh06JZHu1fxssubjMxhhqqL9YQ7jhScbMOX4qkLr826wPr06YOnnnpK3czuZ0nXU2uqq/Xy4cdUCPOgH+v/Hfn+b//2b8Z1D3lhY9fA82mrXHQwB/LLL7+MV155BdbKJ/BR9eh2RfW8uDGtPXgS4wl47qnViqvNqWjG3++538icffv2Gfl54vxrLqnegNlbjDT4Yf78+Ub61vBZwy7PTPcduwh+lsU3pP3cJu6EUK0ERWQ3WFy3dTd8OSd1TUA52Y91P0L1eif4JnUJPEee1V66dAmXL1/WVI/KxxCO6kflU2u7Eu95cWPuZA2e5mbpaqObNVse437wciuaLcCYPn26kafOdpnibKOyvPjii/jtb39rkbZaELKdrG2BJP9xbet/d/0mx5EnF86my4l91IW1SPVanxq91A2u1tycYu+R2YULF0ATIaPyMYwTt6tWNni+XnwMwx2swTNivOhmLItuhqfAu/OuPhYZpWbiiIWOzbOSWNSq7maRnloIDz/8sFblVzemWtgqbHUbW/+76zc5jrOP6QKSqiwm/pF01OvlZ3dMzCjParWpLOyMuTh37hzOnz+vqR7dLlWP8FH11GYWulwuXtyYO7UDr03ppClleXSLWxqQVVdLxcurbEJYQroBC2tl6tJZATe+eNLYnKpx6623Ijo6Wrsm4w87H+yl7b3RZLGHve26+rvah5AHpNt978NP8MrVd8D3vV15/V3t2a2tdjD1BKky1sB9/4c/c9sUFmpzir25U86cOQMahYwelOfE+FpUj7Vcxnts3+PiRejOnj3bHrwovQ1vWXQLaCs85GoJHk3NOMYHspy5fA18h4OtQo7Ns5zlc8qUKVo6sq+9tc/mPPSzk+bpy9fa7Wbr2O74bdpacweAdgd18Ie+ffta5B3zkU82pq3IdiN4ueAE3Iz17IHHPpY0ek/CR/BeffVVrcVEYj3Cx+YVLl6klDtYK97S6FYNOM3NRjd7HLyMggqLDFTjPZ4o39LDnhqsQPC1VNbLAw/ob4pUf6dqOPoKK87bZ29xB2S20kgtMb9L9/Dhw4YaWJ8HXRXLiZMuqkMZ1ZuVn7/9ne96aLCPDh7jO3vgnTx5EqdOndI8jbXLperxGmh8PMvFi9Bxh/bg6Uq3PKYFtBWxnnO1VLyCqkbkltVYwBcQEGBdBja/q2MPVLf0yaefo2jrAZtqKSBQ+TpbZFt3r7e/ZH6Jnjoo2xooR75PW5bmuTEXVLtOukWdOHEChI/ek15Uarl0t2wnVh+pMb+9CB13sAZvmaZ4rVqlghWLld0AXmF1IwqrGizgY6bfcccd7dg4dOiQxWAXtXDabezgDwcPHjSOre7ibuAkPfUmUc+/s8+//u3/xiSfiO7tJLAgx5gxytaA7uPHj4NGZSZ8EuvR3bKSwdotjXEeFy9CR1rbgRdDV0vwGN/p5syMoJwfj8MbrXun2KpciOIRvOKaRpTUbEVSpnmut84Kgv9viYowoFG3//nPf46kpCTt4lWY+DkoKAiDBg2yuZ+6rYDi7rUcg+1ccs5//tuDWB6Sj2Uh+ViyOR9+wXlYvCkPizbmwScoDz6BebDVScCTg33UJxf2XO3Ro0dx7NgxLWwjfHS3EuvJEw3GeozzuHgROpvgGYqnQ7cyttVjtVpb4JXVbsXPf9H5g3AW2NBhQ1C3tRYcyyEFaGu9bNkyZGdlYdWqVWAPaFvbyG8CBdfuBk7Sk2OwwOS4dz3QrweDZz/GU8Fj+GYNnjQoW4BHibRWvOUxVLtWsBmFqnc9wCurbUBFXQMq6+uRnpONic9Pxt/+/jcs8PFGfWMttjbVoqGxVoOO4NXU16C6vkZ7UN4ZhFLQ6ppNMfJdoOgO8P78Z/MM+U8MntwDwes8xiN4NIZuAh5ruGzTY5wn4PFJBhdN8WyBtyxGmlFasSKm9bqDV91QD1rt1nrUN9Z1CF5lbQ1oyRnp8Fu+DHS3ApS6Zvf73/3H75GYYUJ2YQX+8Mf/NLbrTvB+8pOfGMcdPN67R4Nn78nFkSNHLMBjBcMaPMJngCdBobXiafFdtA6dDp7na7VqjEdXqyqeK+CV11SjrLoKpVVVKKmsQlFFFQrLq5BfVqmZqaQStJyiSmQXVeK+hx4xAOhO8NSbYfrikB4Nnr0YTwVPmlU6BI/xnU3FY8WC4MXqTSkr47o/xutu8B5/uv91B89nfUqPA09rPNaaU+w3IKvg0dV2qnj2wFseuw0rNGN814JVcS3YnLVLq2BE5O5GhGk3IvN2ISpvJ2LydyC2YAfiC3VLLNqOrtZqr4fiTZw60wBPelFQ+aQy4O61qKooHucuXhGa3+PAs3hkZmewj1QunIrxbNVqV8Vvx/LYVlDpaKviWhGQsgOhObtxs4K3wG+FAZ48zPYUeHMDc4Q745jf+8FtPQ68Ed7ZYCcB7alFB08uBDyqnVQu1OYUqVwYtVq249lqQF6TuANrEnZolQrWaAnemvgWzW5W8NYEhhgQSAaRjmEL3DP0UhRzpE8cpHMDG1RF8R4bML5HgUfoRvtwUkbldQN2BnSzSYghG9vwaIzv+PRCGpDZhmfRgGzvyQWnog1I222onQFeQutNq3ibtsQZEDCTZOGbvwUad6xnrc/EhVf1jhBs1Rfwpi8O61HgETrNzbZNXcHxFkPnZbebivbv/fw16Og5O3pywcdmxpMLyiLhs67VPjszAxzILW52dfw2rElo1SwsZ9dNGeOl5BYbEPCOlWVeQI5bwStsML+9Z8KECcYxV4QV9BjwOO5CBU9Ub+CsjHbgRSRUaA8h6Dk7elZL8PiUhovWO4WUDpyZocPXNncK50+hrYrbptnq+FasbbN1CS1Yl9hy01UuMgvNPWRWrlwp3CE8a6tbwVO7u4vacd1TwBvjm4MxviaM8c3F6LbxFpxJYPCcTDw4MqwdeEeOHNXCNWlGkd4p7BrFx2XSO4VteEbvFOmPZ8R5VuBtytyN4Kw9MMBLaIV/om4BKa03Va2W4KlPPIQ8TgbkDhcraUi62p3v5dWmeLf0CPDGLcrFGDFf3dWycjFkTgYemxBtQMeOAnc+7a8ZXSw9p8R2UqlQ++MxZqabNfrjkU7CZw+8dYnbzOAltGKtgJfUivXJBG/HTdOcQvC+rYxLFUA+//xLj4P3g9t+1DPAW2wGT1ztqIU5GDw7A/cM2mgTPLJD6GjSK8VeD2QDPG7IeIY7HTp8FE9bKZ643M1Ze7A2sVUz/6RW0NYntWJDUgsCkls80o5XXmd+VtsdTy4I3shxE42YizelLKJW7lhLmrNmzTKOtSIkr5vB08fUcmwtx9VO8DNhvJ8J4xabMJaK50szaXEe1e5v/TZYQEfF81ufg737D2pqR/ESF+vQmAsZZcagUKtk2AHvqakpCM7YhfXJ23RXK+AltyIwpUWzG70BmeCxJ/Td9z2oAdG/f39hBEvDi7qsepwud01MmZGmxHd33vsEVoUXdjN45gHdzy3Jw4TFeRi/OA/jFudi7CLGdyaM8snVBnT3GbzJJnhsPqGbJTuEjgImXd5tjTLjSDOOreVijKvlTgLfxvharWIhaqetp6TgmenpmOlfjg0p2zTF25DcCpoGXmoLgtKasTG1GbF5rTfkkwsBLz2/3FAigxI3vNZeTUvL/Lb4bnVEYbeDN2lpHmgTl+bhOT8TJvjlYRxtsUmL8UYuyEb/qQn4e/8NmqmK9/iozYhJrTZ6opAdtcdxR+NqOfxSu3Z2WWEQSJdLaqV5xQI6quCUFMPYgByWs1ODLiClBbRAgpeqg7cprQkhGU1d6gh6PR6ZdQbe/hOXXFY9zo6gLjIvCt/11t3gTV6Wh8nL8jFpqQkTl5qgKZ4CHqex4BQWAh3XKnj79h+0aCwmO3SvNCodTRqMWamQefP4NMiYSYD94bkhJZLUqrXcAy8dMSufAt6TU1JA47NaDboUQteiqR0VLzhdN8IXmtmEhIIWbUZQddIeziQgwxvtdQTt7k4CKnhPPjPQUD11Rqu5Trbp7Tp0TuVN+ywu1uuWW7F2S2G3gDd1RR6mrMjH88vzNJu0TFc7TfHoav1MGOubo82dogInnwW8pMxaQ+nEvUqfO+l3x8djHNgj0HFII/NQ1I6ZYMwWxZ2YgCgfKxtUvwEzM3T4bIDHuC/StAOhWdt08NJasClNh25zerOmegQvLLMJ4ZlNSC1uMWaL6ungpeWVW7wiwZqe8UsSbQ679I+rMB6HWe/T2tqKZ555xgB67ZZ8j4M3bVUBpq3KB8HT4cvD5OV5IHiTlpkwcRndrAljfLIweFYK7no2wELpVPDi06u1mI5sMCwjK+pjMQoYn/iwoZjQdThbFDeiUfnom6l8rHCQZtX1JuW2GK5WFO/J55MhNi+wDDF520HgxEIzzNARvC1ZukVmNSIqZyvSS/QxtT1R8QgezVAnLy8MGzbMmiWHvt92m/lN5Uzv4aeHwy8wGesiC90O3qw1+Zi5pgAzVudj+up8DboXVuVh6krdpqygm9VNZozqM3ijBhyhswXe4vU5mmuVZhPGdIROKhJkRzoBsJGY0KlTVqhKJxnmxQ0pi9yRxDLeY4JMmAcg3TQeVOI8W+ARwIDEBq1r1OY0wtcEA7wMXfEM8LJ18KJztiIxfyvyKhu14Y3XuyOo6moFvCefsRwMZCsTJTPVNUeQMV9vv/12C3gJ3vroIvhHFboXvHX5mL2uALPWFmDmmny74NHVEjxCN9YnA/cPD7GAzhZ47ADA8qcHZChGlROlo6eU2QIoYGwkFqUTFytxnZo/XtyIG3MnBoSET5SPrpfwUfkorTw4q9D2wHtichJooxdkITKnCdG5zTp8BC+rCRGieNmNiM7VLSa3AbG5DYg36ZZe3IDiGvY+7v4eyLbASzGVwT84qh08BIjjeR955BFtyrM777wTnBxRVUjrzwExRaC5B7x8zA8owLwNhZrN8S/QwCN8M9fmY8aaNsVbnQ9N8bQYzwTOj/f4uAj8Y0Ag7npWTFc6a8XjIHOWN5vZKD7kwFrpCB3ZsVY6ViQY19mCjgBqs76zNZnw8Q4lfEyM8JFmul2aqn5su9EAVFwtFU/Ae2JSEsTmbyjSYju+pWZLdjMis5vBtxJS7WJyGhGbu1UzAS8xvx7JBQ1I0awe2SX1KKzSx1s4O+bC2a7v9sBLzi1DYk4Z5i5a1SFY1qDxacTISXOxMa5IM1fBW7QpH74bC7BwYyEWBhViQVARvAMLMT+A0BVg3voCzPYv1BXPCrwXVpq02aIGTovTnjwQODF74LE3sapyFB2WP1WO3pBsUKCsa65q7ZWewR50Gnikko16hI/qR/8sANL9CoCq++WJ8A4ggAcPHcHIeZlarGcLvCcmJaLvRN36T02Gz8YiZJU1IyG/UQMvzrQVtIQ83e0mFTQgOb/eAC+1sB5pRfXIKK5DZnEdskrqkF1ai5ySWuSX16K4iiPL9JFmMspMBvu4G7yE7DLEZ5UhLrMMMRmlmkWmlWJLaikiUkoQnlyMsKRihCYVY3NiMTYnFCM4obhT8FZFFGJlWBGWhRZjaUgxlrTZ4s1FWLy5EL7BhVq+LdxYpIMXWAjvoELMD9TVbu76QsxZ3wYe1W5VLsbMTwFjt38MDNJtQBD+oZlt8NaGFMAaOHkaIcBRiKyBo2CRHc76SZWznnJWda/qZy9SyY25E32yuF7CRwml+okC0vWq7ldiP6rf/gOH8OTzuqsVtdPXZvAEwL4TE0CLyqxFVmkj4vMakWBqQEJeA5LyaWbwCF16UZ0FeDkldRp4uaU1yCnRLbukBlnFtGqYSmtQUM6BPtXGQB9HBvt0pniughcUV4Sg2CIERBdhQ3QR1kSWYHVkCVZGlGBFOK0Yy8OKsYwWWoQlIbr5EbzgIvhuKoLPRsJHxSvSFc8CvALtJXozV+Xi3qHBuHvgxjZrg47w2QHvviGbQJcqHTnpVikshE6ttVKApBJBNqSniaicdXOJCpmtz8YcsASQO5NcAsgECSEPIgqotvmJAkr8x8BTXPD+AwfxnG92m7u1D97jzyXAbPF4/Ll4JOdVo6hqK9KKGpBapKtdelG9pnaZxbXIKqlFTmktCJ2pTF9rAJbWIKsNvoyiGoilF1YjraAaqfnVSMmvQXJeDZJMVZol5lYjIbcK8VlViMuqQmxWFWIyKxFNy6hAVEYFIjMqsCW9AhFpFQhPrUBYSjlCk80WnFSO4MRybEosx8aEMgTFlSEwrgwBceUIiC3Hhthy+EeXarY2qhS01ZGlWL2lBKu2FLfBV6zBt4yqF1aEpaG66umKVwTf4CL4bNLVTnO1gXmYvSYbD40MxT2DNml296CNMKwD8KiCzS27Ndiku7pUHAgcy5MKx/CKFU0CR+GhW6UQSdsca60UK1E5W3B19JsBHmth9MtMiPAxYcJHsmlsn+EJED6eEI0nSN/Pu0PUj/Dxgg68dBBPsrKhuFprxTNDRwB18B6bEI/AmBIUVdYjq7RBc7MOg6cpnhk6wtcOPJMKXpVL4IW1A69CAy8o3hZ4ZVhP8GLKsDayVDOqnRk8HTqqng6e2d22B69Am77i+SXpuH/YZgM6wmdARwA7AM8/rACcd0bcKstLKg8sR5YnoaNnE9fKkIvlTwGybirpqALhEHiyEQGk62XcRwjpvwmhqB+p54mI+6Xy8SQJIe8Wnrw8dqMLJoSU8piMeiPWE1drDzzCp1scHpug26Pj4zBkVhKScspQVlODwspa5JXXtqmeroKauy2pQWaRbqJ6huLlVSMlrwpJubol5lQhIacKcdm6xWZVgkbV05QvoxKR6eWITCvHljRV9SoQSuVLaVO7hHJsSijHxvhyaPDFU/F02xBXBv9o3dZGlYC2hhYpikfwSrA8rERzs8tCC7EoyATv9dl4dGwE+gwJ1uyewcEw2ybcM1hXus4ULzyhHC+99JJd2NSKA8uRgsI4jgIjKkfhYSxHDugNyQaBUycdEn4cXRuKZ70D4VMVUGq+PAHCJ/EfT5J3BgEkfIwLCB8viABKEwwB5J22d98BLA8u1mI8Z8EjfI+OjzXsiefi8OzUBATF5GmxHIHMK2sDr7gWGYW1huIRPkKXTDdL8ExVMINXibhs3WKzdXcbk6G7Ww289AoL8OhyQ5LLNdssrpZulooXX4ZAgher24bYMvjHUPFKsS5aNwFvTWQR1kQUYOisODw6Jhx9hm7Wbchm9DHMefD6PxeJ5tZdBnDWMRy9k7hVlhcVjuWnKhyhk1iOosPyF+gcrUBYM6V+twuebMTYz178xzuBAPIkRQEFQl4ML0piQNUVM5Cl1DNDODXYiy/uw+zVJs3dmtWOqmepeNbgPTouFrRHxsVY2tgYPDI2WrOHx0ZDszHReHx8NJ6aFIOhM+Mx1jsJK0JysDbChLS8MmQVViI9vwKpeeVIMVUgKacCiTkVbbXYcsRklCE6oxxR6eWITitDVHqpZuEpJVgdng9v/0xMWpSMJyZE4rFxW/DQ6HA8OCoc9w0Pw33DQ3HfMN3uHRYK3UJw71BLcwU8vw25qNu6Dfv378eBAwe0/GS+8kanx+GNL67UlrpZw8bypDsVhSNw9HxUOALXFZUTprjuFDzZmPBRYqXphSfEO4Hw8c5QY0BeDCVbXLAaB4oKMrYggMwkGt0BLTiuEoNnpNh0tV0F7+ExUVDtodFReGh0pIU9OCoSD47a0s4eGBkBSwvHAyPDcf8IS9NBI2yquRe8R0aHYuHaLLCHiwqcdexG6DpSN7WmqsZwjO3FrQp0LH93Lg6Dpx5UdcOUX4kBVQipgowT1HZAqqBUSEQJJR6UGrHEhMxEgsiMpVXXb8eGyDIMmp5kuFpnFU+Fjp97MngPjgjFmv//jo3du3drgPE9INaQibLxBpZKAvNT3KhUFJjvFAJRN7WWKhUGiojAJjEcYXOXwqn88LNL4EkijAF5ktZNMNIIzbuIFRFphrFWQnHFUisWNaSLYGZaQ0hXwsxnIfBdFk0tO1FS0YghM5MccrU9FbxpS1IRm1qO5tYdGmi8Nhqvk9fMG5AhCUFjiMJ8UWGTtjdxpRK3Sc1UlE0FTioMKnCibu6I4YQRe+sugSeJSk2YcQBBpArSFVOyGStYKyEzgJUSZgjvRAa2ttSQboKZShNFtAZSlFFVR7ogGgtvz549WmFSOZqat6NuayuSsqqwJakcM5ZlYZJPapdd7TOTYzFlUSqWBZmQYapGZU0TGhpbsbWpFdu278CuXbu0c+C50FSwRMUELl6PhB8qYBKriaLxZqXXIGT0IoRMKggqaLz5aSwDCoKAxvKRpw3yeMtT6iacqGu3gCcJUpp5txA+3j3ihl0BUFVD3snMcFFEawilosJCozKwEEUdRSGpHiqMKpCEkkZAxHbu3ImOTLaTtaTBtTVgciOo7tJayazVjKqvuk/ehISNRhfaGXAMdQQ4QkfgWA4CnLhTgU7KsLvWbgXP+qQJIi+MSiggihIyI8QlS+VEaseqa+ZdLIooNWVmvLQZEkoWCqGkMlIZWGDWcFI9CKhAyoImqAIrgRVoCa4zJvtyLWmKaskxRb2o2IRKapw8X7mppCIgasbrpJrxukXR1FiN+cRQRhp4WSO15UKpbAKaO2um1uXtzHePgicnIkoorlhiQmsImWnMPN6phFCND6WSIrVlcc3SdmgPRgFShVIKnmuCIEY4rE3AkbX1//Jd0pC0BX6uCZfqKgmYLchExXhtNN5wAprqPpkvomjS1saQhiaqRm8jMZuoWne6Uil7e+tuAc/Wwa1hVBVRasnMSKoigWQGC5TMeMaJNFFHFUxRSaqENaAsXEIqoIpyihuTNZXUEZPtRaWYHk2OweNZA8XzohEqFSx5YiDXJnDxuqX2KXEaAZNaqEBGVSNkPUXVbJW7/HbdwJMT6F1/M3OgF7xvZrlf96vuBe+6F8E38wT+H7/r8ukrCEkmAAAAAElFTkSuQmCC;" parent="um_Ki8IDZ3RUpcfRVOOU-4" vertex="1">
          <mxGeometry width="80" height="80" as="geometry" />
        </mxCell>
        <mxCell id="OpV2UFvNa62Xhtrnb1xq-14" value="&lt;b&gt;PostgreSQL&amp;nbsp;&lt;/b&gt;" style="text;strokeColor=none;align=center;fillColor=none;html=1;verticalAlign=middle;whiteSpace=wrap;rounded=0;" parent="um_Ki8IDZ3RUpcfRVOOU-4" vertex="1">
          <mxGeometry x="9" y="72" width="60" height="30" as="geometry" />
        </mxCell>
        <mxCell id="um_Ki8IDZ3RUpcfRVOOU-6" value="" style="endArrow=classic;startArrow=classic;html=1;rounded=0;" parent="1" source="OpV2UFvNa62Xhtrnb1xq-17" target="OpV2UFvNa62Xhtrnb1xq-6" edge="1">
          <mxGeometry width="50" height="50" relative="1" as="geometry">
            <mxPoint x="180" y="620" as="sourcePoint" />
            <mxPoint x="422" y="470" as="targetPoint" />
          </mxGeometry>
        </mxCell>
        <mxCell id="um_Ki8IDZ3RUpcfRVOOU-8" value="" style="endArrow=none;dashed=1;html=1;rounded=0;entryX=0.5;entryY=1;entryDx=0;entryDy=0;edgeStyle=orthogonalEdgeStyle;startArrow=classic;startFill=1;" parent="1" source="OpV2UFvNa62Xhtrnb1xq-17" target="OpV2UFvNa62Xhtrnb1xq-22" edge="1">
          <mxGeometry width="50" height="50" relative="1" as="geometry">
            <mxPoint x="610" y="640" as="sourcePoint" />
            <mxPoint x="710" y="580" as="targetPoint" />
          </mxGeometry>
        </mxCell>
        <mxCell id="um_Ki8IDZ3RUpcfRVOOU-13" value="" style="endArrow=classic;startArrow=classic;html=1;rounded=0;entryX=0.5;entryY=1;entryDx=0;entryDy=0;" parent="1" target="OpV2UFvNa62Xhtrnb1xq-8" edge="1">
          <mxGeometry width="50" height="50" relative="1" as="geometry">
            <mxPoint x="620" y="200" as="sourcePoint" />
            <mxPoint x="663.005" y="180" as="targetPoint" />
          </mxGeometry>
        </mxCell>
        <mxCell id="um_Ki8IDZ3RUpcfRVOOU-14" value="" style="endArrow=classic;startArrow=classic;html=1;rounded=0;entryX=0.5;entryY=1;entryDx=0;entryDy=0;" parent="1" target="OpV2UFvNa62Xhtrnb1xq-8" edge="1">
          <mxGeometry width="50" height="50" relative="1" as="geometry">
            <mxPoint x="659" y="210" as="sourcePoint" />
            <mxPoint x="750" y="210" as="targetPoint" />
          </mxGeometry>
        </mxCell>
        <mxCell id="um_Ki8IDZ3RUpcfRVOOU-15" value="" style="endArrow=classic;startArrow=classic;html=1;rounded=0;entryX=0.5;entryY=1;entryDx=0;entryDy=0;" parent="1" target="OpV2UFvNa62Xhtrnb1xq-8" edge="1">
          <mxGeometry width="50" height="50" relative="1" as="geometry">
            <mxPoint x="700" y="200" as="sourcePoint" />
            <mxPoint x="790" y="210" as="targetPoint" />
          </mxGeometry>
        </mxCell>
        <mxCell id="um_Ki8IDZ3RUpcfRVOOU-29" value="" style="group" parent="1" vertex="1" connectable="0">
          <mxGeometry x="20" y="43" width="76.73" height="110" as="geometry" />
        </mxCell>
        <mxCell id="um_Ki8IDZ3RUpcfRVOOU-28" value="" style="shape=image;verticalLabelPosition=bottom;labelBackgroundColor=default;verticalAlign=top;aspect=fixed;imageAspect=0;image=data:image/png,iVBORw0KGgoAAAANSUhEUgAAARoAAAEmCAYAAAC9C19sAAAgAElEQVR4AeydhXdV57b27x93v3vvOac9p+60hSru7hri7iFuO+6uxENcIUGCFdoihVKgyJnfeOZ837XetSUESlrC2Yyxxg4hRFbW+q1n2jP/i/x//GfAfwb8Z2CRz8B/LfLn9396/xnwnwH/GSA/aPwXgf8M+M/Aop8BP2gW/RT7v4D/DPjPgB80/mvAfwb8Z2DRz4AfNIt+iv1fwH8G/GfADxr/NeA/A/4zsOhnwA+aRT/F/i/gPwP+M+AHjf8a8J8B/xlY9DPgB82in2L/F/CfAf8Z8IPGfw34z4D/DCz6GfCDZtFPsf8L+M+A/wz4QeO/BvxnwH8GFv0M+EGz6KfY/wX8Z8B/Bvyg8V8D/jPgPwOLfgb8oFn0U+z/Av4z4D8DftD4rwH/GfCfgUU/A37QLPop9n8B/xnwnwE/aF6Ta+Df//43PX78hB49ekyPHtvH778/ovsPHtJv9x/Me9z77T7dvfsb3bl775nHvXv35/1c5tfC18b3YH5PT58+fU3Ouv/HWOgZ8INmoWfqD36cCYKHD3/nmx839+1f7tLPN27TD9d+okuXr9G5C5dp9uxFmjp9nsYnZ2lsYpaGR6fp1NAknRqcoJ6+UersGabO7iFq7xyglrZ+amzpofqmLqqsbaeyqhYqq2q1XovLGim3sIZyC7wfOa4awpGVV0kp6SV8JKcVk68jJaOEPzY7v5r/n6/Pi/fnuKrJVVxHJRVNVF6tv6cWqm3o4O8Z33dTay//HB1dg/wzdfeOUP/ABP+sA0OTNDx6ms8DzsX0mQs0e+4iXbh4lS5fuU7Xrv9MN27epl9+uUu/3vuN7t9/SDi3gO3jx4/pyZOnhPPu//PXnwE/aF7gd4CL9+nTf9PjJ6Ig8NS+++tvFjSu/XiDrvzwE52/cIVmzl6k6TPnaWLqLAOjf2CcunqGqa1jgBpbexkOxeVNDIL07HJKOFFI8ckuCo/JouCIdAoMS6WjQcm0/2gc7T8SR7sORNG2PeG0ZVcobdwRTGs2HaNVG47S9xuO0Fer9tPy7/bSl9/toeXf76Mvv9tLy77eRR9+sZU+/BzHNvW6lT743DiWbaX3P9tM//xgHb35/tpnHu99upk+WLZVDvPzuL39/rIt9PGX22nZ17vpy+/xfcnx7dqDtHLDEVq14Qit3niMNmwLos07Q/hn2r43gvYejqV9R+L4Zz4SlESB4al8LiLiciguycUwzMytpPzCOiopb6Kq2naqb+6mlvZ+6ugeYhgDUiNjp2ly+iydnrEBdeXqj3T9p5sM95u37tAvd36le789oAcPf2dFCDhBcfkB9QI3xjz/xQ8at5ODCwwHQ+TxY5b9rEDuP6Rf792nu7/eo5u379CPP9+iKz/8SOfnrtLYxAx1943y07m8qo1yC+soOb2UgsLT+WbZsS+CNu4IopUbjtKKlfvps6920vufbeEb+4331tLf31ltH2+vst823+/29t/eWU3/eHcN4f+/+f46evOD9fSvDzfw8daHG+jtjzbS2x9v4uOdTzbRu59upnc/3ULvfbaF3v1ss318ukW9fyu9v2ybdXywbBt5O+RjtsrnUf8Xn9d5bCZ8Tf313/54I7310Ub65wfrjWMdf+/4/vFzmOfgb2+vor+9vZoP/X68z35b/k3/P7wCkG99tIE++mIbg+3rNQdp9aajtHF7EOH87z8WR2HRWfx7yS9qoPLqNqpr7Kb2zkEaGJ5itXTx8nX64drP9NON2/zQ+PXX3wiq88EDUyk9sZSSH0ZuN888f/WDxjg5T548oYcPH/FT7vLV6zR5+jz1DUxQY0svFZQ0UnxKAYVEZdDBgARWFXgaf/ntHn5qf7AMNxtuMNxUG/j414fr6V8frGcQuN9Q/3hXQIEbBEoCNyEA8c7Hm+j9z7bSh1/soI+X76JPV+ymz7+BOjlAK1Ydoq/XHKFv1x2jlRuP06pNgbR6czCt2RJK67aF0YYd4Xxs2hVFW/ZE87F5dzRt3RtLOw8m0O7DSXzsOZJM+th7NJn2B5ygg4FpdDg4g48jIRl0NDSTjoZmeRxHQuR9+NhDwWmO42BgKuE4cPwE4fPuPpxIuw4l8tfevj+Otu6N4QPf28adkbR+exit2xbKP8P3GwL55/pq9WH68vsDfCz7Zi999vUe+mTFbj4fHyzbzkADwBhaH26gN99fT2+8p6G1ht4AfN9dw/ASEANCOL/rCL+Ptz5aTwDfOx9v5N8XgA919+mKnfT16gO0bstx2rE/gg4HJlJkXDalZZVTVW0HdXQP0/DYGQ5tf/zpJqugh78/YmVrXEL+N32cgf8o0OAJ9OjxE1YmeHKdnpljkODJll8EFVJMYdGZdPAYQBJGG7cjNAmgb9ceYiWCMOSjL7fx0xyKAZD421ur6P/eWmk9beXiXssX9TufbKYPPt9GHy/fyTfM59/up+UrDzpgsWZLMN9sG3ZEkAbEtr2xtONAPN+kAMK+Yyl04HgqHQpKoyPBGXQsNIuOh+dQcFQehca6KCK+kKITiyk2pZTiT5RRYnoFJWdW0YmsakrLqaWMvFrKLmignMJGyi1qIldpC7lKW6mgrJWKKtqppKqDSvVR3UnltV1UWddNVfU9HkdlfQ/VNPZSXVMf1TX3O47qhh7+fxV13VRR28VHWXUnlVSepOKKduvA180vaaG8oib+fvC9ZebXUVpODaVkVlBCWhnFppRQZEIhhce5KDg6j46HZdHRkAw6FJhK+44l065DCQR4MbR2hCtgBdF36wPoq9VHFKj2Mag/+nInffC5QArKCupPlOQagjLk422AfzX/Tt/+eAMh7Ptk+Xb64ts99M3qgxyeAkKbdoZw+Ho0KIUi43IIOStcO3WNXXwtIY+E8AwhGZQwlLFf+dDruQWBQ5/HTzhvcu36DToze5ETjA3N3YR8CJ5SkXG5dCzkBO05FEsbt4cQ8gbLvtlN7322md58by3DAwDBwbJdhSlQKHiivvcZchzbFUT20hffHSA8jb9Zi3zJcX5K42mNJzee5DsPxNOew0m075ioBwAjICybYREW66LIhCKKSS6h+NRySkqvpJSsKgWJespyNVJOYRPfnAVlbRYccBPjhgYQ+OZv7qf65n5qbB2gpvZBajk5RG2dI3yc7B6ljh4cY9TZO85HV98EdfdPUs+pSeo1jr6BKeofnKb+odNejmkaGD5NgyNnaHBkxnHg/afc/k/f4DT1DkxR76kpeR2Y4q+Hr4uvjwPfD74vfI/tXSPU2jHM339D6wCDrKaxj3/GitpuKqvppJKqk1RY3sbnA/DMzKuj1OxqSkqvoLiUUopKKKTQmHwKjMimI8HpdCAghfYATPtiaPOuSFqvVBRDaY1ACcoJQHr/czxIthIeEhpKCNlwDfyfeqjg7X++v46gYvHw+XbNQdqwPZhzS0eDkyk8JpuS00vIVVxP1fUdnOweHJmiM7NzdPWHn/i6/P3R4/8oNbTkFQ2KCijroqR648Ztrkgg8YrqTG1DF1c+ouLzaO+hGFq5/gh9smIHP7UAkP/55/f0v/9SIFE5jzffU2HMRxv5YhNFsos++1pggtAFYQsgsmlXJG3fH8shAsIPwANKIyQ6n8LjChU8ShkeyRlVdCK7ltJy6yjTBXXRRPnFLVRY1saKorxGgFHb3EeNraeo+eQgtXUO882HGxE3Zt/gFJ3CTT56hobHZ2lk/CyNjp+lsclzNDZ1jsanztPE9HmanL5AU6fnaOrMHJ2euUinZy/R6Vm8XpS/433qmJ65SDjOnL1kH/zx+D++Dvv/688jr8bHz1yi6TNz3g/9tc9c5O+Rv1d8v6fnaPL0Bf7+8XPg5xmfPM8/3+jkOf558XPjGBqdoYHhMwxCgKyrf5Jh1dY1Qi0nh6mxbYBqm/oIcAKYCkpbKbewkTLy6ljpJaZXMtjD4lwUGJHDQNp/LJl2HoqnrXujacOOMA5Nv16rQbRXQLRsG18XyIchfENYBhUL+Pzvv3A9fc8PJygmJMwRjiFpf+h4IkUn5BGqdbUNnZzTQ0Xx3IUrXD27/cuvXIl8XStlSw40Wq0gPkZJE5WDi5ev0eDwFFXWtPPTBE+XD7/YxhD5f29+S//zz+8sZcLqRCVWcYEgdheFsoUvpC++3c+qBLkPqBGABOHLwcB0CgjLoaCofAqNLaCIhCKKTi6lOKVATmTXUGZ+PYcCUB2l1R0cRiDEwEXf2jlCJ3vG+GkOWOBGGR6bpdGJszQ+dY5vsOkzAgPc9LPnrtDZ81fp3IWrdPbCFTp/8Qe6cPEaXbh0jeYuXadLV36kS1d+ostXf6Kr136mH67f5AMVlZ9+vs1VlZ9v/EI3b96hW7fvznvgIr/DPTToo3lJx517dPsZX/fW7Tt04+Yd9b3e5gT7tR/xc9zgA5W7y1fxc/5IF69c53OA83B+7gc6e+EqzZy7TLPnL/PrGUARcFPgBGQBLcBqdOKcAafTrKygpKCgWjqGWAECSpX13Rzm5RU3U3peHSvL6KQSCostYPWJhwlCWlwXa7eE0Hfrj3EojBwSVBCuI+SBJCwTFYTrDYc82L5jECFEwwNv3dZACghNpWxXNTW19dHY5FkOu9DycP/+Ay5EvC7gWVKgQUn5t98e0NzFHzg5l5RWTLsPRtNXqw5IleUjScQidwK5i1+ufsIAKngKoTry6Ve7ObEKZYLcCC6eAwGpdCQkk45HiCKJTCg2lEgNX3jZBY2UX9zMuQbkMOpbTrHq6OobJ4QbeMIOjc3wE3h6Zo4Vwuz5K3xjoKJx5Yef6YdrN+j6j7cYBrjJAAHE8yiP//obGuEecqkVIIW85gY8/foY/SFP5HjyhON/5ACQxLaPp1wVwQXKx1Mp16Jk+yoeT566fb+On8X+GfFz6p+dm//0OXn0mH5/9IhvygcPH/H5+/XeAz6fv9xBhfAuw+zHn2/TdUDsmrQeMLwuXVPQusKwAqSgDPEQODWEkG+SwzqEoHXNfVRR00VF5W38MBEQVVBUYhEFReXS4eB02nMkiTbvjuKwGXmiZd/s4yT22x9t4oS1VNJE+QA+b7yHa3I9vf3RBq7SffzlDlq18SiH9Ai7+gcnuQqG9omnS7wf6JUGDW4MnGQ0Z3V2D7PsDAg5wX0X3607zDmVdz/dxNJVlMv3XBKFnMXT5aMvd9Dn3+5jhbJ2awhfBEggohpiJ1gz6BjnSvIJcElIrSCtTpA0RUiDHEFT2wB1dEORTHEeAkoEoQHUBi7a6z/d4gsa4BCFcE/g8et9rlAAIA8f/M4JQlS2GCSAye9OmPDNxDeb8wb0BIoJl//Ut53nCGA1gYSmPQ1qnGd0KPO5f/g7wxxl6/sPpGMaZWy0L6AzGr+/G7fu8MMA6urylZ9YTZ49f4VDToSmI+OznMdCWAsQITeGJDqumYz8OkpML6eI+AIKDM+iA8dSOD+0bmsoV9ZQFEBVEXkgqB9AByE8Dh1yLV+5j6GDviL0U2XnV1Fr+ynuzYKSB6CX0p9XDjQg9527v3KjW2t7P2XlVVFoVCbt2BfJygWl4/9+41v6X1XpQZyMng3kUj79ag+tWHWQvt8QwDkUPF2gVnToA6AERuZRaIyLopJKKCFNoJJd2MTJRaiUprZBjvWRDMXFhLzBzDlRJQhTrv14i3786Tb9fPMXflpCjfz6q1OJACI2SAQm7uoEf3ccfCPgZvA89Ofzv8p51efB27kyz6mGDCqN7odWR4AR3sa/y9sCJ3wefJ0HD37nPho8KKCmuZdKw+imhtFNDmER0iGvNT51gQZHZ6i7f4JaO4Y4UY+qW7arnhPWqKQdDUmnPYcTaNPOcL5ev/x+PxcWoLhRsof6+X//RKi1klsmVqzcxy0VgeFphGZFdFUjxwOVhmZDPJRf5T+vBGjwFELocPHSDzQ0Ok1VdSc5cbZ+WxD3o/z3m9/R//zre/r7O2von+9L1eeDL7ZzyRi9JRIChdO2fbG092iKCoFyKSTGxbmUmORSQvIvPbeOZS9KuijFIj5HxQVJ1amZOc6HACY//nSLbt9G3uIeX1joHOWQBopEQQRPRvyCcSHef/A7/ztfjOZMEf7fbw9Y0eBz+I9X5xzg9yIzWQ95dAHjC3yo3yd+t1p5PtKqU0PJCNs0zAA9XAv4HePBcwdh26073IWMawoQQmg2MnGWVTFUEKqFBaUtdCKriiLiXXQkOI127I+hNVuC+IH5yYpdHOr/88P19Pd313AqAA9ZhFqrNx6lwLA0Lq139Axx9/NPP9/ia/JVBM5fChpQGPIVPS2oEsUk5tE3qw/Q399dTf/9pqgWiWXR9bmR5eaKlQdp7dZg7qFAb8mxsCxWKcFRLgpGojYGidpiijtRRqk5tVRU0UYNrac4h4IEIcIczBYh4YYhQlxwGha40PRTC12hgB8OO0H67IHDhQwl+j/m1TuPyOe4H56/J7keABI+7klYrAGFvhkeIOVZK1FIAiKVQ3rwkDuN8XV++vkXVkGz56/SxPQcDY7OUkfvONU19XMlEuX6kOg82n0ogdZsDqLPv93LoRbSAlA7OrmMQgdGTA4ci6eyylbuDfvll19fOZXzl4EGkIHsw7Ddzv2R1qwNmqeQyMUJRSb/i+/206pNQdzduv/YCe5URfhzPCKXAsJzGDLoQUFzGhJ1SNBCpUxMX+C4GhWZn1B9uaUrL3f4SaMrMfJ+JGXv0K1b8m94EvkP/zlAsv5ZB6p6uFb4+sE1pHJ0gImACnCS/A/UDqAk4Rim6kUB4WGG6xBFAjwIUU1DDhDtDGhxqKrv5tJ8XEoxHQxIptWbgwhqB/eIbtFAAeTdTzZxOR3hFWbpMCaDvNWr8OdPBw0UzOy5Syz5MIOC4T/kWFAVeuvjjVwRQos92umRX9kfkCpwicilkKh8ColyUWh0AXfBogoE+dnRM875FMTHkKj4ZV394We6dv0m//IQCkFW4sDbaCHHAdD5D/85WJxrQF9r8mq3HNymGzd/oVu3pGhw+xcBkoBJ1DOS0cgBomUB1zOSz6iCoRzf0HKKyqpOUkZuDYXH5tGug7H09ZrDHGLpWTCMVHy//ggdDz1BFdVtdPbcZXr06Mlfyps/DTRQMOfOX+Zel+OhqUxeZNhRHUIfAhrhMK+DDtqDx9O48Q1J2/C4IoqIL6LwWLSjF1L8iXJudMMJR8J28vQcnZv7gfstABcoGBzSgyF9JujF8B/+c/CnXANXfqTLvg5ch+rfrqD/ia/XG+qBqPuffmEVBZUENQVA4YF58bIonbHJ8zQ0OsupAHRQV9R2UnpuNYVEZdO2vZG0Aq0eH2/k0AoKByM06FSuaegkzO8hx/hX/Fl00AAwkIbwE4HHCcrSEhZtoc+/20+rNwVxvuVQUDoFReVRWGwRRcYXUVR8MUUlFPPbgExYTAEndNF2jzZ3yMu5S9fo4qXrHCKB/OfmrvoP/zl49a+BC9KIiWZM65i7yuoF1zEaMy+h7wpVTqjyn27xK5Q6urvR6IleH4RX6ArH3zt7xqi8uoPiU4tp96E4+mrVQXr3k82chkCvDu67jNxK9vdBmPdnz18tKmgAGSRd+05N0KbtwVxBgk3B9+uP0a6DcTwpjASutOsLWACX6MQSik4oZtgAMMfDc1nVYK4HrekAyszZy/O0yBut8D7b6P0f43vEwH9u/rJzM4MOZxnxkC7nS4SuZ3SKA0C49pGDRO4GjaIYRwF0UDmF2sErentQSt++L5pL5taIxFsreSC0pa2P80d/JmwWFTQgZ039Sfp0xQ4e3YcfS0BYOs+YBEcj1+KiiLgiVi4MFsBFgQavYbGFFBiRS0dDsynuRDlhyA6VIyR6eQ4GszD+w38O/kOuAVz3uP7Lazpl8Dazint0MMwK2OgDCgcHxl9CY/J4mh1RBCq4/3hvLX277jD3p6FJ8c/qOF400GBWA9aSkGwoV3/0xXYKjcqWhqX4Ii5DR6rwKDqhRFQMlIw6ABqETKgwoboEOwRM6oLkw2MgOE6mfXL1Sfa/+s/J63YNaHAAKI1tpygpo5Lvi/D4Qiosa+VEsfkz477AAxjKBkOk6IKHdxFCKMDmzQ/W8X2ZnlXO1bI/o8t40UCD5jt09KLRDiVr2DXmFNRTRl49BUbkUVBknqVmtIrRkNGhE3I1GGgLiYYnST5hwA2Diyj3oeMS0hGTu30D05wcw7wRWxLoV1gT+A//OVhK14C6duWanmb7DlhooBcMvj6wD0FXO/rEUHXF+wdH7CFdQAnQQWkcne5JGVXcCoKBUBiKweYEsMEw8TdrDrHLIKpgi/1n0UADI+29h2O4jRrVpeNhaVTT2EMllR0UlVjMiV/dYMc5GiSAVejkDh4ABx+DZjyonITUcsotaqSymg72K4H3CjLw8F5p7x7lMiBKgSd7jLeN9+Nj/If/HPzV1wBfo+q67FCv7MfTOUzNJ4eooWWAahp6GTAwB4NPEfyK8DYetgAQ1ItW9nAFwCwe7gP49mDEBg9oHGhiPRiQQp8s32mZtGHIeNeBaDbCX+x8zaKBBkbRMNEGPd/+ZBMlZ5RSz6kJVhyoHOGEQalA3SA8Yg8X2C/Ax8WAjkPlJJYwjPAxOPBv8HkB2QtK26i8utMygALpYc+A2SWAyH/4z8GrdA00tg1So3VdDvC1Wt/Sz9cv7g84EEL94/pOyaxmDyMoGowu9A9hDu8sH1AvqMJirgo/X3HlSUrOqma4BITn8mtCWjn78ZRUtNGaTcctGws0+cEzp6d/jOe9FlPVLCpotu4OY9Cg0pSWVUldvePsDYKT09k7RpV1XRwKwYIS0MGJgecLqkwIrbiPJlbAY8KHFY+uTiWiSlVMMZCTKeWUiEHJzGpKz6mjHNg6FDVTYWkrWzvArlIc6bpZXcGVDge8SGBLiVfz0P/uf5Xz5D8Pz38e9PUEmwkc+LtYnnZRWXUHD/PC/ybTVU9pubU8j5ftauAZKFyrLe1D1NM/yY6GkquZYfMz+OkALLiHkLtMSK9g1Y+HNg48hNNza/lrtJ4cor5Tk9TVO0b7jyawFS1GGAAabMeAsT4GSxfzz6KBpqm1j7bsCmOZBrPtwPBsysyr57ixvWtYWUVOM3ya24f4/RixT82p4dAI4RUMpmA0hf4anDzAB+EWhiURQmllAwhpEGnoxCaVUlxyGcWnYIVJBSWmVVJyujwdUrNr+JeAfA/UELxr8QRhD93yNoYSnh6l1Sf5F4Usv3XUwlNXLDRxIcAaAH+3/t38WP/br+954WvAvg4q6sQjWV8HMD6Dsx/GYnBdwaM5Dz7Jxc3saeTS11tFG5VWnST8f0AINqxQLUgF4BX3Bt4HyONBif8PpZOSVc2hEXI1UCzwiEbiF/cQuxC0D7B1a9/ApFivDp+h3v5JCgrP4PAJPk3akqK7d5TtNJYkaOqbumnTjhAeLfjoix10MCCNwmJcbJ6NE4IbGXNJ7V2jTGwkcbv7x6m1c5jLcvCBgc0laA0yI9Mem1LG+R3O10S7ONxCyCUH/i4HcjlIIgNG+FiU0DWIolSFKxbueCll3GkMFcQggt1mZjWlZtWwXy+mvfG9ZrkApAZWSMgN5RUDTM2EiwW/WBy4mOBjiwsLg5yeRzt7/WJy3PPw9vH+93mew5d5Trz9Hry9z/ia5W38O9bgwO+dTdaLm5XJeiNluRpYneAhhgNQwCvej2sZ5vD8UCtV10uFfM6icvW1y9v5ugeYYPeakV/P1yIejvqA6Rb+DR+DnCfGcJAmQM4H9xHM10axeHBshoskbR0yLwV1v+9IIoMGigagYUWzlEGDlmdUmvDDwPj5cGAGBYbncgYc6kSSuhVsvI2nAGQgqkhIaLHJ9fBpVj2IPVHSRmiDdmuU87JdjQwDAAJEh6k3BisBFQCGD8AmpoDDLwaP9Xd5v/64cA0kDSWoI6OfBxLUHUpIyunYWf/yZdtAnbqo5MKCBAagoJpwkeUo139cbB5HcRPlznMAbvMd8/3fpfpv8/28z/NvHj+/Ov/uv4+cIvk9ZRc28u8tq6CBHzLY0IAHDh54cASAMVpyZjVXdBCyIN+I8D8qqZgfhJGJ8gp7EvR/4TpNyaxiUODzaAhpEKVm13IeBslbfLxWKbA2QX5G7E2aWdFA9eBh3DMwxb0yurdGW5iOT59n0KCpr7l9kPOW+JpRCUV0JCiDx3xgCIfc6WsBGnjKwBMVjUIoqx0NyaLgyHwOf5AARh7mWFgOH2jewy8FzmSQh6AzegCQ9BpSRtwgNHpn4L7fDyf9vglq7xzh8h4y8DAWyi9u4l9ialY1/3KRt8GcVBgqVqpMjlBMx7ESluWLvQQaCBlMWg0pRWSFaEWsjHj2CvNXSiWhF8jqB0osoZikUj7ikmX1CSpkuNBsOEn4diJLPaFyRD1xfJ5XS+l81LF1aHqePBHxVMSTzbxAzbfxb6/r8Xw/Zx1fQ7iO+AAc1JGWB2N4fci5R/iBcjHCjuSMSh5xATSwsgbqGe0UCOGxzgYPJoTs+prR15B2EcC1jK0W7CgQkcvhPhQ2Hnb4v3z9xaBNQw7+t9gCikoUAzYADICD2sX1zI6OPeM0MHKGe2LQqQxbWPaN5g7hawSLCXTIT89epIkpzEAh9znOIVheSTP/HEERuXQgII12H06mXQcTaf32cB5chm/xawEaGIWv3RzA9XqsITkWmu0ADTp+AyNF4eCXBfDgFb4ygAPizixXHZVWnqSGFqw6HSOs7sCKD0jCkXF5BXgGhqdpYAj7qdFHgxUi49TZg9UdQ9R6cpAaW5HN76Hymg4qKm9lIGVzTw+eTngySdlQKyMkofWFhO9Tf3+4iJCsFkDKRcX/hp9F9QZxDonDOel8xoWmVZMzp6S7oGXkAlAEpGKTy6yQDraiHNalC6jwfVpHeqUbvAAw2eUEy4zFO2oW8XNX8xOcb3zc/JlVrBoAaTkqeGcV9lbh6Y9rhA+GQzmfN6xbwUOLIaFAAYUKWKDBjRQHFYYAACAASURBVB86MdKbhZDbBAd+l/gd4/eLbnTngcV58j6GCq4FQ6GjhAxFDTAhJGcVg5U5ubJTC+ES0gWASCNSBp0jvNmifwgjBLOELQ8YEJZxA5iuX6FZNqbHPJQYsvM834UfGDCnZy/T2OQF6hs8TW2do1RV10OuklbOccaeKKWwuAIKiszlHWCHjqfxmh/AZvOuKF5IiLGE1wI05VWttGrjMV5J8e26o7LwTCkaJHX1wTc0StzqhmYA4YkQCYc8NPXBEgJl7EpJdpW0cAjV2NLPIVV33wQrHzQtDUP94BjDLw+7h6Zp0IKQgKhvcJL6ByZ52Re2UPb0j1NX3xiD6WT3CLV3Igk3yE8UAK6moYcrVbxLqKyVk3GItyFHES4xqDKrrKchJDSggZwQLjw8ufTPilcu5/PPKz+z/nk1zMxXXfoHvKzDykNBgYkKMxPj+obCTYUDfwe4EVriwNvyPvvfzH/XHwf57+3AjeTt/fw+9TX466ivFe7x9fTXlfwZbnwdxtpPflEPOucGIOBGdpxH61wC8vYDy3xbPwSOQ0FbHyNv4+N0YQGjLjhX+L5RTACkoGigbOLTsGdLFvKhUAGFhTAY4ID6QOUIyVcka+EbDCWCZlL0w6CyihAGypyN6zGThK0Xk+fZ+kG2XlymM2exyUG2XpxXUAFczjJUrvBMH0IkVJ3QyHeyZ5xQHgdciipO2gnizGoOvfA7wq4wnC884A8FpgtoDiXTlj0xHGEg0gBslnyOpqS8mXdNoykIVpvIz+jQCVUk66KBEohwXkTYjXQ8PJvd87CVMSBMNjPi/4THuigmqZiS0sopLbuGf+mF5a1Ugea9xh5qbjtFJ7vQNTzKMGEAjZ1hf9XxqbM0OX2eG5Smz5xn+0MsgJdjjs5gc8HsRZrBcfYivw0D8qnTF1iajk+es5JsCOnwuUVFYSnaBFfQ0HiFiwwVA/TwIOFd29jLJU1UqXBh4smGxDGSyagi4MIVeNVzPA5Jr5/qUDDy9JaneHyq5KUANDnKOIekZT4uMshxOSRXAODpg2/suAJ+4uGpJ4c86fW/mSGCfuI/6xX/h4EBcDA8ABAnREyg4PvxBjgBYRF///iZ9AG1iZ8X+QtAAK8Ic7Sq4e2cGVi8h3ComnMpksxX+bKCBsotRJ5Lkvi6wlhSKbBAnhC/n+r6bv5dIReCcnR9C4zpT1Fz+wBbv7Z1DXM1B/lE/M77B7H94jQNjeABJ6MxeqoaA8CYTUL+BKtgEP4g1OHjnMAFgAFo8G9Tpy/yHN/YBDYxwPz8NOFBisbCpvYhqm0+RZV1PVRa1cl9YzpZDAAil4OcDs4LfvfhcQW8nDDADTTYgvrVqsO8EeS1AE1haSPPUwA02JEUFJGnQKPkqlY1DBoDPPykwlMqh1efADg4IFux9xlL2pDUOhyYTkd52yNyP7kUEeeihJQSSs2spGxXHRWWNVFl7Umqb+qllpMo9Y2wegEYhkZO08jYGbaumJw+R1hjCsDAkOvchct0Ye4qXbp8jbcvYL0prEax8RJmWTDPunHztuHAB/c+7UYHLxE5sFMJ5kWwDcX/gbkSthTCjwT2FrAH4An0GVmipvcP4YmHCxdPQRxY+YH+o45ebJgc425nJAOb2mUbJRJ+WDin+zPQSaqP6oZerkgg74W1t/ZxkkuvUGnuBxq+cBPmFqGS4n6oJHZhM+Vah7wPsh1PeEC0uEKOkoqT8ne8zzwq2rmkq5fmVWH9rjqgDvA2BgLRwFaHAxs4W/p5qR7UJn5mXrDXhQV7Iwx2vOL8oFcE5wu9J+iSRRUG5xHGUYM8fAjVO0Oj4xJ+IwRH7m9UHxPYtSX7tgQYs4QHFHYu4ZD3iT2Dfh8eQHzwEj8s8pNlfjLwKwPAY8bg5yimrCfOskIZGJnhJXhQPp0949zViwcULD0FKh18Xl1lbZRXon8vLZRT2MyFlMz8Bs5DIUGNcQMkkwFnGzRZfK/AnXL3oWTatjeOvllzlH2g/vHO6qWvaFwl9fTNmoPs9YtlW0GRIv9ZyXgoGgGNmRexQQN1o/Iiodkcc0LlHFPQORyUTocC0+gQdlPzcYIOB6VSQGg6BUdmU2RcPiWcKKGM3GoqKGmiiuqTVN/YQ60nB6irb4RODcGc/AxNMHDOs5KBQRdgM3fpBwdwAApA5/qPgI7ezSRGRdrC8c4dMTWHH/G9e/fZgxgDpg+wboU9ZU1f2cdqH5PsXPr303+zTwjawc0DdhsYfMNeK14p8viJvfPpsawRgXMhzLbva5Nt9QrDdFhJ8nHvPt1VB9z8vR34OLi9aatTb6+wnXQ/zBUztsey7beMz+l+4OPw9ayPv/Ob+hjZcyV+zfb/0x6++Fo4sIECB1wCbrpBHfubBOzXecHg3EX4vSA8uUyzUBPY2qk2aUKxQulOTJ3jYxxQmcAWUBQg7HwgFIt9SHGCIWWASQ/7AmYoMzNIBmU0AIna9s5RaoQ6YZBgi2YHFZa1c+cuYJ1X3KIAD7WLHeXSgwPQuErlEOC0UHYBih8+QBOvFE2YgAarmAGa7fvieOULVr3AkW/Jh05YfP71moNMTjjnATCIiV8UNJyE1aAJEdAcDclUCiedjgSl0dHgdDoWkk7HQtMZNIDN8bAMCo7MotDoHLY+jIp3UVxSIaWkl1JmbhXlFUL9NFNFDdRPD7V3DrLyQVg0PoF1K+dp9uxFujB3haEDhSPq5harFa1gNGjkBpCbA7CByfm9ezZ0YH4O8DAQHij/WDju6+0KvOvpET16hENWf+g1ILLzCbuM7D1OT588oadP9SEwApA8jz9rgZx8L0+e2t8jvl/Zt4TVJupQP9vD32Wtid4qgT1eOHCeeKMAwKgN4rH98hfxfhYHul/YgQ7QB/yvXceCvp952yN2gV28dI0fGOdhBnbhCivWGaz+5dXA9rpeDRrAhoHD63jPKQUDdWPDRrf8I2Tq6Z9gwyn0qTRhT3hTH1XVdbHVJtowUIJHe0NWfiMDAdXD9Fx0ANcTKoqARFYBSunNlFPUzJBB7gfAYcCUKLgAMs8LGh06GaDZdSiJTeawjgjd+q8FaHILangPE/yAN2wPd4JGh014VTkaS81w6JTDoROrGs7XSLUH5UOtZqBojgZnShgVhDBKjmMhGRZkAJrA8EwLNGExuaxwohNcFJ9SxIvYU7PKKTOvinIKaslV3EglFS0ccmFvd2NLL7V1DFJX7wj1DYxzYhlPODz5Ts/MsRerDrPcASSG1XcJjvR46uJprBUEbiAoDa0+2KzaWO8B6Gg3fQ0b61VvqsSrARwbPp5L1XhjJTZXKmWkX6GUnuewPo/egunxasPFuchN7VVyW1PCC92wOwmra3h/ElbX4Lw4l7pZqgeq6BcoGCgqWF2aoLnJDwAP0PAK3SsWaM7M6pzbOVYsyLVxqIqpaYCjd4wLAsjJ1Df3UXV9Fz+EMCdUUNpMeei1KainLJTQUS7PrqYUVAPTyikROaPUMuPQOSRUzVBCR/6ohnewI3/EoHEJaHKLoGDQAKgUjFIvWK+sD1Y0UD0cQj1D0QA0sFgJtRUNQAMf7pUbA3kP2pIHDWQ/Fr+J8fhm2rgzQkBjVJ0ssMwLmmzJ00QgdAJkdOiUScdCMgU0wRmE8MkGja1ooGZM0MDMOSrBRbGJApqktBI6kVlG6TkVlJlXTTkuwKaBisubeXVFZc1Jqm1AObKPWk+qJHOvSjIPT3OeZ2LyLE2fPk+4gCHLAR48SQEeeBdf4zBL53Ykn4OnMocad+7xyhes7kCYZQIINx5CLT7MhXRuN6ulELRS0CDirY3Y3CiHBYkXhI31/z3g4lRYtnqZZ4WtAunD32VjJLYBALqAL84BzgUvamMlI5sjb92WEEngIgbzUJawu4TtJWxJdGgkMDlPCIFQhUTlEa343X1j1NE9wi0PTa2nqK4JOSyApINKK9qpsLSFQZINiOTUcL4vKR39UCUUi2a8BMzdYfwln4sSKEyguhMWg7/L+1AlxcehehWbLHYOSFpbnefo8M1BA2A9D0pmFTRxvoVBAyVT6gaa0gWAJreO0JflkaPxAE0igwb2udiUueRBA9mOm/fL7/ayO/umXZESMhmgQQhlwSZSNdE5yr7ZFBihQIMcDUNGV6IUaHTopNQMwwahU4iEToHhvkBTQAlQNBZoKikrr5pyC+qooERUTXl1G1XVdpBWNi1t/axuOrqHqadvjCtaA0OTHonl02fO0wygcw4bGa448jzIGUDeIzEMuY9EsezfvsMhgVY+CBVwo8EBTeDjDLUEQLLeFarAcWAPNWCE7YuP1KHho191KGO82orIViXu77O3O9oQsd9nr5+F+uJ92HjVIaGCpizdU+HRfR0eydI1hJrI43B4xHmgO3yOcK4AFagVhETInZ2/cJVzLVCWCHfgST08pqqAp8YtoKANAg8LwKSkso0KoUrQ+ZtfSxk51XQis4LVSAKqeAomEYBGTB6FRWPzBvq/cigoIodfkffDERKFf8Pgbz7DButvcQAyMUlFFJtczG0ZKJFzPxQUTWY1dxWjOc8GDbqRdehk5GSUomEVo1QNRg44j+OuaBYKmoOJtGN/PK3ZHEwfL9+19EGDpx9Cki++28ux4KZdURIiATRQMEboJLBxBw1CJwUaq9QNyCwANCpPo/Mzomiy7RwNK5oCK3QSReMEDRSNgAaKRkKoljY0WQ3yDnCApn9gggaGptjsGRWMiamznM9BqRylcQbNhSuEJCSetrqKJbC5YcEGFSkBjqgdyfXctcKtu3f1Dm/J89jgMXI9vCtI7wsSlcA5H+z4VocTRm7reN1UkhWmub3f8TksVaLX1Ir6srd3Ckw432IBRfItOuciUNGh0F0rFAKIARadzBWwIIl7iaZnLnDiHolalJRRTeo9NcFq5WTXMCf5Wa2gpaCum5P/xeWtDJj8ogbKLainTIQ8WVV0IgOQAQgw9yaqBa0T0QkFFBXnIgAnLBYwyWOoCFwAGAWZ6Hye34OywZpbW80UUQxAk1zCvTgWaDLQSCljDJyjcUmOBmVqydFo0NiJ32eBBh3h6H52VJ10eZsVTTZXnZAM1jmaNVtCePPIki9v4ymXklFCy77exaDZsida5WJUTmbBoLFL3Jyf8QmaDGfopBQNQidnMjiXQ6eYBHfQVFBWvq1oGDRVUDRuoOkYJCgaSHAGzbBv0OCmOO8GGg6nWNUYoLGUjQ/QqG2ZklQ2Fc6rCxqd0PUFGbuaJJBx5lykFcATNFcY3uh1QoIeYRHyZUja9w9OcgK/swcNl0PU0j5ADc193GxZWdtJpZXtBNi4Shopr7Ce1Ux6DoZnkTuRvEo8Kxp0ZxdTNJSJBk2MAk00YKMhY4MGvtcYFgZsBDRo+iviz8OhU0opofcpUeVoAJoT2Rg1kdBJ5uAENLlWjsYXaNB75czRPBdoDiZy1QlVYOypfy1Ak5haRJ99BdBspa0WaBauaCBV7RJ3Ns+RSJ4mi46FeoZOR4LTCYeuPEHRaFVjVZ1icglVp9hEAY3kaEqtHI0OndxB09DcS81t/dTeMUi4mAEadBUjdBoePc09GVrRoCcHpVMBzWWHovEKGh+KRlevOImsVrDaeRwNGQmpUNrmA7vA1fG8igbhFodcbirGVDfzKxqoJ51z8a5mfr0nK2VN0ODndILmNqs9D9Co0jTO7fRp9KYgmWuDpveUjJ2gWVODprahhwAaLFwrrmhVydwGQg6GQZMJ6xAkcWEnAkWjQGMqGg0aB2QAmnwKjcbhBE1kPPIzAI2ETxiJ0DkaJIRt0NjJ4PkUDQzd5ksGvwho1m0NpWVf7136oMHFGZ9SSJ+s2KlAE6O6f40OYPTSWP00nqGTBRqr6qRCJ/TQaNCg6oQGPgWZhYMGzX1F5JEMLqiVHA1CJ0PRNDSj47hfQicGDRLC4z5Bg2Sk1fz3AqGThE92tYpzNlbeRioyUiIX0GgFIcDBzW6HTAsNnRYCGs69uOWEzLL8fKBBvskTNHaiF305emGae+iE0BPtBehvYtCcQae2DZpTg5ME0HT1jnJXOECDBH5tYw9VKdCUVNjhkyR7qznZ6wEadFYnFFCkpWhyCdVKqJlgHJE5Stlga6qCDS86FEXjCRrpYEYyWECDgU4oGhs06IexQyenmtGQwau3HA2Dxj1H4x46BckIAoYq0UeDdpPPv9lH/3h3idtE4MkXk+iij5fvYNBgvsIxZqAhMw9ooGb4wH5tbtgT0Bxl0KCPxq46+QaNHTqFROXwBRMZny9Vp+QiSkotoRMZZZSejaqTXeL2VDQ2aCR0egZoZuYHjd30ZyaF7dDJG2gYNlZlyqlo3EGj4cKvZsVKQ0KpFw0X89VUMO5v/xFFI6AxczTSaySK5lduANTl6ucBDbq8Tw1OUZ8BmlYGTT+PpAho2gmgQXkaeRp30CShJI3xBigaAzSoJAEyodEKMg7QIJSyYRMeh6HKAnKCBq6PyAFJ1QmgQXkboEmD1xH71KC8LZUnq0FP988YauZlgmb9tnD6/Nv9S3uoEqVtXJDRCXn04Rfb6b1lCJ0AGiMJbIJGl7etihOGDe0+GkAGRwDPPqnpWe4MtkFzODidcHgomjC7Yc8EDSAYb4GmVIGmWnppShq5vC2KRqpOpqIxQYOuYh06IWcwpccZFgAahAZ6BzjWnuImQ2+IlL6l/G1WoRygUcvidR/OfKDxBgcTLO5vu8PF/Lu3z/UsRSNla11dcpatnclg6YtBYhznRYdOCDeRSPeuaOD4j4QwQINZszFCQrhNTezXNfZyA125ETrlFzfyiIrO0aSkl0tC+ARAUyygiRdF4wmaHAqO0opGJ4jFeC2My9sCmqhEXXkCaEo9QIPErQZNJnsWqRK3ztF4AY10BXtWnRakaALTCSMIWtHAKuKL7w4sfdDg4guPzaH3l21ViiaaRxCsapMJGm7ay3dONUfmUCAOAEeBRoYs5weNho0ub2NZnU4Ga9BExeez2vIATa5SNAo0ZT5CJ3fQDI1IPw3Kqwwa9NQANGcvytyUGTpdvs6VFCgaJ2gwP7Vw0KDyZEEGjX+qm1aHTqai8QYHd7iYfzfB4v62t8/1R0CD/JN7jkZAY5ezPUBz9iLPpiF0GpvwBA1+P2iybGqFoumlalitYqZLNdxp0KC0DR/rlAxP0KDqhNDJBI2ETiZoJCGswycBjYsikUhOLKRoztEANCULAk12IYzPVMPec4AG0+Ro/nP00ejQKcpu2GPQoDN4Xxx70rwWoEFCEjud3vt0sxE6aUUjpkAWdLgC5QRNkALNcQxWmjka9gNBjiaLMH7AncHcsCdNe0dU454JGvTSBEVmcj+E1RnMiqaQQ6eUjFJKM0OnEtWwV9VKaNirqe+ihiY7dMITE7kA5GigaGBF4TmgqUBjNfDZ5W3cODZo0HiGmSk9qPkLz+0gdDI7iqFmRNH85uitccw26YQwOmx1l/FDtx6bvyB08qVo7v56j7ulfYEG4RPOkwM0FzD5jJWxcypHM8sNeaxo4EPEDXlO0FQZoMGoCUCT40JXrxtoUkpY0cQmFXF52ytoIqWXBg8tXeIOic7jpDAa9+zKk4AGFSyABr00Yn4GzyB0BsOzWjXt5UvopEGDrt98o4eGk8HW35X3cDGGK6UzeF5FA9BgBEHnaHgEIZ7Wb4+gL78/uPQVDW6AoPA0wvgBqk5WeZuh4gYaI3SCb4gYSNmKxjtoMhVokAgGZJ4PNDGJ+RSfrECTXkZp5hgCg6bJ6gw2QYMnJVtQADSnfIFGuoRZ0TwTNJKj8QYa3ICeoZOzl8Y7aB46QKPVjUONzJOjgbpxVzL6747P4dFHY1edoKy0yjJB48zTCGjwM+Jn1clgrWjcQcNDkZhXskBznhUNOn/Rz4QqoBM0p0TR1HVRebUoGoAGYyYATWZuDffSWIrGBE0iQiCAI8/K0bCiiYRPkm7cQ95GhU9GP42jlybJ7qVxgCbLBA2sXptoUUCDPpqwbAM0kgzesCOClq88pLYgbKMlaU6OHA16Po4Fp9BbH67n8GnLbtVH4wU0phGUCRpWNdoqgkcQdHewWXVSoGHrCAxWupW3wzDrpIYqkQyOllmnmAQBTWJqMaUo0GRYoRMUjYAGfTQ19Z08bImtDpj4doBmEJ3BomjGJmeJLSfUOMJCQQPIIEeDG+zmLVvR/JWgeR7YOEInJJ7dS9w8WiA5GhM0ehJbg0aXuOcDDQ9GKtCgGxih03yggUVItTfQcNOeG2hUjoYVjQmaaEkGAzQwY3OABvvIFGxkDMG98mSDBp5CnAyGomHze9iMwoJVDVaq0MlD0ThmnVSOZkGKplDNOhmgUVWnDTsilz5oMKSHi+fw8UT61wfrCKtWYB9oh0pORRMYbrrOiVsafplWeVvBRgYq3WedtKJJZ2ozaILsEQTkaDRoOEcTnUORcXkERROXXEgCmlJWNABNtquW8osbqKjMUDR13kGDcqoOndD6jotevG1E0cycneNyrMw+2aETul116ISntoDG7g6G5YEjdMI8lBk6GZUnUTR2iVtyNH9c0SwWaPRQKX4e36D5hcNJrWis7uCL9gQ22gccoBme5qY9rWjQwQ0DNAENuoPV+IFWNAANPISzqyglo4KSMRCpQBNnhk5qDIGrToBMRI4BGigbAU0owieMIsTYoIEZOEInuEPyGAI2bbDZuIROaTluoCmAr08LD0xK4lfK3M4+mhdJBhtDlQo0G3dE0opVh5e2ogFobt26QwePJSwMNI5qkw0aXXniPE2EGD/z5Lajj8YLaIwRBA2aoIgsEtBA0eRRdIIJmhLfoKk+STUGaNo6bEUD0KAjFQN7FmimzlkDliZo5i7aoJEcjTnzJLDBkxwJYQGN5+yTlaP5DwAN4OsBGj00eQ42DwZoxsQzWrqDYckqORoTNOXVHVSKOScNGiN0whiCO2hioGiQDLZAgwdfthxW6ATQqIQwGvd8gCbGC2hQ4vYEDUzGBDQeOZp5Zp285Wiwm5uNr4yhSiSDdx+UZPBrARrMOf184xYdOBrPGxDe/WwrYagSM022qrHfNkMn7Z9rh03wgpUxBFgSLhw0aRQQmkYmaEKjciicbSJsRZNwQqwikKOxQidT0WjQNHaThE72BLcDNKNK0WjQzMyRDRqZd9KzTjZo9BiCd9CwqtEmWlrRsLeNPYbgUDRm9UlPfTtejcTwM3I0ZhVKv+0rT/PM0EkZcqFStlBF4xU0MK66oMYQFGhkkHKGzelt0GAMQSkatnmQgUqApkiDpgA5Gpl3gqLheacTkgwWReNiOxEBDZK90qiHZj3nYedo4N9sKhrup0G5HBPcupdGrU9h0OSqwUodOhWYoEHS16loxI9GJYONoUqvoNFVJ/dZJ61odr4GigZeJ+iD2Hckjt54fy1Pb8MmQpK8NmA0dHioMkJVnSJlM4INGjXr5K5oQvQIglY0sPc0czQ2aFDehqIJjcpWoEF5G4qmgBg0aaJoYIIlnjQNVOweOjX2eIKmXysamXcam5ihySllGfEM0OjwCU9tbQ/qrmgWDhrb10YnYKXqZNhMKOBYydwXAI0GjvU5vCWDn5WjgRqzjKycyWA7RwOPmWfMO81eVPNOsiQNqtI57ySgkXknDZp2KiprkWSwV9BgsynGEDBCgGSwTHBzWMRzTlLadoJGl7jzeBWLCRq2inADDZucK09jWa+jcjTsSWOHTmIV4QM0etapuIUTyE7QwDO43MMzGLa34rAnyeCNOyPpq9VHln7odO3az7T3cCz/IO9+upk27Ahnp3oNF9h68viBWnUbqEGjth8g6WaHTuJwjxwNTHxE1ThBAw9hJ2jUnFO45GgkdMqmsBjkaPIpJsHlHTTecjQqGezuSdML0AxM0KAarPQEzUU6e15ZRVx0ehB7A434ENuhk87T3FGeNbZbn7ui8Q4ab7Bxh4QFj+cBjy6R/wHQoFig8zTa3lODRncHa2sIK0eDMQRWNDKGIIOVNmgwhoCNFvZg5Sk1WOkJGsy0ZSFHoya4rdDJARqpOlmg4e5g9xyNARquPOXzYCXUjJWjUZ406A6WbQpifmWBJg9L6qTEbYdOtieNzxyNB2hkbRB7BmtFw3005hYEFTq9DqCBhwnMiHYfjKE33ltD8CZdvz3MDTRqzgmg4RyN7qPRmX3J1QA2VuiEfUpW+CSggZseDMrZrNyhaJygwVAlfEUs0CQCNIUeisZnMrgR5le91NKuQ6cR6u2XCW4TNHqwUjfsmaDRVhEaMmjYcyoaPYKAZLCdEAZokDiFXYQ9wX2f/YEd5W230OkvBQ2MrHSJ26w6GYrGBo32/fV0zcM50r00PO/kAM0FY4J7mscQAH8bNJjg7qeaegM05bDJbGKriKz8WkrPFj8azDslIBkMKCQXEXI0GL5F6ISwCUeIARokhUXZIKSCRW0er4NBngblbYBGRhGw5dQOnXiJIDxpOEcjE9wZDBpYfropGuzrNipO1ggC7/AWk3JMftuKxgtoVOik163ozuDXQtEANBcvX6NdB6IZNG9/spmHuLAxz1Y0vkGDPI0oGlE1CwGNrz6a4+HphCPYLXSSZLAzdMrIwfYEVXUqbaLSilaqrG6XZLACje2ytzDQnDMUDW4UmDa5gwawQaiArQnaBOt1B41T0QhoMHqh7Tl1idsDNMYEN3x+TasIzDsBNLBdtawieC+XgKasqp2K3EGjjK98ggZeND5AI7BRoAFseJLbBA3sIjRoZAzBUjSZ1bwTzPINdvkCTas1uf1s0MBhz1volGXtdXqtQAMvGphB79wfSVi7+fbHm2jt1hCedQL9LdioMQR3RYPtlTZojGQw5p1MRROKzmCtaIzytlvV6XhYOgVFuHUGc9XJC2jyayi/qJ6KSpuoDKCpOUnVdZ1Uh2RwS6/YeXYOUVePEzRYVgcDa1PRYMoYoMGMjja/AmjMzmCnorHnnfTMEzfsGYpGULgiaAAAIABJREFUKk8InbwoGq0gdIewIxEs+Zo/LXR6hqIxbTrxM0ovDUzH7XknwNcbaHiCG2MIbBVhe9Lwfi1jsFImuMVdr7KmgwCa4vIW3oSRWwjDcG0VUcFWEVrRxJqKRoNGWURgzikoEtUn7bgH0KhDgUa6g6FoABpnMlgvosPeKdnVrgzKVegEpz2MIaCXhie1S32Ahvtomnmnu61oDCtPHToZVSc2vjKSwUs+RwPQwCJhx74I+vs7q+jtjzfSmi3BCjRebCJ06GRYezpzNKrqxOtozcoTzMlVMhhDlSp0Qq7GGkHgLQhO0ETE5XN5OzZJgSZdlbdZ0SjQGMlgX6DpcQudPEADlz2HovHcE7Ug0NyV0InDJ8sqQta4yEYFlaMxQIOw5VUOnV4INDxYeVWsIqx5J3fQYLASVhHD7EmjbTzdQZOnQJPG5lcVPO+UmFpK8cjRuIEGTZ6h7qBBnxcDBrvK5MA2TYROegyB8zTzgIatInKxW93O0ThB40wGOxTNc4HGcNgzQLPk+2gAGvQ5bN0dxp6kb320kVZvDuIcjbWpEspGD1YyYJQfjVV1coZNCJ9kJ7IP0AQJaDRsfIImOocAGgxWmqCB7aiETgIaLL8rrWihiup2S9FYOZrOQerqGSYP0IzPsJTHYCVyNGzn6QCN9NI8t6LxAI0x74Thyt9eQdCgO1iDT2174PUpKkfjDhp0QbNP8HyKBqC5eJUN4HFuYTAGBSmWntor2Adoag1FU9pEAppaMb9Sg5UaNGaOJgIjCDzLhDI2Rg4kGSyKxgib1CqhEF+gYd9gnQyGVUS1eNKoeSedDPaDhhb+59HjxzR9+hxt2RVKf3t7FS+Qw3oHrMTlapOGjAqjbINymJXr8vZCQCPzTjLrZIDGDJ0sRSPJYOx2ilANe07QlHEfTbZrAaDpGuKmMPdkMPsGK6sIBs0sOoOdoRN6aRYCGoQQuPE4dPICGtyoHD5hbcs8oHFXNX9W6MRjCN5A47GrCZ40Mus0L2h+UFYR6A7GAjgLNLKiGKErzzuxVYQoGoyLyAR3D1XVwWVPhU4KNNqcHHaemHcCaOKSizkZjPI2ksHeQeMeOilVA28aVJ6UpSdCJ6wnlj4aI0eToUEj8068ciW/iaxtCFboNI+iURsrnclgO3SSlbh6BMEeqrQa9l6HPhqAZnxqljbtDKG/vb2a/vXhRvp+fQAdZ9CoHA3UjAdoBDJ2jsauOGlFI2MIdolbL5CDktGHNytPXd5m0PDKFe+KJmcBoGGD8p5hj6rTnwYa9/BJKQaryqNucEBmqYMGoSVXnXyABiMfWF/rHTTaKsKw80SOxgKNytEYoIGdpyiaQgENdwYjIWwqmmeABmMIsegsLmTQRKud4WznmV5ByRo0ObU8wf1CoHlG6GTt3p4nR7PkQyes2RgdP0ObdgA0q3iZ+LfrjhI2TWq42Baeqrxt5WcMRRPpDhr4BmdZvTRHkQxW61Z8Vp2UH01gOPZzYxNCNj+ltMteQkohJacVU2pmmYROKhlsh05tVF3XwclgHTpp0OjQacDoo+FksA6deM+T9NFA8uvy9osqGnMbAhTNb0gIK0XDy+i0gljioEEiHFUnDJoCNFhPc9UAzXlWNGIVoeedeAnc0DSbX3X3aUVjg0bbecKg3Bdo0B2sQeOuaGRwUodO2ca8k5EM9lA0AhoomljlG8zJYIAmE6GTmuDOR0K4kXtpnKGTJIQ9+mh8lrfdFY2XBXIqR/NaTG+jVX14dJo2bg9SoFlP36w9wuPqFmh0+ARlw857RpKYlQ6Ao0FjN+xxsx6vw1U2ESE6GSxWEeinMRUNKk44bNBI6BQVn8d2ngKaEgdo8orqqbCkkUrLdY4GoFErV9rVyhWVo2GDci+gOX3mgiyUU5sQABqETTp00iVuX8lgb6GTO2jM0OmVBg3Ah14aFTZZowhqsNJ31UmDRtau4NxhZkyPIeh9Ttr8agCgYauIUWunkxU61cqaWq8G5Zb5VakP0KApTw6r6sS7nWTWSVed2NZTNe1hzigCTXsqdAJorIY9d9DwatznBM28iqaMv677rJNZdXot/GgAGmwH2LBNQPPPD9bTV6sPsxJxggbdwUgCy+H4N87VaDtPad47phv2NGiCpbw9nzm5gEaWyIVEZlMY9m/H5RGDJkkMyrFEzlQ0vIvbBE2tgAabEFratUG5JIO9gQZy/o+CxlHeds/RcOjkTAi/MGjQ3fs8XcH42AV0BjtyNBo0arcTQMObKNEdfFdyNJ7lbVl1K4pmPtBgPza6g2WwEr+Pnn4BDbvstWEbJXI0AhptUI61trIJoYZXrognDUDjLUdj20TMBxoUOjhHwwnhAopQoZMzR1MpoRMrGoROUnVyKBprgnseRfMCoGGHPaVoXgsrT1yI/QPjDtCsWHmQRwccMIl6Bmgs32ABDapOOkej3fXgsCedweneRxDUXifHEjlvoMmyQyeApgA7uKFoqtqomkHTTdbKFSyRg6JRu53cO4O9gmbOU9FIZ7D4BkvDnnN625x10pYK3EfjAI0Kn4yuYJ2rsfd5O2ee3EHxskGjc0POXdpYd6s9aZ4FGoROPkDDGyoxWHmZzsxcFKsIB2jstbdO0HTa5ldqf3Y2u+yJJ41eJOcNNNYIglV1Qugk2yu1mpFXNO3lESw90R3MoEkoppgkO3RK1DkaCzRw2Wtwhk68gxuQ+WPJ4DBr97aUtx2g2fYaeAbjQu7tG6X1WwM5dHrz/fX05Xf7GQheQYM5J7dVuTJUKZsq9US3AzTaypPtPO05J/ajUVUnlLj1AjkNGigaVJ2kvG0qGlXezq8hCzRlCJ1s0DSyojFCp75RBqpP0MxcsLZVwpPGe+gkYwh+0NjlbcnReIIGzY7Ic6EZVINmCuZX2K9tKRrvoKmu1y57euWKtvPUikYmuC3QJGFWSW2q9ChvPx9oopPgSaN2O3kFjcrRFMhqXD3vtFDQePMMdiaDPY2vXostCJDN6DNZt+U4V53efH8dff7tPp5HcoBGVZ2CIpCf8ZKj0YomPJdL47D0ZEWDbZW8BUH7BvsGTUBoBuEAaHTohD4anQyOV7udUjPdQIP929Za3A6qa+gmAY0ROvWplSvDUzQ0Om11Bi9U0aCacv1HPe/kbnylZp2UTcSrrGjwYDGtIv6oonkmaNS8ExSN3lgJ0PAE98AkK82O7hFq6xiiJg6degmgKauWJXLYvZ2P0EkpmtQsMb+yrCKS0dHro7zNjXreQcMJYygaNe+EHE2kNr9KLqX4E1i5oqpOZjJY52hM0BT/cUVj52jshj1d3sZep2Xf7FvansEATWf3EK3dHMANewDNZ1/t4fKzV9AwcLyAxtqCoEGTy5Ury5NGqRmrO5gnuDPoKBLCIRmEgUsNGmsEwVA0GJyzQSOhE9biYmVqgQaN2oTgDho47fd4AQ38UZ4HNBI+ee52ws1mhk4ImfSBOSEsYkMy2EoI8+Ci4dPLYwie5W38bl526OQOGkCHYQOTdGMUwVvoBIDayWB7YyVCJ5l3steu2IpGhU6WVcRZNoe3QMODlaPU3jFku+zVd3PohGSwV9BkwmazlBLgSfNcoDESwjxYKaDh7uDnBY0LikYNVmIbgg6djMFKPZaAEYXcIt8jCB6KRtlE6FmndVvD6LOlvqny4e+/08nOAVqjQPPGe2vpk+W76FBgmucEt1Y1XhSNOe+E8CkgPJckISzL42SBnJp1gkG5Mim3wycbNA5Fgz4aXiLnBA2WyGXlATR1FmjKKlt5/3ZdQ5elaBD7WytXTmFbpa1oGDRTZ61ksLWt0kfopEFjhk6AjAaN6RusRxDMeSeBDTZXIgfiBTQPnPmZVxM05iI5Gay0QSPzTtoqwgqd1MZKrWiwhQLbKGxPGgM0ML9q6KbyGtvOkxVNvjIoh51nJlauADTYWgBFo0KnuHxnZ7BD0dh5GlyraNngHI3VHSxWEVbo9CxFY4GmmfJeCmjQsJfP84Haj4ZBsz+O1m4JXfq7t/E0a23vpzWbRNEANB99sYMOHk8V0BijB7bC8VQ02vzK3uuE0AlWEWJOzglhVjV6La7YRSwMNC4eQWBFk4qqUzml51SSKBqApoFDJ+x2qqw9SbUMmh6uOs0LmqmzDkVjg+aK1xzNs0Hj7A62VI3qDH5VQQOgOZLBhsueWXUSReMLNOIdjHPkBI1ajXv2Eo8h8AT3mLGD21A0LW3iSVPbKBPcJeyy1yKhE4NGfIPFzrOMQYNrgm0ikKPxAhqxhwBkDNAoZwKETw6T8oQiYtAkl7IhFQzKuWFPJYNh55mhQycGjXLZK7ZXrnjtozGqTr5zNIVsX4F0A0DDyeBDSbR9fzyt2RJCn67YzUPPH36+dWluQQBomtv6aPXGYxw6vfHuGvpg2TY6GHDi+UBj5WhkiZzkaDRodH7G3u0kZW701ehNCBkUEOYlR6MVTZIomsTUEkrBWtycCi+gaTVAI+Vt+Ab7VDQLAI03qwjfiub1Bg3AqY2vEEJp8ytRNN5BY22sdIAGiuY0KxrxpBFFo0FTYygauOxB0eS46ikjxzS/AmhQ4naCJlztbQJEpLqEcMk7aOBL4w4a6aVxggawMTcheCtvW6GTsRb3hUIntW7Fqjrtj6fVm0Po4+W7+P5csqDB06yxpYdWbTzKP8g/3l3Di+T2H0tRoJEBSq1mxDrCi6JRo/juikZbRdiKRpr2ABptG4H8zDEkggGaMJ0MzqIw1RkclSAjCLioABq9fxuhUy6HTmqJHEKnGlE0ei2ud9CITQRGLyanvYVOtqIxQaOTwS8DNLqsrV+1osDvwzz+cI5G990Y/TRmMpjfXoii8WrpaYZOCjQ/3qCr135iLx+ETjZoMFh5ngcrR8ZmCDu4+wen2GWvq2fU9qRp7iOApkKFTgwa3u1UL77B2VVkK5oSBRo7dApn03Hs2EYXsBqqZKuIbArmaxTbEWTAEk17NmgkGSxWEU7QoDPYO2iQo3GGTqg+YXJbprel5L2wHI1WNG5bEACaTcEcZfz9ndW0ZEGDqd36pm5auUFAgx8Gi+T2Hklktzxp0rNnnXyBRlt56lfMStmhk7HbSbnsoSNYH1YiGH004RkUCD+aSIAmh0cQTNAkLQA0yNH4Bs0kz9pg1kmSwSZo1FrcuYWCBrudzByNL0WzwGSwlxwNQOCAjQbH874an+dlgwZ2nlA1bOf54026eu1nH6DRE9xO0HS6g8Zy2YNBeQvlFzdRTkE923mmAzSZ2IQARWOCBr0w8A3O502UNmik6oStCAIa8aZBh7sTNAVcdQJodHnbGTrJ/m0xv9KdwQZosBZXrcZ9PtCgM1htQeBNlW7l7f3xtGpTEH34+falrWgAmpqGTlq5/gj/IAANzK92HoyngPBsCkajnpUEBnDwd7f3RakBywhp1kMymEETmkPH0BlsrFyx7TylaU9GECRk4j4agMZR3s4jJ2iKPRSNS6/FnU/RqG2V6ILGEjnMd+lkMJ60Z2Yu0Oy5+UHjmaN5+aDR5WZL1RiAYOA8QnfwH+sQXihorDGEe/d5IwJCJ126193BAK0JGj1YqatOtqKRHI1YRQhotMveC4Em3RdonEOVwVE6bNI5Ghs0CJ0cnjQJMsFtgiZJjyDkKNDkmrNOGjStlO9z/3YbG2N5rzrBYc9tBMHcVInO4P3xBDcFpDOWvKKpquug7w3QwJNm+74YmXcyQWNNcbuBxnTZs/pocimAQaM9aTIpIBTewSp0cngG2xUnO3SSEQTsddJ+NJIMngc02L+tksG2osFa3GHq7h2h3lNjPG6ht1WOY4kcNiF4AQ1kPyxOL1/90cPOE09uvQXBXdGg8qRvRm/JYB6svC+VJx024VWHTvOCxoLMywUNf02zvK2qYs8HmtuORXIMGja/ciaDJ6bOEdQkQiefoGnopsraTiqtlE0IrGhctqJJzaykZAZNsR06xbsoMjafJEejprd53YonaCRBLN7BoTF5Yn6FCW4HaMqIt1VmVFEyksHzgabELm8vPHSyPYNF0SB0yud7zlF12hfHbgrvfbZl6YOmsqaNvlt32FI0//pwA23ZE0XHwrLVfJNhF8HgcVc1hp2nBk2YAg3sPMMkdHKAJthT0XAfjQ6dLHNyKBqz6uQLNE1UViXlbVSdNGj0WlwNGmyr1KDBgB+esAya2TmHorFA4+EbjDEE36DBk/51AQ1XnPSs0zw5GlE0CwDNzAWu8jlAY9h54neF7RW1bqBxFYtBOXY7IXSyQJOqQyfdsGeAhh31tCm5ho3+uzLBYkWjQSM5miirMxigKScomuTMKhs0RtWJ92+/cI7m2aDZjarTvjj6dt0xXhqwpBUNJnUrawU0SATjh8Fg5cYd4XQ0NMsDNOK65/IMn3jlijTrWaFTmPgGs10EW0YYigagMSpOOk9zPAI5GnMLggmaQkpKVaBB1QnJ4II6chWr/duWoulcMGiQDJ5X0XiAxnvDHoyg5FgYaEw141A0Sll4DZ3+ZEXjCzRSeZIxBDt0coLmyhVlfjVnKxoMrzoUzdAU9VrmV0O8K51B0yieNKUwKOfdTmoTQp4JmnJKgJ0nqk5qBMFT0UhC2Fl10rARA6xQnuDGqhbfiiYFoMlW2yqN0OmPgcaLObmxQE6Xt7ftjaWv1xzldMY/lnIyGKCpUIpGgwbdweu2hrB/DNzinVsrtZqxdz2h+Ynd9rjELXkanQxGX4AFmrBMri7ZpW2pPAEyJmi08RXWrcisk4tiuLw9H2iaqXwe0MBtHy57pwYnLEWjk8EWaM7CoPwyV0p8KxrvoEGpd2GgEaPy+w8e2CtOzNBpwaDRuZoFhlFGrsc9R+MrdHo5oNEue/CksUEzPKpCJw2aziFqbYei6adaBRprEwIrmgaVDK5WikaDBoOQqDrBvAqKRieDfZW3bdCgBI4hTLjsYQQgMqGYLRskR6NDp0paEGhKjF6aBVedvG1BsPtooGi27o2lFasPs08U7s8lW3UCaMqrnYoGTXurNgUSgMDJYPagsStPVkJYN/P5AM1xKBovoNFjCLrEja5hPX4QEC6bKrHXKRSg4T4aFzdluedoMg1Fw7NOVujkqWicoJniNniARodOuAlgOekAjVq5os2vpLw9f+jkPUdjVp2eHzQaDM5ksAmaBcDmj4LGbYkcfk7dR+MtdLIVzVU6d+EKG+AzaNhlb4YYNFA0vHJllE4yaAY9QAPzK4RO7BvMiqaarSKSMwAahE7FFMOdwQIah2ewI3wSwKCxFAeqpwwanaPh/U7azhPlbRU68VrcBSgan6Bp9ZEMnj90gqIBaLbsiaYvVx7kddVLGzQPHlJpRTN9u/YQ4QeByx5ev1sfQHDCC4lyKbMrI0+jK08WaDyrTvAc9gANJ4ONzmDupZHlcsjfHA+TA8ZXskAuV5W3XRSLWafkIit0SsuqoBcDzSRvqxwZO03jkzPcRzN9GlWnuXlBg25XqTrdUHudnOtWtKLxnqMxQYNEMNTMwhXNSwfNw0f0UB/eZp1UMtihaAzQIAflGzT2EjlMwGMS/tyFyxZoMFuG3Njw6BmSlSsT1N03Rie7EDoNUmOrU9Fo0OQWQNHU8RI5+AYDNOip0qCJVoomjJfI6WQwQiccRsXJAg0c+NyqTpZvsAINb6uslByNI3SSTQjssKdzNACN1/K2L9DYDnvYJxUep/poQu0+mt2Hkmnz7mgecsbD/83317KigeUJlgos5p//etmfHPkBd9AgT/P1miO8yOqvAY291ykixph1MkCDWScTNMVlzZwMlqqTrWiwrRILyrSiwXwN23kaoMEMzkIUjWd5W7ZVIk+hQfNsRfM6g+YmT7jrbZUCmisLAA3sPAU0lsueZVDeqrZVNijzK1vR8CYEKBrs39ahE/fRmKCBerGTwbaieR7QVLrlaDRodHm7hfL/MGicVp5QNHsOJxO2VH729R5++AM0nyzfwdXTpQea+w/5BjUVDUCzfOUBOhCQavfRWOoFZUExwbJXsPwBRWPmZ7SisZLBuQTQRKt1K9IZXMwjCKxoco1ksDtomrqpubWfl8jBNxhWGOwbPDhBgyNTNDx2mrB/m32D3UBzfu4Ke6kgT2N2BmvQ/PjTTZ/lbe+KRia37elt34rGSgLrDmE3WwfpoXEPm54zdNJqRr2652j00Od85W2taMwlcqjGIbx0gAabEOZRNH2nxkl8g23QmDkaVjRYi1sooMnIqaY0bVCuBitjnws0qJACPho0KkeDZLBWNCmiaGBQjm2SqDqdyFbbKvVuJ8smQnUG+wSNrz4aO3QSReMEzT4FmvXbwqzxA+ROl3+/jx+UT548fdmaw/H5XrqiQcNedX0HdwYjZAJkcCz7Zi/tPZpsN+tp0Fg2EWYvjW/QHA/LJn1Ieds9dDISwRo0MCdHeRtWnrG5DtCg6oRZJwFNlVV1KnIDDbqdm1r7ZFtllwbNKPUvEDRz6KPxChrkaLAW9zZ3w7r30XgHzcJDp6UEGufKFekM1g17yGuxorl4lX2DMbAK1WiFTjC/GpoSg3JeImeGTr0kBuVYudJKBSXNnKOBnac7aOJPuCka0/jKytGYikZaMfQiOfTRcDJYgSYysYRieKiyjAQ0FT5BI1WnFpnetkDTTgVlOGT8APNO3kcQqgm7veNOlNudwW5bEPYcSaHVm4Ppg8+3W37ea7cc5wfkv//9bwcYXvZfXj5oHv7OU86Y3jZB8/HynbT7cCKDhkvaWsXo/IzZHRyl+mh0iVt1Bls5mtBs9iAOYAMsGzT2rJM08wUANOGZDnNygEYa9gopAcZXAE16KaVllVNmbhXlFKj929hWyVWndqpt6OSxCgs0ai0u/GkZNA6D8lk2ZLJDp0t8Y5hrcbU5uc7RvJqgMVXOY9tb2EgC61EGKz/jQ9GwOfn9h+TI0Vh9NOgOxnCl7bLnrTN4YaBRmxDcQFPXBNC4GZR7UzRc3nYHDawiUHnS4ZMkgaVJTykZBpBq2ItWfTRxshYXzXMMmhQnaKS8Lb7BvHIFa3HZj+ZZiuYZoEmZBzSHkzlX+u6nW+j/3lrJW2T3HY6lmdm5l80Vj8/30kGDi29gaII9g03QvL9sK+08GMeDlXaoZJa2zfK20bCnxhBQ3tYuexisBGQ0aHTVCa92aTuTLNBE6HUromjMzuBECzQVBmjqqaisiUorW6iy1g00ahOChE4CmoHhSa56SOgE0Jyj0zPneVsllsidv3CZ929D1XiGTr4UjSyR856juc8G3zD5/g3HPMng+RTN/FWnlwgatonwBRpZ+Yuf89mK5jqfR2xC8K5o7JUrmLBv7ZBkMIOmrovKq8Rlj1euFDVQjgueNHbolGSBpsiRo9Ggsae3bdiwF40BmhDDN9gKnZJLpOrEoRMUTaUdOuXVkQaNGF89CzTzhE5eFY2zvP316sP09kcbGTTvfrKJYpNcrBQ9yPCS3/HSQfP48WN+gm/fG+FQNG99uIHHENB890dAg7BJ73dyBw2Xt60cjQKNUjVI4MkCOa1olE3ECW+KxgBNjRM0kgy2Qyf00Th9gwU06KXB6lYGzdwVn6CBqtGKBk9yO3Tyg0ZyNGqJHIdO17nqpEGDeTJAnatOHDp5gkaSwaJoLNCUoLwtVhEmaHwlgwGaEIaJrjotHDSRauUKl7ct0Jg5GgFNpqtBOewtFmhSaeeBBPr8m33cQItq8Aefb+W9ZbjuFvvPSwcNYj3M5IREZtAHy7ZaORqom7WqaS802sUdwpjkRhjlCKWsWSgzT4MdT6JojocDNKJoMGCpl8jpHhrbxtMob0dkcqVAVuK6gQZ+NOmlxPu3ETq5aim/aD7QOH2D+wcUaMZsqwhc/AKaOTrrRdEgDNDlbQ0az1mnxQcNyty+k8E+EsIvEjq5K5rfHngMVXpTNLDPcM/RIATVu52w4x0VPmvlimOJnEoGt5yiusZeqoaiUb7BBWoTgruiAWgSUorJMxkMmwizYc8Ejd1Hg/K2KBqYZknoJDkaUTSco4FBuSMZ/CzQSH7GztHMo2gyfORogjJo/7FU2rInhj76cicLgH99uJ7HhNBdjeT9Yv956aDBN/z06VOqqGmntZuPs0RDMhgERUJ4+75YO3zS+Rn01gA66tDT3VA/cmDHE8YRcuxeGsOgHJDRoHGETqEZvAlBb0FwgEZ5BrPxlcrRZJigKVWhU0071dR3qBwNzK9Q3paVK6huYJeQVjSjXHVSodOZCxz7nuUlcpdpbu4q6dDJBs3P3EvjvepkgkbGEBxDlXDZ+4Oh06sBGsnRuIMGT9n5QDOLlSsKNGiUhJ3nwLC9RA6Dr+ijsRSNAk1JRRsBNGJ+pUKnbLV/O012OzFoElVnsGkToTxp7PyM9qfJ4R4aAY3s3+bOYK462clgc4lcqlV1UitXXA0LzNEsHDSAIx7MuDf2HkmhlRuO84wTVlUv+3o3xSUXEKp8T58ubiIYTFgU0OATYy1GSnoJfbP6AH26Yie98d4almzLvz9AOw8YuRrARieGHZUorMvVoFGvCjTHMFjJi+S0orETwnr0ABUpdAfDKsIGTa69bkU17CWeEEVjJYO1olGgqaj2ApoOvdtJQAOrCHSmWuVttUQOSTYNGtgbADSonDw3aNRg5Z8PGq14jGSw9q0xlM18yWBtUI4St5UMdiga76CBH82zQINtleIb7A6aMXZB5N1Orf1U1yhL5KBovIJGbUJItEDjzNFgfon9aBg0et5JVI3VRwM1Yygar6DBUKVaueJe3kbo5JkMVtsQFjSCYJe3tR9NUEQOHQ5Mo10HE0jK2jsJSgZjB4cCEnlzBxY+/hl/Fg00CKGwwrSssoUOBybRu59uUnue1tGKlQd4ADI0xqX6ajRs8tjk2VI0vLHSDqF0QlivW7FgoxbJ6WSwQEZVnkJRdTJDJ6dNhLbyBGgcikYlgwGa6jq76tTS1k/tAI3ahIBleQKaaQs0KLly6MS9nB+AAAAgAElEQVSgsccQIPudoLlhKRrcVD5zNK8EaNyg8wKgYUsLtRoX+8MBTlSccNiK5q7lR4NzArWH/duAMxLpei0uksEeisZai+sETb3aVmmCBtsqfYdOGjQuNr6Ca54NGjtsspRNlCgab6CJTCjhJXJxKWXWWtwkR+iktlV6BY0qaS8QNImcDC6jqCQxvjoclE4bd0TQF9/u5yFKRBa4D/cejuXK8GKXtE2ALRpo8EWePHnC8XTCiQJ6+6MNXE5btzWQwmNyCNIR7mOcGHZXNcoYiwcrNWy0+ZW5GleHT/OABmMI84NG+mh85WjmA023YX6FfeNj4zM0MSkG5U7QXOLBSl+gQR4CNxXyNF6Twf8BoPFW3vYGmotq/7ZP0JzCCALW4g6TVjT1zT1WjkYrmsUAjZmj0YqGk8FJJQTQ2Dkao+qUq7dVelM0zwYNlFB6Xh2dyKombMJEKT2Mxw/yac+RZLaEgPHc/761kvesbd4ZQs2tvWzvaoJgsd9eVNCgtIpOTXQJv/3xRtp3JJ4H15IzKnkJup7klmluQ9Vo4ysNmchclQwWO09HeTs0k/c46R4aUTW2mgFoML2tq07hGKp0eAZL1ckDNEboVF0n+7fhhcyKBjmabphfjfLPpxWN5bKnFA2euOyyd94XaFSOxgCNqJpfOHaW6e27dOeOlIAXJXR6ZkJYKxn9qsKo51Y0D2hhisZ22DNBY21CAGjmrtDs+fkUjRtomkzQtLrlaLAWV+VorGSwMiiPtxVNaDSqpd6qTjoZLP/OyeAYZROhO4NN0GS4J4MXrmi0pWd+qex1wgYE9OMkplUyYMLjCykkRvKduKfg/4TRA+zahhk5CjIfL99OEbE57Aa52HAxP/+iggYVldyCWt6It2Llft6dk5VfTxEJxQIOqBTkYSJhC2EeumFP2UUo0GC3k0xvmyVugEZ2cGvYHOP8jJ2j0QvkkAy2QGPkaJI9qk4NVFTaTKUVrSSKxgBNu6o6WaARl71h087TAo2y84RVxMWrXOJ2hk4CGlPRADQ4bt26Q7eVVYRX46uXkAzWDXfzV540YPTrAkEDg3JlUo75N/T6eAeN3UeD+S4kJ6HqdI5GQidj5QqD5iqdPS/J4EmsxZ2w1+KiCojREK1oMDZS32RXnUqMJXISOsn+7RQeqkTVqYTikgQ0bBOhzMkBGvEN1rCRXI2do8G/q6oT73YyRhAUaDgZrEGTpUcQfCeDxV1PdwW3csdwdkEjpefWs0sftl8iHwMFE8KVXPMeQhpCHt6HgzNp8+4oen/ZNp7axthBcnoJ9y09XeSOYA2bRQUNlnodCEig/3trFe0+GENF5a2U7WpkuAAaXLL2ChrzhEmOBh9rgybL9qRR3cECmXTlQ6N7aCQZHKQ8gy3QxOeLTURyERtSw8bRm6LBRVle3U6wJq1r7OLtDi0KNLxypXeE+vrHaEB50ngqGgM0qpfGBA1meKQ72A6dvILGI3T67aU07HHVSSsThwmWhoq3V0/QaGDppDAD5oVBI5sQcB5sRWODhnM02L/tAZoZtRbXCRpUnRygqXSvOtVQmq46saKRbZXY7bQQ0Fh5GoBIjSvwJoQ4F886wZMmegGgyTI6g+EHzEdhC+UUNFOmq5HScusoJbOGwy+GS6xYdep7SL+aD2x5H+6lfL531m4Jtpz1NmwL4hkn/O7+jD+LBhpMg5ZWNtNnX+1kikbG5fA+5Lqmft5BjIrS8QjVH6OUjbeT5X7isAlBe9IcZ5e9LDoajMPY58Q7tyV84tDJLRmM3du8Eje5iBJPFLNfLGadkAzOzq+h/MJ6KiptopLyFiqvMkGjdzvJtsquHgHNqUHbztNpFaE9abyHTho00rBn23m6Kxo972SHTjZouMT9m57gtrdVas/g+TqDFxU0bL4F72L5ntwVDb5vrPfVas3O0SwENFe4PwmhqSiaWRrGErnh09SP/dv9Y9TZY+do6pp6qMYqb0voJDkarFxxC52wFlfvdopD6OSisBgX+VI0FmiiRPGw8RUUzbygceZo0vMaCLkWAAU7nrBU7kR2DSWlV1FcSjkbaCEkwr2Ae4QfuOpB7X5/6HtIv+Jjg6NdFJtSxjvFoWaQFP78mz2UmFrED6wlDRokNmOT8unv76yi9z7bTJn51WyzODRyhlo7hii/pJliUkq4yoRYEoc+OebJM9/W/86vKHWHC3RQ7j7KCWHARg9V2qBxTwa7g4Yb9rJt0GD/diFAU+EJmua2fk4yQtEANOKyZ4MGJW7YecoYwgXuDkaJm8vbblUngAaH19Dpth06+UHjrmgENDNnVcMe/GieAZrqemnYg0otcHQG26GTrMW1FU3Uc4IGORwLNLGiaKISMDulRhDYM1hGEOCyh/1OgElCagUPQ0YnlVJEfBGFxhSoIgnAInDBNa9BY94H7vdHQHgO30tHQ3E/5bGayilspMbWAfbm2bIrjNtMsAJp655w+unGbe57W2zYLJqiQbfmoeOJXNKG5wVCkFND0zQyPksDw6epu3+cmtoGqLiyndJz6ziZFRKTz7DhHdtQLoCJtzyO6q/R/8Y2nwo62uYTagcHICOgyZIRhLg88gBNBjqDPUGDSd/yqjaqrj1Jev+2AzSWnSdAA5c96aV5HtCgdAsrBF110qET8hTak8YCzd17XBL+9d6zFY32DX75ikaFUzrkMl4doZOHonk4b45m4YrGV2ewu6IZsatOyNEo0BR7Aw32b2dUqP3b7qDRu51UjkYpFyl3G6Vufj+sPI0lcvEwKC+2tiFga2VUUhH/PSKhiM2pQmMLOL8SrJpWGRwGXKxr3C3FgPfj/tBg0Q9q5GpikkvY/LyovI0QQZzsGqXeASzXm6RjwSfowy9k1crXqw/ygxDKdrH/LBpoUFLcuD2Y/v7OGvryu72E/ceDI2doZByJOzyBZvnv3f0T1HJyiKrqe6igrJUy8uoI/QB4CohLmHgMi1x0wgcnWxPd/IUgJNOL5+QVS79yKCQ6h+CYxgnheLjsYYIboZMCTU4V5SB0wggCqk4VbW7JYOkMtvZvI0dzCr7B7qA5N6+iQT8I+kIkdHo2aO7cRWfwr3TXF2i8DFW+WqD5ndiTBiEe99GYe52kj+bFQHPRaNjzDprm1lOOHA2DprSJzNBJL5HTigbOi7g2ouJdFDFfMhj9M9b2SvGjwRK5EDT44Yhx8YF+MbyNKisOSdJKHtJ53eq8pZ2jNBWNQAX3ABpYxccJ90hMcin73GA4s7C8nWoaeqmlY4i6+8apf3CaTg2d5of8wPAZ7gZevnI/l7vRSIuqMHqaFvvPooAGLc2ZuZW0/Pv9UnH6/gAVlrZQR88o/9AADqQuYAPw4BgcmaG+gSlq6xyhuqY+KqvuoLziZkrLqRXwJENWFhJ+afhFmb8gM2a132//sgRGUsniXgc2kc7n/TtRCYUUm1xsJYVR6szKq6G8gnqW2JKnaeOEMBq/mtmTZoAd3NhlzwANksETk2qoku08dY7GNihHMtgTNM5k8E1Vdfr/7L2Hdxznka/9/XXf3Rt215azZa3T2rJkZSpLVk7MEQQziZwjkRMBEAADQDAADGAOEpVlRUuiJNc9T9Vb3W/PDAJF0l5iL8/pMwCIONP99K9+lVzR3Aho8ryaaPCVm7j6uGAzeIGKJjGD3aNJFc0XX9A+8UWmYO/7guakbkI4K6zFTT2aKRnZd0RbRfoHx6Wn/0CiaKijqWv2FgTzaDKg8ayTTtiz9HZcGezd2rmPnGNeaMqj3wD9MT0vszCJQeKf40rF39fvva5aQyquAfwWdkOR3q5r3iNt3WPSN3RIRvdPCzA5On1Ojh3nOTkjhw7PKGy4tiaPnpay6g758yOvy///73/Spsregf2afbrtQEO1IQbgqnWl8pNfPSr/+uP75dd/eE4nkFXU9kp3/0HZd3Ba/2j+8MmjZ6K3Tyt0jk4DHxTPKdk/flz27D0s7T37BCmI4mERF8u5kJ0U/GEsAxt/Ya7n0U8EAMSWwTXFtbJ+c71s3Nak5eI7y9qkrLpTqupZwcJCOTJQY9I3eEAG945rGtUn7dGGgBl8gvR2BjTm0TD4KgaNNVa+r9Wv7yeVwXRwp+ntjz/+NE/NZEKnLwqPiXBFA2gy4dM/DTRmWFuKOwWNVwfHoAGwhJD4fHRwk5nzOhqKHvG7aFalO95Bw24nspzs32ZAeS5oOhKPxrJOdG/rzOCKdtleulu27GrRmw03HW4+azZiAlMRTNOvQcTPlYU+GkRSj2Xh56VZBtxQOcep9GUfFGMkWjpHpH9oUkMhrpMTMxdl5uxlmTl7RU6eviTTJy/IsePnwvVD/xc7yXleTiqEKNtY8tRKtTTwTrEGeJ5v9b+brmgYCfjuux8KA3UYgMxOp9/e86K8srxUiY85trO8U1o6RmV47Jj+8a5qDDzAJ3scOjqjYdb4YcBzQkb2TUn/0CEleX3roAAwekeKdzSrmYZsparYpSbGGAfeT+7dIj0Zck8Ieq3sBEPuIn1XFdWqqlq/pUGKtzfL1pJW2VneLmU13brPmbslGxGZf9I3OK4bLfcdnNI04pGpGTl+6pxeHD7a02bTvKseDaAxJfOx/PXjT+STTz6TTz/7XO/8DB7/6quvwvG1fPX1V/L11w4QUxjXvrkm1yJVQg8Lxzf6aP/nH/NH/o+xHhzx1y64rubra3ItHPZzvpFrX9thaulr/T2/DmNEv9S/4Wu9EWk2ipAv1NdoFiq0JRh8PpOP2Yzw0afyge7h/lBhA6ipSQI0cQsCkAcyDCYfGjmszZQd3WPS3Dasu5wIlUqru7QindeN169oS6PesAg/NLzR0MbaYBYKk7k+Lz237EZo3qOdi3Y+luv5yLnKOcbNk5soWScm6bV2mlLZN35cDk+dkeOnLsrps1fk9Lk35TRNpWcvy6kzlxQw/J9B5rz4jVotiqMovRnhe3T27td5yH968FXNPP34ziVS19irN7rbDjScxEyXw91mQRVbKv9w3yvy2ory5MJlTAS1AMg/hjB39B6QvfsMOhZOmYeTBY7BhrALeYixvF9TmdMysu+YDHJyDY7rRb67a1QaW4ekuqFfIUC7A+XZ7NdRJaThVxojo4Y4CRxIDqUUTKla4qRQicydLgCILAEQ4oTl+1M3wc+iQGtric0e2VXRqSd6RV2PVDX0SW3TgDTuHpKWjr2q1noGDkr/0IQOPh8eO6KqD7nrBjpFadMnGXrOycbdnHDsqly49LZcvPyOXLryjq7b5e7/9rsM9eagV+gjLYCz4j+GS30mf/3kc7GlbTx+ppXHzB9GBS34+NtXwuQ8Dr6W6mXAYD1Ln8lHYX2KFeGZQnnnPWbL2Azgq2+/p7/vhUtX5dwFwPGmXjgnTjGe0+7KhNf4C1wkhN1kK9lqoIOsukelWcc+DEpNY7+QWSmtCiApbdPXG5jg9WHCks2hsC01X21agM6pLhDqzAaQONSxkN0NWcv2WAbVvUQ7x/gZgAwDmLAHdbKrslMq6/ukvmVIdneOSffAuNoGoweOy8HJGTkyfVamTpyXE6cuyqkzlxUsZ87zPL0lZ84DGnu+ckEzdeKCfh2w4dwZ3DupNgTXAHU+z7y0WWhspkoY0FTVdem5ctuBhjsZjYYPPrZU5RmgYdUKYzjZ34RK0NUpayrVa1lT3KCzTql4bG4bkZ6BcRkeM5d8IvFyUDgpaIANBx/Tg/cPn1KZyMqNAxPH1QjbO3ZUBkcm9QLuHjgg7T1jemE3tA5JLbNXG/qlvLZHwzF6Reis1ZNza5OenIADJYOEtbofuzOZUrI70ysrysWOsvDo6snuViaXwwm31sY9OqD4/px8XAi6ZCzs/gGKpD63l3VoPQVZOULGspoeqarvk5rGAalpGpCG3cPSyNG2V5ra90pLx4hCCzOwo9cO7mKkNvsGD6nkRnb3D9uBCc/7PA6NHpWR/ccWcEzJyH5CE/tcbhC8Xv699PvzM4b4eenB79DZh1eyT39HQmFuCE1te/Xv0Nek2V4TLkAFR3W37KzsVLXKDBeeF/qF6Bsis8LzBthNkVj2xgfcOyhiMPBauJ/nj3E44x9z1Zt99JtN6r/wOqrK1dewUTZsa9Lfj5sLu7UxZym8q2neo69Ta+eodPUf0Od/eN9RBSgqnZsrgDgxc0lDIAXKBQB8VcEChIELHz+jagbIUBmNorGDEIrvgRUxdvC49A5O6I1sV0WHhoKUfTz90mZdt/KbP9leJybsUbn/zjsf3GrO3PwxEVSF7hkelz8/8pqC5gc/f0jueXipXqi2KC41zTgZrCOboUL4Iw2qADjRuGh69wCdI7J/Yjq45qcUMA4ZPBwO4lBmkfBoHzMAseuHOSVHpvB+MJ/5+CldCM/nsyqFNDt3SwXS4Lh09x/QkAwzGk+IC5vQCFN6mzau7daTCaff75QYdJzsnHQmwa0rXf8+UpW0Tujhd79UPqeQAlTp8fLyMkmPUqGMnPddcnPntAvBv7ddCKa2Qhd8KEEn5Qkw+d0KH0GRhb+Dv2VBB58fvgZVlx75P8ezLnoOhN/Lnh+/gPk70hoQ/s74+WCdsh3pc2ehiCsJHgsfPPcxUOKQht+BG4nB30JkVI8rVJSQV/eiRqh5QZEQqgN/gIg6bWgdltbOEc34cLMk6wOEUWMOE1TG1Mnz6qsACPNWCAE5CIU8LDLFYiESY0vzQYOiPXX6khw/ZeqPn8ENgJ+NSuL3W1tcp+Nu2T7CPJqnX9ysmyp/HzZVUktTWdOh3fG3mjQ33aMh9maY9z0PvhJA87Dc9+hyDTd0kl7izkfzgoPSsapfK8TDZ+GuRchBiMETiELBHB4/fDIBTgobQOOHwcf/j0cAA2jwSnxujI5ziFajUFjH6E03GjEb8QEIBVmjgno6gIwfMxnfs2c8WbfK70h6HkjSz8ULTbxtFZnhzltcJ6s21qYqiSn1EYD8bQcTBYmk6vMvFLtw7PNT0MR34MIXnRVGmry/2W/HF3mh7x3/v70d/768nYVBLhxy3gceASD6/ETPoxZyhv9HiaJyOJ9WFtVo+AQcUZJ0VhdttRCXAjru/vg4eH6EY3UtQYmgFLvH9CY0MERVOIp7Wg4cOq43QM4vwjwyPRixdqRvT504p+EMoS8+CgeeCioEA9cPg08+bDKg0RDzin4t3iYgQ62ialFQgBA4Ak5KOxh3+/LSXdpc+fRLW+Tx54rkD/fb7u3bGjSYe0zXu/uBlxU0tKg/8NjKBYHGzVdLE/qwK2tWIxtEWIOyqGsZlI7eferLAB6UDBDgxeZRQ6tE3ZjKiUGDumHO7NTxs8keJrIXjDXUjuuzl3T4NfuDrKKXVSlvy+UrVv/y5tX3Qg3MB/LOO2Gm7VU8h/fk8pv4JW/r4C9b3XpFMyNHj5/V35OiKUINwgpkdGvXmIY9hA6EQ5VkQ1BQlamCUlhtaTSjO4Rymm1LvAUHjykmUwb5F3auSogVwysrSuWlZTfnQHllv3f2/dgDcyDmggaloWrDFUdQHahHlCQ3oU06SGq3jkjg+QISlfW9UtXQK7XNqIxBfW6p0erqPyi9g+Pq8/D8jx6Y0szNQXwwMjKTJzX8ngQaqoRPC5mso1OUYFjlsYbpnGd6rnG+2WHnnpdsoJzt8CQHSgb44LnMDhoLgVzVWPgUPJlzb8rJ05fl6PHzMj45I3vHptTTAS6VDf3aZGlqu1XDSuuFqtVrjkkHWdBsDJsQlshtDhoWyA0koLnjl0vkwSdWyTKGkruaQTr7GE8e14Qj/D+pZq1FoCp4tRffmQlLuhFZu25zvWze2Swlle2a8cFUxSRkfOPo/mOagdA7DSeNnjCndaLY0ekZPYFyQcOkNmADaFAyzDsBNGSIfI6M17+kaekP5D3dyfRRspeJtCzZI38kVc3xwUeWrn3//b9asyDzcN8z0/Yqg52uAql3FWjnL5pByp0MWX1SJ8m5yWepS+J6UpYYxsCWC2do9IgeaowPHZLugYOZA98GsDW3j0hLOyX54ejAWB2RuubBsCGRyW5zH9WNbFPMP/ge+C5kFVv05/CzRuxnogx692u1Khc+VasKgD3j6vHsGTksHGQjKeQcOzCthj9hgftynizgItaL97hdvIQQGMmY5YQUZpgTkqBK/TEo1DMoiXCgLNSAPi/TgODEOb35cBPCgPcMjoXediNz4BR6dMjwOBto9HcNakZVjIdOZ0hRX1a1Qy3MxJHT6rdQW9azZ0Laew/o89rQulfo7CbdXYKPRVhfSsKDmcHNoaPbF8hlQfPE88Xyp4fekB//6jG54xcP376hE1kLX4nLnGB2yDz85OosaBw4+piCxpZw+dwP93LCyAikMOlpUtUMJV9pO5t0MVxRtYJnE4qnjCVw3VLfMiCtHXuFCmXWbowyO4b5vrQKBEVDOGTT8EzNcJLGoIkHixeqgbE+pQ/UtSe7Qz0CgGHEA+MOyPSQiaHgjtoXr3/x9Sie7tU6F9LVIWXtRXY85mWBdI+1VdhSKexNiWR7PvjoEz3e//Bjeff9jzT7RAbKj7fefl8uv/meXLryrh6Xr7CUzQ4+du6im49vyVkyQXMdIQNCFiQ+gCRZMP++PPrP45Hf4eo7H2QO6/X6q/bd0HvD709a+8OPGBvxqXz8CUea0eJv5eM+JIznnIPnn1YO6/pOB5t7DQ6qlNS4Ks3zVxRGQMlGgpLtMtAkkFElYxlQV8uF4GIfs5IMA4ypICucQ8mYmkHRmKo5L1Na60I4bi05+ydOysiBaRkKxnrPwIS09xyQls4xDYuo+K1uGpTqhgGprB8Q9nTT8Q1oSBZoMiMaTk6IzvXkiua517YLodOTLxTLvY8sk5/e9bjOiLptPZosaBgd+Kg88tQazTYtoy4l1KZYeARMXN0YWHS4kA4YyoIGRaTZqlUBOHRury6R11baYPKXlu6Sl5bu1DERS1eXyYp1FbJuU41s2dmoqqemsU/7rbr6xmRgeEK7e7UhcvKEHD5qodTxE4zgDOHTuUvq1TBxH0XjoKF1wGf+ekMkF0oKGqbkhaK7qDHSgcAjdSIKHSpkKbiLuq/xuDDUgY9X7mrdS6h3YWphfDAInkrs5Pj734UZIxwUT/5XOPT3iX9H/Z35vf2wv+mbb7+Va998q/U/X3/9jXDwPPCc2Frd7PYEhU8ADqBh2yc1XLweXuTHa0XtDZBhjjWQYcQEige1o/7IjKma6ZOomXMaUquaCWGTh06WTCChYImF9H37WFqOQfh+SsiaThyx8v8Dh06onzJ6YFoze4N7j6i30tl3UNtvmttHpb51WJVKVcOAVNUbUPTthrCLG9A0kpnDCxyQ8lpTNNcLGrZV/uzXTy4eRUM7OhLtkafXGmAi0HgMvpSwSWHjoLGMiW5EiD7uoZTCRju3y3QLJUvimCGsw69WlCYL5F5bwWwawGMHjZXMowE+m7bXy67yVu1pam4b1OHVGnLtOyITh07oSE5GcaJuVNVkBou/I29etXUphDxvv4uiYTeTK5pCoLEtBg4bBc1nhdba2lgFhU1S0XtNaHrTkQ6hIM8L7pLHb74VxnIkx7ffChdtDKT07e+Eosq847vv5NvrPfK+T+Gfye/C76YQ0UcrJuT3T4oDw9/45VfXxBUdNy0fak4/Tjpn2Op/vEYHZWOgMRUDaLgJuJKZDTSEyCiakzMX5fip80HRoDZC2BS8GdobOFKwnJZJzWAaUKhXoViQsgqq3veOHZH+4Qk1j0njN3eMCIWlTCygRAEwEO7sKCd17yUM3Toioqy2T4eUAxMOwGJh7KApGkDTOD9oGCWKBcFIFWYHM2lPFc3zxXLfkhXyi988dZt7NFHo5KBhuleiZoKiyYLG1YvVmZAlWBBoUDWrynJAA2xsuh5bEJauKhEGXy1faypn1YYKWbOx0sZ5bq2VTTvqZevOJikp3607nWobe6Vp96B0dI8IndqMgyDkwkwm1Dp15oLCB5WDZ+PhU3ZlSjyK8zMrigthjkNmTkWjnc9p5e//A40pme8DGlU0GPSX39bB5hcuvqW+m9amaOEjxY/s8b6oajYOn46G8RO+xgXvb3AvhaEBIt3UAQ1phqq8pkt2VKS1WBu3sWalQY1rzNkNW5rUqKUOaNOuNt3tpGtxK7t05i9zaMpr+qSitk9rb24ENOt16l42dAI0zxA6AZpHV8gvf/eMgab2Nk1vx6EToGEV7qPPro9CJzN1mfrFoUawF7IpYAJkyDKoaZxCiFSl7XYqFzZW6uArBQ2+jQHGIJOdRbOMBXLrbEwEu7fXFlfJ+s3VUrSVTFa9hlc7SltkV7k1VFbWdUttU680tQ5IayfdsKPSM4DRPB6FXKxYsc0H9DbNnL4o587b6tsrV96Rt66+q/UJPtTqgw9t8Lh5DmknNqX3rCEx3+a/i6Kx8GghiiZX1QBqDtQhoZN7NUno9J6pGg+duBlo2MQaXS3ZN/VCKhqF4o2Y2rowelj6Byes8rhzRLv3axr6paK2W0qrmMTXpm0nm3Y0S9G2Ru2JW1tMRTjtKaTPaXz0MREMv6q1RXJRtTig2aygadd5vzsrutRnITVNKIT3Qlh0I6ABbImiyck6YQbf/9hKufP3z4oW7N2udTRzggbzl7oGTV0G0LhH4zudXM3kgaZSvzYDmtWET9RsWOgEZBw0TNbzDQjL1pbKihg0m6pkw+Ya2bitTnT3dkmTMGEvAU1tl1Q39EhdU68Nv2qne3s4jPPMLpHbd/CosBaXmcHHpmfk+Ikzciqsw8UL0KxV2LlNyOUKyOfP+NwZbQX49HOdOsfkOe7e5t2EUn/1buh3+lq+/uqa+OwX67xOQxENp4Kfk4RSIayy8KlA2EQIdL1hE59/vaFT6L/6uuBuKJsx/Lcvw0gJTO+81Syfa4sDcHHzl5DVoaJ9UPgweDBnGCFxweYJH6VlhXks1mzJmA9tZegdk7bOEWnePSR1bK+s67FGS+KEC1wAACAASURBVJ1P06Lzg9dTb7OxVlYDkfXcBH3XWLngBXK8weOaclm61tau8Hl8PiUZ7N+mNy6t/G410JRQ+d0pBhrbVjknaMgI4tFoRfv8oZOawXmh02Z54rmN8sBjq+Su//yLrl6prOm8PQv2CoLmmaBo2GoQZsjkmcGhWlSrNANkNHxyANFjxJwZ0t2reOSFLlfQaPhUSNGEnU4paMrFFY2CZiugqZdtATQlFTbKk/6PmsZeqdfdTnu0Lsi3VdJWz7ZKm0kzKToq4iAzadhYaSqn0OxgvB6tywnGsqfKY/Co6gn7t135qHkMgDxr5ebxFzQkooDCEPBgICuAomFUiY8TLnL3SXIhpD5K8HYW/Lb7Qu7B+M/IPEbNnvgwyfgIM3k5X2gaRdGh7LLhUQALjZUFNleiVAiFKLREUWLm89xPHrGNlaNUfO+dFEZFMDe4rYtU+5A0tAzYpsraLimp7JAdpTb0qljX4dosmvXMoimqFvZuA44VYQtCPB7Cx3gy62i57nayucE6M7ioWlA7CppQGEgd2OadrTpVb+v3AA0p7Zp5zeAovZ0LmhcDaB5fpTu4f3TnErULGL52q//d9MrggqDR0CkoEh9WRc9TOIAOxpWBJV2Nm3k/qCHMYIUNkFmTgiZ3aRzvv+GgiXdvEzptDIpma50aw1tLGlXRlFQQOrVLZW2X4NU0tPRL024DDStXuvvGxEHDWty9Y5Oyj7W447ZELp6yh5/DqAiqitVUDnU5FAB6BgvYYFg6bDzMylU7vnbFVY+HDyifeGYwF6uGYDQ7hgZJLuzMEY2JUIPZoRR1ficG7fV8LEDEf1YyoDxu1AwwiYHifwslAPydhUIhVyw8X3hjye5t6otOnpep6bCpkj638SnZd+CYemu2Epd5NPuFTu7dHXvVf6trHhDGRHhItKu8XbYzYW9HkxRvb5KNW9mCwO5s1qYwtwjYhAl7YRUQwNGhV2sqZNmaclm2rlxhY+tWbGZwomgCaKhxcdAwaHx7eafsIHSqwghOQ6eK+v5ZQiczhwmrZs86GWiS0Ck2gwNoWL/yH398Xkfssmt+EYFmnSkZIPM9QaPNcnztjYBmXYWsCR6NKZpa2bS9TldPcFfLgKahV+pzQGObENLQCdDo/m0FzbSO8zwcxnlOnzgjJ0+dU9Aw21bbG0Kl8UJAE3s6XIDMpfkvC5oAK4cMj3mgiUKhQqDhb1sIaBIVoynqS1rNDdSpjTpE/9rEtM5xtnk0pmZ6+w9IJ02cATT1za5o8F46JQHNzibZNAtomMzo61Zc1eSCZhnjPNdX6RybNHSq00WJtDo4aCis06bZ8hA6JaDpndujaVw4aHJDJ62jiUDz67tfWISgeWZ20HhdzXyKRkFD6EXoFA78GY44dHJlg5pJFU1YILeufFbQ6BaEWNE09EpDc1bR5IJmJIBmv07ZI3SiJifs4A6T9r6voiFUcP/GQcOMmrgOJykADGZyomgiFfEVafIkVU5RYJouv2mK5kZA8+kX8umnX+jYivlAQwZJQUPRXfBhtA/t5Fmt9gY04wE0DI4fGpmUgcEJcdBQwElGEdDUNMSKpk22l7bqNox80Jiq0fApWSBnXk0CmrWuaOYDTYv2vyWgKSPFHSsaQDNH1uk6QJOraLxgD4/mwSfWCB3cDL5aXIqmAGiSdDdhE2GRejE2T5WQSSebRV5NIdBkPJqV1NNYtknDplWRGeybKtflezTU1LBMS/c6JaDplJqGngKg8dCJJXITAmjScZ4RaHQ1bhjpGepxzpy9ZB5NaGlA1VjolBrEceg0n6JJPJsoa1UINF6T4kWAMWi8INAM5UI7nBb4sTlA4yEcfpKbuxlFk4AmX9HEE/YILwuCJozypC8JbwavbP/4lL4ugMZHeWYVTb9UJ6BB0RhotuxsluJthE4NUegUg8bOVa1gV+j4zODCoDGPxnuzTNHQaGug6UjN4KBoymrnAU3TnmAGU8zHiJPZK4NnBc3zxfLQk4sQNBTsUUdDp62GTRo+5fszDpqMLwNowkBn73+yCmFXNaZofL+Tq5nZQVMhq4oqZc1G0ts1stE9GoaTl7ZEoVMATUtfxqNhhKd5NKxcmVCPJjWDj2t7gyqaHNBw1wU0GMK+duV6QaOqJlI0eBvu0XDhOmRyPZo80ODZRKomgc31+DG5n3sjoAnp6tzQCTVXGDQM+0oVTTzKc3bQ7A+h04g07R5SRUNWkVaVMg+dMITxaCLQMJw89WgInWycSdIqE3waNYVnM4M3OWh85YqDpl09GrJOu/JAk01vW9FeVLCnbQj9Ul63cNB4wR6K5qEn18pv73lJfnzXElk0WSevDFbQJK376fCgQkYwLf0JYPzt0Gip6XE14MyE07Qi4dPKMnHQWGqbdSusWimRZWtKrGBvfbms3lAYNDvLYtB0Sa2GTgE07UMS79+2lSsTsnf0kIyxcmWcJs5pHdmptTVTp9PZwTNmCDtovEnTQcNdupAZnKtoYtB8ggpYNKCxfq1c0MR1MW4GF1I0WdCc0o0UrmiGNXQyMxhF09oxogV29MEROqWgcUVjHo1ln2wLwuoiYBMvkHNV4z15YeWKgoZNG3g0lt5WRbPJPBq6zXXqYqJobLAZZnA+aDCDDTZAJgFNo7cgXL+iUdAEj+bhp9bKb+99WX5816OLCzT8YYDGDzeEPcWd688AmjzYOGhCmptUN24/oFGfZjbQUBkcQLNyXYWChqxTIUVDW0KSdcIM9vR2WIvb2TsqPf37tGI4VTTMyGGtRQ5ops/YkPJc0Fywoj5qPnJT3HHoxN089mgS0HzChfnfAzSxoiE7B2i0ViZSNIz2oD/JQicDDZknlObwyCEtRWALQlfvPp3nTCWvezQGmo4kdGI1snk0DVK0BdBQP7Nw0NBfRxo8A5porEWRTlAkvR3M4LIOoQ3BQUMolHo0BUBD6KTp7e8HGiqDUTQOmp8sLtDQvb0mgUwKG2uwtHg3m9o20LAHJ92FYzCiStjS5PODJng0CppSWbG2XFOUqaKplaIQOm3Bo6EymFUrlSG9nQeaYUlBwwYEFA0ejaW3U9CYGTyFGcw2BDyaKHQqrGjeC/1StnYlTW/HrQwh6xRAM6dHE6W3PXSKM0I3LXQKIZOHX/HP8KxTxqMJ6feMR/NZrGiylb6AhueCXjJmDDtoSHGrGay9SrODhhKEgcFxNYMBjRbn5YGmU3ZVtOsCQUCjoRMFdpvrZd0mB02opQnNvknoFPk01NHkgsbS2x46NYmDBo/G6mg6tOcpTW+HrFPdgFTGikZHdlix3s0Cze/ufVkAzaIwg//nHda9/dCTq3VMo0KG7uuwAAtDOAsaRmDWqBHM+EkFTTCE47UXafhUbqomCp3isElDp1WlYi0IhUGjLQi7GmW7gqY1AQ3SOlY0HjqZojHQDCtoCJ1iRXNKi8YAjY2gyAFNUDRx6MTd2jdWuqoxRWOgobYkq2hCB3ioo9EO8HARfy+PJtdzWej7NwU0ps4sdEpB4x7NfKChIXJWRTM6mSiazp4xXZVDFbApmr40dNKVK160Z2awKpoMaLyOhnOWGpoQOoWQyQr2sopmTTFrcR00jQaaHXFlcAoaxj0kZjBtCDFotLEynRVEWHW9ZrD3OrmiWVyg+eG9csedNviKMZ0GGnv0sMk8GivSW6GQSUGjs25DBspAQ6d3GDXhhVKET9cFmiozgzfVqKIp3l4nKBoFjYdONZ1SU99joKHfKfJo4tDJQaN7nSY8dAqgmQ6gyRkVev4GQcP2giTFfRuAhk50VTU+RyenAthn6lwfaK7KOTYBMOYhEzqRdTquRXt4Z7w+VHFrwR6g6dir7QaAhv3bSehU4R6NhU54NBsInTbFZrCDJkCmAGxc0awM21DXbKQ6OAYNw8sNNFZH0yE7Kjq1YA9Vk4CGgj3tdwrjIa4TNDRV5madUjO4WB5+ap04aBaFGczgKybs0VthoKnQR4ru8kATfBkPmxQy8ceCssmCJvg01NNok6WFS7Z329/GEA51NOsrZfUGAw0nEXct0ttbdjVY6KRNle1qkClomvryep0KgYa5NhSKTUye0BSrtiBMnzZFA2hmLogV7V0SQEPZPIoGv8HM4MKKBkNUB2h9/EmiaAqCJifFTSrZQ5Z/dug0G2h0jxMZp9DVDmjcEEbN5CsaS29fDl3YzJWxMQ/M4HWPJgWNejQKmgndVOnpbcaCuEdTVdct5dUdQusJdTSkt92jyQdNWrCXKBpaD8KhkFlXoeE5oFlVxHlmbQjrw+hR7XcCNDvT0AnQ7KqyWhoGWSUezS0AjXk0ixY0j2i3aAwahlDfGGis7ynxaRQ0lmXKDZ0s88SYiHKt7AQ0pCyJvwGNhU4Nsr20WWfUqBmMomlA0WSbKtWjGUjN4FTRHJ0HNOfzQHPxUgqa3NCJ8InQyYv2WCjnodNiBU1uN/aNgCbJOgXQ9A5QGRwUTdug9jqhaGLQUBm+lToarQx2RUP3tamauAVhbtCwwwnQVCegYWmiZp22p4rGPRoHDS0I+aAx8zfNOuWbwazFzR18VVjR7NAxEU88t0hBw3DyPy9ZEbZEVibKphBovFDP14NkVI0X8eloiQg0LFkn87QqCxrtrCW9rSnuUlm+BtBUJBkBaiQyoCnJAU19fvd2Z8+o9C4QNGxaOK79Tuesm5shWucuF1Q084HGVE1sBud4NHmK5ssFK5qkOnihvkz8eTfg0SSKJhn7YIom7nVKzeAwAD5kndQMvnBFzpyzMZyqaKatYE9bEDzrFIGGXicqg5vbaKrco6GTgaZTSjCDA2hU0YTmSm5GDppVNFYmlcEePuUomvWV2oCZgMY9mk0N0VJBFA3jJkJ6u7xDQVHioGEeTZ2HTilotHM7qQwu5NF0yJYwyrMwaGzw1aIFzQ9+/rDc+8hy0T1Eq2LQoGpM2cRFengxBhhqFzhw/K1SODWEY9CEFLeCBthY634eaMg6AZr1JmmzoGmU7TFoarvUo8kdEwFocs3gkX2HhVER+aHTmTlAkzZWEjotBDRmCLNVMmpD8JGgNwqaGB7X8/ZNAA1KxtWMzwL+4EObmJcHGga4X2GAFY2VKWgw3Y86aA4dTyqDUZx7hicko2h2zwEaTW83y0b1aHKzTnN7NLE/kwENBXsFQLNlV7vQWKnp7UobE6GKJoDGZ9KgZvQIYzxnzzoBmjbZuL1Fh5PP7dGsXXweDaBhgdxrK+lJwqOh7gUVAixIV2MEe7YJI7hmbtBoPQ1fS6UxGxIAjQGGnidTNgE2QdHYhD1AUymrHTTBoyneZoOvckFTnatoOofFQDMm/YMHZHCY3dqHdBAWoGEKX9ajKQQa92jSzQqFPJrc0AnIZDJPYe6wFu19bh3cceaJlTcL9WhU0VwPXOLPvQHQMA6CyuYUNOmsGfNo0mHj6WhOq6Mh7KSDG0VDZ7yB5owcOmJLAfeHuTNZ0NBUabNn1KMhdKrHowmKpizqdZoHNElTJQpHjzS1TU+UDr/SeTQ1sjYHNMXbW2XTzt0Sg8bT23HoVBA0c7YgLBA0zxM6LULQsBKX9Q6vrqB6F9gYaKwdwUFjisUUjCuZsO0wV9FoTxRLwSqFPdgKm9UpaJghbD4NJnB6+ChPQKMFezmg2RE8mtKqdq0tmA80TNsDNKP7TdHkgyY/dOLCMDM4CxoUDdXBVMACmRsFjaa4Q7anoBnsoyNCK8L37nVaAGiop5kz65TU0WRBgz+Vp2iS0KkwaLwFwQdcWdbJFY11b5PebiDr1IRH02OgqfQ6mhbZtKNJigqCxlsQXInbY2oGm+KhMhjY4NGszgmdNmxlDEUaOm2jYC/JOhXyaNKs08JCJ1M0s4VOagYvZtD88YHX5JXlND3aBkOWhV0vaDx80p6ndVnQuEdjiiYfNBlFE7JO63NA44omBk1tY480tvZLCxP2chTNwkATRkUwcU89mnzQxI2VWdB8lJjB16tobk/Q2DoV/lYUzYJAEzaJuqIBNBROApo465QfOjlogqJJQGNZpyxobB6NjYmwGhpXNDxmQMPMmuDT6PArhmepomHKnrUgFG+ngztf0Wh6u6Zn1qzT/wNNzmgu7l7xXicUDSs4X14WQBNCKDJPDL6ygj1rOXBvhkdXN7xgHDFokKuuaJhupqBZzfoV24yQKpoS63VaHXqdghlMU6Wlt2uleFtdmBlsZnBpZVuiaBQ0LbODhspT9WgOZD0a9n1PBTP4xCmrDgY02sF93rdfvqV+g4EmO/wKRUOhmmedMIMzhnCh0OnznMbK61A03zt8uomKBu+JHVgLA03waFiZwmS9k+d08yhbJscn2URQADS9oWAvmMGs30myTpVtSWWwm8EbtrhHE4GGUZ5ePxNaYVLQWLGeKpqQdWKWsIJmc71sADRbyWoVBo1lnXpsODlmsBbsRYom9DnlejRp1mn+0ClRNE+uld8tpqZK6mj+/WcPCkvFX1rKDqby4NUwHS8FjRnAqQk8K2i0wdJmgQAaPQJoUDOqaKJwiYZKbaoENGt8C0JcR+OgoY4mHzRqBueBhvT2AR1UvlDQ6AxhQHPukpbOewe39zsVCp0UNL6Qbh7Q4Hd8Pg9oCKGSFoGoe9vbEb7vVD1vP+Ax+f7x4Kt5QqfUo7keRZOChu0FDho65wENHg3zaDIeTdSCkJ91KgSa7IQ9VTSzgSZqP4hBQ8YqCxpCpwg0IXTaVWkT9vBofG5wApqwcqU6Axom7NmYiO8DGu3eDvNoFk3B3r/99EH53b0vyUtvsF+J1Sjl8jrzfvNAk5rADppVG2rEj5UbamTFBrq6w9AhBU2FoGi0sdKN4NW2wdLrZ1LQlMuKtdmCPYqyTNGkdTSxogE0Da0D0tJmoRODrzzrROg0F2hIbzP5jX4nQINpOTtorIM7EzqhaOYATdJYqbOEAc3fCo6KcI8mA5ocj+afoWg0vf35XGawjYmwFoSc9Pbl4NGENSkLAU3c65SAZhYzmNBp/RYHjdXRABq8l6TPSTOmdv6hckh9EzZp6JTU0cwBmpJ2cY8mBU2P7nSyUZ40VQ5IdQyaxAyeGzSFPRqro2HdykPR4KtFBZrf/OkFefH1HbrK1rNPtlObGBeTLatmFDQRZBw2eaABMoVAEwxhM4NRNaGOZi11NDYmgnmwGzajaELWyRVNZAZjGGZBMyI9/WPSt8cUzfDohJnBBUInA01orDwVQMPwq7zQ6W1dzZJrBlvoZMvoCoVOKIFPP7Oh5Z+HzJNuTfDVLT64nOHl4YgVh759o8rmBkKnpI4mDL765JPPM6FTtmCvAGguknVi2yRzgy10OkzoRHp7NkXTNZLW0agZHObRRE2VhE5FDL7SFoS0qTIBjc6kMeCYV2O1NNcNmkx6u1tXrrBcrryuTxQ0oQ0hAU1OepvPyQ6+SkOnwqBJ9zoxYc9HeS4q0Pz6j8/J868BGtsqmWSeVi8cNFlFE8KnAJo31lQkae03UDQ5oFlGC8KaclkJaGhDKKrSwdMGGvNovDI4NoPrvAUhKJrOnhEdUJ6CJmSdbgg074Q2hGzW6b8FaD63hkpGeS4YNAwoR9EoaC6pR+OgYcmfgiYq2LM6moPS2WtbEOKCPfZ36eCrPNDgqVD/ciOgIUSfQ9HkgqaKrJOBhrCoag7Q0HB5o6Dx4eSLAjQskPvXnzygO2See3W7vErmKYRPqmhCz5MW7K1PQyc1glE0RelBbYIqmg1AJgsaUtzs1skcWrgHdNhWiaIpCwV7lbKmqEq0YE8VTQBNKNjLgKaxVxpbBqKsE4pm3xyK5rhMHj4hbgZ76MQ2hJkz9DtdCtXBaXp7tqwToInbEHLN4H++omE39rXMESsmHxMxW3qbuh9GXegWhHlAgznuozx5vugTAzRMLMyYwerRnMgU7A0MWXpbQ6egaLzXyUDTIbsq2jKVwUVb62V9sgWhRlaTkAhpaz33fPws/mA4VNGE4eQU7NlwckBTK2uDGbxxWzCDd5B1apPtZda9TQtBiYIm8mjmAA0h1fygqctZiRtaEJ4vlgcety0IrFtZVKC583fPyHOvbtMU96srzafx0IlWhBQ0tbJifa2s3FArqziK0mNlkXk0mG2MVOSF9Rc5FzRaFZwom9lBs2FLrRRvrZctO6wymAHleDTlNZ2idTQxaLqy82gsvR1Cp6QyGNCclCPHTqVZJ59Jc4Zxnt6GMDtoKE7zrNOCQJOpDmbrpXk1yc6nQqHTDYVM7MsOxz8BNJcjRZPsc/Ks04JAM5w0VSagCTOD6XWy0AnQsJMpdG9fF2gqQ69TlTAmYk1xnYJG09uedQI0JQYarwzW9DZrccO2yqoGyzwVCp3mUjSYzfOFTg88vkru+sNzi2uB3P/58f26UPwvr2yVl5eXioIG4zbU0nh6m9kzQCYBTRGyNQsaVTXajmCg8dQizZW2ESFsDdQNgtkQKlY0hE4oGjWDHTSlzbbbKQc0LBvTOpoENFYZbGbwRH5lcADNsSkr2PP0tprB6tGkc4PTrBNmMB3cH8j1gMZUjW21xPMAMg4ar6VxfyZjBt8QaHxg+cIUjVco63DyaPDV9SgarwzWwVcRaLQyWHc7hfR2ApppHUhmBXvj2oLQFYVOeYomGk5eEDQsktMSC1PSZgj7EDZTNamiod/Jpuxp6JQBTcg67WiVLW4GM2FPFU23lN0gaLaWtGlWa17QPLZKfvWfzwbQLJLd24DmZ79+Qp59eYu8vLwkGMIBNEnoVKUzgjGBzQhOAZOqGiqFQ71NUDS4/WrI6QZLW1Gq60nDqtJMZTDp7bXloanS6mgs65QqGkZ5xlknOnwBDaMFdlOwp1mnfNDobidtQTiuYyJQNEnWKdTRpFmnfNBk2xBCZXBO6IQ5So0JoxQ8JXxTQePqJG4xcOWS+VgATfL5KXAKhU5zg+Zvc4ROc1QGJx6NhU4Zj2aS0AnQHNHh8dwQtGAP0LD+lgl7zAzWeTRdUlaVjvLcsssrgymw86xTWkejWSdtrPTsEzVcdswOGgudUDQbt9G9zc9gnGe212leRROlt+dVNFuYR0PoVK2V+C8v2yU++Iqs0/2PrhSijDvufEQqaxcNaO6Tn9z1mDzz4iZ5eVkWNAzCSkMnyzzhz+SGTQYbT297g2WATCicshW5Ob1OUU2N1tEE0LDqlII9QMNWws2ETp51igr26nJBo02VKWiYSUvBXhY0eDQMvwrpbZbIeXp7FkVTCDS5Hs1/F9AwDoO/9cOPAM1HYZRn1qOZywym38zHRLDgDzO4b89B6eopAJq6AqBhTMS22UEDUFzRoKgBDY8JaDYQOqFoyG4SOqWgYYncnKDJ1NHkhE4LBA1NlapoimcDzSYFzS9/+7Tc8ctFBJr//aP75Ed3PipPvlAsLy3dFSkaG+mZgiaomVlBUysrimw7gqbDNc0YKZo1YeF63L0dQKMtCFqwZ4omFzTu0biiSTyapn41g03RDElHj6W3cwv2YtCwRA4zOFY0ScFeDmhyx3naNoRCHk26TO5mK5pcQ9cK9yIfRlWNh0s8FvZnZivYW6iiYc5OdvBVVtEw6pTCxtgMzg2dKNhT0ITKYAcNiiYJndqDomELQi5odrbY4KswYS/xaHQlrtXR2MoVVzTWgoBXSLW6woYWBAWNezQ5oKFgbzZFMx9oQh3NXIpGQTOnotkk9y1ZoXbGogINmSf+oMef25gBDf1OWh2sy+Osg3vFumAER95MGjrVSmII62yakH0KhVO2diUaERF8GsIn63UKWSd6nXIUjYNGt1XGHk0ADR4NoZODpm/P/rzK4Oz+7dlAc1HOFdjthKJJR0UsDDRMptNDzWAr2JvPo8n4NGG/UwKaTHiUCxred9jcAtB8ZpsqZwMN5vi8oDl+RreEzgYaJuxZ6BTMYEInQFPNcHKfsJcDGh/lGYr1CJ1yQeMJCQcN/kwKmtp8RaOgwQwOBXuxR1MQNN6GkM4MdtAw+pPWBRt8FdXRzAWaFzbJn5csl5/9+km54xcPL57QCdD88BcPy6PPbpAX39iZKJp80BASWce2wmVjYZ+GFLeN+8TXidLcYfWKhVDm17hHE4NGR3kWMWKxRlOYhE4paFqkJAZNY5+lt6M6GivYAzQHbVsl82ioo9H923g030/RmBn8ftK9nQ2dTNH4lD1qThYKGlcUbgrHPopWBMdei6uVhTz610WP8ff29Lb//MJmcPBoGBcxj6JB7bmiKRQ6MQw+aUHIq6Ox3dupR7PHPBqvo0nMYPNobB5NnawNoKFYzwv2EtAkijpUBwdFA2QMNNWacZo965SChiVy1lRZIOvUeLNAs0OefmmLPPnCJrn3kWXy0/94Qq/LRePRABpm0jzy9Dp54XUDzasraIC0Du4kdArVwerRkHHaWKcDlmNFQ10NhXvWcOmgcfefjQiuaBw0/j4zg+l1YoGcKZp80DSJLpHLA02/tLTtMTM4hE55ikbn0UzJxORxud7QKX9ucCFFYzN0MYMZDkWYkQXNF0nGKTfr5Bd6IdAkagZYLAQu8edEgPHvc12gYR7N5xFoPs1O2DOPxtetmEcDaHTwlbcghHk0ZPZi0MRjIpLBVwV6nSpru6S00sxgm7DXIpt3mEeDf2egMcgYaCJ/JqrlSlVNhUGmKFogV1wr6+KmSjeDS9qsBaG8UxYEmqgyOFY0bE/YWdmlNTmkzNP0diGPZqtaGPc8/Iaw2BEBsKhAQ2MlK1eeD20IDhoqerXVXgePRx7NvKAJe3ZU0cwPGgAEaFY6aHRo9EIVjYMm9WgMNL4W183gAJqCiuaCjomw7u0061R4QPmHmuLOKppP5KOQdZofNGkXt0OGx//6oDGPxru3Y9Dkhk6qaHTwVWhBOHU+AU1sBsdNlYV6naijyYAmZJ1QuSloSG27ogE0MWzwCNOiPVauqJrJBc0m796OzOCbBZqqLGgSMzg36/T6dnnmZQPNnx58XX3TH/5ykYAGgSaKHQAAIABJREFUIxhFQ2Pl/Y+tkOde265tCLQiUEcDaBhetUx3bFsdjRbrJaBB1fhhoZQpmlzQsIIlTNujYXO17XsCMH6siEGDR1Ncq4vcLXRq0qxTqmg6dPoaWSetDA6hk3s0/YMeOh2SvWOA5ogcmMiCJs06hS0IYUwE1ay+RI67sysa7tZmBnstTU5l8EefyF8TRZOmuCnfp8JWlQzFetEe7tsRNNmsU6poYo8mAxqtowE0Z+Xw0RkZj7JOCpqhCelTMzj1aLSpsgmPpltKQ3rbFQ2Dr8g6KWiSgr0saFSFa3XwQkCDMgrzaKKsEzUvVAZTsHe9iia3MjhWNHObwVvliec3CvOh8E3NDO5U/ytn2stNf/f/u9nfkZPb59E4aGhDIC78y6vbEtD4VgS6uB00aeuBh04OGXskjFLQUDzlLQmMjtBdTwE0axwyFkq5mskDzabaqGDv+4Am7d7OB43tdtIWhJDe9nk0CwFNfmXwx/LRR6xe8dApCxob6QlkHDRfyResXMldu+Jd29Gjhz3/zNDJ64JiM7jQ4CsNnbxgzxVNAhr3aNL0dmHQpDODM5XBJYzydI8mTm9XabjtHo2ea6EFweq4KmRZtEQuX9HMBhofTh4V7M1lBhcInbyp8npAQ1LmP+97RX7w84cWH2go2rv7wdeF6mDUDIc3VjL7V/tHdGRnaganSiaFjfo12tVtlZpuDC8INOvYglCuDZXs23FFYy0IOaCp7pDqum7JKpohoakSMzhNb1tlsIOGWSh4NIe1jmbGxkTkgCY361RI0WRBYx3cXkdjoROgMdhor1DIPKWg+dIgE4FGw6cIMO6nJKBxzyX2YeZ7O3zNV18xi6bwPJpEVeUskLMxEebRAJrc9Pa8oPHu7VAZ7B4NPpnW0fg8mqBoOuPd2y1hgZyawaFgLwJNkdfRRFmnxKPR1pc0ve2hk9XSEDpV6E4nep3WUkPDArl5FE1SGTwPaKrYu924R7dYztnrRNZJ62iqsgV7L2+Vx/5SpGNbuPn/aLHU0bii4RGKPvtyAM3KfNBYJilNbxcGTZ0V8wXYWKVwjSzXFSxplSYT9+yw0Gn5OjOCV66fAzQlLWkLQnWHTl9z0CSVwTkFe0MjDhrbv62gOXIyBzTndZuiKZr89HYh0LBrOoYNfkUGNB9nQcOQbx1+FbUgqJr5h4MmhU1u1omWCD989za/t4HSQONbEPhbFwYaurcvZAZfKWhyxkT0DdC9vU92d45IU1iJy2vrioYFcjtKd8sW6mh2MDM4KJoENObTkLo2FeOgifwZivbWm0eTbEHYGNLbc4KmK21BuJmg2Vibbap8fbtef489u0F+c/cLws3/R1oZvIhCJ3ya397zojzz0mZ5ZUWpHigawidCJxTNjYCGAr50HzfAyQFNyDitXF9RWNHsDIomtCCU11wnaPYf0TWshRXN3KChAC1bR4NH84FWxLohnAcabUNIFc3tChpXY8zVQdWkoPl4VtBkC/Yuy6kCoKGmKW/CXo+Bxndv20pcqww20FjolJ91qrbuba2lmQc0mU2VNbImgCZRNN6CsLNVUo9m4aDRMZ6omvm6t7WOJgc0rxloljy9Xv7jD88JN//bHjTNbQNy9wMv6x8DZDh+fffz8tSLm7SDG9gkoElm0kRm8EY8mtSnWYMhXJz6NDYIy3wafB1Ao3ea0HdiZeHlmmliQ6WntjXrxCwaQic8ms1M2GuQLYCmpEU3VVr3toEmr9epZzTMo3Ez2BVNAM2hnNDpeBh8NXMhnbCnK3GtezvOOmXNYBQN5fd/zRkVgUdj/U5eIaz+jHdwf/GloBa0oZKVKwtQNIRQmfBpvnAp/v+80On6FU3qz8SgmV3RJKCJVuLmTdiL6mjYvd2LovFNldFeJ9Lb2usUCva0ezuYwemYiBg0pmRsKDnQsfYDwicNnUKxHkp7dVEWNDozuCBo5vJo+qWaKXvsdko8moHvHToRUTz85Bq58/fP6jUJaKpqu/TGdrO92tzvd9PNYHYtt3UNyZ8efCUDGrpFaeii3wnQ+KQ99nDjsWhbgY+I0KwTWwLrZE1xfXJoOEXVsI6RoCeK7JODhsyTLZazEwDA2IE3w4GiYRYNoFmvK3HrC4MmhE4Z0HQMSUc3g69GxdPbaegEaI7J+KHp1KNhlGcADbu306bKdDh5oRaEt99Ns06uaNIh5QVA8+nnuh/JMk8FQANsAnAsnElhUNCniUEy39sFQXNNPGzi0T0aD5t4BIY+Ye96QIPyywdNOjPYh5N7r1PavR1A07k3CZ1qaEFw0PiYCBbI7QyhUzKPxvzA2AzmfLU0twHGgROP8WTyAIrGPBom9tkWhE3U0WQUzTyg8YK9BYJG62gKVgbvkGdf2SYPPLZS2w+Y5/3jXy2RqjpA82EuF276+zcdNJy8XIh/fvi1DGh+8Zun5LFni7QN4ZXlDCpnmHgInQANZvAG92hMvRQGTZ2Oj7AREmYem6Ip/OLrnUYlLQvYK2TNBgdNnRRtqdethNpUWdIsOz10Kgia4QAaRnnul4GhuI5mFtCcOCMUkwEazzrFozwXDhov2LMd3F5L44V7aeg0D2iYTTOfITwfXPz/3TzWoeTAKz3mB421TKQejbUgpKFTYUWzINAcOq5hLN3bzHROFU3waOjebh6QFDTtsssrgwENHg2Dr5KCvRQ0zEKyoWs+LmIW0KiiiUCzOQuazRnQ5IROPspT59H0S/VNBM1fXtkm9z68TH5y1+PyLz+8R35y16PS0NKv6vmmkyXnG9500CDDxyem5aHHl2VAwx+35Ol12oYAaJhLQ/jE0CpXNJberpVVhE3FWTWzFmVDCFVUlwzEovfJ62rsBAibA5OVGHzvVM1oRy2gKa7W9gNOKMrNAc22CDQVIevkiobh5NbrlIZOeaCZmNIJ/IeOxFmnHNDkbEHID53eUxlrM2k8dMKvSEHjKW5K9vUIq1dQNJ99HkBD+PRFlHlyRUPhnoImhQKAuK7QKQKMf11ByCQDt4Kiis1g3dpgmyrdnwGa+aDJ797GPE82VbLXKfFo2L1tozzVowmg6R8cl95+a0HYHXZvA5raRNG0R71O0eCrCDQ6YW8DN0MHjZ9nOaBZZ7u3UdqqaJKsUwDN1iZB0cwFmoq6Pt1wUOmguYmhE1lfq6FZIiian/7HY9LevVc75XO4cNPfvemg+fbbb+XylXfk6RfW6xhP92h++ItHND584Y2dNpcmAU0aOiV1NAsEjbckqKIJJeG6ojQCjYZN68s17bia1n2dF5yCBo9m884m2UbWKZ5HU9eti+C9YE/n0RTwaOKCPcs6OWiiMRGnZ1c0hbNOtCF8P9DEsEkyT/8FQJMNnWJF47u3C4EmLdjzUZ65oEEtHj9xVrvlHTQeOqFo+ofGpQfQdI9JAhrm0RQETVM6Ye/7gkariAuDhnk0Gjrtmt0Mvmmgyck6vUBl8EtbdJ/TD372sILm5795QsecEL7e6n83HTR///vf1RMo2lwjd/7+KTWdgA15+/sfXaEDeF5ZYYrmNRTN6lTRxEOv8GNif0YVTXG9VQrj4WiHt61jseVyNnXP54J4DK3eDLUNG8g4+bzg2UCzW5gZ7FknTkadsOeKRj0aC52sqTJbGZyCJu7ePq+ZkdlCp1zQZKfsYQYXUjQYwpYS5iRRQzisXbE0d76iwTvT4x+uaL7W8yEGDfU+eDSe2uZvKKxoZgPNW3LuwhU5ffaihqUZ0FBHE9LbQ6MpaDocNCG9nQFNHDptb9QZRYkZjDoJ0/XiMbI2lyZVNCvY7aRmMOtwazSZobNoSG2H0MlBs3nXbtlaQsFep+wot4ZKnxmcB5qFhk7lud3b+VknPNJf/f5Z+dcfPyD/+uP75ff3Pq9zrGmuvdX/bjpo/Bemme3xv6yRf/nhvfK/7uD4sy6Se/rF4qRoD9DQiuCNlekYz+DRMAaxuD45DDx1ZhJrd3eNjo5Q0DDiM+zVcdis0IFE5s0QNilo2FKpoVOtxuKmaAidUDRZ0NQ2RqDpcI+G4eTZMRGZgr28XicDjY3yvJxZt5IfOtkmhNw6mtgMttDJQJMNnaxJ0ZbJWYVwrGgWDBpCI/dhCj3mhE5x2MTbiT+ThE4RaEJIF4MmNYPnWiD3QTKc3BSNgYbesYKKJgc03X0HxEHTtHtQ6pv7VdFU1HbqjSX2aIrnAY2G6JFixgNcpuG5jfC0GhoDTVKst7lBirYyYQ8PqFUKgqY6Z/e2zwyeBzTJmIgYNJuZsJeChnXUNDSzz+mndz2u1+LPf/24vPzGZvngw7/Kd9/93S/bW/Z4y0BD9qSitkP+eP9LGguiaBjped9jywUZZ6tXHDTEvIAimMFafwBksqChZySBTXGdejmxT5OABuD4IKJgBCegKa6UtcVVutOJPqfi7YROWdBUhDqaGDRtHcPS2Y1HY1sQMBkzWafIo7EJe14ZbL1OhUDDRZOraIDMXKAhve0pbtbIxjNpgEwWNFmfxhsrExgsVN3kwMW9GR7nA43DThVNAI3NC/aqYJbIYQYDmk+FbQ94Uig50vuEkDwfpP8xgy9deVsuXHpLgQ1oTs5c0ApsesvYvc26Fe/eHhqZFDya7r79KWjackBTmZrBm3cx05fVtfEWBDODdRaNezQRaICMgcYGY5Gd8tR2FjT0UMWg6cgoGluJ25vu3s5diTtL1ikBTRmKZrfETZUkWLiRM3Du6Rc3aUUwK6r/z4/u02RNe+ewZgVvGV2ib3zLQMPP4OTo6N4rz71SJHf+7in5t58+IL/47VPayc38YA+drIMbs83MXWiM7NRZHsUNslaPem1OM9gQVnlrAs2WlurWdHc0pIiTQwcR6bBoUzRrFTSETrUqkTdtb5Qtu5pk2y4qg03RcKerrqcFIVU0bcwMVo9mdtBQlWrzaE7JsalCoMlfIOeg8Xk0c4PG5gbHoNHQKQmfAmiSnidA48dXelIpbKKVtbmgyMyomQMwCpkc0CQAy1EzwGZ20GTbDww0TNfLgsY9GgXNRQMN4WgMmkOHT8rBQ9Oy7+Ax9R7Uo4lA09pBettAU93QozvWS2PQ7GzMAw3nlJVRmBls82iscC8po9CVuKmiMdDYjVKL9VTROGhaZMuu3bKtNG2oTDdVXj9oGBOxq6pLtpe354AGRVMtJF6eeK4o6W/iGvzlb5+UletKtdr8u+++i3Bw6968paD59tvvdPsgJ8B9j7yuXdz/8oN75Oe/fVKeeXmT6Mxgal+4Q2h1cOh1UjO4MGjWoGo2GWiADUACTF7E5ycF4ZQePoioiIVeZJwqk9AJRbM5gGZ7aRo6OWhqCoCmJ6NofGZwbvd2PJw8VjQpaDxsWiho4vDJQZMU7S0q0HwaqoJT0OBbJYrm8lW5MAtoJg6flAMTuaA5qCqU0MlBU9fMgjYHjfU6bSslG2Sg2TCHosmCJtRqBdCgotNivaDIg0fDvGBTNHOApvZGQJMqmg1bG/VG/NyrW+XuB17TkRDeDvTnR16T8uo2VYT/KMiAr1sKGlKsyNmXXt8sP/nVEu0W/dNDr8ory7fr2lHqZmwH92ygwZ8JimZTg6zVI4BmE12xrmxso6AqG1+NoQYetTmYc8jZAJpNVbJ+U3USOm3aHiqDS6kMDoom7HXKhE5B0cQL5HT3djQmws3g7BaE7JiIuI7GQyeK0Lwy2MxgK9qLC/bmAk1iCCcVwqGLmxT3l35EisYVB6HT1xzXCh5xiJT7dvI1hepn/Pt/GfkzWqiXroTx5XFuBH/88Wc6BsP7nPh7PXRy0HixXgyaEzqL5qzOaU5Ac+CYju8Y3HtI+vcYaNq7RqW1fVgVTV2Tgaa8ulPn0ewsa1OPTkGj84KzoRMNkj7GMwua2Az2vdtpVTDnp42IwKMhLKMgENC0JYqGhkpXNLbTydLbtBlwWFXw7JXBGjqpojEzuGh7s3AzpuGYzSN/uP9VIeP7Lz+4VzNNL762SRXfP8IAjvXRLQMNkOHusmz1LmEj3r/95H5Z8tRKVRWstYC6y9dXJ6DBEPbQiS5tL9Zbt6lBOAwyPBJCGWTsbXwbwihfXxq2Wya7u6sNNBsBTbWs3UTYxAaEWp07QuhE6TmKJgGNhk49oitx2euUGeUZNlWqR5NmnUipAhrAenQqJ+s0S8HejYDGivas36kQaGw+TdrIqGMjogFYcQiVQCMHOLlwScKl+PNiA5iQLIIMb8dhE7+T+zNarPfp7KltA81H2lwaz6JBCSpozl2xvdth6BUD4R00Y7OApqV9WBpb90gMmpKKDnHQbEHRBNCs4xwL82hSlWwzg93/84pgmxdsoVWqaGr1POXcpSpYV60oaNjplAVNSWW3lIadTpV1YR1uBJqapj1Sk3g0cfd2n5TW9OqEva2lbaKQKQYyNbJ0bZWWkTz1QrHc8/BSHd1JQuaeh16V+uY+7aWLQXCr374loEGSHZs+IyvWlmjjFsVBv/r901K8vV4qantkw9YmHUzOcPJkQHnYWEkBnpVvmxFMjOuwSR431+t4RP7PPJt6WU0IRVox7+AOU22QKQY0NbJ+i82ioVhPQbOrRbaXtCpoyqraxUKnAJpWA81uzGAdExGBZq+BZnT/UR1N4KDJbkEIiubsJbEJe2kLQiHQUKznx6yK5q+WodHQKex58gZFK9wLi+SSLA/AKaBogIKqmrkVzWwg8o8n3kwh0HyZ+jMFQRPS9LnFemRD+Pt9up5XBTP06gLrcM+FnU6nzssx5gUDmsmTutOJrRTUN6FodNVK3z5B0bS0OWj6NHRC0eyq6JAdKJrSFnHQrOf8YpUtoAkejcMGRZMBTeLPmBmcBY2du4VAk7sOV0ETqoJ19zZqJiiaXNB4U2UZkKnoUnCt39ooq4rqdLYTkOFgzhPHS8tKhO2UDLriWnzi2dUyODwut33odO3aNdmwuVp+8Zsn5H/8+z3yP+/4szzx3FqpqueJ6dQ+pxgyyRMTVA1+S9on4qBplHWbOBq0LoHahHUcQeGoeYyJHB80tvlRXGOQ2VyroCnaag2VVAUz8Gh7aRY0NY09UtfcJ40RaDq6R9Pd20HRpHudvDKYlbimaKjvYO+2tiDMARouIsxOr6HJBY3V0kSjInwAls4P9i5uq6exmhpAY7U0OnGPtwNodC5NrDo88xSrlAW+/eUcasZ7nFzROGRyFY3XA32sGSfb6fTBB/mrVhLQXHrL9m7ngeZUmK43rXu2fNWKgoZ5wV2jujzOp+tV1XWLgqYc0OzW0Inm2o1bOb+YIVMrazemoAEgc9XRWOKBSXy5566N8fS926S2fR0u14LNounRbQbldb26U7uyfkCqNK3NojvUjCkaHmlJoGoYyAArQjK3IOyaMsj4NWWP1Zp4+cP9rwhZJ5opl63eqZm+fxRsbrqi0YK9L7+SN1bukDs0NrxHi/VWri/Tu0tL+4imqF9dWZ6omeyTAomrtLWAoj137VmKNTtoLHzKQMaBo120NXp3Ymkc2SbCJgcNd7EUNG2SKJqGQopmTHr792vcvyeT3j6ajPIkdJobNOnMYFc0hUATz6PJgiYd6RmHT5Typ6rmOkDz5deWol4gXFzF8LgQ0AA4Mk7zgSZWNOwc57DUtq1aWTBoDk4F0BzW5XF0buu84Bg0jX06b8hA056AhpvOxi03CJrQtZ2mtlPQZGtoOvSm66ABHBTrMdCK4eMJaJr2SG3zoB6ET2U1PaZgtjRpOQjXjt+0C4GGj/E5RApMm7zrD8/I/7rjPnngsaX/UK/mloFm6aqdujcGqYZHs6O8VUb3cxJMS1PbXo1ZeRLitSsxcIANHg6d2hTtWdgUKZotrmjcvwkuv2aizCRmwpluC9Qu2lrdTmmgqbNiPWpodjTJ1l14NCgaQNMhFbVdQvqTWFYVTbLXaVR6+gJohuNRnoBmWpeXKWimZnRY9vSJc4JZycyU02dmD53mBg2zg20+iw2/ShsrU9Ck9TSzK5pQU5Pr07i6CSnvGCTzvZ0JmXLCJlc0BUHzmdfQeGo7bj9wNZOCxlPbmMEXUTQXrgjL47RY7yR7t0+HVSsnZP/BYwqadDC5gUaHXoV1uPSwoWjKqjr1Nd9R1qq9bgqaSNFw7njolJrB2Rota9q1Hic+p1ANzYYt2YzT1lKrCibsMSO4VxWKVwUTGtU0Dkit+jIDwshO1A+gwqtcWVRrIdKaLGT8+nHwvEbT8toqKdrWLHUtg9LSvlceemK5lpnc9Z/PyNadDTpv+lb7M3z/WwYaTGBiQgyoX/zmSd13fODQCTl89LSMHpiStu59KhvXbW7UJ+311UAn9Wz8SSPGxCQ2g9iqhK2ku0HWK2wMPublpLDRYj/kr8ba9ogcRhb7KlytodlBn1OzMJx6V8VuA01Nl1TXEzr1S9PuAWntGJK2rr3SoXU0+1WZUfk8PGrpbeo2FDSHT5gZfGwW0Jy7rKXzeAxcMCgaLh5A41mn3DoafApCCc86ffgRRW1WtOdpbgr3rJ7GJtbpyAgaFzVkSg1hLZ770ryavBDK/Zo5PJsMeAKYMrAJ0HLI8Kig0Tk5aeXyZ4DmUwr1AI2tWUmL9WLQoGbS1DbPlxbrARqtCj4vwJxiPd3pdIj2gxQ0A0MTOosGRbNbR0QMhr3bjIhw0LTrTYabjYOG84NzRUETPL/CoAE6tg7XSilCxilpprT2gzjjtLWEGpp2G0peae0HiRFczxrcfqms65Pyml6FEFCiCA8v0k1eB8kba7Jhkt247ebN0H++BkARRQyPHZWxA1Py8htb5ad3PaYzg5/4y2r1A/8R4dMtBw35+1/f/RcdpTg+yZjL0zJ5lAzBjOzZe1jqW4dke1m7kpoCo/RJzIfOci3os4FYCpbNBhvAY0da1Edmat3muhBvc+LY+5xEGxgPsbVejeAtCpoWHeVYoqBp10IuB03j7j0JaBieRJUpcb+BZlILwwDNQVU0lnU6cuy0KhoGMp2cCYoGj2YBoPH0todOsSGMosmCxi7StJ4mBY1XCOvslwg4C4ZNDBz1cQix8g8FjasiskwBZKZkItCEqmUg46Axf2a21gMUTQoaTW0DGq+h0argFDQ0VB6kKvjAMcGcHx6ZFEDTM2Cd215D4yMiKmoYeoWiiUCj7QdkieplPVkndmfngSY1g80UBjT0OdkgttUbCdMt5Pd9Tppx2mGpbSbrKWgSf4aMEx5NunWS/y/e3irchNV/yQmP/CYcXyt+k+YaAjAAra55j/QNTsj+8eMyPnlKJg6f0tIOrkdag35z97Na8MhreKv/3VLQsKDq//zkAbn7wVelb3Bc4TJ59LQcOjIjPB6ZOquPe8eOSnP7XtlW2qZtBTyR8ZMYv+1PMi8sKW2e1DQbZTAxdcPdJD5MyVCMxaE9Tjsaw3S9Vs08lFS2S3k1oVOnhk61TX3ioGnv2itdvWPSg0czGEAzckhHRpqiiczgqdOaCTHQXJBTpy9q89r3A03+lD0fFZGGTpYmdo8mCZ/COAbzR0zZ5IJGlU0BdVIIKoU+lpfOzgVNmPpng65SyLia4W8wNROM4A9d0dB6kAOay1fl/MW35Oz5KzJzlqpgQHNWjkxxTp2UgxMBNPvSWTQGmrRYz/ucXNHsjIZeUbxZtDUGTW0GNKZq0tBpJQV6tLrQ8hKyU3ESw5S3pbaz4yHaE3+G8ImVKzRZbgw1MMDCFb4BJF+5+DWB9cDnUI+Gp8k1hDWxd98xBYve1CcpZDyh1xqbWElx/49//5P87D8eU1WOIr7V/245aOhx+uP9r8ruzlGlKorGQGOwmTx6RiaPndGP7Tt4XLr6Dqp0xKXnCadNgWN2L6davRxkpYLHp85HKseBw50KyJBZIGzCn9miNTStsqN8tzhomLyGR6N1NEHROGjUDHbQjE4aaA5Y6GQFeyf1xCfl6qChz+l0omje1PTsbKFTvqJZHKDRPqxIzaSgsTAQeHqxHkYwSq4gaC68mYDmxMw5mVLQzKSg0faDCDT9B6SjpzBoSqs6JQYN5wTnBqrXFE1aMgFkZgdNlYGGMoqcsMlS2/Q4WUUwioZwiKI9puGR4FhZVGc1ZbPeYLOgASz4L9rCgweztUmq6vukZ+Cg7J84oTfwI1NnQuSA0ktBw6CrJU+v1DQ3g69orSEsv9X/bilo7vjlw5px+u2fXtDsUWvHiJrBqBk7DDaHj1EHwRNzRsYnZ2T0wLT0DR7S2LKsuluKtpHCq1GVY08wy+fyQyvdD7UOCett+igcUzVAxgddFW9rtLBpZ2oE07mtoKnpVKOwuqFXu3xN0QxLW9eIdPaOSe/AAVU0g3vxaCaFSW6JRzNpHg13WOqIAA2GpTVUeugEaN4S6kEuv/nOvB6NZWBij8b7naJammT1SjbzpOGTFsmlk/cIaVTVROnuvwV/JuO3zKNyks+NwiUPm/j+yViI2J8JoAEyMWiADD1O+aD5QJeb4V/hz/jAK62hOXNRpxfqmpVQrJf2ORlotKGy3xoqWzuoCt6jvhs3ERSNg2ZbaavecKxzOwXNOi0CDVXnSQ+dqRhVM4yF0IOsDgq7RkETh/V0bQMCjvVbGmXt5gZZs7Fea17wHjlnTcFnVbwrd3wYBwuZWm64fB2+DSYxXufQ6BE5OHlKDk+dlWPHz+kRg4awiYMbOef5fUveUND8+M4lmvAgu3er/91a0PziYfm3nzwgv7vnRWFWMMAgbtwzclgVjMMF6KB0eJ9wykMq5N7Q6GHp6NkndS17pKSqS4p3tOj0PbJSwMakYwSeNazIZRJatZpnQEeNZFU6lm3auC2oGZopdbLebp2yxiwawqaq+m6hzwmZzcnJSeqgQYpzAlMMZqA5qqAxjwbQsDzutEwF0ND056DhAiFjkoCmgBmcq2hi0KST9lABMWjswuXi1bCJC9o7uUPoEtfTuH+SgCHyWOKK4QQmBaAT/1/6fVKIZUCTt2c71wTOB413bXvGyUBDxulN9boIRxm+SqzhAAAgAElEQVSTmhTr5fQ5afvBIO0H+6W929oPvCpYGyoVNB164W0roVgvdG5rZbApmnU60TECTQKbUJyHyuFj2uaSggaPxvrwvEXGpkKiugEL52fWHuBczn6M85qbKpDha5hawKxh0tuERr2Dh2Tf+HE5On1WTsxclBMzl+T4qYsydeK8fsxBQ/TAdTQwPClVdX3y+soS+f2fX5L/fcefbWZwfZe8895tODPY62iWrt6lS8RZh/uH+161WcErSjW8Ka/tMZNq4oQcOmKAcdC4unHo8ESiEMhYDY4elvaeMU397SjvsJg2lFzzYhh4TOm44uGRFxXwAB0yCRjFKBwHDlWhcec2oPExnnT7Apr27pHUownzgjOgOXRcS+BnB81lrWY10KRZJy4gzTq9/Z5cfceK9hix4Wawg8ZS3D7SM5t1wlQ1leB7klLQxKawwkbVhpm0DohcnyXv/QKgQQX51yePsZIJozvVH8qAppCasUwaisbDJkCjGae335crPh4CI1hT26xZSYeSswp34vAJzfxZ+8GkoDgzVcFR+4GDRjcglO/WDRgxaIpIGJA8SBSNtbEoVEIIpWHU+tDRrcDhc8J8pA22R57yDG6IWaikSjw+R90a4GNWR1arPUvcWOnObmgdkl6M3UMnZOrEBZk5S4r/TTl99oqcPG2QmT55QY4dN9AcnbbQad/4tHT3H5TSqi55dXmpPPYX2+t02y+QywUNlYh3P/C6rll5dUWZPjIjAw9md+eYjB2clsmgZmLI5L6NygE6PIFQmlRdz56D0rh7SGiV34jSCYvNl+bUF8QvqIHHXkzuMMTUQGfT9iZNcbOLGVkNaOpbBqSpbUi7frkrMoumdyAMJh+Z0DJ3MhyaddJVKydl8mhQNMfPJqGTTdeLQfOW5HZvv/X2+3L1HWumxJuIQUMMbUdu1smUjYJGYWOzXdwMdlVjIZSnuUMmKBM6MX0vv09pro/FoHGFlFExoa/JNlJ+oZsa+L2yYdNnmqrP9WfSQj1LbRNiWuuBg+ZSZp8Tzzk7tykxsPaDSc0KplXBI1H7Qb9U13t6m85tQJOGTiQJigi3tdcpqBlt1HWPxvudfH6wFZg6UOKQB5WSq1Ryz8X0/Qq9Gbpyqajrld1dYzI0elQthVNn2Nl+Vc5dvCpnzr+loOFjQKYwaM5qtqm1c0SwCp5/bbs89cJmefwvRTqAjutSd2/XdNyeu7dzQcOO33seekMBw+YDO2zgFcV4pdXdamKNHz6VxJa5kEnftxALJ92PQ0dOqTTcu++odA8YePie3AkYisULiWlGfIsUTV/YKjEgccdx8CBRCa+YUdMiOysIpbqlvpnwaa+m6Dl5keX00qg/cyBsqQQ0yZbKaF4wodPpi3Lm7GU5p6FT8GguXc3W0eS0IDho6GBeDKCJIZP6M3ODRsMm/JkINOwux1iP59DorOAMaKwqOAXNqLA4jrGsNFQCGktvp0OveL3ZgJALmlVApihtP2CciYc+DpVCjw6ZGDSx1+KV8YT1GMUVtb1648VvmTgyI6iTmTNBtaBczhEy2iNvo2hyQUPoxNdxU8aeIHKgb5DBV8+9uk1nBj/xfLH84f7XtKN7kYBmp4ZOP/j5w3LvI0sTRWNrVtIsErBhKnxN04D0DR2Sg5Nkbc4kcWYKGQzj06p+HDLxIzUCBw+d0Olqe8eOSN/QhHo79S2DCrMtu6iqrNd41+Bjrr3HwQ4gThrCMO0kp4u82ErIN+1olu1lbVJW0yW1TQNaZcma1d7BgwodurfpHqb9AIOS1Kt7M6S1ScmmYdPVRNFowd7V9/J6nQANd/Z80GTN4NSr8fApawijKPRwrybaRhCnuudSL7P9HyFTqmZSA9hqd6yxEzUFZAqDxkImFA0wzQ2bsv7MVfVn8Lls4NV5mTqepraZrOdDybkJUOeUhk5jqmjw2+pbwhjPmi5h6BV9TkCmeHuTbKAAlNEjYb4RJRQoFT2Cr1IIKrkf41xy79CyphU6e4nwncpeBl9h5Da175WePRMyst9S0Sh2YAFAFCzn38rAhY/5EYOGz8ejOTJ1TtPazR0jWpvGBAQ2jby0dKcqmmde2iqA5u4HX9cZNYsKNMzCuG/J8hQ0K2zNCuETg690gdy6aq2FwXdp2D2cFBkRUplHY5CZDTSEUn44fFA644dOyOiBYzI4Mind/QekpWOvAg3Fs7WUsYdNCh+gwsnidxzPbDmEXPGox1Ncp9kD7kLULOyq6pTKOozjVPX0D7HBkmFYx1V5HcOwO3Uh6t4mdArezNX3rJkyAYvBBcCYP5MqGjwMsjNcmA4YHq26tjBoPHzKLdwjzFHQJCEUnosds4GFjyd+TG69jHs/cd1MxptJwyZmHfM7ezVwfrbJ6meyoHlLywKY55PMCtb2gzNy5OiMHELR+IbKkcPCa9Ddv9+aKXcPJaMhymo6Valu3dWawIUbEKURvL7ABSDkhkIxTFK1Yn6LQ8V9Fj6X74M63rC1SXuTOOdqm/ZoOMQNlep4lMuxE+c19EG94LecPhc98nYEl9y3gQ1h09Hj52Rs/Lh09Y+rf8lNlb+HgXKA5uVluwJotugSx3seWio//tVj2iJUefuHTtbrBDXZfsCAZDwajtdpqFxty+OQoenBi9MglE1TwLdn72QoNJqRw1MU+HnoZNXFKVQAzam8A0nN56AyOCzMOi6qeAbHpa17VFA8OPlUJxNu0byJ10NFphnMaXbL7k5W15NCyJtA6aVq0OFG28ra1HyjX6W5ba+09+yT3j3jMjxyWMb2HxMqWPm9po5TOXxRzpy7ooVoFy+/rWHCm2+ZwqEdIa4M5q4PaLhAY8Ckc4PZ7eQKxloQtA0hpzI4P8W9MMgYgNIWBodOnqrh58Vp7Rzg8Pvmhk8JbHLqZzDKgbKOhjgfRkOcPK/lA7y+PJdsPdg7elgGBselq2+ftHWOSuPuYb2pED7sqmiXrSWtUryjWecgARaMWzVrI6WSAqSwgcuNyA9UC0VyAInvQ/8RA6foK6JWprQa5btHWjvHpHdwXEb2HdMU89Hpc6pazFvBY0l9llOnL6uaASAKnBzQxKETKmbq5AXBciCjxA16Z2WXep8OTsK8QqBhiRxDyimoXXygWRZAg08Tth/wQul6UXZnr6+R5etI/9UoeNIqx2Ht0xg/bO0LAMcyVLFPUxg0MXwwDIGNpp6Pn9UeGfpkVH4fm9ETdnCvpdIbWgelrLZHJS61D2oyrze/BxXmYZY/cidzFUTs/Qqm94rwd+rJSChGrE+vVaOmKXdWdAiGX33LHmntGpWegXEZHDmsd7qDkxRdnZbjqKBzpMOvyqUr1NzYOAnMYu2BAjwffaLjUrlwvYM77XUKsPk8jIzQsClknLyextew8Jhkl3LN4bCqJXyuA+bLryLoJLOJ0/EUQM4VlU/U8xAqVTRWqPeedmt/qCEkfyfQPaf7tS8nfgyvIYPHh0YOS++eg9LePaap3rqmAZ1ztLO8XTbvtKFqvGaeTkaRWjiTBYW/fgt+DK89NyDAwgVN0d2Oig6pbOiT5vZhzfDgF1q7zRlNN0+fPC/HT1LFfF7fJwWNl0KYRMjjhi7QOXWGque5QQNkqJkZHD2qf39JVbfCjfR3Opw83YKQVTSb5M+PLJef/fpJ9WkWD2juXCIPPL5SXgk7t19dWSqvrSrLKBpdYaGSlbuMpQa1/kXT0XV6YaIOyDLtm5jWehuyT1yMKAMLm/IVTS5oGI4EpPg6DmowKGGfPhm6rGdoF7iQlLYfPXZay9qHRw9LZ99+qQdANd2CNEW9cCfjJAUyDhce3Xh2Ke13QR4LndQWmpF+p4+rXou6ABwl6b6nuaSyS8cI1DVbFy61RT17xqV/+JCCmCLHfQenLcV+dEazc5zgnMQzZ2jmpEjwbQXWm1ffV//nXbYMRAfhmnlCqKbPFBKfaqd16rPQDAks+H/qegDeu368x6Aqq+h96+335OIlmiCvyvlLZEre1HoPfic8OF4zShZG9k/J8L5j0j88qUmBjt590tI5ounc6oZ+9de2l7Zr5zJqAVDTzQ+0U5Bg7IfnNu85NrO/0PPuH+N1sRuFJQ14/fy1AyqEIdSAoXpRSKSaO3rIPh4SoLJ/PDzv4fxKzzHzGgn/jx23Yjogcz2g4Xk7e+Gt8Pxd0jaegeHDgg/DgCwyrigZZtPg/WR3bxdWNPctWSG/+O3TiyPrxGAdwqY77lwiDz6xSgv2LHwq1cxTHDo5aHTdynoGjbPZwGJmBU5RrVb4Mm8VSUrBUv/ghF5YnLAYxhT9xWDJvn1SC+motzA1FEAzfUYVjY9z8OI6bRc4e0nOnr2s2SLetwKxCyrZGba+/+C0ACDKvls7R6W2eY9CCN+GkYqrNoZpZ8EYjJWOw8iAZNkwTmw/ubkAgI/7AoSWKs9D8SF3a2Q6xiLDv4ASXgDVp7k9NTsqOmVnZadesGW1vWpCcoJivttAJR+sZI/IfWDGxcTzPNvB//N59j34XtmDLmQMTw5CUy4Ienq2h/1DDIAiVOUC5ndft6VR/xaV/WHDBaoBmOCZLF1rFbQ8Jw4If3SQ8769bYVu/nYuRHif/+PzCX34OTyP/D68fpxj1Y39Gn61dY2pv4fnQ0YIb4UmRcr6Mf85z7jZOVz8/LL3uRkabBYCGkIn9WrOXVGw4MmgeqiYH9k/rcZxS8eo1LUM2fCr2l5BzSSgKWmLFE2dDvwvFDrd/+hKufN3zywS0KyxMRE/uvPR2UFD1WMopuNC0kwPIyECaAw2tuuJ0EMb14pq9cTcUdYuNY39wonQH8w1XnxeeAWKKh1TOcyIcb9GTwBVNZwAZ/ROA2hoF9DZMZlKXjJFFNfFqWhrG/CSeOQ9iuH4yQt6smEA05JPcRV3PbwmIFRR16PeE121DKlet6VBYWQXkftA+XdWYORH7BH5xwo92oWUCy7zHbhQuUtz8LMLHvpaWIEjoC90qGkajNPM99BMjX1/B6U9pmrOoeoASP+uNAS1/7O/wT4/hUj6denn+/d0+PAz+b08xAFmgAT/BA8Q+AFD5rTwGhGGcdPYMzypHt7YwSnZP0ERJiDhsJAdcBwJLTMoZCBjoAE22UM/dwGgIRTy4+TMZZk+wbl0RvaPn5A9e49IZ9+4NLePKWB8jCeza4B4dq9TLmiqC3o0Dzy2SjdWMmnvtg6dMA2XrSlRNaOgeXyVVQarIZwqGvyOBDTramTFuhph/3YMGmDjh0llk8lL11Rofwl38V0VndraQDgxMHxIRjFc9SSh8thOFFMzM0nYdFRPgHzQqKqJu601LW21LxTZxfNjGJpNGprs0IcffqwHb1v48IFg6hI6zJy5JFMnzulJi8cwuHdSujQLNqKGIScNWQnr4m0zU3oLGbEGTa+jjrjYgTGA4CLyCyq9i9uF6Bdo+miKKX0/vTj9Y36R3sxHvnf8/fxn+aP/X+77rk5ccfjfyd/scOQ8ACCq7IrrVdERZm7e1aqKBM8EBcVcF1peGPjEudG3h2FlhzWdTFn+IS2uTFUtPgo3Gw7CaVSIZT3dF/QePX9MQZMPHFRzYUXj/gxqhYP3MYmpkt83flKGRo6q19PczvkxqNsQGO+pGxEa4+Hkvfp3MqVPQ6c8RVMYNA8+vkru+s+/6EjPyprO27dgz0HDZD1Aw2BkioZYZkX4pLU0Ib2tGSe9swbQhPBgla68TSFjsKlRVWMDojnxKtXrIYu1dHW5rlShG5vZxG1do3pBu2/hoOGugz9joLHYOVY0gMbGOlzW0Il06vmLb+rAJa/mzYWN9SdZ3QugYbD2hx+RIfpUdJvkZ19oLQvL3L74glEJtpnRS+5J4wKkU6Qqp88IZvDwvqOa5m/v3qcSnrsvMplZJYRH3KEJmTzU4MLD3+JiTOHjF3uqBrjAzdCmeNGPVG34hW2PcYHjbJ8z+8cNFvw8/z380X8fHvmYfY9la4OqxauiX4gRICEsxOREjeyq7FQTXQFCESUTD4fxSo6p58NgNXyg02fpKzM1StYKBcrrduXKO1rD5OMmKKSkoJLX3QxbSxBQkmDqJYUMatiagf1xPtB4Nbs3O6b+DG0EwIW5TPhU1NM0d4zptgNXK+nEPWYFD+aBhlAYoOaBxhMYjJvw9PbrO+Tpl7ZoHc2DT6yWu/7w3O0PGuoxUDQxaF58Y5e8sqxUQaMp7ji9fb2gUWmPb2EbA1E3b6wulzdWlenBbFS6ajdsrpOdZa1aEUrXNX0wAIfOahQGJySQyQUNJx4nqlbzzgEa3y4Zgya3/sVqX0hHsy/7MwOPNz9+bgAiFfw3jr99KV9yeI3KF1/qJDqA9f6HH6tSog/qzavvyaXL72hGir+BC8CM1WMysBfj+qC09exT76ixbVjIolFkWFnfpz4Szanbykj52qgCRhlkjq2NAWINGs5mQqMQbgE0lIXWiuR+fXifEJE1rfwsfCKMVCpgMfYJWRp2DwmeA6X2nb0HNAQm7MQDwXtDUWBmY4Zq1u2td1UlXn37A3mHYsYPPgpAtx4wIJ+Ol7AM1ltX39VeKQ91E8CwrkW9N6qMURYXkvOB0RMOGp7b+FgoaPRmNn02yTpZsyOqZUZG9k1Jz8CEoFgIhZgXXFplw6/KagiJ2O3Up//H/1c1Lhw0WTM4As1r2zOg+fUfnxe6t29rRTMbaOjg9noa7mRahxDK/zmZk9ApyGLcfg+bXNGoXxBAw1R6LQnXmgZUDaApVdjwNgfTz9ZurNaxECUVbdrDxFjO/qFxGdlvaUhOaJ/tm8yOWQBoGF9A+FQINN42EIMmgU0ADdkbrXthhW1IDwMZ0swMmfqa5W4h5eyP+n9fW7oZMOlWgdBDRCaICXw0YAI8skE60+VdLjoL5S5foW+I1DEDpKxnhosZNZUcZyzlSlcwtT4+eiB+5G5MAx+yP03P8nWoAzsIGUnPAwoyT5evvCuX33xX6OuKnzMyX/zO6XNFEaLV2mjK/nOeJzt4znwM6Cef+hhQa2XgOU9B84GmyqnDIV2utThkwPTvprQf49UgQzFlBjRkiDSrmRaK5qsZVE2qaPj/o9N2ABmAQqU6Vb+E8529+7WmCrPdx3T60Kud5T47uEcho0qmgbGehEu+RG4WRVNVQNFQC1aMGZwFzTNB0Tz0xBr59d0vaPf2IgKNpbdRNAaaEi3aQ04j3X0drpnBZvwCFeLvuUDj3bMKGi26KpelawwuhFEpdEpl6eoSWb6mTFZtqJT1m2p1JACzZ5g509w2pM2SLISnhH3y6EkdpnSKQjrk9/nCYx18zu9coOHCSS+eSNUAmpAmzsAmLqxL6lvS3Uu60O3aN3Ltm2/km3B8++23wurhb79LD2bAznbw+f611775Vq5d+0a+/vobfeRtP77Wj18rOL4zA72vrunX8z0KLZz7+to1/X3td+Znf5v+rv678/vze+nvFn4n/fkBtCi80DpBOwXPWVrwRx0OLQzW+Y1n5gOzvLKYkCkBTZjQ56AhTD4JaE5GiiYCDWNZOQAJAEmN4NASc3RGa2bokt6774gMDE9IV/9+YfZSQ8ugKhMUJKlx0s8MGC/e0Sqbd+7WqXrbyxi+ZbODUTa2rZJNCPODBjO4pKpnjqxTPmiefL5YHnpyjfzmT4sQNPc/tlJeeH2nvLS0RGHz6gpUh8XuXkOi84B1JrDNjwEyBhuAU6cjPlXVYASGvdqa+QjzPZatRSGZVwNolq3hKNNj+doy4VixrlxWrquQVesrdakc0Nm0rUG7tpmKzyDyzl68nQk5cHBKw6zp42d1eBUnpsb8DKzy0Q7ePhCNdbA6FPdp4paBBYImwCYpiouGUn3F+tmwFoULWC9iLuQAHy7m+ILmoubiNRhlH1MQ/V3+/t3fhWbY73Xwtcnxnfz9Ozv8+3/7HWCxn62/D3DTw6DmfweP+rfFu6I0hLSuc1/XYhsu8bi8jcFUnPdKzQYaXjOt6YlA42UL+DMnKKADNhTTnXAj2Gq1TM0wisL66QjtSDgwK4m0Nz1vdPlXNfTq8LQtu5q1b4pxJHYe2yYPaoBs/3Zrdi1uRT5o8ORU0SRrcfMVzaygKeTRvLZdmyoBzcNPrZXf3vPiIlM0v1wihUDzegY0oU5kDtAobDQDRVaKNSxWbbsCz4CMxJoAGgVMPmgMMmYYrymq1in3eDgbt9QLs2K37mySbbuaZGd5q5TXdOgYz900vfUf0AFXByamNH3JsCVWfTCNn65iD584wZHtHO9/wOGGsPcm3RrQGGyCEpkFNKoUZgGOqiFVFKiKVBXFCmnWt+OvC6okF2r+sx0yPLqSUjUVgJkBTTKygsrjHNB8njZo4nnhX6EaE9CETZ+EZq5oCBfzPRrrAldFA2hOnVczmDIHbi4kCwiNGD9BQd7w2BFtJWjrHlPPq6quV6hEZiofq5YJ0d8gXF9TJsvXVahHGE/cw7gnQ0qKHVWzZVd7Zv82Rn+saBYMmhwzeC6PhtApBc1LixA0j7qisfAJReOgWUYbAmtGVaVYzYaFTllFk4BGd2pfJ2jWuZoJoNkIaGrULGYbApsQtpe0CPt98HHKqjuksq5baht6paG5X5p379HZql19ozIwdECGRw7JvgNH5dDhE9qpPXPmgnZmczJjEHvKm5M/7U0KZrCHTbOFTtepaP47g8aaMnNAE0InIMPBjYAwl9fmEuNAw4BzG6B1SWZOX9KGV8xfFAtNuHvUUyHbt0d3fG0vJeRpkg2b63UTpZZk4C0S+kc3NmCzcj1lF5V6I3TQkBn8R4FGWxAWoGh+d+/L8pNfPbo4zGCtDP7lEqHk+fnXdmiKG5/GQGONlQ6apGAv7N72sIlWd44UNFQOo2qAkqmaVNGgauIXPw2dVNGsr9AUOHegdQy8QtEAmp1Nsp0pe+WtUlrZppsQCKVi0OzuoOx8RHr6x6RvzwHdXbx3dFLGDhyRgxNTMnnkhC4y4444c/qCTtNjZGeqeqxB0uCDujEjs5BHgx9B6KTGcAid8EU8dDKvxkKnRQMa35RJ6JRRNDZ+IgmdgikcezTA3D0aN4NdzQAXMk1kEU/MMIGO9gd2dE+pUmWUREf3mDS3DYv1THXrWNetJc3Cbnbd71TE+WZrVoAL5QHLFTT4gnYAHAWNQqZKmzZ1TXMxzbZZ0DAWhYwftS871Ai+gdBpVkUzW69TsTzy1FpR0Ny1iEDDmIg/L1muoHlxaaxoSEdX2JiIUMWpLQihKthBk/voPo0uXVfQWIm6vfBAJguajD8TQEMWKgHNtoYENLtyQFPX2CeNLXRgD8ruzmHp1AVygGa/7Bk6KEN7mbJHgeAR2T9Od67vdTqlSuf/tvfe71FcSd/++9e9T9rogHPOBpNzNtnkDAKRESCUEMo5CyQQOWeMw669+2zypl++9X3vqlPdZ1ozQtiw6/Wa6+qrR4PCzPQ5d1d9Kl0BOjepzkbfeaD5Gw8+/5VaPZj2bvlYzo1VZeMOUN2MFoHw6e03aenABjTg/F3+RkTq70SmgkajOo25JbGbkrgu/xDXyUTd2H1K/j56UThi1ykRn/OAJhGAKc7UxuapCIzLBLQNLKETHxG1+zaOBZfochguR8kIiZKUjNDv2QfKMYWUJliMxmUaQvHe4xqdpJUnFu/6rczSPixrtX2njVnRdbbBHxPMOKiHTqykUblbM1uY74Q2Y6AhfYByC1ynXND4/O18rlObHBmm0TB7u11H56pG84igoR8NoHkLi+YHC5oVe5MMYdLOcZ+0Hw2JWmQGbwpRJxWCg+uUNHqmZ0iZdgwzi8bcJzKJTadxU7ZEuOirNhxMDqwZF4LXbzms4W7uVNY3OIBm3zHJBxq6shlouqShuVeaWgNougelq5e+M2ek/+Q5GQA0Q5fUnSJyde4i+TreaY8hciSR3RM6xJEAyIbwTGPLx7E2nmwcJlOm0SoL9RKlikPhGg4PVk8KHyJAfqQRpLwisUat0s2vEPDIz6OcI4A4SNKzidP8fY1iEUkKUS4TflNwJrlD9LXxqu8kuvSN/C5oMZZ57VXelnxHUiVAx5q8EGY8YbH0njir3RCxWhrIK6rrkYrjHcK8LgYEHixtUPGWftHWoJyxKFVq5WLtbthWqkED0wStlad2G9hgFo2tM19vTCeIQWOQ8WFyBhobu+KFsmbR5AFNmFiJTjM8vD0yaEZynTxhb/KsjT8k0FitExbNh5NXmkWzYo+oVbNqn2UHA5rQKkLrnDY7aMosM1QhU65p+HS6S0FjhZdeg+Og4W6TXvwYNPjOB/VYv9lAQ0/YLdqg3EFjrhMDthgip65TZasm+ylo6h00fWbRKGhsJC7uUwyasxfoG3xdLl65qZ36tawBy+bWfbkdQIOY7JnGHio3YZkRIwYd67Bns7cNPKnVg+vAgeWjbSHCWBVvaJW6Hx4exwLyULTDCGsoPnJFZQfUiOckJG6/JwVd+jewvMj/8Uga1pn2sEl61gwXeLFWzGKxkg4+k88//0qze9FZHC4+RI72H1guTKNgLC6Q6eodUgumuW0wmu3UJTqtsrJVdTgmX/hsJ6JFgGbLTkb0FAAN/Wc2oivGa81gY6DBbWI0LiN1gQ0jfxjhYhYNWd3bk9A2rlMe0JTZaNzHDRoXgyfP3ihvjV3yA7Fowuxtmuu8P3GFzF+6S0PcuaDBv+Ui4f9amwRaJVDboynoGdCoVkPkie9RKIWCP4r71P0afvGxbFykI6ydDzRFeypll45dOS6FQdMt9U2pRdMeJiHQNhJhmO5up85ckqFzVyQLmni2ExvEZ29nQRNbNh7F4g6eJrMNB43DJtuuU3Ue7zkTuuilyYDkx6Q5MjlwcKvjYedgOdnv8d9n57SvDQ3P0+RCIMihr5VmWEmLTwtXo1tZFMkgQ/Quq7lo9AjQ6DQExFzC0rfVeqR4lpae2mkvTKvEVWpps7G4NfU9UlUTQFNBg/JGebygiUavxKDZnguah7pODxzjOfAAACAASURBVLFoCHuXlFt1fLYEIYk6FUjYI+r0gwQNPYPpUZqAZsUebS3ovYMtOzhU2obZ2iloUmuGHiQGGpuRo1oN4y1ov6hp8eFOo25TZM7qXGQiASWybnMAzbYj2uUei8ZH49p8p4wYHCyaajSaegONicEnpSO4ToDGXCcfieuguZFYNIDGJiFg0YwEmq+FEgObgmAtPYFMOs/JQ+V/SqYJABoTlNF0bFCcdtWLW3X+M0ATC7qZMSzJCJacqQjfqECeG64uABrN8P1MEypVi7l6W2vEtEl51DsYi6a965SmKDA3vaaBthcpaJjhxdSLvSW1sisMkVPXqZg+0WWyYbu5Tus0nSK4TiNZNIzI3YSuk7FoRgQNWcGNWrOk4e2yVoWIJew9ukYzkuv0A7Vo9slTL0wWH7eioFm2Wz4OoFm6xnoHf7IOQS0DmqgyF5eJQ0ETu09JTo2Bxgotg0inZq1ZNx5tWgtothyS9VsOyUZAU2TD5LbtqpCi3ZXqo2vU6XCt5tHErtNDQaOuk4OGToDXMvrMI4Amx20ya2Y4aAiVk7Dmafqeom/znLx9Jy6KH25ZWHlDrgXySBZNogFFrpFaRxlrJgHN3/U1uDWjFg1uXrBo3AXkvaQWjefFFAJNGLtCrZIWQwKaG9oKJG5S3tWXgobIEhYN0xDUdapo0WGBOaDBdWIsbjFRotR1ikHjBb2rY9eJmxkzuB007jqpGGyz4XGdthaHfkF706xgizo1JaDxQspvC5rEotk6QtTpB+c6vTBJQfPuR8tk3pJiWRiDRnNpQoi7QNSJgj0A44dCJ5QmaMalhh0tUzgBDQPX84KGbOBDsn5rHtDsGT1oXAzGdUIMVosG0JxOQUPL0FwhOJ1W+VCLRkFDRMotGmtO7hoNd3yrmfpGaPIdWzTeNhOLQQs1/wGgybpOiduUDzShlzAV7MNBY5M3cy0aL5KMk+8YjWugQVxX0GgRZASawYs6Ex3QUNNG0qWDJp/rlFg0e49pAl6ORoN1gkUThsVpkzbWK5GnyHpW0KgYbKFt1qcLwXRjTEFzXGj6tXNfnVB+AGhI1sMFwqIZBppQ61Ra5ZnBI4vBI4JmsSXsqRj8g9JoAE2YVDl38U4VhBeu2COLVtIygnYRDhrENXJiTHsxIQ3I5IKGxCeHjeXWUK5gPWxI+EOM0yMHNOY2UeekoNl2WDZsO5Lk0KjrlICmRn12MoOxaEo1Ya9dYouGIXKEtx00iI4qBieguaK9iYl+0CY0LtYkozgGDXoDh4vB5H6YEJw7qRJRNI1COWiyleDpdEoFTdLDN7ZqTJR1GGQhYWJxsFSyGk0eSwZLKPs7/HfHYrSJv3EvYXutVrNEyNraZuRLwIvD11q1rqUEn+vn6NMQ+JwRgxPXaZCIk83fdtcpH2jUdTrEELngOgXQkFuVFYPj2joLOuTqgVnQJEIwOTRFFZoV7OUH2xU09Y8EmiN5QUMfo+aoTQSTPdIG+0AxaRMRlSAAmh9OHg1iMLO3x0yQt8cuFmbKkLRXGDRkB1vUibsBIHk4aKjuTgXhBDTBqtGLH7I1C4EGU5mEPcKbDED3+dtHypukrJLM4ACaJI8G0AwUBA2Je9YE/XoKmqhr3/caNFog+c8HDa4icE3bPgSLhvYYEWiyg+RocsZUBHJmYtAwfzsvaEobdLaTg4agACUFORaNTqk8otqLdwsYBprgOtGaxOZwk4OTWjRZ0KhFs380oMlXvV3IoqnTlhwpaEZwnX6QoHl2vLz5wSIt6HJB2Jpg7Zdlq6m2Tiu4LcRdqoVoZFUaaCpkwzYOeuTiRkUD1N2NCi4UyVXZ+ch68TeREm4WzYZg0WwqOqr5EtQ57dibAU1pgwAan7+NRVMbQNOsFk0uaE4E1+n0GfqoAJpcjSY3vG1isEecYouGSnBGrHDEUSe3aGKrxnvbpK5TxqLxUoYc9ymMvU2mHYRs40hjyWvVFLJmRmHRuEakGk1wnbC4cPPSKmwvkGSgnGf5hlYX0QxuLD8FDTO47zwIg+QohDSLhvA2Y3EZUWygOaPhbaxQBw2pCuXHEFmbpURBk1o0gIYbz0igwUVPQRNSKHJAgxA8Mmio4i7eb6FtWkXgOmGZ0MjKXSftQ+PJevSjyWvRZBtfBYtGSxD+DUDDolq6cof8/LkJatG88f7HMvvjohB5slIEdZ1W2zQEbxXhoCGixB3BNBoHTYWBhkmCfih0SOyLZyR7Ih93IbsTAaB1Ww5rpufGbYeDGOygYXKglyAEi0ZB06ygITM4P2hoC2l5NA4aMoPzgcbD2zQ7z2fR0MaAHJqRXCeHTarRWAmDg8ZLGZKkvrCpKUq0w0ajqEszWtAUAIy6TFEmr7tPI7pNoXeORpwUNHHuTAoaYGrWTAY0oWYJQFPa4aC5cp1q6wxoBi5Ib/856eohj2ZQ24DUNfbJ8fpuqarplDJAU54BzT4ydittJG4h14mavGGgCTk0iMFq0USg0QbyqetEIzAa7O/YW5sLmkMPAU1VYdAUdp0Kg4bqbW7+Wut09F+4leef/vQn+XjZFvnpmHEqBtPNa9bHRTJv6S5ZsHy3fPzJHlm8KvSlWUvJgBdWmhvkRZWABiGNg/65dmDZRLDh8TZAY24UrpTXQllGJ/OUDsu6rYCGkaQUVBJ1MtBs31UhOwNoGPiurlNi0bRoCUI+0HR0GWiyYrC6Ttms4BDefhTQ+Owm3Ac2XhY0XivlURsFTZS8h+Bq5QuWu+LJcrF24mDQLF0HR3TOiUYF6Az73sga8t8X/41Yn0khE+fQWPQsG3Hi/WrzLrdovrBkvWGguRZG416gjYNZNHRS5LowI72tIwJNXQBNVZscDqDZV1Ivew7UquvsoCFjnNG4nhm8bktwnYaBxtMoCEDg+mNRZ0FTkWg0DpqiCDQa2lbQtCQWzWHNo2kPja98SkU+MTjWaEbvOk2aSZsIA82+kmqhC+GT/vd/HvcfoKfJH//4R1m0fKv8bMx4+fmYiQJoZi7crpEndBoFjRZX0hEvAg3NySmqTKwZCw06bOxcrqNXNhbxf+ZOASRAg8nqh5cpEDFwawYRmNyITUWlmidB0Rym8s69x7So0kFDavrhoNG4RUMeDbVOzW0npK1jQAANCzkBjSbshVqnAqCxzOA0j8bF4NiiATCWR2NtJx4KGtqD5nTssxopFYQ9yqOJcpFFE0WEgMMweATYZEGT9/vi/jFYSvHvZoSu59CELGB3m6yvjEXN8oW2U9DYeFwsPj4nsoJJeCTDmpariO3MOkcXO33mqgycuqQtWx00lB+g0dQ19kt1XbdUHu/QFiBagnCkQfKCRtdWChqvq8NCTqKbUXgbLRCxWI88oPGIk4HmuI7IdddJQRPaeB4sCy08RwRN3Jw8P2g26rTVwhYNHfbe+GCxjHl1umzaukfu33/wuDEw7Pc9cdD8bMxE7bhORiIhbgWN5tK4RUPvGBR8zFKLIGnUKUScciFj1o1CJgINus06tWpS0DhwDDRHzJpJQHNUKJxT0OzOBc2Bw3WaX1Fa0awLMgZNfdNw0PRqwp5nBuM65alz8oS92/ldpzjq9Eig+b1FnmLQuAuVAxrVa76foPF8oGzEyUDDQDpA87VG5hQ0920G9y1aceYBDb1jUovmtBhoTkhdU59WaHutE1FFiin3ltTL7mDR7MB12lmhEUm3aNwqxlIpDBpKXAw0lqxnvZTRFFm/+UBDnRNjX54EaGys88NB89xrM2TdhiK5e+/+MDA87iceG2iwZPjnFg2uExYNUSeGVc2Yv1UIcc9ftksWrtidDJQj/JZmBwMac4OwUtBisFoMNpWycTuHDU2jfkQPtWqCQKzRqqDv8BhRToU5LnypWjMbiyimNNB4VvDOvdWaGeoWDWFPxMKyqlahwtfD227REHXq6A4aDaBJShACaLJ5NNdpdk7/3OGgYfM4aLzGyWFDaDfXorH+NqbT/ElH4aooHFk0DwONtZ+ILI8RLJq8FkzkWvH/ibvkuk+waNxVs7nc1tt4mOtEvdYfvO8vQnDoLfMbizj51MssaChKjUFD6weSJK1J1UW9Hj39Z6Sj20BDtTZTMWgFoaCpbNX0hSxoSNzcugNXh3V3VDZsLbUcGiCjnQJMo7FoZm54OwFNJARrH5pQ52Sh7WodCWM5NLmg8axghvu56+SV2zakL7/rlJYgpK5TYtFsOCzL1xzQQuYFUXh7woz18voHi8RAs/1fBzTeAtJB84c//EE+Xo5G85GC5sU3Zsu0uVs0xO2gWRQalRtoQnbwBgdNAEcB0BAu5DDQBJEYMGnvGkTkCDZbiQBQsm+gQZtR0OwsC+UHVcF1Oi6A5sDhem12pKA5BmiYC9SlbSLq1XU6qeFtAw3V2wE0py+KRZ2uqhmPOU9LSM2jwaIBNKGo0mudcJ0cNKkQPNx1sjIEz6VJyxBinYbWEkAmBU2at+JajUaAtPYoAg1gcEg8InTin9PHkds0Imh0zC5NxvODxsLaPh8rmmaA63T/c22pqj1/aQUR6pzOns8Pmpb2QW0LUdvQq/2hK6o7VOTHojlwuEH2HqyT3Vq9fUwzxB8JNBuDRhO5TmiE2dC2WTRWuU3E6aGg0ckHFtourRxZo0lBU5+Et7OgSWdvF8mM+dtkwvR18vr7HxtoNqYWjRsLj9ua4fd9J4vGAePnLGh+BmienSDPvzZTps7ZHELcxbJweRR58qQ9dZ8wT4NFE/Jo3HXCHDSLplLnL2/aUaHTHvlQ7Xss9B2Hv70fiJ+5SxlorOEV+kzRbkLbaDTHteYF0FBsB2jKj7VKVU0+0DDRMI06qUVz+pKcPntFKOzTyu18oFGL5tOkqDIGjVVuDw9v2/iWfGJwbuKeuk+ha59Gnr75i3gpQhY0DoGsngIstOVExmrJa9lEcEqAk7Fm+Du5VdohBA9o/pj2lsEqi12nXNCQQ5N2yaPqnd4+abLebU3WS0AzaBZNd59ZNA6amoZeK6isbs+AplZ7RhfvLQAaLScIFo2KwZZ57laNnzXCGeszGsiwiNPmHVWhVzARpxrZub9ORwO767T/CGODc0Pb3h5iOGhyNRoFDc3PGTW81yZV5oBm7QGtLcSiIfJLPxrmrDEFQS2aDGjivfw4gfOtQOMvJj7TjNq//v3vfy8Ll20WQPPTZ8fLc6/OSEAzbyk6za60Lw01T0wtSEBjzck9Yc/0GCwYAwwfoj7eUSmbdlYmM5s3FXFRLSJFVIoDPzvnKCrTGhYK5sj+TEFTrYtN23hi0RB1CqChnaNZNEw77FNhEb8fs7y790ywaC5o/sbpMw6aGypQcreljcG1G8GiATR3c8Vgt2gKhbe1P81v4zIEczHYmBxs0sR9SkCT9q4BNl5kSdqBWzUPhU1s3TiAMucsYACX/15zmSLQUNuk9U1EnAw0ps9Y6YGBxkPblB5g0eQKwXEODaCxFhEGGs8KJoem7+R5vTbtXaeFeV64TkwlILRtLSKsctstGlp1EhAgp2orGs2Oci26VdcpBBhwjWIh2AHjZwfNWizoABntrBeyglUI1pG8BhraQ5BDs9cjToCmvDWafsAsJ6yZTinVGefuOuUBjU+q3FsjW4urJQc0ayLQLLIBcozEffXdBSoGrysAGt/Ljws2Tx40z4yXZ1+epqXpNN5x0Fi3vf2ixZUKGsxQa4BFC4hc0ACRXNBgjm7eaYPP3JUCNDlg2V6m/rb53OHxjrKk4RWgSbKCD9RYv2AHTXmzNkhy0NQ29EhjS780t+E6paDpO3FOE8RIFHPQMJ4D3SAFzXCNxhP2nihoglXzvQGNdsnLBQ3un4e2Sdaj26BbNGhV2ofGQ9uhLectkvXygIYxyCcGDDSMz6H8ANBQuX1cW0QE0GiLCHedrPzAQbMlAxo0PgILowVNbo2TrVttSs7IXm3haQP1didCMDk0jFkZPWjSNhGt0aRKG+dCZvAw0HyyV2/uWDQEZcZPW6OTKok6rd2QajQOl/j8TwNN/CL8sY/W8K//93//N7FofvLMRzoWlyQhzaVZUqyCMKBBp9GplSoIo9NkQWMhbBWEVZcJ1kxRlWCObgE0YaqiwcasGhOQ7bFbOsCGitzNO7FmKmRbMW5TCprdB2tlX0mdNr1S1ykCzfH6LqlrTEFDEphaNH0k7J3TxZ1bVBmDxgoqEzH4rs3xRmvIuk6pTpNmBpvrlM+isQ2az6JJdBpAo7AJblQeiwYLJLFMInco6dqXsWKyz2fdr2EWjWcDZ6wZXD1zmXLdJqJNBpow/I6GVw4abSz+mQAapkySrMdUSRvYRtMryg88Kziq3C4Amv2HrYUnbjOg4cZjoCnT+V9YNDFoDDZ5XKeQP0PDq1if8YZXSdV21CvY3aZ0+kFLmE4Zxqxokp5ZNEfdouG5yg45XNEhzOJmBlSasOdi8LEENHRFoB0Lmfhoo+46jZu6Wl56e548G4GGvRt7Jb6XOT+Of49s0cQvwAHD2fvE8vi3v/2tLFi6SV0nQEOXvYkzN8ishUUa4jZBmLae+2TpKiYiWAMsPhhC3JawhyAcIk5B+KWT/KYiZk6noFHY8Lz+n4nEqYWTfk0He1ymLcXlFtYO+gxd1VhoCppDgKZBO68xXI4MUiwaMkprG3ulIVg0gIbZT+gACppBXCcTg9FoWPhu0XhW8DDQMB+KWdBR1CkFDXO80zyaWAxOyxDygCaIwQ6aWKtJrZq0yNKhwGTRfLDJPhdDJvm/yF1Kfp/nzuis8TBNMwINkElBY65gEnHKAQ3dBm2SAZ/TvdCHRkFz856BJuTQaHe9obj8wLvrWZ1TTlZwRbMcOtokMWi0u94w0KS5WR5VoqQldZfInwk5NDn6jN0g0RFZnwlo9h6XnfutKTkjgvdStX24WbJjcDXaVJWKwAoahU2HoNkUBA2u064UNKSM5APN2Cmr5cU358qzr0xLLBoHTT7Y/ENBEwMmflEOGJ9+yPk3v/lNDmhofsVg8VkLt1uIWzOEbaAcpQjL18SgsU57tO2MQQM81F0CMjvtwCRNj8z86GQeND9nfre37sSacbfJkvWOW0HloTrVZ4hIOGgQg4/XpaBpaTup9TOd3UMKGhqTcxelhaS7TlQSM1LVXKe0RYSGt1WjSdt4Pgpo0r406DPDQaOCcBR5snKEoNFoLg1ZwkE3Cc2wDA6Fo1AJUCJrJ/tcAhidKGkg09om76gX1TYBQYeMWTQOGpvq6RaNhbaHt4dgiJ+GtgHNNQa9EdpOs4LNoglZwVp+cFLqmnCdPFnP6pwMNPV63Yv3V8uOPdYiYmsx6wiLpkw2aGmLwSato4vgkiTphfadGt0MKRlY4DuxkKrEM4ITIVhzaEyfcdDENU5YLUcUNMxM75Qc0FTlAY2KwcF1ymg0eUEzeZUQCQY0a9bjOn2q+qrv5XywYc9/l3+jsmhGA5m49+xXX30l85ds1DwaLBqaX300dY36h+TSqE6znP7BNoubD4MRuUkDLM0OjkCz3cRgQKNgKT4mW6KDO0YKnCrZwvfp9/L9BiC+3rrTqnOp0GWWE5Ah4sQ8Jwttp6AprWyR8uo2jToBmrrG3kSjUYsmAc35AJrLmpmKKJkXNLctj4aISRzexn3yPJrUokldJ9wILJrcTnsmBKdisFkIDhoVXV18TdwnK0XIB5qs+6NfjwAWQIMVlAOYAJkYMDzW3JnwWoAMs7QdNCYAx6AhumY9aACN6jNfWrIen5P3oQHY3llPQXMe0FxRQZ5kPVIOsDjjZL00KzgUVKpFY6Bh1A5aHeuCJE6SOXNBQ/1cnoJdnlPYUOaC20QaBZnrFhFl7aWgoQ8NNU51svsgOTQpaGwMLlnBPgY3As2xRwDNPiuqRKNZu/Wo7qd8oPlw0kp5/vVZBpp12+Tu3fvqNmEkxLDJB5xvC5vvDBpeHJCxgfR/k7/97W/yq1/9ahhoxk5epTF8BQ0ZwoBmhfelschTQdAEfcZAQ5NnZu7Y4Y8NQBng6IU22HDRtzHuYleVhrQppDTQVMseHRxHDk0uaBLXKQZN+0lp037BWDRnNcJhFk0uaC5evpVr0dy+r3diB42LwTmg+ZU3Jh89aCyXZmTQuGVjEBhu0TxR0ATQ8RpGAxrACmRi0DygapvSg9DwKgc0l24Koe0UNOeFZD0HjSXr9Up1bWzREHVCDI5B4xZNhWwhgplYNNbOc1SgoeMACaas13CjS9ymoM8YaHIjToDmUFmraDPyinZ1jzxJD2tm1BbNQ0CDRjpjwVb5YNIKDW2rRROBhn3ssAEy/1DQZK0Zd5sgXwyZv/71r8Lxl7/8Rb744guZt3iDWjT/87Ql7b0/8ROZPm+r5tLMDaUIC1f4nKfQ1lOLK3GduLgh8qQXLg1pI/5y8fTYdUwb/Th0OLulo8/tsu8zP7lStu7CZUL9J5/hmOzcR0ZwOjguyaFBCK5slfLqds29IGJB9S9Rp5aOAQNNb8Z1GrqsRX1nzptFkwOaG0xA+DSA5jO5d+9zuX/fZngnrlPS9Co3Yc/zaApZNAlotNueJezFGo1bN7FG41ZNbJHkhU2UgJf9/9ii8d+XWDNRXZN20ksgY25TatFYM/KsPmNukyXq0ewKLctqnGxmE3oXKQNetc1nTlYwkT9ymoZnBZOs1y2V1dQ5UbndIiWl3pi8Ju0X7BaNgyYpa7HCXIWNu0sqAGPRWLcAIlPkcHlIO16nTD5wt6k4cpu0NURpi1DjRGhbZ20T0q7sULgYZLrk6DEOwtym2wzTaNx1UtAc07yyXItmj8xfWmxi8Pyt2sP72Vemq0Wzau1WuXP3vloyGAtZ2OTb/9/GqnmoRZP9Q1AuCxmsGADz5z9T0PeNfPbZZzJ30foENOTSvDt+ecgO3pGWIiyn2146udJmPB2W1bRODH2DrV6kUpV07hLJBdzFHYijOjkQwuyo1jP/r19j/ewya4aLbqCplmJE4OA2UbVNMSWjcFmIR6vawqiVLu01S61MY+sJBQ1hU1pEULhnGs1FbbiEIMndFdcJ0KAhuBgMaG7rIDmPOuWCJnWbUtCw4QANuoUdpmN4CUKi0+jUy1yrJgsbQJPCJlR0RzpNAhJcphEAE/8foEohw2P7vfa3iHR57kzaEgLIpKBxt8mGwfEeLX/GIk58JriV6jYRcUKfyQlte8SpQFZwR8gKbvSs4PakoDIGTfG+46rRbGeNqOtUHjrs0YKEIl8rzAU08aFNrrRxuRUCJ5AJLj43O8+fATRYMyTWeQ8aLTs42mo9aCpSt6m00qwY4FKmkHHQdGpezXcBzfT5W+Td8cvkmZenyTMvT5WVATQYDexjh03sQmUZ8NhBk/0DfJ0FjUMGwNAegsrtTz/9VOZ8vC4BDTrN22OXaNLe7EVFMmcx+TS0jLA5T9bWE50mFFdylyB/gexgapk06hS0FrdogMzu6nAcl227Ofia5wOA/P8VRqSAuzVTHayZ48LwMBL1aFJdcrRRDpc1mxAcg6ahR4vyMMPJyyARjDyNnv5zwXUCNFd0rpCC5pKDxpL1fFolPVTYLPRTIYLCBlKLJqcXjYPG3Idc0HgZQrpBE9iE/sFsYnNRLGkvtmjygiaBjesuI4MmtoKGg8aGvyloIo3IX49DJhc0uSKwj1dBn4lBYxnBJgQzUcKqtm8JOUsAnqbkdNYD/Li0pB+QFdwQ6pzoFcwwQB8eZ02vbKZT8b4a2bGn2obHFYeEPZ3rhFVtJSx0AEggw2M/AmjI+0pAg8uubjoznNLJlOo2RfkzDppDGWuGJD2DTKeUVXfJUY5jXZa8V9Uphys6Rw5vb6/QG3Ua3k4tmunztsjb45bIUy9OUdCsXlckd+9+qt4JHgn7+UlYNSNaNDFo3GeLrRleFC8OyAAYapx+97vfyZ07d2T2wrUBNOME0NBoZ8rsTWq+zVlcJLhP87VZ+V5ZvMoS96xlBH09jsgaBQ1d9gw0Zs2YBuNuk4OGyX96KGxoLhQmAjKsK1gwRZx3H5cde+0wa6ZGh4ftO1QvB44E0JQ3a69g9BkK8I7VdQvp62rRtJyQ1nZaRKSgQXxkKuIpBc01OXuexuQ3g0VzRycoJqHtABpETTQHIOOu03CLxiYA5IrBDhqrd4otG7JsfSP7xnbI+FlBEyq5Y0vEsoUdNFblbUDJ91z8/xmLxnNmsJ5GAI3n/iAGE65Pm13lNiOP82cQ0HMjTnfk4iVrD5GCxnJounvP6s2gOSTrJXVOx9uTplekMew/FECzv0Z27A2gCSFuzTLXmjkHjblIWs1Ne89wWJcAc/MphTFtxkoOWJ9mPcf1TWG8ioa1zW1SEZgm5GQBh+NoNZAx0ChsItAcqcwPGlqEYkXxOvAIFDSrD8iiFXs0AEMezdS5m+XNDxfJz5+fFFynHXLn7qcKFzwS9rNbNSPpNY9q1Xxr0PBieFG8OCwZhww5NLdu3coBzf88PU5rK2iKzJvFqskBzcr9mriXBQ1+pqr4SdQpBY26TdyFHDKcd3PYXUTPu4/rheZi6wXfA2QYf3pcSDunPcCeg3UCaPYfaZSSo03aEKkUfeZYu1Qe71TQsFDJLqWvSWv7YA5oEILRBtAI6FlLqBXQoB9w18WaATSEZNWiyYzD/aGCxuHG2cHnIPREPddmYtB42YFbM3w+QDkpplR9hmLKO/o583kPnb2i44g9tN0VgaY+zHM6VtelNw5uIDS9SkFTp2shFzTlQt7VRi3UzQVN0n5Ea6AiLXEbmeeWgkFgApfdQGNrLq1v8rKD0LqTsoPyML/JQ9oIwBFkHgU0aJQJaNYf1na5CWgW7VDQvP7+QvnpmAkKmpVrt8ut2/fUkmEfx7D5h4NmNNYMlgyQIbR99do1mTl/jVo0//3UOPnvp8ZqTxo6e6F8J6BZuivMeXKdJszi3kgo0WuePGnPXadwEWmLqFABJoQOw5nHChR7DrC4FcN55z7EPztI0ttbUif7DgOaJjmE21TeqkyLZwAAIABJREFUIqWVbSoEV9Z0arMkkvVYsICmpeNU4jqlyXoGGkLbOmpFCypvaS2Ou01oC7cjt+n+p+Y2PQw0uWKwWTSetJe1aNyqIYTsmzve8JYlbFpNQeuGMHVyZCyaqP+wf4/rMnoOOlBszThoUsh4RjDun1kzvJ9sNjCgIdqEEKwRJ9p33v1MoY0QfPlqmHwQhbYBDe5sV4/1CtYxK4CGeU61gMZcJ+9Fg7vMjcZqnbhBVcm23dzM6EkTIk/BqkkBY+BxlyrOBPb0C9VmdnvbTqyZWik+UCe7S+pz+88EfcZG36ZZwLhJwCU+EkFYewfjPrWriJxWb9fpGBdAQydKpAf6PC1bvV/3mIrBi3ZoKdCr786XnzwzXnWaFau2yfUbtxUweCV4J6NxoR6LRRO7TLEu425T1pqhiBLIfP311xravnjpksycv1Z7BgMZDnrSTJxuSXsGmp3J9MrFiSBckug0azY5aNBpaAkRg8YEYHOLYqDUSNEewFKjJfM79nGRc4/i/bVmyRwIkFFrpkEOlDapPlNa0SpHA2iYalitWcF9Ut98QpraBqS185S0dw9JV9/ZJCt4cOhSEnHyrGBaRFD0F4PG9Rk2DgWCQObbgSZXozFXxFpi+oZmhAmwoYBRjyifRjWUHHE41wVyiAw7R8l+qeuVgst+bxCAc3Jnskl6VnbglkxWBE7qm1wIpmKbHjQZIVhHrJy/HkWcDDQkU7Z1nNLrxQ2iNoCGKCL5UQj+jNTZfwRhllqnUFS5hwFvuD1Bp9GiXNwiehuFI9PzSDsD6EgVy5kxAdisarvB1Vo28ME6bXSVNCIP0Sb0maRSW7WZXMCUR8BR2GRAww2S5lm7DuQHzdIAGnLXqDWcOHO9vPz2XPkfSoNenipLVmyRy1euq1fCPsaqIbDjLpRbNex9DI4sG0YLnLyuU/aXjSQAQ0Fqm4DMr3/9aw1tnz13XmbMXWOgedosGhKEqBqlqAurZo4m7u3SjnvJVARtGXFIfUt0GvxMLa4Mza6SOwbirrpJbr2kMDELptYAwwLaT5JUenBBuIvRh2Q/2sxhIONuU4tCpqyqXehbAmgIbdM0qaH5hDAsHtB09FgOjVk0CMGXghB8XQw0t+RSqNx20LgQrPoM85wiyORWbmfLD3xaJZEntwCyoDHIeLc6g42Huh8dNClEcgE07PlYkwngcgvKLSqAZ3Ob3JIpVNtk+TMuArs+44l6gEZ70LgQHM9yCqFtrdpWIXhIWgGNjlnpywOaRo0wpqCxWidahjhoyCJPG2AF2ATIeNsROyMCo824W2+WNha23eTMmtFo06GGMPEg7Q+M22Q5M2bREGUCLuXHu+2o7paycBhougSNRgsry6h1KgwaOiLEoGHPfTRtjbzwxixBzgA0C5dukvMXrwiQwSthP+dzn544aLJuk1szUM+1GawZIPPll19qaHvw1JBMm71ah8f9dwANcftxU1bL9PlbtX8wdE11GuZx4z4dlOVrS6xlxMaQTxMiT16gZpmWATTqJmHB2F0DqGCm6rG/TsOJKP3FB6gv4c7FXcWOvVgyhxrkwOFGKSlt0gQuDWtjzUT6TE1Dn9Q1nZCGlpPS3J4FDVnBFtqmMfaZ8wYaCv0MNJQfeGc9EzNzQPP5r5Os4HTUShY0Htp2t8kgg5BqB20iRgJNsGyChRFbM/HjYRDJa72kIWxcpeTno6Q8d5VyQWOvzyNkuHxeqU0mcNZtAjKEtU2f+TJK1LP8mcvXbqvYDtSpLbPOepc0Akg00CNOjQE0NQ3dUsWYFbVoWk2jYdQKrhMWzYEAGiyaPWbR6MiVHUDE54vZOdsdQCGDtR3KYYh4ohtiWavLRG0T1gyD6g43ahGkVWuH/sAVgMZEYHOZAmAcNMe7pYyjutvyaapGAs1xjXbhARBMyQHNkmJtPEdW8JhXpst/PTVWnn5pisz/f2koZ85eVGMBgwGtNWvVABkHTdaqeWwWjVsz/CHMKAcN1IN+UJDaJrKBSdQjtN3bd0KmzFyp3fUcNM+8NFV4k4TXZi7cpmZc2trT82kyoNlkIW7t7+FCm+YmWFjbL2gOaBLrJQUNVgzHbjVf8ZPrZN+Retlf2iAHS5uCCIw206r5MyzIYzWdoZjS3CYWLeHSthyLBtBckoHTV+T02WsBNDe1ovjS1Tti85wAzQO5fYew9mcqauI2qUUTQPOwiJPn0eBq/PZ/RwaNj8l118k3vFsaCRxcT0lcqIdYLwl4vJThUUFjtVnAxkVg3pdF1bLd9DKgufe5iumI6nym1JB5Q3Irprws9AruPXFe0w7aQ2i7sYWCyl6paeiyXjQhvK1icAANqQ3kUpElXkS0Ep2GXJowciUBC8l4mpBn8PHnTQA2a0ZzZkI4W9ekajO1VnKANXMkjFXxJlcVbeo2eTibMDZASayZAJvHCRrGUxPa/q9ffihPvThZ5ixYK6dOn9M9jMHwqFbNYwcNkPFSA6wZD2m72+TWzL1796W9o1smTl+hyraLwb98fpJ8MPETTdrDfcKiwZSzSm4DzZJVB2TZGiyaEmGcJ1mX3qicO4e1hqD0wEGDJmMWTOoeBcAcwJIBMAzqsmPPwXrZW9Ig+w5xN0shoyJwhSXpARkNa2fcJvQZB01nzxnp6TsnfScuKGjIoTHQ3JBzF2/JxSu35fI1QHNPLZobtx7IrTtYNJY/4/oMd22OGDREXTxRj03okOEci8BmFVhxpWs0WX3GIcM5Ac03hJ7DkYENENJufHnOhQBlvyvM0tYIkw+Gy+8yFQpp874ZnMdnoW6T6zPaGuLzxG0CNOhfRPbIWTLQXNHroKDpOyMGGmt4VdfUa/OcgkVDHo2OWjlqFg1TKgFN8T6yd4lOWrsIb4ClTbBoMaK9jXCnqLvjbI8Td54boOZp2ZQDs2ZI0Asi8OFGA01ps7Z3sEzgNiueDEl5Kv4GuFQcp79xCh1znyyfhjB4LAZTCY7VjrtG/k4+i2b+EssMJs3kF89NlP/65VgFzfQ5q+TEwJAGcTAY2M9Z92mkvJonBpo4QQ8zixdGpOnzzz+XBw8eyJ07d6WpuV3GT10uP312gjhofkZ28EfLZOqcTcN0GpqVm04DaNJ53Og0cSmC5Sg4aMidCW4Td47IkgEuejhgSqgtscPM10Y5cARBsFlKyprlsEaaWjXHory6IwlrH9f8mX7hzkgEA79fk/UAjSbrkUNz2ZL1NLR9Q84noLkbQPOpOGhu3/1c7t43IfjTB9aUHNCwsdAmOLKgsdIDc58eBTSpRcPGtwPYJJABNqMETb7v8+ccYJzt7xhgHHq4dbkuU2hAHrWD8JIDF4H5TDTalBRSxvqMgeb8RWtITqQP0NsY3PMq0sed9ch/shYRXeoSU1qiw+OONlrPYLVoLOUhBzTFiLtYNiYMa5sRhUzUeiRkABPpIUNdk/M0EGHFk3qTY26UWzMOmbI2C2mHDnrmMkW6jEKmRyqOcwyHTX7QIAY7aMo1ahu7ToCGfsEvvzVXu16yL7Fsps1ZJf0nh1T6QGd19wlDAoPiYQl83xo0jyIEAxrXZ1LQ3JH6hmYZN3mp9gtGdPLI0+vvLRRmytC3lDlP2nFPCyx91hP5NAdluY/J3UQ2JuFEyxCmy96WnSloPMKU1WQSK4aLrAdjLej/wV2lUfaXNmqU6eDRZjlU1iJHKlo1pF0WrBlaPlbX9WiiHtEm3CaSv9RtIuIUsoL7T+YBzaVbcunKHbl8LQsawrOA5kshtA1oCN86aNyqYdO5ReOhbbdqzHVKk/XS8HZWo7HNbhaNAyCNBiWw+S6g+eaviZXksOHvmfgbvx5zmdwC4z1kZ2vnBQ2QSWY4PZAbt9FnyAjOBc3Q2Wuh4ZXP26az3mlpaTOLhtSE/KAJHfZKyKWyeiemYdAuAkHYKrm9IBfYcFjk089WQ8f3mi5DlHMHGqHqgsGKDuvO65pKFDJhOFwSZUphUlHTIxyV4aio8f/rCaJwlyb2DbdoItBsywOapbuE9JIxr85QIZgaxKdemiKz5q+Wk4NnFDQYDI8KGngxmn/Dok6jBQ2CkYe10Weob0KfuXXrtoFmyjL56ZiJ+qYADT4hItQHkz5JQEP0CZ2GHsIf66yn/bIkgOaTDTa90gbKIcRhqnKhEetMDM4HGoeMWjCHGvRuAmT2qRDXpIAhlO2QOUx4kZB2FbkzHULujEebyAj2sDZCcFvX6SjidF76By7KwOnUotEWnoDmqoGGjUEnuBu3zXVKLJo8oPnyS3Quc5scNKZfZMXg4aAZWQzOA5o8gHELZdTnABq3lrLWjL+m2JpxUDo4eX8OVtp2Jm4TuTMPTASO65ssfyaMwE2qtplOaeUHRAEZ6pdYNK2MWenVXChKEHCLuc6I/tQ6HWCAXMgOti571alWo7BhrVHE68DxyBLPG2BU/CUDmHopUikCZFiHSRe9I01y4GizFU+WtWv5gPUDxhXqlvKgyySAqU1BA3B4vvz4w0ATuU4OmnVEnQ5olwT22Tvjlgq9odiP1B/SYW/J8o1y9txF9UoI6GA4xGHuh1k0/zDQuBAMaO7du6dZwV1dvTJpxicqBscWDaUIr7w9T2P5QMZBM3/pLlm4nMgToAnNyjcckpWq01g+zTDQ7DJln3C2WzRc3Cxo9h1iiDqVuiys1JIpwZopb5EjlW1mzRzrkIrjnVqtfay2Jwlr17dY/owm6nWfls7eM9Ldf056T1yQ/gGE4Mty6sxVGToXh7bv6J3XQUNYNkej0WS9X6cWTVS57RvPrJk4tO1Rpx8GaHAJeY/+fj2sjYWn0SZAc89Gq1ijq1QI1qrtSzeFqm0bg3tZoY87mwWNuU496QSEABptExGD5gDrCFEY2Lhlc0xoLWKgSSFDqxGtpwtJebgsO/hZ3HfWoDYej1z1UkDDlIM2KSl30FCNHcTfatNjHgYaRGJ0nPyuUwoaGsZxg/YShDkfF2lRM50ubT+OEwY7vvTWHDl0pEKuXruuwZzvNWggIBYN+oyD5uLFi/LJmiJ5+a2ZSk7enAMHUZgRuVPmbLKWEQjCATS09kQQprXnivU0wmJwOjUmzGqyDGGsmlyLxsXgVPhN9BiHjKr9Zs2YJRMgE1ymo1XtUn6sUyqPE53oVrcJfaa2qV+L8praBywjWN2ms9LTb9aMRZy8PQSguSkXLptFc+X6XTX1tfwgZAXfSYopSdTDbSK68pV88cXXqs9wV/eNxyZMXSd3NyzqZJEnojfp8bvfp+5KNo8mtjrczUnP+bWarGWTfn/qgvFc6i5l3SYfDJe6Tu42xZDxYXmxNYM+420hyAbW/Jkb9zTiRNoA6QPnL92wPjTJGNyLqpsh1Ld3uuvk3fVs1Aoiv7aJqGDTN+mNRy0aDXGbTqOwwToh01xr5dBfgI31P7JqbNwry/xVyIScGQ0+oAsmhZO46WbN0EGvpLxNDlUwr8nC2UADa0aF35puqcSSqe2RKj16paq2V10oAGRWzehAgxhMk/Qlq/bJ5NkbdL9hyfg+RDt99e3ZsmL1Njk9dFbu3r2rEePvJWgQi2KNJrZobty4IVXV9Rqjf+H16fKTZyckoOHNQtY3PvhYheE5i3YoaGxUbtoIi457uE8JaLQ61jrtOWhSMdgiTRbCjkzWYMmQ1HSglN6szVJylMzQliAAtwmQKcOaqTbQ0Lekup6QaJ/UNZ+QhtYBaW4/Ja2duE1ntDKY6AZuEyFVrdo+d1VrnM6HYkrqcIiOYNHcoA+NFlMyyjVTtY1G88VX8nk+0Hz1XUATazSeuMc5FxIGj8KgKQQXA4xBJgsac5lyQ9kWzqYVRHacStqAHNDkiMChETnjaW6E8bdX0WcYGHfZ2kNoH5qhK3odbAwuFg3lB2HMCjO3m/pVa9MpldQPVbUL2d9EGg+i1x0mEskQOcsQJkuYau6dWCkaqjaoaDuSpEjXEkXNkrFkUc3VCpDZE93gzGWi8TgCMNoMiXkWPcJCQfBVPSaCC4DxA/CMFjRY99RYAZkFy4tl3JSV8uKbs7UUCOmCbGBu9O+OWyCr1+2UtvYuuXX7tkoeaKxoNBgO7OvRisHf2nVC2Il1Gs+j8fB2NurEC/Oo0/3799V1un79upw5c1ZKy45pnP6lN2fKz56bqPUVLgzT3vPNsYu19oIw94Llu8UaYVmBZTLrKbhP1jLCQWMFa+TRWL6CgyYIcPEdBcgE0OhICwapazezIABjzQTI4MdTra3WTGO/1DeflMbWQWluPy1tnUO6iLv7cJsCaJJiygg0hLYdNBRUqtv0QLBmFDQ0Jff2EA6aPK4Tlo1bNFgAHJYZTB5Nasn4Yywat2pMkM0HG9NrhgMEYTc9EIuHf08upExodismnEPioOsyac5MHGlKXaasNaOgeUBtE/rMFzllB0BbQaOh7VtylvYQScSJZD0vP3DQDFpmsBZVhg571Z1SXsWkyjYtN1Gd5jA6Tb1mipMxvpuUCIWNuVEaiYqy0M2CiUpc+F4gFUoMgIxGNg/bze1gWXYwHE2tzGVyyChU6nqlKntg0YTjYRYNN1lKchjdO3dxkbw1drE89cJk1WNIzlNN5pWpMm7yEtm0da+0d3TJ7du3tdMC+5YcuG8jBo9GCOZ7honBjwoaD297sh4v/tq1a3L58mU5e/as1NU3yceL18pLb81SmvKGXRxGs2Fi3uTZG7VlBDqNTkZApwmTEejkTt3Tui2pIJyGE0Nl7D5yZlyfwTcOpfhRglQKmTY5VEa1LNoM4iDaDC5Tl3ZhY9BYTWOwZlpOSlPboLR0nJa2rjPS2XtOuvrOS+/JC9I/eElOos+cpWqbMbg0JCfiZDk0jAJJyg/upqBJIk5MPyADNtOLxl2nFDTZnsFsWkvas0iOQcc3t1kUGQBo3dNwUfhhMIn/P3a/XPh1a8aFXz/7a0lBY66fAdMsNd4foPGQtpUc0OQKt8lAY26TzXBCCB4GGiJOGtoGNLhO582i6RpSV5fcJ0pHahv61B3GNS4/FkBTziQEs2ooQyFLfC9NqbTIkvC0aTZxQa7pMFbWkpS2BMjgLrn4u58WED6riRtb1AsYXYbEPNwlLBkgc6wuHPV9csyPOmaF95n7VNtb0HXaX9qsYOP1MOBu8qz1QovO//zFhxqAYY9xU3/utekycdpiOVByVE4ODArGAPuU/UoQhzy4OLztZQgPE4OfCGgelhmM+4S/h+sEaM6dOyenTp+Wzq5u2bJ9t3wwYaE889KUnPwaPoiX3pytYzoBDRqNz3rCfQI0q73AMjR+dtBYlbaJwcNA4wlSR3CZbEAXgOFgiLq2S6zqMLfpeJdUqjWDCNwrtY39idvU1D4oLZ2npb3bQNPTd14XdQqatPTA9JmQrEfE6eY91Rcw/9Wi0T40IbSNRvOtQGP1Th4uxqKJN/b3FzRpFrCLwIDGtRm0KnQrt2awaBw0lHEkoAmuExYNSZL5QNMOaNqtqFJB00gujQvCBpojtGc42iwl5LZg8bJegAWWCbA5EGDDzCc96JBndUtqwYTSAiqyyZPR8SmHcMWADEl59Joxl4lQ9GGdbEBDKwtXG2Ri0ESQATYPA01lu+o9CMxEu+YtLZI3PlioARjcJG7muEqIvi+/OUMWLl4j9Q1NMjA4KOfPn9f9yT5lv7Jv0VkJ7BTKDGbvexlC7PE8VtDE7lNcghCHuBGS8PNcEL569apcuHBBzpw5IwMDA9LW1iH7DhyReQvXyMtvTlfYABkPtRHff2/8Mu1XQ8c9IGOCMLOegiC81QRh6/fhTa0saU/LDHKEOEv3hvgo/vRlVUumnAredi1ko4uZu02mzfSoNYMIjNuEPtOEPtN1Wtp7Amj6DTQnTl2WgaErcurMtRBxyhWCryporPzgVqY9RJJDo/rMV5nMYMujKWzR5ILG652AjWcI//4PfxY//vDHvwhHfn0m1x2KLZjs49SiMc3H3TO3YjjHwHMQxgIw4ewYMh5pGl7bhNtk/YG9kBLQILB7xCkXNJdTi0YnVEYWTeiwpyNxaRVR3aEhblqBkNqAXndQG5U3asY4qRB7gAewOQhYgmuES6XrC7E3lLNoW05ytEJk80iz1jJZhMkgE1dmW5TJNJccSwao1PdJdX1/rkVT1ydVHC4Kh6gTJQmULZDxvmLdfhk35RN54fWZoS3LWKHsB8H3mZcny0dTFsmmLbs05eTkyZPqZbAv2Z/0jcJtYt9mhWC3aNjvMWSeWK0T9IpBQzpyVqdx9wnzCzPMrZpLly6ZVXPqlMKmo6NDjpRWyCert8j74xfIMy9PSbrwIRLjU77xAZ34NgrZwmrRbDwiq7TAkgpaA40PTbfGQjForBTfLrzXlYQGQ2rCtkopXear2uXosQ7tYGZuU7cQ0lYRGLep6YTUt5yUxrZBae4ANEMKmq6+c9Lj+oyC5qqcVtBQegBobmsODRvi6o37cv3mp1bnBGju07zpC0vWo3I7ZASzybirs+m4ww93nUyfcY3GK7h9I8egsY3u0acUNkDHYfPHqPNdFiYjfR27S+4yAZt8oPHXhotnoLH3AGTygiYIwUkR5b0saCxZjyTIi5dvC6J7DmhO0ZT8ol6bTppedQ+peI81SjEs1ffobuRHkcJQdgyXuV3dZ7LCSXVAxyMNgoOCWw4KcKmPsxIWs1rcejE3KcrPUsvZ11qLHKogPyvc1LQHcAhlk4iH8Iu7pHAxwACZ6oZwKHCATr9aNqrdBBcLrYab5/ptR2XWwi3yxvsL5JfPT9QbdmrFTJBX3p4psxesluLdB6WpqVkGBwfl9OnTuh/Zl27NEC3Ouk1ZITguqoytGR6P9t9DNZoYNPxBr3fy7npxYaVbNVDStRpC3Wg1WDUnTpyQnp4eqa2rly3bimXKzGXy6tuz5JcvWOgN0QorB6V83JRVMnfxDtVqHDTrtpbLhm0IwhZuJBJgSXuhFJ8WEAjB7jZhFmvatwtyCMC2yMrUmumykDaQqetNQROiTVgz6DOAhohTAppBIk6WqJfWOEWgISv4xn2NON300DagifrQeEZwIdDopgwznTzBzaI2uRYNmzoLm3jz2+Og2SSTLEdn4aRWDN+fa8moRZNH/OW18JrS5DyaWpkA7JDJ6jO4kNrkyoVgBY31nzGL5r5gISporgAaE4PddSL6F4OGa0WUkCRLBQ0D5AJo6JpIYiaRRqwakjXNqsHF5uYEbAAIlgoRKYBjmh/rKjnUTYoCDcE990Fwlp9lUwtc/C0nTO2Q0fXWp3A53nBC4kOhA3iSA6umR9cu4ffFK3fLB5OWa/X1f/7iA9ViuFGrFvPqNHlv3AJNxCs9WikdnZ269wAN+5D96NpMbM2425St3Ga/PzHQOKWcXlg0hawaXpjXPCEmpcWV9+TmzZty5cqVHBeqr69PYdPV1SVHyypk0dJ18taHc7XugsgUHxg+Jr4lncCmzd2kkyzRaWLQUIqg9SW7zaLRDvMRaDykrfVMhLS1AXSqzZA3k1gzdWbNHG/sl9qmE6rPqDUTwtroMx09Z8UiTgjBF1UIttC2VW1Te8Pd9tJVkvXuyTUFzQO5efszwXW6c/8LuRtAQ57Io4EmzqMx0Ji1YJt6OGjytY7IFYgBh1owoTFWLlRcOI5D47k/n8AsTMzEmrIImInV+UDj1pqKwOgzYa52blg7JOrd+0zQthLQXB8OGsoPSJbMC5qu02qNNrYO6PUENEQUtUm5WjW4UFgclhnusGG9YN2Q4OkWjp5DLhbrSteW18pRic36CrOZvC2na4BMmqQgEkuECBKukFoyDcCvX2oaT+QcxxuBjv2fwadfXSde16qNJfL+xKV6Y0bs5eDGjJtEyghazNSZS6W4eK+0t7dLb2+v9Pf3K2iQMHCZ2I/sSyQOtJmHWTOF3CZnxGjPeS0a/+EsaBw2Wasm1moIkXkEiiblmGj5YANocKUaG5tk154DMnPucnnhjan6gfHBARwKv0g0opny7I+3aUW3Nhgqrg41T/QItgruLGgoySdvJok2BeXfFwCNnwFNLAJrtEl7zwyY26SNrlwIPptTsZ1mBMegsajTMNDc+VxBA2yIqACaB0GfwaLBbcq6TrkWzT8XNK7HxGcHTa4uA2xGCZow5SBHn0nqm7yjHsl6D9QFvXr9/jCLxkHDtQD+pB0wAUFzaboDaNoGhOzuWoorA2wqaylgDC7UMVo1UNFNdAi9xqxghU0ClSDwIvJSvqKtRRww5GVZyoRFMsNcJuqYqjqlPIi/qSVjrpLDJAsavq5tQh88JXXNA/p60GE+nLRcq63/++mx8l9PmdgLZGgy/ssXJsqHE+bLug3b5Vh1jXR2dgr7i5s6nkQMGfYj+xKJw0PacdlBrM24NeOGhvOA86P+GxVo+MX+xzCjoBwvItZqcKGokcAEi12ofLDBjIO0uFF8KMDmaFmlRqamz8KdmqnUpq+pD6B7/vWZ8t6EZTJr4TYN45G0t31PrbaJ0FYRzMzx+pKkrsmiTW7Oov7TzQx9BhE4tmiO1/dJEm1qMdC0tJ+W1s6hNOLkQnDoQcPd1Fyn66obJBbNdbNort9Co8EFYOMwaTGAxgsqgc2XX+ud/ctfDx+zAmxibcb1GbdmPMydtWjY/A4CP3s1dQyLWCgebtGk1kzuz/hcJtOCHg9oiDj9SvOLtD+wtu5EDI5BEywaNJqLt+Ts+ZuaR8M1sFqnKJcGQVh1GiJPg9LQelKzvEnCrCb6xDA5Hb+CCxX0GnWjSKpjzhKutoFEo0e4RWq5UIRrhbiai4WVrDcw7yuDlWSzmOiUZ71lEH8tR8YFX4VMZMkAFqACXOpbBtWCQRdasmq3jJuyQl58c5a6RZoWotGk8WrxP/PSZHl33FxZvnKTHCgplbq6Br15Axj2F/ssH2SyLhP71ltDULGNAMz+LmTNPFHQOGxi0HgEKu5PQ3gMF8oLLXlTDhuUbtdsTp06JajgmHfd3d3BummUgyWlsnqGlKt9AAAgAElEQVTddpk6a7m89s5M+cXzEzVMp1mNL0zW+oyxk1fK3CU7NGsY4Ozc5+UHIYcmaDQa1vYmQ27RRKBhsbHoPBM4J9rUZvpMm+ozZ02f6b+g0Q1vdmWguS5nzt9Q3YA+NOo6FQQNFclsqLQEIQuaX4Xq7V8XLEHIrXXKp9F44p5DJj7nQoOIVAoU12Gy5/hn4t/F49RlMtfJIeh6EqB0jSbHdfK5TUGfSUHjyXoxaKhzGu460dEwn07DFISO7lSnaWwz94kbiVk1Bht3o9BsyKdCvyNKRLNwLByLSpm14mBB07H/t1wsvl9vXsksJisr0KzfoMlUuvCrLtEJwT2qCXABLAAG2AAp8naWrt4j46etMsCModUKRclj5SfPjtfjuVenynsfLZD5i9ZK0c59cqz6uLR3dOiNG8iwr9hfrsmw79ySYT96OJt96uHsrAAMZGLQsP/j47FaNPyy+Jfngw1WjVs2Wb0G2BA680gUviFCFKo3sfyhoSGlrls3AAcrp7GpSfYfPCzLV22ScZMXyStBMMbCwZ362ZgJ8uKbc2T89NWycPkuLSAjAkUujUec9kX5M27RaBRA7zidajpX1tDiMUSbGvr0rke0ycsONFEPfaY3gObEBekbuCgW2qaFpIW2z1y4OQw0LgZzV6Zq2ywaWkQAGgoHrdaJ8gNg8+WvzKIBNAobQBM26df0btFplcOF4HygycIg/trroAweBpr8sEn/b/SgcbfJyw2CEByFtWMhWMsOckDjWcFf6ueVWjT35UoCmjtRCQK5NNc1lyZ1ny6oloYgzE2CqCFWDdeVkhLcY24sx+p6Is0GOGCJpMAxodhyrmxKAVaLFeAqkMKMbB/0Vh71+qW1Q6LJ8LeILgGZYMXUNg9IXcuA1Daf1KgSkVDKHZas2iPjpq7U5Dp0yv/4+fsKGVwkbrjPvTZN3vpgrsyat1K2bNstVVXV6iJxs3Y9BiuGfcX+Yp+x39h3RILZh+xH9mWcnOcCMPs4nzWTZcCjQobvH9F1ygcah40TL59eE4vDuFH4goTReLPE7slKRLdx64awGxR2odiB09bWLkdKy2TR0jXy7rj58vxr0+WXL06Wnz4zXgVjSE8v4vcmLJf5y3bqVEu0mn2HQmhbK2bDyNFg0Zg41ykVwZphweVYNIS1Q9lBMxnBChrLCO45eTEXNGevydD5G3I2Ac0duXSVfA+iJBZ1ikFzj140D34ln34GaCiopJvc1/LFl6lGkwMahU3IDA5jcU1kTTe0gSZf0p6HudNzfvfJRV7Lt0ndKX8+9xxDyy0ad59SfaYwaDwbOE3Us548gFeLKR/8Snv2AOYYNB51wmLEcvQQN1XziPLmPl3UrO2e/gtiYe4z0toxpLVqiMIxbLBsyK0hrYFCWrKGqXfziJRaOFUd1gEvWMGASGHE3KVwaGFk6IZnxZEu+qbhaxN9cd+ovTop9c0DUtt4QtMsaKxFmPqVd6whFXD5j59/oBqlAWaSTpR87Z1ZgqywdXuxRm25Ift+4YwWwz5yK4b9xT5jv7Hv2H/sQ/ZjFjJZXWYkS4b9/23+fWvQuAvFi3K9xkPebtlglqHZuECMyeauFJTFpCODGDWcD8jdqdjCQcNpbWtXDWf1uq3y0eQFMubVKSqCWbHmR3pRIP5rRKnmbJDVGw+pXkO1LOKvmcPkTbgPjT4TrJk6Flyqz2j+TABNS+dQQdAMDpk+k4KGquI7cjmAxqJO1h4itWjorhdAo5XbX8tnatH8RrwfTQKaUOvkOo27IKbT5IImf3ZwChiHw/cSNN6IPHTVw7W0Oqcv5NZdWng+ELQuQKNNr7R620Pc6DS4T6lO03/yovT2X9BSESKF7V24UAE2KgybZYOb7LAhtSEHOJQq0L/XW2ySCuGHDnazCZIeTMAyVuuYkgJ3k0KOTE0DUUw0v1N6VNf1aREn+suHk1bImFemaYIdqR2aB/P0OHWPfvbcJNVl3np/tmb17t1XIs3NLdLZ2aVSAxYM6SIAxt0k9hH7iX3F/kKycFfJhV8PY2MMsE8dMlgzsS7D/kaXzVozTww0+ayarDAMbDC5eLH5YOOFl+5KeUsJcm3wHbPAgcyedwN0IHZHR6c0NDYJuQGbt+2WWfM+kbc+mCMIYkSp8F9/9uwEzS149Z158tHUlTJ/aZHOTkZYO1xOlXYoyQ93INwm6kyO1/cHIfikNAQhGGvGhOCzWuPU3X9esGjoQXPy1BUx0FxPLBqS9QCNWzRJePtOCG8HMdgak9OLhjonA41aNGrV4D5RAzS8y14MmhzY6EQBs2gsMzhXCB4ZLrG1Mtyica0mdp20+XnIn3GLxgs7OefTaDSCFnrPpBbNb9RlJOrEYcPifq0gzgHNnc8UNNduuk6DRXNHzl+6LWcv3FJ9LNFpBi/LiQGalF8QrldX7zlp7z6rdWqUJDAuJ7ZsgA0C8XEViWmQRVKfWzjxWiHRzyKU5hbhGnGjskRPIGX1SrhIfRquNnF3UC0YoLVrf618sm6/TJ2zXt4e+7G6Rz9/LugvQObpj7TLATllL705XSZMXSQrVm2V/QdKpaa2XtqicDXWPy6SJ+DFgGE/sa8IX7PP3FXiZu/RJSDjmgz71V0m91IcMvlA822sGX7moRaN/+Is2WLY8MLchXLYxAIxqjbZw5hsmG7E7mPtxoGDPxlbOK7h8MFCbw5I3tzSImVllbJ9x35ZvHyTTJi6RCNVv3h+QsgrGK9h8hffmCXvjl8q0+ZulKWr92o7RvIjcJ9I6yYhSs1a7jpkA0dlB5qo10minukz3f0XpPfkRTkxeFmnHqDPoA8gBGddJ0KxCWjiPBrvFxwyg0lUM9fJ3aeg0yQZwmmrCEDjAmsh0LgL87sIBA6GHFiEWUu5z+WCxlyoGES5j91KyhWD3dJKw/EuBAObRJ8JOTTuPhlovlKXEouPdqekAmAJ3rzDdMpPtck77qhZNXc1C5tG8FbFzRA5rJorcnKQcoQUNhTCKmw6KUsgie+UusZYrlxvrjsicQ0ailohBhzAwRpR8AAfhQkWi1ktarmEJE9AVaP5VwPqHlXX92mODmUM67YckflLivTG98rbc9Pk1F9aqQC6I8B5/rVpKg+Qzbtu4w45eOioRpG6urt13bMHHDDsC+oIkR7YL+wbB0ysxbDPYlfJo0sOGfaqQyZrzWT3+7e1ZJwfowaN/0D8Ahw2nN2VioEDbDDNsq5UDBzcKUQqCAxwXDDmA+SDRNQiRAe9oTiWjn/gWDr19Y2y/8ARLWuYMnO5vDNuvrz45oyQlj1OzVJycegmNnbKJ7Jg6Q5Zt/WIVucSwuRuwwLDb0abIRsYa0bdpi5L1KNi20BzKQ9oSIcPYvBlt2gyCXtxeDsetRLu5mw4ktcSQVhD3Vg1uaCJYeOWg4W4cyu4vx1ockEyGtBYa4pUH0o1mlzQOGxi0CR1Tkw9YPztF1/Jp5+bRZNWb6PTfC43b5n7BLzJUcI9xaqxvjR02vMCS5L3rkj/wGW9KfSccBcK2OBCnZGWjiG9xiRkYr1y3eua0U8ADslyZuGYlYNwbFYKOp4frBduUHy//0xlXbfChSkbTE5YsooevWsE65r1R9QI7YUzOWIq7r46TV5/b458NHmxLFi8TrZu3y0VldXqHuEOsd79YP2zD9gP7AvXYNgvbsGwjzwJzwGDFYOEEbtK7MssYGJdJmvJ+N7/LufvBBqHjoMmH2wwzfJZN+5OuYUTAwff0kXj2K2C4mg5fOh+ITjzNfBpaGyUnbv3a7bx2IkLVTymZJ7UbPzf//yliWzPvTZDPpi4TOYt2S5MGyQBq6qmRxddUzuJXgaa9p5z0tF7Xrpwm4g4ncyA5tx1IeKUA5oriMGAxqYfkEdzG9Dc/ULv0myi++SM0LIyC5qQS5PWPBUAjdYQufVAdrBn5f5J/lczdYM+80fLecmNNGWBMtLXbuXY9/ye2qY/fmOHhrbzh7djy8shg0Xj+hM5Qwaa4D5R6xTcJywaA41FnrBqbqlOQ+LeA8FaBDaIwoDGyhFuqgt76uw1s2oUNpcS2HT2nVf3F8umteuM3kToMdSEbtJ6Shpa0qgUkSmzcgwiCpMmMsbtqOEcMsiBE5YOkzS2FJfLwmVFmlj3/Osz5CfPjJP/+/P35f/+7H0LTavlMlFde3SZN9+fK9NnL5f1G4uksuqY6i6sYw7g4uua9c66j90jF3nZJ9ygs4BxNwkvImvFxK5S1orJAsb393cBjP/sYwMNL5LD/TzObt04bNy68eQ+PgiAE1s4uFT4lohYmIFu5fDhOnTc0uEiYEY6eLB2BgYGpaenV+rqG2Xv/kOyaMka+XDCAnnhdQOONkwnTK4Vrgw6nyqvvzdfpsxapz70noO16m9j0XSfuCi9A5elT49Lej4xSIQjrdpW0FxkwTPU7I5cDqDBzL9+y0oQVAwGNPcsYS8GjcLGLZo8oCGfhs3qh27ikUCjbSO+EbVqvkeg4X04aFynUdhQhhCBhogcKQBE6NBqblPFffczbfAOaAB4Guo2Udhrn2iEhUurLlRi2VyS7mDZdPael/aesyrwq0DccTqxbtTCCZEpi06dlPoWkuisgp9WIRRpAhxC4bsP1sqqjQdk+vyN8taHH2uB8E9DNwITdsdp/hfrTSupX5osb7xrkaMNm3ao5dLe0SknTw7kgAWrBbC45eLiLuvfrRf2BfvDNZjYRWI/xYBxwZebPfswDl/7XvW962DJnh0W3+X8yKDhj2VfCF/7i8Wq8SOGTVa74QMoBBxEY1Ryt3I8UoWVw4edhQ60d2vH4QN0enr7pLW1XSqP1crufYdl5ZptMm32cnn7w7nyrIrI43URUGPF1D5K7Vk0E2eQn7ND1m89rBECRD8WJsA5dcYE4DPnzZJBkAQyFy4jUtJq0i0aQPOp3IgygxPQRJGnHNCECm42IpsSV2N41CnVasxtylg0Dpqk455VcefqMakVg+Bb6P/i573thGszfs7VaEwMBoZf+0FBZaYRub4/rBqvd0pAk+o0btmg1Vj0Ca3GyhHUhaJlxFW0GhOGqZ7HhRo6e11ODQGbq3LCLZuBS9Jz4qK6v7jB5EWpbqPu1JBZOOg3wZJ1qwf4kHdDPdTOfcdk9caDMnfxNhk/baW89eFCeeGNmbpuaObmJTNoLlp79PwkefHN6YJlvXDxetmyba8cKa3Sdg1dXT1qgXOTdIsFsLCOXXfhpupwYd17BMmtF/YH+yR2kbKAcS1mJCuGvcrezbenee5x/ftWoPE/nu/FZYHjsHHrBuC4dsMH4foNJh6+JET2kLi7VTF0MBWzlg5iGD4rCUpu7XDh/OAu0dfXL80tbVJeWS179h2R1et3ytyFa2Xc5MXy+nuz5ZmXJmm7QxbJL16YLLhXWDpjp6yQmQso7NyjY1JLjjZqEyWaKyEMD50jK5hmV/fk6g3CsJ/KtZuIl+Y6ARoEzdtakUwZgiXt3Sdpj2ZPIfqU6DRhA44ONCTwpaAxzQR3Jj0cCNYqYnRQiQHjj1PQePsJc8/4W7hreoSok4LmNyTr+RHad7ogHJISc0FDz2BrfkU+DVafu1C375pWQ16Nw8byanChaB3hUagUNoNYNkPAhjoorFJzpRD0cYPR3NTS6b8guMhYsFgw3FQOV7TK7gM1smF7qWotM+ZtkA8nLZPX3psnz746LZruYfV4wIXpjy++MV3eGTtPJs9YLouWb5bN2/ZKyeFyqa1rlO7uHnWHHCi+NlmvrFvWL+vY4YIlzzqPXSP2gVsvuEfsE/YL+4b94zoM+wrvIavF5HOVCkHG9/jjOn8n0PiLGAk4vJFYu3HguDvl+o1bOHxYfHDuVhWCTuxeuaaD8u7WDhfOBWXuFH634KJyFwE8uFf7Dx6RDZuLZeGSDTJpxgp576OFmon87MtT5CfPfiQUsRE6Z6rfK+/Ok4+mrJB5i7fK2k0lwiwgJh/WNvXqvCdKE06fu64REZL2cJ3YHJoV/KmVH+AWABlN2gtTECyXJq150rqnuBQhWAW4Tz4a16ujPYEPIda1Gos+pbABBgDHoTHSubCF43k5Dpo/J0Dzv+vhbddockCTsWpcGEYEtyruABodtxKS9zSnxrWaEIUKeTVYNVZoGcOGpuUBNgjE564Luo1C5zTTLK1BVnffec0aJtSNwEsW8J6SWtm8o0xvKLMXbpZxU1coWJ5+aYpGMv+TTF3aYz5FU6nxmlYBWN54b658MGGRTJ21Upau3CJbi/ZKaVml5n6htThI/CboX8cuEevWrZbYLcKiLwQX9oeLvHgG7B+3YLJuUgwYNwT+UYBxRjwx0Dh8/I1l3SnefOxOjWTlOHTQciA5JiNkd0sH6Hjkyq0dLhwXkLuEWzwxeLjgwAgTlUXAosDiIay4dv02mbNglbw3HujMludenSZPvzg5aZOodSfPfKRm88tvz5GPpq6QeUu2yLrNB2XfoVodWkaDLDQDGpUjZipsgjVjJQg2asVLECzq9Bt1J1zLQNfQmqcc0ISIDhMf9TBR2EADbGwedxY2ZtkMd6M8VyZ7Hg4jL6Z8OGjiiJhZN1G9U7BqHDRE2jjIJUq0Gs2c/rXce/BrrQ3TcPc9A41mC2tuzQO1HFUcTsoTfELCLRXpSaZU2Jy5qvlPpCo0tQ7qyOM9B2pkzcaDetPg+pGZq32Rnhkn//GLD1TIBS64RD9/Poi4r05X9/q1d2fLpOlLZeHitbJ5a7GUlVdpu1pcIbdMOLPGOFh3/jxr0cGStVpYxzFcWOesd9a9ay8jWS8OGPYV+ysGjLtIhQDzON0kh0t8/oeBJgaOi1D+YcTJfnxYMXSgNVZO1tKJoePgQUiOdR3MTqwdLqjrOw4fAMPF54jvNiyMc+fOy8DAKWlt75TKYzWyo3i/LFm+XqbMWKL6zpiXgQ4FbhPkp2MmqOin4vIYEganajHcOx8tkhnzN8jKdXulaHe5HC5rlPrmPuk9eV6jJYRt0SHYZFgqBTfnb/8gX6F3IAiHeie1GP4VQZOxagCqRaA8CmWhbo1AaUkC4W477ml+jbmegMePO5pz86W6p3Q2xKIhp4bq7eq6bjlwuE427zwqy1bvllkLNsnYScvl1XfmahDgZyTMhXYkAIVOASrejpkoP3/O2i88/9pU+WD8ApkxZ5msWrtV9h0oNVeop1eGzpyVCxfM9WENOVBYU6wvhwq6IuuPdeiRInRH11tYt9w4WceF4OJ7gP0Qu0YxXFzodcCwz2LA+B50IyB7jsHwuB8/FtD4i8q+8OzX/kY5uzsVazh8QFno4Gty8OE6dFzPcUsH98ojVw4drB2PYLmb5fqOw4cFAHhwtzjc+nELCOicPXtOBk+dlt6+E9La1iXVxxvlwKEK2bx9nyxZsVkbDRHVev3dWTLmFQMQ8EHneeblaar1vPTWbHn9/fnywcSlMnHGKpm1YKMs/mSnrN9SIrv2HZOjlc0KIWZ6D56+rG0Q0Hho1P05o3IRhYHR7/6ovYC1pcM3f5U/Jv2AXXsx9yjVZSJ3Sdt5+vdRse3NrbLn4dXcsXWTajWpRmPWUxRiz2QIO0TVAnNoRpG0FKLmGqqQ/Jvfax7RF1/+Vj797Cu5++mX6oZSxU2SHh31GBRX39Qn5cfaZO+hGtlcdESWrd4luD4I+u9PWKqtLmmzQJoDs6bJaaGpGlrc/9CGJBQsEpWknm78lI/Vml25drsUFZfIoSNVUlvXLB1dPXLi5ICcHiIqZM29WSe+djizljg8OsQ6c53Fo0SsRdalu0SsVxd0XXNxt8h1lxgurr1kBV6/aftNPAuY7F7Mfu17+EmdHytoeJHZN5D9OoZNFjj+IfGhYf65a+V6jgMHfzTWdLggWejEFo+7WW7xuKvFxc8HHwdQvHB4jsXEXevM2bO66JiNU1PbKEfLj8ue/Udl09Z9snzVdpm3aINMnrlc3h8/X954b7amlI95laZeE1U0ZLETVgdAb374sQJo0szVMvvjzQqglev3ycZth6Rod4XsK6mR0oomOVbbKY2tJ6Szd0hOnrqo42Dpf8PGo10ooWDS+HHBvvrN77SVprtR7jYBJusLbDOcvvnz3+XPf/m7/OWv6fmvf+Ozt4PHdvxd/vq3v8tf/2rfy/f/5S/2M3/+y9/CTKgUWH/4Q65+A2iADECJM4RxlbDqcIcoMbh89bacu3hDTp0h6e6CtHedUgBXVLdJSWm97NpfJZt3lMrqjftlycpimbtoq0ybs05dVyzIV9+dK+SwoKf5HDGsFHS2Xzw3Xp57dar20n177DwZN2mRTJ39iSxculFWrtsh23YclIOHK6WiqlYaGluFyNDA4CkNKGChcP3dKuZxfLilEkMFa8VdoSxY3B1ijcZwicHiazy2XtgHDhh3j3zP+DkLGPZYdg/6108KKvl+72MHTfaP+JvKnmPg8OHEBx+aE9otnCx0YvcqCx0Xk4EPF9ItHi4wd4+s1YO7lXW5WDSx3hMvLF90fsdiAbIYudORF9Ha1iFVx2pk/8FSKdp5QDZs3i3LVm6T2QvWyuQZK2TspCXyzrgFgq/PnfTZlyfLUy9O0gOdgGbTnGneTgj1jffmywcTsIZWqzW0cPl2+WTtXtm47bC6ZXsPHpdDZQ1SXt0qNQ1d0tR2Qtq7T0l33xlh8D1gGhy6LGfOXdNRshcv35KLl27J1WuMhCE6Zsetuw+SDoBEfjz6QwTo/mdUnttxj7OK2wi1n+vPX7tJkmIYW3uF0oDrcu7C9TDkjcgPA97ofscwvkF9jXVN1BW1y6GyRuE9AFbeE6BdtGKHzF64USbPXK3JlTThpvmZWyUIsj8Jo5Z/+ixtFCaoQEsqP6OY33h/rrz70UIZN3mpTJ65QuZ9vF6Wr9omG7fslZ27S+RgyVE5drxOB6kBFKxXbiR+3d3qdbhw5nBdJQsVX0NZqLDeHCy+FlmX+awW1nEMFneLYrhk3aN432Qhk91z/nV2j/4jvn7ioInfhL/R7DmGjls5fGhO6Rg6WfBwMfJBx90sfNt8rtZo4MMdKZ/1wyKLF6IvQBahL0S/o2ExYRmxkBELye2pb2jWaRDbd+yVT1ZvlCUrNsj8Retk2uyVMnbSIrWCXnx9uox5Zao8/fJUbY1BdjN9eGgdQE8eDjYbzxFaBUxPv4S7NlXdBGZlsTnfGbdIxk1Zri7b9LnrZM6izTJ/yVaZt2SrLF1ZLKvW75XVG/bpsW7zftm686hueDZ97lGuUNu+q1w4isJ5y45SWbNxv/4efteKtXtk8Sc7ZO7iLTJv8RaZtXCjTJ29VsZP/UQtNwoKEV6xPJ59eaoK6lh4vD/cGd4fCW803UaM5WtcHb4HSwV3lMza51+dLi+9MUPeeG+OjJu0WKbP+UQ/w6UrNsnK1ZtlW9EeOXS4TGcZ9fb1y9CZM6rFcZPAkvUbS3wt/fpx9ptIFii+Jvj50UAln4jLmmR9chSCi1v0rPcsXNgXDpjs3snuLf863of/jMffC9D4hxF/aP5B+tmhw9k/fD+7tePQicHDHcL1HYdPDJ6sy8XdJ5/l45pP7H7FEIrdMBanHyxYhxIL2O6Q3B1vy029S96Wq1evyfnzF+XUqSHp7T8pHZ090tDUqmY84uOWbXtk5ZrN8vGSNTJ73nKZNmuJTJmxTMZPWSzvj18ob74/R2dljXllivx8zEfy02eYJmFjUPXOz91f9Qjr0MZzbGo72OC2yfXrMSZwuyjqZzZ7viP5PfpzE1UcT57Tqnoq6626Xs8ktPG9PEfFMukDT4+Vp1+cKC+8Nk3ou0L3OOp/Js9YJtNmLZVZc5fJwiVrtJ5t09ZdsnvfEXVX6xtapKOzW3p7T8jgIM2e6PBPqPi2zpS+fZuIn8Hf4eHXwwHiZ64fh98guLYOEwdKVlfxtZJ1gfJZK6w9X4tZq4X16laLr2k/x+ve94Kf4/3ie6jQ+Z8Bl/hv/kNB43+40IeRfd4/SP9g/Rx/+Flrhwvk4OHiOXxc3+Eiu//r4MlaPW7aevKg6z0OoNj9ivUfhxAL1O98LFwOX8jx2f/PdaIURHQipDnYVblw8ZKcPXdeIxyAaGDgtPT1D0hXzwlpa++RxuYOqalrkYpjdVJaVi0HSspl34Ey2bX3iGwvLpGtOw7Khi17ZM2GYlm5tkiWrdwiHy9dLwuXrJdZ81dqvc20WWzo3GPy9CUybtJ8+XDCPPlg/Fz5MHOMnTBPxk9eqGI4NTvZn+e5uQtX699ZsmKTfLJmu6xZXyzrN+2WLUUHpKj4kBTvOaKvdf/BcjlcekzKK2uluqZZGpra9b11dffrex0YPC2nTp/Rz+Dc+Qv6mfDZXAtp+cDbLRCHhX+2fo6f92vDdcrChOvpESCus7s+XPt8QMlCxa0VX2MOFxdxHSr5wOJrOV7fvub97Hsiu1cKfe177p99/qeAJn7ThT6g7PP+AXP2D52zXxS/SH524LgJyoXNgieGjwMohk8MoFj3cQC5++Ug8oWJBuQ6UBZEDiNf7Jx9M3D25+PH2Q3B1/w/gGKD4Q6gLxBSRay+fJkRNxcVUGfOMJaYaaGnpP/EgEbPOrt6haOltVOaWzqkqbl92IFFVVvXpGL38ZpGyR6I4HX1zdLY1Ka/I/49PG5uARZd+nd6evqlv5+q+1MyeGpIhobO6mvjNfJaOXjtvAfeC++J98Z75L3G1qR/fjzvn1WhM9/D9/vhFomDxCM+DhOuo8OEa+tuj8MkzmFhbcRQcaBwZl0VAouvR9anr1U/+1qO13e87rN7otDX8f76vjz+p4Mm/iAKfXDx8/EHHz/2i+MXi7NfQM5uivqFzmf15HO5/M4EgPxwALkLloVQIRC5qc3CdhhlgcRmKLSxspuLrx92xJvMf7dvuPg1xI99Izo4C53jn8n3mN/jR/y3/TVxftjrz/5//LPx7/TXHL8OB4h/7vlAUggmcQTIr7uvhSxU3GrOWiu+1nztxRN0JYIAAAQTSURBVOsxXqe+duP1HD+O13+hx/E++j4+/l6BJvsBFfpQs8/HF8Uf+8Xj7Bc1vtAxfGLrxy2ffNaP36nihcbi84Xod7l8IMoHoxhIWevINwfneKPHG8k3sZ/jjcfjeFPGj7Ob90l+Hf/d+HH2tfp78HP8PuP3H38uPM7Cwy0RPtt8EHGrxEHi18yvIdczvr5+zf3sUInXSRYo38Za8XWbXduFvs7ule/71z8I0MQXwy8Y5xg2/tih4+cYPn7nicHjiyheWKOBkN/9/OwLmbMv7kJAiqEU60W+eQoByjcd5+yGjL+ON+6Tfhz/3ezj+PX6Y0DhR/x+Y2j4Z8LnFIMDeBQCCJ+7Xws/O1AcIn7OBxOuua8FP8frJV5Hvrb87GsvPsfrNF6/o338fQdL9vV9r0GTfbGjvQh8X3wh48fxxY4f+6Lwc7xw4gXlj32x+bkQiHzR+iL2xe1nX/ScYxj54xhK/tg3lJ99w+U7+6bMd85u5Mf5db6/58/le53+nL8nP/t7js/+2fg5/gx57J+tn/2z92vh5+w182vpZ7/W8TleF75W/Byvp/hxvP7ix4+ynrN74V/t638p0GQ/3Ee5UP698YWOH8cLg8e+ePwcLzB/HC9AHvsCzZ6zC5qvfbH72TdD9uybJT5nN1YhSLER4w36qI99s+c7P+rvir/fAZE953tf8fv2x9nPyD/D7Dnf5569Nv519lr6NY7Pvhb8nF0z8XqKH/vae5Rzdq3/q3/9Lw2afB/+o1zM+HvjhZF9nF1Q+UDE4osXZfw4u4gLQSnfxsgHpeyGym687Ne+Qb8P5+xry36dfW/Zr/N9Rg6L7Dnf5x5fl/ixwyM+57vu2bURfx2vp0d5nG8d/9Ce+8GBptAFepQLn+974wWV73G+RVkISCNByRd/vk3iz2U31MO+zrc5/1nPPey1Zv/f33O+s39Whc4xNOLHha5VvusaP5dvXTzKc4XW5r/D8z+CJjNTuNDCiRfcSI8LLeJ8z8eLP9/jQhsofj7fBnyU57Ib+3F8/Sh/P9/3xu+v0ON8n1f8XL7Pu9BzI13P+P8KrY3RPv/vAJRC7/HfBjSFPoDRLpLRfF+8KEf7uNDiH83z8cb6No8LbeLH8fy3eT3xz4zm/Rf6ntF+9vH3jeb6jvZ7Cq21f+fn/+1B87CLP9rF9ajfFy/y7/K40GYb7fPx5n5cj0f7twt933f5POKffdRrMtrvf9ia+fH/h38CP4Jm+GfySM+MdnE+zu+LN9MP/fHj/NxG+7seaQH8+M2j+gR+BM2oPqbv/k2jXeQ/ft//V7BR03f9bL77VfzxN3zbT+BH0HzbT+4Rf+67bpIff/67A+gRL9mP3/4YP4EfQfMYP8wn/av+nWHzpD/bH3//k/0E/n/1x2e7IPICpAAAAABJRU5ErkJggg==;" parent="um_Ki8IDZ3RUpcfRVOOU-29" vertex="1">
          <mxGeometry width="76.73" height="80" as="geometry" />
        </mxCell>
        <mxCell id="tSHxOHQZL74azQnE-G1b-12" value="&lt;b&gt;External Source&lt;/b&gt;" style="text;strokeColor=none;align=center;fillColor=none;html=1;verticalAlign=middle;whiteSpace=wrap;rounded=0;labelBackgroundColor=default;" parent="um_Ki8IDZ3RUpcfRVOOU-29" vertex="1">
          <mxGeometry x="6.3700000000000045" y="80" width="60" height="30" as="geometry" />
        </mxCell>
      </root>
    </mxGraphModel>
  </diagram>
</mxfile>
